<svg width="83" height="80" viewBox="0 0 83 80" fill="none" xmlns="http://www.w3.org/2000/svg">
<path d="M27.232 15.5993C26.9791 15.8523 26.7871 16.1572 26.6267 16.4915L26.6087 16.4734L1.27644 73.5388L1.30128 73.5636C0.831498 74.4738 1.61748 76.3259 3.22785 77.9385C4.83822 79.5489 6.69025 80.3349 7.60046 79.8651L7.62304 79.8877L64.6883 54.5531L64.6702 54.5328C65.0022 54.3747 65.3071 54.1827 65.5624 53.9252C69.0903 50.3973 63.3693 38.9576 52.7878 28.3739C42.2019 17.7902 30.7622 12.0714 27.232 15.5993Z" fill="#DD2E44"/>
<path d="M30.3353 25.793L1.91336 72.1075L1.27644 73.5417L1.30128 73.5665C0.831498 74.4767 1.61748 76.3288 3.22785 77.9414C3.75184 78.4654 4.29616 78.8629 4.82918 79.1994L39.3696 37.0859L30.3353 25.793Z" fill="#EA596E"/>
<path d="M52.9483 28.1987C63.4958 38.7508 69.3523 49.9986 66.0232 53.3232C62.6963 56.6524 51.4486 50.7981 40.8942 40.2505C30.3444 29.6984 24.4902 18.4462 27.8171 15.1193C31.1462 11.7924 42.3939 17.6466 52.9483 28.1987Z" fill="#A0041E"/>
<path d="M42.9614 29.4248C42.512 29.7885 41.9248 29.9782 41.3037 29.9104C39.3432 29.6981 37.6944 29.016 36.5403 27.9387C35.3184 26.7981 34.7154 25.2668 34.8803 23.7332C35.1694 21.041 37.8706 18.5701 42.4759 19.067C44.2669 19.2589 45.0664 18.683 45.0935 18.4075C45.1252 18.1342 44.4679 17.4001 42.6769 17.2059C40.7164 16.9936 39.0677 16.3115 37.9113 15.2341C36.6894 14.0936 36.0841 12.5622 36.2512 11.0287C36.5448 8.33643 39.2438 5.86554 43.8446 6.36468C45.15 6.50471 45.8389 6.23594 46.1302 6.06203C46.3629 5.91974 46.4555 5.78423 46.4645 5.70518C46.4916 5.43189 45.8434 4.69785 44.0478 4.50361C42.8079 4.36809 41.9089 3.25687 42.0467 2.01465C42.18 0.774688 43.2889 -0.12197 44.5334 0.0135455C49.1341 0.508175 51.2482 3.49628 50.9568 6.19077C50.6632 8.88752 47.9642 11.3539 43.359 10.8593C42.0535 10.717 41.3714 10.988 41.0778 11.1619C40.8452 11.3019 40.7503 11.4397 40.7413 11.5165C40.7119 11.7921 41.3646 12.5238 43.1602 12.7181C47.7609 13.215 49.875 16.2008 49.5836 18.8953C49.2922 21.5875 46.5932 24.0584 41.9903 23.5593C40.6848 23.4192 39.9982 23.6903 39.7046 23.8619C39.4697 24.0065 39.3793 24.142 39.3703 24.2188C39.3409 24.4921 39.9937 25.2261 41.787 25.4204C43.0247 25.5559 43.9259 26.6693 43.7881 27.9093C43.7248 28.5282 43.4109 29.0634 42.9614 29.4248Z" fill="#AA8DD8"/>
<path d="M70.2252 50.3104C74.6814 49.0523 77.7553 51.0399 78.4871 53.6485C79.2189 56.2549 77.6334 59.5547 73.1795 60.8083C71.4404 61.2961 70.9186 62.1273 70.9886 62.3915C71.0654 62.658 71.9485 63.0962 73.6831 62.6061C78.137 61.3526 81.211 63.3401 81.9427 65.9465C82.679 68.5552 81.089 71.8505 76.6328 73.1062C74.896 73.5941 74.372 74.4275 74.4488 74.6918C74.5233 74.956 75.4042 75.3942 77.141 74.9063C78.3381 74.5698 79.5893 75.2677 79.9258 76.467C80.2601 77.6686 79.5622 78.9153 78.3606 79.2541C73.909 80.5076 70.8328 78.5246 70.0965 75.9137C69.3647 73.3073 70.9525 70.012 75.4109 68.7562C77.15 68.2661 77.6718 67.4372 77.595 67.1707C77.5227 66.9064 76.6419 66.466 74.9073 66.9539C70.4488 68.2096 67.3772 66.2266 66.6431 63.6134C65.9091 61.007 67.4969 57.7117 71.9531 56.4537C73.6876 55.9681 74.2094 55.1324 74.1371 54.8704C74.0603 54.6039 73.1817 54.1658 71.4449 54.6536C70.2433 54.9924 68.9988 54.2922 68.66 53.0929C68.3235 51.8959 69.0237 50.6491 70.2252 50.3104Z" fill="#77B255"/>
<path d="M52.924 44.222C52.26 44.222 51.605 43.9306 51.1578 43.375C50.3786 42.3993 50.539 40.9786 51.5102 40.1994C52.0025 39.8042 63.7471 30.5801 80.3454 32.9539C81.5809 33.1301 82.4391 34.2729 82.263 35.5083C82.0868 36.7415 80.953 37.6088 79.7063 37.4236C65.0413 35.3412 54.4395 43.6438 54.3357 43.7273C53.9156 44.0616 53.4187 44.222 52.924 44.222Z" fill="#AA8DD8"/>
<path d="M13.9704 34.8252C13.7558 34.8252 13.5367 34.7936 13.3199 34.7304C12.1251 34.3713 11.4475 33.1132 11.8067 31.9185C14.3656 23.3968 16.6852 9.79788 13.8349 6.25191C13.5164 5.84988 13.0353 5.45463 11.9331 5.53819C9.81459 5.70081 10.0156 10.1705 10.0179 10.2157C10.1127 11.4602 9.17767 12.5443 7.93545 12.6369C6.6729 12.7137 5.60686 11.7967 5.51425 10.5522C5.28162 7.43766 6.25055 1.43887 11.5943 1.03458C13.9794 0.853892 15.9602 1.68279 17.3582 3.4219C22.7133 10.087 17.2769 29.4092 16.1341 33.2171C15.8405 34.1951 14.9416 34.8252 13.9704 34.8252Z" fill="#77B255"/>
<path d="M58.5685 23.5341C60.4396 23.5341 61.9564 22.0172 61.9564 20.1462C61.9564 18.2751 60.4396 16.7583 58.5685 16.7583C56.6975 16.7583 55.1807 18.2751 55.1807 20.1462C55.1807 22.0172 56.6975 23.5341 58.5685 23.5341Z" fill="#5C913B"/>
<path d="M5.49177 43.8615C7.98652 43.8615 10.0089 41.8391 10.0089 39.3443C10.0089 36.8496 7.98652 34.8271 5.49177 34.8271C2.99701 34.8271 0.974609 36.8496 0.974609 39.3443C0.974609 41.8391 2.99701 43.8615 5.49177 43.8615Z" fill="#9266CC"/>
<path d="M74.3786 46.12C76.2497 46.12 77.7665 44.6032 77.7665 42.7321C77.7665 40.861 76.2497 39.3442 74.3786 39.3442C72.5075 39.3442 70.9907 40.861 70.9907 42.7321C70.9907 44.6032 72.5075 46.12 74.3786 46.12Z" fill="#5C913B"/>
<path d="M54.0514 73.223C55.9225 73.223 57.4393 71.7062 57.4393 69.8351C57.4393 67.9641 55.9225 66.4473 54.0514 66.4473C52.1804 66.4473 50.6636 67.9641 50.6636 69.8351C50.6636 71.7062 52.1804 73.223 54.0514 73.223Z" fill="#5C913B"/>
<path d="M64.2149 12.2414C66.7097 12.2414 68.7321 10.219 68.7321 7.7242C68.7321 5.22944 66.7097 3.20703 64.2149 3.20703C61.7202 3.20703 59.6978 5.22944 59.6978 7.7242C59.6978 10.219 61.7202 12.2414 64.2149 12.2414Z" fill="#FFCC4D"/>
<path d="M74.3786 21.2758C76.2497 21.2758 77.7665 19.7589 77.7665 17.8879C77.7665 16.0168 76.2497 14.5 74.3786 14.5C72.5075 14.5 70.9907 16.0168 70.9907 17.8879C70.9907 19.7589 72.5075 21.2758 74.3786 21.2758Z" fill="#FFCC4D"/>
<path d="M67.6027 30.3099C69.4738 30.3099 70.9906 28.7931 70.9906 26.9221C70.9906 25.051 69.4738 23.5342 67.6027 23.5342C65.7316 23.5342 64.2148 25.051 64.2148 26.9221C64.2148 28.7931 65.7316 30.3099 67.6027 30.3099Z" fill="#FFCC4D"/>
<path d="M17.9137 55.1547C19.7848 55.1547 21.3016 53.6379 21.3016 51.7668C21.3016 49.8957 19.7848 48.3789 17.9137 48.3789C16.0427 48.3789 14.5259 49.8957 14.5259 51.7668C14.5259 53.6379 16.0427 55.1547 17.9137 55.1547Z" fill="#FFCC4D"/>
</svg>
