<svg width="82" height="80" viewBox="0 0 82 80" fill="none" xmlns="http://www.w3.org/2000/svg">
<path d="M26.9273 15.5998C26.6744 15.8528 26.4824 16.1577 26.322 16.492L26.304 16.4739L0.971751 73.5393L0.996595 73.5641C0.526811 74.4743 1.3128 76.3264 2.92316 77.939C4.53353 79.5494 6.38556 80.3354 7.29577 79.8656L7.31836 79.8881L64.3836 54.5536L64.3655 54.5333C64.6975 54.3752 65.0024 54.1832 65.2577 53.9257C68.7856 50.3978 63.0646 38.9581 52.4831 28.3744C41.8972 17.7906 30.4575 12.0719 26.9273 15.5998Z" fill="#DD2E44"/>
<path d="M30.0306 25.793L1.60867 72.1075L0.971751 73.5417L0.996595 73.5665C0.526811 74.4767 1.3128 76.3288 2.92316 77.9414C3.44715 78.4654 3.99147 78.8629 4.52449 79.1994L39.0649 37.0859L30.0306 25.793Z" fill="#EA596E"/>
<path d="M52.6436 28.1987C63.1911 38.7508 69.0476 49.9986 65.7185 53.3232C62.3916 56.6524 51.1439 50.7981 40.5895 40.2505C30.0397 29.6984 24.1855 18.4462 27.5124 15.1193C30.8415 11.7924 42.0892 17.6466 52.6436 28.1987Z" fill="#A0041E"/>
<path d="M42.6568 29.4248C42.2073 29.7885 41.6201 29.9782 40.999 29.9104C39.0385 29.6981 37.3898 29.016 36.2356 27.9387C35.0137 26.7981 34.4107 25.2668 34.5756 23.7332C34.8647 21.041 37.5659 18.5701 42.1712 19.067C43.9622 19.2589 44.7618 18.683 44.7889 18.4075C44.8205 18.1342 44.1632 17.4001 42.3722 17.2059C40.4117 16.9936 38.763 16.3115 37.6066 15.2341C36.3847 14.0936 35.7794 12.5622 35.9465 11.0287C36.2401 8.33643 38.9391 5.86554 43.5399 6.36468C44.8453 6.50471 45.5342 6.23594 45.8255 6.06203C46.0582 5.91974 46.1508 5.78423 46.1598 5.70518C46.1869 5.43189 45.5387 4.69785 43.7431 4.50361C42.5032 4.36809 41.6043 3.25687 41.742 2.01465C41.8753 0.774688 42.9843 -0.12197 44.2287 0.0135455C48.8295 0.508175 50.9435 3.49628 50.6521 6.19077C50.3585 8.88752 47.6595 11.3539 43.0543 10.8593C41.7488 10.717 41.0667 10.988 40.7731 11.1619C40.5405 11.3019 40.4456 11.4397 40.4366 11.5165C40.4072 11.7921 41.0599 12.5238 42.8555 12.7181C47.4562 13.215 49.5703 16.2008 49.2789 18.8953C48.9876 21.5875 46.2886 24.0584 41.6856 23.5593C40.3801 23.4192 39.6935 23.6903 39.3999 23.8619C39.165 24.0065 39.0747 24.142 39.0656 24.2188C39.0363 24.4921 39.689 25.2261 41.4823 25.4204C42.72 25.5559 43.6212 26.6693 43.4834 27.9093C43.4202 28.5282 43.1062 29.0634 42.6568 29.4248Z" fill="#AA8DD8"/>
<path d="M69.9206 50.3104C74.3767 49.0523 77.4507 51.0399 78.1824 53.6485C78.9142 56.2549 77.3287 59.5547 72.8748 60.8083C71.1357 61.2961 70.6139 62.1273 70.684 62.3915C70.7607 62.658 71.6439 63.0962 73.3784 62.6061C77.8324 61.3526 80.9063 63.3401 81.6381 65.9465C82.3744 68.5552 80.7843 71.8505 76.3281 73.1062C74.5913 73.5941 74.0673 74.4275 74.1441 74.6918C74.2186 74.956 75.0995 75.3942 76.8363 74.9063C78.0334 74.5698 79.2846 75.2677 79.6212 76.467C79.9554 77.6686 79.2575 78.9153 78.056 79.2541C73.6043 80.5076 70.5281 78.5246 69.7918 75.9137C69.06 73.3073 70.6478 70.012 75.1063 68.7562C76.8454 68.2661 77.3671 67.4372 77.2903 67.1707C77.218 66.9064 76.3372 66.466 74.6026 66.9539C70.1442 68.2096 67.0725 66.2266 66.3385 63.6134C65.6044 61.007 67.1922 57.7117 71.6484 56.4537C73.383 55.9681 73.9047 55.1324 73.8324 54.8704C73.7556 54.6039 72.877 54.1658 71.1402 54.6536C69.9386 54.9924 68.6941 54.2922 68.3554 53.0929C68.0188 51.8959 68.719 50.6491 69.9206 50.3104Z" fill="#77B255"/>
<path d="M52.6194 44.2224C51.9553 44.2224 51.3003 43.9311 50.8531 43.3755C50.0739 42.3998 50.2343 40.9791 51.2055 40.1999C51.6979 39.8047 63.4425 30.5806 80.0407 32.9544C81.2762 33.1305 82.1345 34.2734 81.9583 35.5088C81.7821 36.742 80.6483 37.6093 79.4016 37.4241C64.7366 35.3417 54.1349 43.6442 54.031 43.7278C53.6109 44.0621 53.114 44.2224 52.6194 44.2224Z" fill="#AA8DD8"/>
<path d="M13.6657 34.8248C13.4511 34.8248 13.232 34.7931 13.0152 34.7299C11.8204 34.3708 11.1429 33.1128 11.502 31.918C14.0609 23.3963 16.3805 9.79739 13.5302 6.25142C13.2117 5.84939 12.7306 5.45414 11.6284 5.53771C9.5099 5.70032 9.71091 10.1701 9.71317 10.2152C9.80803 11.4597 8.87298 12.5438 7.63076 12.6364C6.36822 12.7132 5.30217 11.7962 5.20957 10.5518C4.97693 7.43717 5.94586 1.43838 11.2897 1.03409C13.6747 0.853404 15.6555 1.6823 17.0536 3.42141C22.4086 10.0865 16.9722 29.4087 15.8294 33.2166C15.5358 34.1946 14.6369 34.8248 13.6657 34.8248Z" fill="#77B255"/>
<path d="M58.2638 23.5345C60.1349 23.5345 61.6517 22.0177 61.6517 20.1467C61.6517 18.2756 60.1349 16.7588 58.2638 16.7588C56.3928 16.7588 54.876 18.2756 54.876 20.1467C54.876 22.0177 56.3928 23.5345 58.2638 23.5345Z" fill="#5C913B"/>
<path d="M5.18708 43.8615C7.68184 43.8615 9.70424 41.8391 9.70424 39.3443C9.70424 36.8496 7.68184 34.8271 5.18708 34.8271C2.69232 34.8271 0.669922 36.8496 0.669922 39.3443C0.669922 41.8391 2.69232 43.8615 5.18708 43.8615Z" fill="#9266CC"/>
<path d="M74.0739 46.1205C75.945 46.1205 77.4618 44.6037 77.4618 42.7326C77.4618 40.8615 75.945 39.3447 74.0739 39.3447C72.2028 39.3447 70.686 40.8615 70.686 42.7326C70.686 44.6037 72.2028 46.1205 74.0739 46.1205Z" fill="#5C913B"/>
<path d="M53.7468 73.223C55.6178 73.223 57.1346 71.7062 57.1346 69.8351C57.1346 67.9641 55.6178 66.4473 53.7468 66.4473C51.8757 66.4473 50.3589 67.9641 50.3589 69.8351C50.3589 71.7062 51.8757 73.223 53.7468 73.223Z" fill="#5C913B"/>
<path d="M63.9102 12.2414C66.405 12.2414 68.4274 10.219 68.4274 7.7242C68.4274 5.22944 66.405 3.20703 63.9102 3.20703C61.4155 3.20703 59.3931 5.22944 59.3931 7.7242C59.3931 10.219 61.4155 12.2414 63.9102 12.2414Z" fill="#FFCC4D"/>
<path d="M74.0739 21.2758C75.945 21.2758 77.4618 19.7589 77.4618 17.8879C77.4618 16.0168 75.945 14.5 74.0739 14.5C72.2028 14.5 70.686 16.0168 70.686 17.8879C70.686 19.7589 72.2028 21.2758 74.0739 21.2758Z" fill="#FFCC4D"/>
<path d="M67.298 30.3099C69.1691 30.3099 70.6859 28.7931 70.6859 26.9221C70.6859 25.051 69.1691 23.5342 67.298 23.5342C65.427 23.5342 63.9102 25.051 63.9102 26.9221C63.9102 28.7931 65.427 30.3099 67.298 30.3099Z" fill="#FFCC4D"/>
<path d="M17.6091 55.1547C19.4801 55.1547 20.9969 53.6379 20.9969 51.7668C20.9969 49.8957 19.4801 48.3789 17.6091 48.3789C15.738 48.3789 14.2212 49.8957 14.2212 51.7668C14.2212 53.6379 15.738 55.1547 17.6091 55.1547Z" fill="#FFCC4D"/>
</svg>
