<svg width="79" height="81" viewBox="0 0 79 81" fill="none" xmlns="http://www.w3.org/2000/svg">
<path d="M29.4713 6.68652C17.1629 6.68652 7.18555 16.6638 7.18555 28.9722V51.2579H16.0998V28.9722C16.0998 21.589 22.088 15.6008 29.4713 15.6008C36.8545 15.6008 42.8427 21.589 42.8427 28.9722V51.2579H51.757V28.9722C51.757 16.6638 41.7797 6.68652 29.4713 6.68652Z" fill="#AAB8C2"/>
<path d="M58.4429 71.3134C58.4429 76.2363 54.4515 80.2277 49.5286 80.2277H9.41429C4.49137 80.2277 0.5 76.2363 0.5 71.3134V44.5705C0.5 39.6476 4.49137 35.6562 9.41429 35.6562H49.5286C54.4515 35.6562 58.4429 39.6476 58.4429 44.5705V71.3134Z" fill="#FFAC33"/>
<path d="M78.5 20.0571C78.5 8.97891 69.5211 0 58.4429 0C47.3647 0 38.3857 8.97891 38.3857 20.0571C38.3857 28.7865 43.9728 36.192 51.7572 38.9487V74.6571C51.7572 77.7348 54.2509 80.2286 57.3286 80.2286C60.0319 80.2286 62.2827 78.3031 62.7886 75.7491C62.8287 75.7514 62.8599 75.7714 62.9 75.7714C64.1324 75.7714 65.1286 74.7753 65.1286 73.5429V71.3143C65.1286 70.0819 64.1324 69.0857 62.9 69.0857V66.8571C64.1324 66.8571 65.1286 65.861 65.1286 64.6286V60.1714C65.1286 58.939 64.1324 57.9429 62.9 57.9429V52.8684C64.2283 52.0951 65.1286 50.6755 65.1286 49.0286V38.9487C72.913 36.1942 78.5 28.7887 78.5 20.0571ZM58.4429 4.45714C60.9032 4.45714 62.9 6.45394 62.9 8.91429C62.9 11.3746 60.9032 13.3714 58.4429 13.3714C55.9825 13.3714 53.9857 11.3746 53.9857 8.91429C53.9857 6.45394 55.9825 4.45714 58.4429 4.45714Z" fill="#C1694F"/>
</svg>
