<svg width="79" height="81" viewBox="0 0 79 81" fill="none" xmlns="http://www.w3.org/2000/svg">
<path d="M29.1666 6.68652C16.8582 6.68652 6.88086 16.6638 6.88086 28.9722V51.2579H15.7951V28.9722C15.7951 21.589 21.7833 15.6008 29.1666 15.6008C36.5498 15.6008 42.538 21.589 42.538 28.9722V51.2579H51.4523V28.9722C51.4523 16.6638 41.475 6.68652 29.1666 6.68652Z" fill="#AAB8C2"/>
<path d="M58.1382 71.3134C58.1382 76.2363 54.1468 80.2277 49.2239 80.2277H9.1096C4.18668 80.2277 0.195312 76.2363 0.195312 71.3134V44.5705C0.195312 39.6476 4.18668 35.6562 9.1096 35.6562H49.2239C54.1468 35.6562 58.1382 39.6476 58.1382 44.5705V71.3134Z" fill="#FFAC33"/>
<path d="M78.1953 20.0571C78.1953 8.97891 69.2164 0 58.1382 0C47.06 0 38.0811 8.97891 38.0811 20.0571C38.0811 28.7865 43.6681 36.192 51.4525 38.9487V74.6571C51.4525 77.7348 53.9463 80.2286 57.0239 80.2286C59.7272 80.2286 61.978 78.3031 62.4839 75.7491C62.524 75.7514 62.5552 75.7714 62.5953 75.7714C63.8277 75.7714 64.8239 74.7753 64.8239 73.5429V71.3143C64.8239 70.0819 63.8277 69.0857 62.5953 69.0857V66.8571C63.8277 66.8571 64.8239 65.861 64.8239 64.6286V60.1714C64.8239 58.939 63.8277 57.9429 62.5953 57.9429V52.8684C63.9236 52.0951 64.8239 50.6755 64.8239 49.0286V38.9487C72.6083 36.1942 78.1953 28.7887 78.1953 20.0571ZM58.1382 4.45714C60.5985 4.45714 62.5953 6.45394 62.5953 8.91429C62.5953 11.3746 60.5985 13.3714 58.1382 13.3714C55.6779 13.3714 53.6811 11.3746 53.6811 8.91429C53.6811 6.45394 55.6779 4.45714 58.1382 4.45714Z" fill="#C1694F"/>
</svg>
