<svg width="162" height="86" viewBox="0 0 162 86" fill="none" xmlns="http://www.w3.org/2000/svg">
<path d="M6.92411 25.6444C7.15534 25.6639 7.35555 25.7264 7.52473 25.832C7.69391 25.9376 7.8721 26.0988 8.05931 26.3155C8.15441 26.4331 8.2435 26.5137 8.32659 26.5572C8.40968 26.6008 8.56534 26.623 8.79357 26.624C10.3106 26.72 11.6691 27.4785 12.8689 28.8994C14.0872 30.3173 14.8676 32.0818 15.2101 34.1929C15.4474 35.6559 15.4352 37.0453 15.1735 38.3612C14.9118 39.6771 14.4194 40.8593 13.6962 41.9079C13.2307 42.5536 12.735 43.0712 12.209 43.4606C11.6614 43.8345 11.0666 44.0925 10.4245 44.2347C10.3319 44.2497 10.2485 44.2633 10.1744 44.2753C10.0448 44.2963 9.90442 44.3096 9.75327 44.3151C9.54656 44.3296 9.36612 44.3304 9.21196 44.3174C8.77101 44.2939 8.36584 44.198 7.99645 44.0299C7.63007 43.8803 7.23315 43.6596 6.8057 43.3678C5.9633 42.7442 5.29282 41.9502 4.79426 40.9857C4.31422 40.0182 3.95403 38.7938 3.7137 37.3123C3.7107 37.2937 3.7077 37.2752 3.70469 37.2567C3.47638 35.8493 3.40824 34.4919 3.50026 33.1845C3.59529 31.8957 3.86174 30.5506 4.29961 29.1491C4.48427 28.53 4.72298 27.8926 5.01574 27.2369C5.3085 26.5812 5.52771 26.175 5.67335 26.0183C5.77244 25.9262 5.89306 25.8496 6.0352 25.7886C6.17735 25.7275 6.32249 25.685 6.47064 25.6609C6.54472 25.6489 6.61879 25.6369 6.69287 25.6249C6.76995 25.6314 6.84703 25.6379 6.92411 25.6444ZM7.39582 29.9583C7.24418 30.0779 7.08329 30.5506 6.91316 31.3765C6.74002 32.1838 6.63171 32.9807 6.5882 33.767C6.5312 34.8215 6.57931 35.8211 6.73252 36.7655C6.80461 37.21 6.90299 37.6407 7.02764 38.0576C7.39208 39.3669 7.90316 40.2913 8.56086 40.8308C8.86518 41.0666 9.1715 41.1974 9.47982 41.2234C9.5569 41.2299 9.64174 41.2257 9.73433 41.2107C9.93804 41.1776 10.1513 41.086 10.374 40.9358C10.8534 40.611 11.2598 40.0699 11.5931 39.3126C11.9294 38.5738 12.1444 37.7312 12.2379 36.7847C12.2864 36.2637 12.2779 35.7424 12.2123 35.2209C12.2068 35.0697 12.1935 34.9293 12.1725 34.7997C12.1094 34.4108 12.0185 34.0264 11.8999 33.6466C11.614 32.7046 11.2136 31.8763 10.6985 31.1616C10.1649 30.4499 9.58857 30.0017 8.96943 29.817C8.81226 29.7855 8.63809 29.7663 8.44689 29.7593C8.25569 29.7523 8.07676 29.7623 7.91009 29.7893C7.91009 29.7893 7.90083 29.7908 7.88231 29.7938C7.78972 29.8088 7.69863 29.8331 7.60904 29.8667C7.51945 29.9002 7.44838 29.9307 7.39582 29.9583ZM27.6462 41.6121C27.489 41.5806 27.3136 41.495 27.1199 41.3554C26.9477 41.2312 26.8033 41.1026 26.6867 40.9695C26.6346 40.8829 26.5675 40.7037 26.4854 40.432C26.4033 40.1602 26.308 39.748 26.1993 39.1955C26.0271 38.3681 25.8999 37.8186 25.8178 37.5468C25.7543 37.272 25.6947 37.1391 25.6391 37.1481C25.6206 37.1511 25.5863 37.2327 25.5363 37.3929C25.4647 37.5375 25.3977 37.71 25.3351 37.9102C25.148 38.3967 24.9533 38.8369 24.7511 39.2308C24.5304 39.6277 24.2696 40.0121 23.9689 40.384C23.547 40.9466 23.0825 41.3641 22.5755 41.6364C22.05 41.9117 21.5174 42.0266 20.9779 41.9811C19.6305 41.8766 18.4965 40.9201 17.576 39.1118C16.6399 37.3251 15.8209 34.5025 15.119 30.6441C14.9984 30.0174 14.899 29.4634 14.8209 28.9819C14.8119 28.9263 14.8043 28.88 14.7983 28.843C14.7142 28.3245 14.6754 28.0266 14.6819 27.9496C14.6949 27.7954 14.7775 27.6015 14.9296 27.3677C15.0818 27.134 15.2367 26.9758 15.3943 26.8932C15.5645 26.7706 15.7622 26.7005 15.9874 26.683C16.2097 26.6469 16.4209 26.6602 16.6211 26.7227C17.04 26.8448 17.3198 27.0465 17.4605 27.3278C17.6041 27.6276 17.7906 28.3671 18.0199 29.5463C18.3759 31.3891 18.7041 32.8849 19.0044 34.0336C19.3018 35.1637 19.646 36.1722 20.0369 37.0591C20.2231 37.504 20.4188 37.8904 20.6241 38.2183C20.8263 38.5276 20.989 38.7102 21.1121 38.7663C21.2137 38.8068 21.3373 38.7488 21.483 38.5921C21.6471 38.4324 21.8148 38.1772 21.9859 37.8263C22.58 36.6846 23.0093 35.1134 23.274 33.1129C23.5171 31.0968 23.6101 28.5064 23.5529 25.3417C23.5253 24.5859 23.5305 24.0909 23.5685 23.8566C23.6096 23.6409 23.7169 23.4239 23.8906 23.2057C24.0332 23.0305 24.2019 22.8986 24.3966 22.81C24.5202 22.752 24.6468 22.7124 24.7765 22.6914C24.8876 22.6734 24.9894 22.6568 25.082 22.6418C25.2917 22.6458 25.4782 22.6821 25.6414 22.7507C25.8075 22.8377 26.0012 22.9774 26.2225 23.1695C26.287 23.2161 26.3869 23.3044 26.522 23.4346C26.7779 24.8945 27.1524 27.086 27.6456 30.009C27.9675 31.8764 28.2669 33.6049 28.5438 35.1945C28.8391 36.7811 29.0352 37.8136 29.1318 38.2921C29.268 38.8972 29.3616 39.3572 29.4126 39.672C29.4397 39.8387 29.4607 39.9683 29.4757 40.0609C29.4868 40.3632 29.4255 40.6297 29.2918 40.8605C29.1457 41.1313 28.9135 41.34 28.5952 41.4867C28.4345 41.5507 28.2893 41.5933 28.1597 41.6143C27.9745 41.6444 27.8034 41.6436 27.6462 41.6121ZM34.9884 21.3199C35.5269 21.5937 36.0204 21.9413 36.4689 22.3627C36.9019 22.8056 37.256 23.2898 37.5313 23.8153C37.6905 24.0936 37.7959 24.3331 37.8475 24.5338C37.899 24.7345 37.9746 25.0834 38.0742 25.5804C38.1403 25.9878 38.1759 26.3241 38.1809 26.5894C38.2044 26.8517 38.208 27.1077 38.1915 27.3574C38.1074 28.2453 37.8998 29.1913 37.5685 30.1954C37.2187 31.2024 36.7718 32.1967 36.2278 33.1782C36.1222 33.3474 36.0336 33.5043 35.962 33.649C35.8905 33.7936 35.8547 33.866 35.8547 33.866C35.8577 33.8845 36.0852 34.0567 36.5371 34.3825C36.9676 34.6928 37.4949 35.0729 38.1191 35.5228C39.2598 36.3451 39.9761 36.8941 40.2679 37.1699C40.5812 37.4611 40.7604 37.7457 40.8055 38.0235C40.8535 38.3198 40.8075 38.6218 40.6674 38.9296C40.5272 39.2375 40.3351 39.4587 40.0908 39.5934C39.9362 39.6945 39.7184 39.7583 39.4377 39.7848C39.1754 39.8084 38.9642 39.7951 38.804 39.7451C38.7239 39.7201 38.4486 39.5461 37.9781 39.2233C37.4891 38.9035 36.9433 38.5264 36.3406 38.092C35.741 37.6761 35.2167 37.3145 34.7677 37.0072C34.3188 36.7 34.0757 36.5493 34.0387 36.5553C34.0017 36.5613 33.9599 36.5966 33.9133 36.6612C33.8483 36.7288 33.794 36.8041 33.7504 36.8872C33.6448 37.0564 33.6101 37.2521 33.6461 37.4743C33.6666 37.718 33.8131 38.445 34.0854 39.6552C34.2546 40.4641 34.3558 40.9703 34.3888 41.174C34.4003 41.3622 34.3841 41.5549 34.34 41.7521C34.2555 42.0509 34.1234 42.2909 33.9437 42.4721C33.7455 42.6563 33.489 42.774 33.1742 42.825C33.1216 42.8526 33.0676 42.8708 33.012 42.8799C32.9009 42.8979 32.7975 42.9051 32.7019 42.9016C32.5878 42.9012 32.4692 42.8729 32.3461 42.8168C32.1273 42.7573 31.9259 42.6284 31.7417 42.4302C31.579 42.2475 31.4611 42.0481 31.388 41.8319C31.3485 41.7052 31.2924 41.4768 31.2198 41.1464C31.1502 40.8346 31.0686 40.4487 30.975 39.9888C30.7753 39.1089 30.5547 38.0423 30.3134 36.789C30.0691 35.5172 29.8188 34.2084 29.5624 32.8625C29.3421 31.7389 29.1341 30.6323 28.9384 29.5427C28.7426 28.4531 28.5726 27.4638 28.4284 26.5749C28.3348 26.1149 28.2099 25.4035 28.0537 24.4405C27.9551 24.4185 27.8009 24.4055 27.5912 24.4015C27.3014 24.3725 27.0642 24.3159 26.8795 24.2318C26.7133 24.1448 26.5489 24.0099 26.3862 23.8272C26.2175 23.6075 26.1136 23.3773 26.0746 23.1365C26.0475 22.9699 26.0483 22.7987 26.0768 22.623C26.1373 22.176 26.3563 21.8269 26.7337 21.5756C26.8203 21.5236 27.0072 21.4457 27.2945 21.3421C27.6003 21.2355 27.9446 21.1321 28.3275 21.032C28.5623 20.9559 28.8 20.8983 29.0407 20.8593C29.26 20.8047 29.4899 20.7579 29.7307 20.7188C29.7492 20.7158 29.7677 20.7128 29.7862 20.7098C30.7677 20.5506 31.6839 20.516 32.5348 20.6061C33.4072 20.7116 34.225 20.9496 34.9884 21.3199ZM31.6785 27.1025C31.994 29.047 32.2453 30.4792 32.4325 31.3991C32.6168 32.3005 32.7459 32.7452 32.82 32.7332C32.8385 32.7302 32.9021 32.6534 33.0107 32.5027C33.1008 32.3551 33.2049 32.1766 33.323 31.9674C33.8294 31.106 34.2278 30.2811 34.5181 29.4928C34.8083 28.7045 34.9842 27.9727 35.0457 27.2975C35.0938 26.8906 35.0892 26.5112 35.0322 26.1594C34.9931 25.9186 34.9355 25.6809 34.8594 25.4462C34.6427 24.9301 34.3006 24.52 33.8331 24.2157C33.5378 24.0355 33.1236 23.8842 32.5905 23.7616C32.0605 23.6575 31.638 23.631 31.3232 23.682C31.2862 23.6881 31.2214 23.6986 31.1288 23.7136C31.2489 24.4543 31.4322 25.584 31.6785 27.1025ZM47.4005 16.1134C49.9186 15.819 52.0703 16.0781 53.8557 16.8909C55.6441 17.7221 56.9845 19.0727 57.877 20.9425C58.1003 21.3815 58.2905 21.9683 58.4477 22.7031C58.5053 22.9408 58.5521 23.1708 58.5881 23.393C58.6602 23.8375 58.6955 24.2309 58.694 24.5732C58.6896 25.6003 58.5077 26.6466 58.1484 27.7122C57.7891 28.7778 57.2729 29.7549 56.5997 30.6433C56.1808 31.2244 55.6541 31.785 55.0195 32.3251C54.3878 32.8837 53.7722 33.3067 53.1726 33.594C53.049 33.6521 52.9254 33.7101 52.8018 33.7682C52.6997 33.8418 52.6331 33.9001 52.6021 33.9431C52.571 33.9862 52.5796 34.1559 52.6276 34.4522C52.6757 34.7485 52.7963 35.3751 52.9896 36.3321C53.2464 37.5638 53.3834 38.3494 53.4004 38.6887C53.4329 39.0065 53.3639 39.2838 53.1932 39.5206C53.0441 39.7728 52.8459 39.957 52.5986 40.0732C52.4595 40.1528 52.3159 40.2046 52.1677 40.2286C52.0381 40.2496 51.9147 40.2506 51.7976 40.2316C51.702 40.2281 51.5849 40.2091 51.4462 40.1746C51.3261 40.1371 51.2245 40.0965 51.1414 40.053C50.8706 39.9068 50.6742 39.6916 50.552 39.4073C50.4269 39.1045 50.2419 38.3743 49.9971 37.2166C49.8369 36.4634 49.6601 35.6083 49.4669 34.6513C49.2767 33.7128 49.0789 32.7281 48.8736 31.697C48.5056 29.7801 48.1422 27.8909 47.7832 26.0296C47.4428 24.1652 47.1899 22.7237 47.0247 21.7052C46.9316 21.1311 46.8412 20.6326 46.7536 20.2097C46.6845 19.7837 46.6377 19.5537 46.6132 19.5197C46.5886 19.4857 46.5241 19.4391 46.4194 19.3801C46.3178 19.3395 46.207 19.3005 46.0869 19.263C45.5353 19.1434 45.1774 18.8118 45.0132 18.2683C44.9797 18.1787 44.9646 18.0861 44.9681 17.9905C44.899 17.5645 45.0149 17.1656 45.3157 16.7937C45.4428 16.6401 45.5852 16.5219 45.7428 16.4393C45.882 16.3598 46.1367 16.2899 46.5071 16.2298C46.5071 16.2298 46.5164 16.2283 46.5349 16.2253C46.646 16.2073 46.7664 16.1878 46.896 16.1668C47.0472 16.1612 47.2153 16.1435 47.4005 16.1134ZM49.8024 19.1449C49.7498 19.1724 49.7401 19.288 49.7731 19.4918C49.7852 19.5658 49.8017 19.6677 49.8227 19.7973C49.8648 20.0566 49.9248 20.427 50.0029 20.9084C50.0966 21.3684 50.2428 22.1525 50.4415 23.2606C50.6588 24.3657 50.8653 25.4631 51.0611 26.5527C51.2784 27.6578 51.4609 28.607 51.6086 29.4003C51.7562 30.1936 51.8409 30.598 51.8624 30.6135C51.8869 30.6476 51.9362 30.6586 52.0103 30.6465C52.0288 30.6435 52.0551 30.6298 52.0891 30.6053C52.1972 30.5687 52.3534 30.4769 52.5576 30.3297C52.8979 30.0844 53.206 29.8159 53.4817 29.5241C53.7575 29.2323 54.0258 28.8941 54.2865 28.5097C55.2859 27.0552 55.695 25.5349 55.5138 23.9488C55.5142 23.8346 55.5055 23.722 55.4875 23.6109C55.2561 22.185 54.5594 21.0531 53.3971 20.2153C53.2465 20.1067 53.045 19.9778 52.7927 19.8287C52.5435 19.6981 52.3187 19.6015 52.1185 19.5389C51.7952 19.4203 51.3793 19.3167 50.8707 19.2282C50.3807 19.1366 50.0524 19.1043 49.8857 19.1314C49.8672 19.1344 49.858 19.1359 49.858 19.1359C49.858 19.1359 49.8487 19.1374 49.8302 19.1404C49.8302 19.1404 49.8209 19.1419 49.8024 19.1449ZM65.9888 16.2911C66.5274 16.5648 67.0209 16.9124 67.4694 17.3338C67.9024 17.7768 68.2565 18.261 68.5318 18.7865C68.691 19.0648 68.7964 19.3043 68.8479 19.505C68.8995 19.7057 68.9751 20.0545 69.0747 20.5515C69.1408 20.959 69.1763 21.2953 69.1814 21.5606C69.2049 21.8228 69.2084 22.0788 69.1919 22.3286C69.1079 23.2165 68.9002 24.1625 68.5689 25.1665C68.2191 26.1736 67.7722 27.1679 67.2282 28.1494C67.1226 28.3186 67.034 28.4755 66.9625 28.6202C66.8909 28.7648 66.8551 28.8371 66.8551 28.8371C66.8581 28.8557 67.0856 29.0278 67.5376 29.3536C67.9681 29.6639 68.4954 30.044 69.1195 30.494C70.2603 31.3162 70.9765 31.8653 71.2683 32.141C71.5817 32.4323 71.7609 32.7168 71.8059 32.9946C71.854 33.2909 71.808 33.593 71.6678 33.9008C71.5277 34.2086 71.3355 34.4299 71.0913 34.5645C70.9366 34.6656 70.7189 34.7295 70.4381 34.756C70.1759 34.7795 69.9646 34.7663 69.8045 34.7162C69.7244 34.6912 69.4491 34.5173 68.9786 34.1945C68.4896 33.8747 67.9437 33.4976 67.3411 33.0632C66.7415 32.6473 66.2172 32.2857 65.7682 31.9784C65.3192 31.6711 65.0762 31.5205 65.0392 31.5265C65.0021 31.5325 64.9603 31.5678 64.9138 31.6324C64.8487 31.6999 64.7944 31.7753 64.7509 31.8583C64.6453 32.0275 64.6105 32.2232 64.6466 32.4455C64.6671 32.6892 64.8135 33.4162 65.0859 34.6264C65.2551 35.4352 65.3562 35.9415 65.3893 36.1452C65.4008 36.3334 65.3845 36.5261 65.3405 36.7233C65.2559 37.0221 65.1238 37.2621 64.9441 37.4433C64.746 37.6275 64.4894 37.7451 64.1746 37.7962C64.1221 37.8237 64.068 37.842 64.0125 37.851C63.9013 37.869 63.798 37.8763 63.7024 37.8728C63.5883 37.8723 63.4697 37.844 63.3465 37.788C63.1278 37.7284 62.9263 37.5996 62.7421 37.4014C62.5795 37.2187 62.4616 37.0193 62.3885 36.803C62.3489 36.6764 62.2929 36.4479 62.2203 36.1176C62.1507 35.8058 62.0691 35.4199 61.9755 34.9599C61.7757 34.08 61.5552 33.0135 61.3139 31.7602C61.0695 30.4884 60.8192 29.1796 60.5629 27.8337C60.3426 26.7101 60.1346 25.6034 59.9388 24.5138C59.7431 23.4242 59.5731 22.435 59.4289 21.5461C59.3353 21.0861 59.2103 20.3746 59.0541 19.4117C58.9555 19.3896 58.8014 19.3766 58.5917 19.3727C58.3019 19.3436 58.0646 19.2871 57.8799 19.203C57.7137 19.1159 57.5493 18.9811 57.3866 18.7984C57.218 18.5787 57.1141 18.3484 57.075 18.1077C57.048 17.941 57.0487 17.7698 57.0773 17.5942C57.1378 17.1472 57.3568 16.7981 57.7341 16.5468C57.8207 16.4947 58.0076 16.4169 58.2949 16.3133C58.6007 16.2067 58.9451 16.1033 59.328 16.0032C59.5627 15.9271 59.8005 15.8695 60.0412 15.8304C60.2604 15.7759 60.4904 15.7291 60.7311 15.69C60.7497 15.687 60.7682 15.684 60.7867 15.681C61.7682 15.5218 62.6844 15.4872 63.5353 15.5772C64.4077 15.6828 65.2255 15.9208 65.9888 16.2911ZM62.679 22.0737C62.9944 24.0182 63.2458 25.4504 63.433 26.3703C63.6172 27.2717 63.7464 27.7164 63.8205 27.7044C63.839 27.7014 63.9025 27.6246 64.0111 27.4739C64.1012 27.3262 64.2053 27.1478 64.3234 26.9386C64.8299 26.0772 65.2283 25.2523 65.5185 24.464C65.8088 23.6757 65.9847 22.9439 66.0462 22.2687C66.0942 21.8618 66.0897 21.4824 66.0326 21.1305C65.9936 20.8898 65.936 20.6521 65.8599 20.4173C65.6432 19.9013 65.301 19.4912 64.8335 19.1869C64.5382 19.0067 64.124 18.8553 63.591 18.7327C63.0609 18.6286 62.6385 18.6021 62.3237 18.6532C62.2867 18.6592 62.2218 18.6697 62.1292 18.6848C62.2494 19.4255 62.4327 20.5552 62.679 22.0737ZM77.9209 19.3731C78.7743 19.5958 79.5129 19.9891 80.1365 20.5532C80.7602 21.1172 81.249 21.8457 81.6029 22.7386C81.8412 23.2701 81.9979 23.7674 82.073 24.2303C82.1481 24.6933 82.1626 25.2516 82.1166 25.9053C82.0731 26.6916 81.9468 27.3773 81.7376 27.9624C81.5439 28.526 81.2284 29.0999 80.7909 29.684C80.1954 30.4648 79.4434 31.043 78.535 31.4184C78.1611 31.5741 77.7967 31.6712 77.4419 31.7098C76.9234 31.7939 76.4083 31.7824 75.8968 31.6753C75.1665 31.5087 74.5003 31.1511 73.8982 30.6026C73.296 30.054 72.827 29.3889 72.4911 28.6071C72.2684 28.054 72.1087 27.5383 72.0121 27.0598C72.0091 27.0413 72.0076 27.032 72.0076 27.032C71.9295 26.5505 71.9026 25.9752 71.9271 25.306C71.9516 24.6368 72.0159 24.0372 72.12 23.5071C72.2211 22.9586 72.3917 22.3702 72.6319 21.7421C73.0373 20.726 73.4119 20.0475 73.7557 19.7067C73.9849 19.4794 74.2569 19.3403 74.5718 19.2892C74.7384 19.2622 74.9174 19.2521 75.1086 19.2591C75.2072 19.2812 75.3783 19.2819 75.6221 19.2614C75.8503 19.2623 76.0878 19.2618 76.3346 19.2598C76.5413 19.2453 76.711 19.2368 76.8436 19.2343C76.9732 19.2132 77.0966 19.2122 77.2137 19.2312C77.3278 19.2317 77.4342 19.243 77.5328 19.265C77.6499 19.284 77.7793 19.3201 77.9209 19.3731ZM75.8212 22.4221C75.6791 22.4832 75.5407 22.7432 75.4061 23.2022C75.2715 23.6611 75.1629 24.1634 75.0803 24.709C75.0513 24.9988 75.0316 25.2871 75.0211 25.5739C75.0076 25.8421 75.0173 26.0781 75.0504 26.2818C75.0624 26.3559 75.0729 26.4207 75.0819 26.4763C75.2171 27.3096 75.5167 27.9262 75.9807 28.3261C76.3281 28.5929 76.6869 28.6962 77.0573 28.6361C77.2425 28.6061 77.4309 28.5375 77.6226 28.4304C78.1081 28.1426 78.488 27.6723 78.7622 27.0196C79.0335 26.3484 79.1228 25.6687 79.0301 24.9805C79.0241 24.9435 79.0181 24.9065 79.0121 24.8694C78.922 24.3139 78.736 23.8118 78.4542 23.3634C78.1294 22.8839 77.776 22.5801 77.3941 22.452C77.314 22.427 77.2247 22.4035 77.126 22.3815C77.0274 22.3595 76.9211 22.3482 76.807 22.3477C76.5943 22.3252 76.3953 22.329 76.2101 22.359C76.133 22.3525 76.0667 22.3538 76.0112 22.3628C75.9186 22.3778 75.8552 22.3976 75.8212 22.4221ZM105.271 31.5573C104.904 31.4077 104.649 31.183 104.506 30.8832C104.362 30.5834 104.256 30.0493 104.189 29.2811C104.053 27.7445 103.882 26.2803 103.676 24.8883C103.453 23.518 103.235 22.4036 103.019 21.5452C102.889 21.0913 102.773 20.7299 102.672 20.4611C102.553 20.1954 102.446 20.0607 102.35 20.0572C102.156 20.0317 101.8 20.593 101.283 21.7413C100.748 22.8925 100.255 24.1888 99.8047 25.6303C99.3293 27.1519 98.9379 28.1372 98.6306 28.5862C98.3264 29.0536 97.8749 29.3169 97.2763 29.376C96.8629 29.4051 96.4963 29.3125 96.1764 29.0983C95.8536 28.8656 95.5898 28.5283 95.385 28.0863C95.1773 27.6259 94.9768 26.9171 94.7836 25.9602C94.5903 25.0032 94.3092 23.3288 93.9402 20.9368C93.7694 19.7671 93.5982 18.7116 93.4265 17.7701C93.2548 16.8287 93.0961 16.0847 92.9504 15.5381C92.8688 15.1522 92.8097 14.9052 92.7732 14.7971C92.7181 14.692 92.6658 14.6625 92.6162 14.7085C92.5697 14.7731 92.4406 15.3832 92.2289 16.5389C92.0173 17.6946 91.7749 19.1879 91.5017 21.0188C91.2705 22.4057 91.0679 23.617 90.8938 24.6525C90.7196 25.6881 90.5508 26.5803 90.3871 27.3291C90.0974 28.7065 89.8109 29.6938 89.5277 30.2909C89.2629 30.885 88.9264 31.3292 88.518 31.6236C88.2952 31.7737 88.0558 31.8791 87.7995 31.9397C87.5587 31.9787 87.3012 31.973 87.027 31.9225C86.2597 31.7618 85.5794 31.0834 84.9863 29.8872C84.3931 28.691 83.7005 26.5892 82.9085 23.5816C82.7719 23.0906 82.6064 22.4808 82.4122 21.752C82.2149 21.0048 82.0435 20.3579 81.8978 19.8113C81.652 18.8819 81.499 18.232 81.439 17.8616C81.427 17.7875 81.4164 17.7227 81.4074 17.6672C81.3749 17.3493 81.4517 17.0613 81.6379 16.803C81.7745 16.5908 81.9371 16.4219 82.1258 16.2962C82.299 16.1921 82.526 16.1268 82.8068 16.1002C83.2017 16.0742 83.539 16.162 83.8188 16.3637C84.0986 16.5654 84.2993 16.8654 84.421 17.2638C84.4575 17.3719 84.5699 17.7718 84.7581 18.4635C84.9464 19.1552 85.1481 19.9303 85.3634 20.7886C85.9857 23.1015 86.4289 24.7211 86.6933 25.6475C86.9761 26.571 87.1546 27.0267 87.2286 27.0147C87.2872 27.0242 87.3875 26.6468 87.5296 25.8825C87.6717 25.1182 87.9062 23.6927 88.2329 21.6061C88.6071 19.2266 88.8983 17.5068 89.1065 16.4467C89.2931 15.3711 89.4743 14.496 89.6499 13.8213C89.8916 12.8508 90.1478 12.087 90.4186 11.5299C90.6708 10.9758 90.9811 10.5454 91.3494 10.2385C91.5351 10.0944 91.6805 9.99475 91.7856 9.93969C91.8937 9.90314 92.0496 9.86835 92.2534 9.83531C92.2719 9.8323 92.2904 9.8293 92.3089 9.82629C93.4601 9.65856 94.367 10.3287 95.0298 11.8367C95.7111 13.3417 96.3559 16.145 96.9642 20.2467C97.1235 21.2282 97.2286 21.8764 97.2797 22.1912C97.3493 22.503 97.4026 22.6559 97.4396 22.6499C97.4581 22.6469 97.5172 22.5423 97.6168 22.3361C97.7164 22.1298 97.8192 21.8851 97.9253 21.6018C98.3682 20.4656 98.8504 19.5131 99.3719 18.7443C99.8934 17.9755 100.431 17.4226 100.984 17.0858C101.226 16.9326 101.419 16.8347 101.564 16.7922C101.709 16.7496 101.95 16.7106 102.286 16.675C102.626 16.658 102.863 16.6575 102.999 16.6735C103.134 16.6895 103.305 16.7473 103.512 16.8469C104.146 17.1241 104.672 17.6183 105.092 18.3296C105.533 19.0563 105.912 20.1636 106.23 21.6516C106.363 22.2382 106.488 22.8926 106.605 23.6149C106.647 23.8741 106.691 24.1427 106.736 24.4204C106.885 25.4605 107.033 26.6625 107.178 28.0264C107.297 28.9954 107.361 29.6217 107.369 29.9055C107.395 30.1863 107.384 30.4068 107.334 30.567C107.256 30.7887 107.169 30.9549 107.072 31.0655C106.979 31.1946 106.838 31.322 106.65 31.4476C106.492 31.5302 106.321 31.5866 106.135 31.6166C106.08 31.6256 106.034 31.6331 105.997 31.6391C105.734 31.6627 105.492 31.6354 105.271 31.5573ZM109.057 28.0067C108.746 27.8481 108.534 27.6544 108.421 27.4257C108.307 27.197 108.189 26.703 108.066 25.9437C108.015 25.6289 107.951 25.2307 107.872 24.7492C107.815 24.5115 107.765 24.263 107.723 24.0037C107.678 23.7259 107.641 23.4374 107.611 23.1381C107.443 22.101 107.267 21.0177 107.084 19.888C106.922 18.7739 106.79 17.902 106.688 17.2724C106.646 16.899 106.593 16.4515 106.527 15.93C106.465 15.427 106.408 14.904 106.358 14.3609C106.233 13.3549 106.135 12.4014 106.065 11.5005C105.98 10.6211 105.945 10.1136 105.961 9.97796C105.981 9.6326 106.161 9.33729 106.501 9.09202C106.718 8.90482 106.956 8.79019 107.215 8.74813C107.308 8.73311 107.411 8.72585 107.525 8.72634C107.775 8.74284 108.015 8.81791 108.246 8.95153C108.458 9.08816 108.62 9.26158 108.73 9.47179C108.831 9.62644 108.91 9.8797 108.967 10.2316C109.027 10.6019 109.136 11.5061 109.293 12.9441C109.445 14.2309 109.595 15.4514 109.744 16.6055C109.894 17.7597 110.085 19.059 110.32 20.5035C110.427 21.2843 110.555 22.1284 110.702 23.0358C110.852 23.9618 111.027 24.9788 111.225 26.0869C111.288 26.4758 111.284 26.7996 111.212 27.0584C111.124 27.3387 110.974 27.5817 110.76 27.7874C110.559 27.9531 110.312 28.0692 110.018 28.1358C110 28.1388 109.972 28.1433 109.935 28.1493C109.617 28.1819 109.324 28.1344 109.057 28.0067ZM118.769 27.6C118.291 27.5826 117.855 27.5298 117.461 27.4417C117.069 27.3722 116.797 27.2738 116.643 27.1467C116.299 26.8985 116.086 26.5814 116.004 26.1955C115.938 25.7881 116.02 25.4137 116.249 25.0723C116.467 24.771 116.691 24.5731 116.923 24.4785C117.176 24.3994 117.573 24.3826 118.112 24.4281C118.766 24.4741 119.275 24.4485 119.639 24.3514C120.022 24.2513 120.359 24.0446 120.65 23.7312C120.83 23.55 120.928 23.3916 120.944 23.256C120.978 23.1173 120.937 22.9815 120.821 22.8483C120.646 22.5916 120.317 22.3789 119.834 22.2102C119.331 22.0446 118.563 21.8747 117.527 21.7006C115.924 21.4284 114.669 21.0713 113.761 20.6294C112.869 20.166 112.128 19.5259 111.54 18.7091C111.043 17.9914 110.723 17.1881 110.578 16.2992C110.56 16.1881 110.544 16.0862 110.529 15.9936C110.422 14.9846 110.547 13.938 110.903 12.8539C111.282 11.6712 111.917 10.5512 112.81 9.49409C113.684 8.43996 114.658 7.64535 115.73 7.11024C116.435 6.76785 117.139 6.53958 117.843 6.42542C117.862 6.42242 117.88 6.41942 117.899 6.41641C118.621 6.29925 119.401 6.30572 120.24 6.4358C120.727 6.50885 121.096 6.61995 121.348 6.76908C121.619 6.91522 121.814 7.12117 121.933 7.38694C122.022 7.58163 122.077 7.74379 122.098 7.87342C122.101 7.89194 122.104 7.91046 122.107 7.92898C122.109 8.06162 122.073 8.24806 121.998 8.48831C121.863 8.94729 121.628 9.25161 121.291 9.40128C120.957 9.56947 120.488 9.60754 119.884 9.51548C119.397 9.44243 118.967 9.42668 118.593 9.46825C118.217 9.49129 117.851 9.57915 117.496 9.73183C116.961 9.95158 116.452 10.2717 115.969 10.6921C115.486 11.1126 115.046 11.6211 114.649 12.2178C114.252 12.8144 113.961 13.4223 113.776 14.0414C113.61 14.6576 113.57 15.2342 113.657 15.7712C113.726 16.1972 113.839 16.54 113.995 16.7998C114.148 17.041 114.408 17.2935 114.774 17.5572C115.161 17.8365 115.555 18.0387 115.956 18.1638C116.337 18.2919 117.037 18.4445 118.054 18.6216C118.935 18.7828 119.644 18.9339 120.18 19.075C120.716 19.2161 121.181 19.3878 121.575 19.5899C122.36 19.9758 122.973 20.475 123.415 21.0876C123.859 21.7188 124.081 22.3859 124.081 23.0891C124.073 24.3259 123.533 25.3923 122.462 26.2883C121.676 26.948 120.801 27.3559 119.838 27.5122C119.505 27.5662 119.149 27.5955 118.769 27.6ZM127.748 25.83C127.183 25.7504 126.683 25.537 126.247 25.1897C125.813 24.8609 125.434 24.3997 125.11 23.8061C124.819 23.3021 124.607 22.8138 124.473 22.3414C124.364 21.9029 124.207 21.0541 124.003 19.7948C123.994 19.7392 123.985 19.6837 123.976 19.6281C123.817 18.6466 123.706 17.9044 123.643 17.4013C123.584 16.9169 123.526 16.09 123.469 14.9208C123.465 14.5414 123.45 14.0972 123.424 13.5882C123.398 13.0792 123.37 12.4946 123.339 11.8344C123.314 11.2113 123.279 10.2951 123.235 9.08585C123.149 9.0238 123.032 8.94772 122.885 8.85764C122.42 8.57187 122.157 8.17748 122.094 7.67447C122.047 7.14994 122.212 6.70497 122.59 6.33958C122.739 6.20143 123.309 5.96641 124.3 5.63451C125.289 5.2841 126.492 4.9084 127.909 4.50741C128.545 4.32819 129.012 4.21455 129.308 4.16649C129.382 4.15447 129.438 4.14546 129.475 4.13945C129.737 4.11591 130.005 4.18647 130.279 4.35112C130.448 4.45672 130.606 4.61162 130.753 4.81582C130.903 5.03854 130.992 5.23324 131.019 5.39991C131.058 5.64065 131.017 5.91343 130.895 6.21825C130.771 6.50455 130.598 6.73204 130.379 6.90073C130.329 6.94678 130.124 7.02762 129.762 7.14326C129.385 7.28042 128.97 7.41433 128.516 7.54499C127.336 7.88841 126.677 8.09991 126.538 8.1795C126.396 8.24057 126.327 8.40374 126.332 8.66901C126.334 9.02988 126.343 9.43704 126.359 9.89051C126.373 10.3255 126.389 10.7789 126.409 11.2509C126.451 12.0993 126.49 12.8628 126.524 13.5415C126.576 14.2172 126.612 14.5535 126.631 14.5505C126.649 14.5475 126.72 14.517 126.844 14.4589C126.986 14.3978 127.144 14.3152 127.317 14.2111C127.867 13.9699 128.302 13.8422 128.623 13.8282C128.962 13.8111 129.273 13.9127 129.556 14.1329C129.882 14.3842 130.07 14.7243 130.121 15.1532C130.187 15.5606 130.087 15.938 129.82 16.2854C129.742 16.393 129.598 16.5018 129.388 16.612C129.181 16.7406 128.867 16.9151 128.447 17.1353C127.758 17.4562 127.319 17.6794 127.13 17.8051C126.944 17.9492 126.842 18.0799 126.823 18.197C126.81 18.3511 126.858 18.7616 126.966 19.4282C127.092 20.0919 127.206 20.6152 127.306 20.9981C127.427 21.3965 127.551 21.7471 127.676 22.0499C127.801 22.3527 127.919 22.5521 128.03 22.6482C128.14 22.7443 128.305 22.7651 128.524 22.7105C128.762 22.6529 129.043 22.5123 129.368 22.2885C129.743 22.0187 130.124 21.6719 130.511 21.2479C130.901 20.8425 131.352 20.2846 131.864 19.5744C132.364 18.9042 132.722 18.4755 132.939 18.2882C133.158 18.1196 133.449 18.0345 133.81 18.0329C133.982 18.0429 134.118 18.0589 134.217 18.081C134.337 18.1185 134.474 18.2008 134.627 18.3279C134.929 18.5452 135.132 18.8067 135.239 19.1125C135.27 19.1835 135.292 19.2654 135.307 19.358C135.343 19.5802 135.325 19.8207 135.253 20.0795C135.213 20.1811 135.053 20.4256 134.774 20.813C134.497 21.2189 134.193 21.6293 133.862 22.0443C133.641 22.3271 133.429 22.5991 133.224 22.8604C133.017 23.1032 132.849 23.3014 132.722 23.455C131.861 24.355 131.007 25.0067 130.16 25.4102C129.718 25.6149 129.284 25.7518 128.858 25.8209C128.488 25.881 128.117 25.884 127.748 25.83ZM13.8637 75.9811C13.642 75.903 13.442 75.7834 13.2638 75.6222C13.0827 75.4426 12.9663 75.2524 12.9147 75.0517C12.8812 74.9621 12.8299 74.7043 12.7608 74.2784C12.6917 73.8525 12.6151 73.3802 12.5309 72.8617C12.4654 72.3402 12.3577 71.5594 12.208 70.5193C12.0583 69.4793 11.9083 68.4963 11.7581 67.5703C11.6049 66.6259 11.4565 65.6521 11.3128 64.6491C11.1691 63.6461 11.0597 62.9131 10.9845 62.4501C10.931 62.0027 10.8664 61.6045 10.7908 61.2557C10.7367 60.9223 10.6989 60.7479 10.6774 60.7324C10.6744 60.7139 10.4584 60.7299 10.0295 60.7805C9.60355 60.8496 9.30875 60.9069 9.14508 60.9524C8.62956 61.0551 8.22089 61.0548 7.91908 60.9518C7.59875 60.8517 7.34522 60.6362 7.15851 60.3054C7.05139 60.1137 6.98281 59.9253 6.95277 59.7401C6.91973 59.5364 6.92522 59.3359 6.96926 59.1387C7.05733 58.7443 7.26527 58.4445 7.5931 58.2393C7.66116 58.1902 8.00701 58.0961 8.63064 57.9569C9.25428 57.8177 9.77605 57.6951 10.196 57.5889C11.2611 57.3591 12.1872 57.1519 12.9745 56.9672C13.7834 56.7979 14.7391 56.5384 15.8417 56.1885C16.691 55.9176 17.2438 55.7519 17.5001 55.6914C17.5557 55.6823 17.6112 55.6733 17.6668 55.6643C17.8334 55.6373 17.9846 55.6318 18.1202 55.6478C18.4561 55.7263 18.7391 55.8895 18.9694 56.1372C19.1536 56.3354 19.2697 56.5827 19.3178 56.879C19.3268 56.9345 19.3358 56.9901 19.3448 57.0456C19.3774 57.3635 19.3361 57.6362 19.221 57.864C19.1089 58.1102 18.9322 58.31 18.691 58.4631C18.5704 58.5397 18.1024 58.7012 17.2871 58.9474C16.4717 59.1937 15.6827 59.4263 14.9199 59.645C14.6451 59.7086 14.4089 59.7755 14.2112 59.8455C14.0135 59.9156 13.8976 59.9629 13.8636 59.9874C13.8171 60.052 13.8444 60.5132 13.9455 61.3711C14.0652 62.226 14.3245 63.942 14.7236 66.5191C14.9064 67.7629 15.0698 68.8292 15.214 69.7181C15.3367 70.5915 15.4476 71.3337 15.5467 71.9448C15.7565 73.3553 15.8624 74.1839 15.8644 74.4306C15.8695 74.6959 15.8392 74.9194 15.7736 75.1011C15.627 75.486 15.3683 75.7655 14.9974 75.9397C14.8552 76.0008 14.7194 76.0418 14.5897 76.0629C14.349 76.1019 14.107 76.0747 13.8637 75.9811ZM28.1275 59.8688C28.9808 60.0915 29.7194 60.4848 30.343 61.0489C30.9667 61.6129 31.4555 62.3414 31.8094 63.2343C32.0477 63.7658 32.2044 64.2631 32.2795 64.726C32.3546 65.189 32.3691 65.7473 32.3231 66.401C32.2796 67.1873 32.1533 67.873 31.9441 68.4581C31.7504 69.0217 31.4349 69.5956 30.9975 70.1797C30.4019 70.9605 29.6499 71.5387 28.7415 71.9141C28.3676 72.0698 28.0032 72.1669 27.6484 72.2055C27.1299 72.2896 26.6148 72.2781 26.1033 72.171C25.373 72.0044 24.7068 71.6468 24.1047 71.0983C23.5026 70.5497 23.0335 69.8846 22.6977 69.1028C22.4749 68.5497 22.3152 68.034 22.2186 67.5555C22.2156 67.537 22.2141 67.5277 22.2141 67.5277C22.136 67.0462 22.1092 66.4709 22.1336 65.8017C22.1581 65.1325 22.2224 64.5329 22.3265 64.0028C22.4276 63.4543 22.5982 62.8659 22.8384 62.2378C23.2438 61.2217 23.6184 60.5432 23.9622 60.2024C24.1914 59.9751 24.4635 59.836 24.7783 59.7849C24.9449 59.7579 25.1239 59.7478 25.3151 59.7548C25.4137 59.7769 25.5848 59.7776 25.8286 59.7571C26.0568 59.7581 26.2943 59.7575 26.5411 59.7555C26.7478 59.741 26.9175 59.7325 27.0501 59.73C27.1797 59.7089 27.3031 59.7079 27.4202 59.7269C27.5343 59.7274 27.6407 59.7387 27.7393 59.7607C27.8564 59.7797 27.9858 59.8158 28.1275 59.8688ZM26.0277 62.9178C25.8856 62.9789 25.7472 63.2389 25.6126 63.6979C25.478 64.1568 25.3694 64.6591 25.2868 65.2047C25.2578 65.4945 25.2381 65.7828 25.2276 66.0696C25.2141 66.3378 25.2238 66.5738 25.2569 66.7775C25.2689 66.8516 25.2794 66.9164 25.2884 66.972C25.4236 67.8053 25.7232 68.4219 26.1872 68.8218C26.5346 69.0886 26.8935 69.1919 27.2638 69.1318C27.449 69.1018 27.6375 69.0332 27.8291 68.9261C28.3146 68.6383 28.6945 68.168 28.9687 67.5153C29.24 66.8441 29.3293 66.1644 29.2366 65.4762C29.2306 65.4392 29.2246 65.4022 29.2186 65.3651C29.1285 64.8096 28.9425 64.3076 28.6607 63.8591C28.3359 63.3796 27.9825 63.0758 27.6006 62.9477C27.5205 62.9227 27.4312 62.8992 27.3326 62.8772C27.234 62.8552 27.1276 62.8439 27.0135 62.8434C26.8008 62.8209 26.6018 62.8247 26.4166 62.8547C26.3395 62.8482 26.2732 62.8495 26.2177 62.8585C26.1251 62.8735 26.0618 62.8933 26.0277 62.9178ZM45.8883 72.6962C45.608 72.6086 45.3758 72.4658 45.1916 72.2676C45.0229 72.0479 44.9145 71.7898 44.8665 71.4935C44.8334 71.2898 44.8437 71.0601 44.8972 70.8043C44.9508 70.5486 45.1074 69.991 45.3671 69.1316C45.7835 67.7146 46.081 66.678 46.2596 66.0219C46.4197 65.3687 46.486 65.0158 46.4585 64.9633C46.4555 64.9448 46.3511 64.8286 46.1454 64.6149C45.9427 64.4197 45.7062 64.192 45.4359 63.9318C44.2872 62.8257 43.2525 61.7201 42.332 60.615C41.4115 59.51 40.4963 58.2615 39.5863 56.8696C39.2339 56.3376 39.0181 55.9449 38.9391 55.6917C38.9085 55.6206 38.8887 55.5573 38.8797 55.5017C38.8652 55.295 38.8877 55.0823 38.9473 54.8636C39.1129 54.3616 39.4382 54.0237 39.9232 53.85C40.4297 53.6918 40.8982 53.7679 41.3287 54.0782C41.3932 54.1247 41.5344 54.2919 41.7521 54.5796C41.9699 54.8674 42.1936 55.1922 42.4234 55.5541C42.6686 55.8944 42.963 56.3028 43.3063 56.7793C43.6497 57.2558 43.9425 57.6549 44.1848 57.9767C44.372 58.1935 44.573 58.4364 44.7877 58.7057C45.021 58.972 45.2542 59.2382 45.4875 59.5045C45.9294 60.003 46.3439 60.4489 46.7308 60.8423C47.0962 61.2202 47.3082 61.4138 47.3667 61.4233C47.4223 61.4143 47.5784 60.9709 47.8351 60.093C48.0703 59.1995 48.3466 58.0904 48.6638 56.7655C48.8334 56.0538 49.0063 55.3035 49.1825 54.5147C49.3401 53.7289 49.5055 52.9323 49.6786 52.125C49.8898 51.0834 50.0576 50.4194 50.1823 50.1331C50.2884 49.8498 50.4898 49.6271 50.7866 49.4649C50.9412 49.3638 51.1112 49.2982 51.2964 49.2682C51.5741 49.2231 51.8684 49.2799 52.1793 49.4386C52.6718 49.6628 52.9601 50.0341 53.0442 50.5527C53.0803 50.7749 52.9942 51.416 52.7861 52.4761C52.5779 53.5362 52.2947 54.8366 51.9364 56.3772C51.7477 57.206 51.5388 58.0857 51.3096 59.0162C51.0805 59.9466 50.8343 60.8894 50.571 61.8444C50.1852 63.3324 49.7917 64.8312 49.3903 66.3408C48.9675 67.8348 48.5589 69.241 48.1646 70.5594C47.9674 71.2186 47.8283 71.6498 47.7472 71.853C47.6661 72.0562 47.559 72.2161 47.4259 72.3328C47.2122 72.5385 46.9679 72.6731 46.6932 72.7367C46.6561 72.7427 46.6191 72.7487 46.5821 72.7547C46.3413 72.7938 46.1101 72.7743 45.8883 72.6962ZM61.9891 54.3758C62.8425 54.5985 63.581 54.9919 64.2047 55.5559C64.8283 56.12 65.3171 56.8484 65.671 57.7413C65.9093 58.2729 66.066 58.7701 66.1411 59.2331C66.2162 59.6961 66.2307 60.2544 66.1847 60.908C66.1412 61.6944 66.0149 62.3801 65.8057 62.9652C65.612 63.5288 65.2965 64.1026 64.8591 64.6867C64.2635 65.4676 63.5115 66.0457 62.6031 66.4211C62.2292 66.5768 61.8649 66.6739 61.51 66.7125C60.9915 66.7966 60.4764 66.7851 59.9649 66.678C59.2347 66.5114 58.5685 66.1538 57.9663 65.6053C57.3642 65.0568 56.8952 64.3916 56.5593 63.6098C56.3365 63.0568 56.1768 62.541 56.0802 62.0625C56.0772 62.044 56.0757 62.0347 56.0757 62.0347C55.9976 61.5533 55.9708 60.9779 55.9953 60.3087C56.0197 59.6396 56.084 59.0399 56.1881 58.5099C56.2892 57.9613 56.4598 57.373 56.7 56.7448C57.1054 55.7287 57.48 55.0503 57.8238 54.7094C58.053 54.4822 58.3251 54.343 58.6399 54.2919C58.8066 54.2649 58.9855 54.2549 59.1767 54.2619C59.2753 54.2839 59.4465 54.2846 59.6902 54.2641C59.9184 54.2651 60.1559 54.2646 60.4027 54.2626C60.6094 54.248 60.7791 54.2395 60.9117 54.237C61.0413 54.216 61.1647 54.215 61.2818 54.234C61.396 54.2345 61.5023 54.2457 61.6009 54.2677C61.718 54.2868 61.8474 54.3228 61.9891 54.3758ZM59.8893 57.4248C59.7472 57.4859 59.6088 57.7459 59.4742 58.2049C59.3396 58.6639 59.231 59.1661 59.1485 59.7117C59.1194 60.0015 59.0997 60.2898 59.0892 60.5766C59.0757 60.8449 59.0855 61.0809 59.1185 61.2846C59.1305 61.3586 59.141 61.4235 59.1501 61.479C59.2852 62.3124 59.5848 62.929 60.0488 63.3289C60.3962 63.5956 60.7551 63.6989 61.1254 63.6389C61.3106 63.6088 61.4991 63.5402 61.6908 63.4331C62.1762 63.1453 62.5561 62.6751 62.8303 62.0224C63.1016 61.3512 63.1909 60.6715 63.0983 59.9833C63.0923 59.9462 63.0862 59.9092 63.0802 59.8722C62.9901 59.3166 62.8041 58.8146 62.5223 58.3661C62.1975 57.8867 61.8441 57.5829 61.4622 57.4548C61.3821 57.4297 61.2928 57.4062 61.1942 57.3842C61.0956 57.3622 60.9892 57.3509 60.8751 57.3504C60.6624 57.3279 60.4634 57.3317 60.2782 57.3617C60.2012 57.3552 60.1348 57.3565 60.0793 57.3655C59.9867 57.3805 59.9234 57.4003 59.8893 57.4248ZM78.5764 65.7686C78.4193 65.7371 78.2438 65.6515 78.0501 65.5119C77.8779 65.3877 77.7335 65.2591 77.6169 65.126C77.5648 65.0394 77.4978 64.8602 77.4157 64.5885C77.3336 64.3167 77.2382 63.9045 77.1296 63.352C76.9573 62.5246 76.8302 61.9751 76.7481 61.7033C76.6845 61.4285 76.6249 61.2956 76.5694 61.3046C76.5509 61.3076 76.5166 61.3892 76.4665 61.5494C76.395 61.694 76.3279 61.8665 76.2654 62.0667C76.0782 62.5532 75.8835 62.9934 75.6813 63.3873C75.4606 63.7842 75.1999 64.1686 74.8991 64.5405C74.4772 65.1031 74.0127 65.5206 73.5057 65.7929C72.9802 66.0682 72.4477 66.1831 71.9081 66.1376C70.5607 66.0331 69.4268 65.0766 68.5062 63.2683C67.5702 61.4816 66.7512 58.659 66.0493 54.8006C65.9286 54.1739 65.8292 53.6199 65.7511 53.1384C65.7421 53.0828 65.7346 53.0365 65.7286 52.9995C65.6445 52.4809 65.6057 52.1831 65.6122 52.1061C65.6252 51.9519 65.7077 51.758 65.8599 51.5242C66.012 51.2905 66.1669 51.1323 66.3246 51.0497C66.4947 50.9271 66.6924 50.857 66.9177 50.8394C67.1399 50.8034 67.3511 50.8167 67.5513 50.8792C67.9703 51.0013 68.2501 51.203 68.3907 51.4843C68.5344 51.7841 68.7209 52.5236 68.9502 53.7028C69.3061 55.5456 69.6343 57.0414 69.9347 58.1901C70.232 59.3202 70.5762 60.3287 70.9671 61.2156C71.1534 61.6605 71.3491 62.0469 71.5543 62.3748C71.7565 62.6841 71.9192 62.8667 72.0423 62.9228C72.1439 62.9633 72.2676 62.9053 72.4132 62.7486C72.5774 62.5889 72.745 62.3336 72.9162 61.9828C73.5102 60.8411 73.9396 59.2699 74.2042 57.2694C74.4474 55.2533 74.5403 52.6629 74.4831 49.4982C74.4555 48.7424 74.4608 48.2474 74.4988 48.0131C74.5398 47.7974 74.6472 47.5804 74.8208 47.3622C74.9635 47.187 75.1321 47.0551 75.3268 46.9665C75.4504 46.9085 75.5771 46.8689 75.7067 46.8479C75.8178 46.8299 75.9197 46.8133 76.0123 46.7983C76.222 46.8023 76.4084 46.8386 76.5716 46.9071C76.7378 46.9942 76.9315 47.1339 77.1527 47.326C77.2173 47.3726 77.3171 47.4609 77.4523 47.591C77.7081 49.051 78.0826 51.2425 78.5758 54.1655C78.8977 56.0329 79.1971 57.7614 79.474 59.351C79.7694 60.9376 79.9654 61.9701 80.062 62.4486C80.1982 63.0537 80.2918 63.5137 80.3429 63.8285C80.3699 63.9952 80.3909 64.1248 80.406 64.2174C80.417 64.5197 80.3557 64.7862 80.2221 65.017C80.0759 65.2878 79.8437 65.4965 79.5254 65.6432C79.3647 65.7072 79.2196 65.7498 79.0899 65.7708C78.9048 65.8009 78.7336 65.8001 78.5764 65.7686ZM83.2087 65.5018C82.8483 65.3892 82.5715 65.2061 82.3783 64.9523C82.2036 64.6956 82.0757 64.3172 81.9946 63.8172C81.9946 63.8172 81.9931 63.8079 81.9901 63.7894C81.948 63.5301 81.9272 63.3434 81.9277 63.2293C81.9282 63.1152 81.972 62.9751 82.0591 62.8089C82.2553 62.3779 82.6096 62.1019 83.1221 61.9807C83.1777 61.9717 83.2332 61.9627 83.2888 61.9537C83.7147 61.8846 84.0999 61.9742 84.4442 62.2224C84.684 62.4116 84.8845 62.7687 85.0457 63.2937C85.0882 63.4389 85.1215 63.5855 85.1455 63.7337C85.1966 64.0485 85.1831 64.3168 85.105 64.5385C84.9894 64.8803 84.7307 65.1599 84.3288 65.3771C84.1341 65.4657 83.9534 65.5236 83.7867 65.5506C83.583 65.5836 83.3903 65.5674 83.2087 65.5018Z" fill="#229EFF"/>
<path d="M100.766 52.7832C99.9465 51.9153 98.5786 51.8762 97.7107 52.6958C96.8429 53.5155 96.8038 54.8834 97.6234 55.7512L100.766 52.7832ZM159.681 50.8055C159.573 49.6166 158.523 48.7398 157.334 48.8471L137.96 50.5954C136.771 50.7026 135.894 51.7534 136.002 52.9422C136.109 54.1311 137.16 55.0079 138.349 54.9006L155.57 53.3466L157.124 70.5677C157.231 71.7566 158.282 72.6333 159.471 72.5261C160.659 72.4188 161.536 71.3681 161.429 70.1792L159.681 50.8055ZM97.6234 55.7512C102.786 61.2177 112.038 67.6301 123.135 69.043C134.407 70.4782 147.237 66.7064 159.188 52.3845L155.869 49.615C144.771 62.9145 133.354 65.9863 123.681 64.7549C113.834 63.5011 105.444 57.7365 100.766 52.7832L97.6234 55.7512Z" fill="#229EFF"/>
</svg>
