<svg width="278" height="357" viewBox="0 0 278 357" fill="none" xmlns="http://www.w3.org/2000/svg">
<path d="M0.619629 38.4C0.619629 24.9587 0.619629 18.2381 3.23547 13.1042C5.53643 8.58834 9.20797 4.9168 13.7239 2.61584C18.8577 0 25.5784 0 39.0196 0H238.98C252.421 0 259.142 0 264.276 2.61584C268.792 4.9168 272.463 8.58834 274.764 13.1042C277.38 18.2381 277.38 24.9587 277.38 38.4V600H0.619629V38.4Z" fill="white"/>
<g clip-path="url(#clip0_1061_20559)">
<rect x="14.7041" y="43.2739" width="22.5352" height="22.5352" rx="11.2676" fill="#E0E0E0"/>
<rect width="22.5352" height="22.5352" transform="translate(14.7041 43.2744)" fill="#F5F5F5"/>
<path d="M22.7742 53.8886H31.3457V55.2971H22.7742L26.5516 59.0745L25.5557 60.0704L20.0781 54.5929L25.5557 49.1152L26.5516 50.1112L22.7742 53.8886Z" fill="black"/>
</g>
<path d="M24.3041 92.1294V94.2928H18.5238V97.0477H24.1013V99.1773H18.5238V101.966H24.4393V104.129H15.9548V92.1294H24.3041ZM35.3419 95.1547L32.1982 99.5829L35.4433 104.129H32.6546L30.7278 101.205L28.7842 104.129H25.9954L29.2574 99.566L26.1137 95.1547H28.8856L30.7278 97.9435L32.5532 95.1547H35.3419ZM37.326 95.1716H39.7429L39.8105 97.0646L39.6246 96.8956C39.8387 96.2759 40.1879 95.8026 40.6725 95.4759C41.1682 95.1378 41.7654 94.9688 42.464 94.9688C43.2865 94.9688 43.9851 95.1716 44.5598 95.5773C45.1344 95.9829 45.5682 96.5407 45.8612 97.2505C46.1541 97.9491 46.3006 98.7491 46.3006 99.6505C46.3006 100.552 46.1541 101.358 45.8612 102.067C45.5682 102.766 45.1344 103.318 44.5598 103.724C43.9851 104.129 43.2865 104.332 42.464 104.332C42.0133 104.332 41.602 104.259 41.2302 104.112C40.8696 103.955 40.5541 103.735 40.2837 103.453C40.0133 103.16 39.7992 102.8 39.6415 102.372L39.8612 102.236V106.665H37.326V95.1716ZM39.6922 99.6505C39.6922 100.158 39.7654 100.62 39.9119 101.036C40.0584 101.453 40.2837 101.786 40.5879 102.034C40.8922 102.282 41.2584 102.405 41.6865 102.405C42.3401 102.405 42.8358 102.146 43.1739 101.628C43.5119 101.098 43.6809 100.439 43.6809 99.6505C43.6809 98.8731 43.5063 98.2195 43.157 97.69C42.8189 97.1604 42.3288 96.8956 41.6865 96.8956C41.2584 96.8956 40.8922 97.0195 40.5879 97.2674C40.2837 97.5153 40.0584 97.8533 39.9119 98.2815C39.7654 98.6984 39.6922 99.1547 39.6922 99.6505ZM47.6146 99.6505C47.6146 98.7153 47.8005 97.8984 48.1723 97.1998C48.5554 96.49 49.0963 95.9435 49.7949 95.5604C50.4934 95.166 51.2991 94.9688 52.2118 94.9688C53.0456 94.9688 53.7949 95.1604 54.4596 95.5435C55.1357 95.9153 55.6596 96.4731 56.0315 97.2167C56.4033 97.9491 56.5892 98.8224 56.5892 99.8364V100.31H50.2681C50.3132 100.974 50.5047 101.498 50.8427 101.882C51.1808 102.265 51.6371 102.456 52.2118 102.456C52.5836 102.456 52.9216 102.355 53.2258 102.152C53.5413 101.949 53.7667 101.679 53.9019 101.341L56.4709 101.51C56.2005 102.377 55.6765 103.065 54.8991 103.572C54.1329 104.079 53.2371 104.332 52.2118 104.332C51.2991 104.332 50.4934 104.141 49.7949 103.758C49.0963 103.363 48.5554 102.817 48.1723 102.118C47.8005 101.408 47.6146 100.586 47.6146 99.6505ZM54.0202 98.7716C53.9526 98.1294 53.7554 97.6505 53.4287 97.335C53.1019 97.0083 52.6963 96.8449 52.2118 96.8449C51.6709 96.8449 51.2315 97.0195 50.8934 97.3688C50.5554 97.7069 50.3526 98.1745 50.285 98.7716H54.0202ZM60.5034 95.1716L60.6048 97.7914L60.2836 97.69C60.4076 96.7322 60.7287 96.0393 61.247 95.6111C61.7766 95.1829 62.4414 94.9688 63.2414 94.9688C64.2104 94.9688 64.9653 95.2731 65.5062 95.8815C66.047 96.49 66.3174 97.3181 66.3174 98.366V104.129H63.7822V99.2111C63.7822 98.4449 63.6808 97.8815 63.478 97.5209C63.2752 97.1604 62.9146 96.9801 62.3963 96.9801C61.8667 96.9801 61.4611 97.1716 61.1794 97.5547C60.8977 97.9378 60.7569 98.49 60.7569 99.2111V104.129H58.2217V95.1716H60.5034ZM73.6968 98.0787C73.6291 97.6731 73.4376 97.3463 73.1221 97.0984C72.8179 96.8505 72.4686 96.7266 72.0742 96.7266C71.6686 96.7266 71.3362 96.8224 71.077 97.0139C70.8291 97.2055 70.7108 97.4646 70.7221 97.7914C70.7334 98.0956 70.8855 98.3322 71.1784 98.5012C71.4827 98.659 71.8827 98.7885 72.3784 98.89C73.3024 99.0364 74.046 99.2224 74.6094 99.4477C75.1728 99.6618 75.5953 99.9491 75.877 100.31C76.1587 100.659 76.2996 101.115 76.2996 101.679C76.2996 102.253 76.1306 102.743 75.7925 103.149C75.4658 103.543 74.9982 103.842 74.3897 104.045C73.7925 104.236 73.1052 104.332 72.3277 104.332C71.4601 104.332 70.6996 104.214 70.046 103.977C69.3925 103.729 68.8799 103.38 68.508 102.929C68.1475 102.467 67.9446 101.921 67.8996 101.29L70.4517 101.172C70.508 101.465 70.6151 101.712 70.7728 101.915C70.9306 102.118 71.1334 102.276 71.3813 102.389C71.6404 102.501 71.9334 102.558 72.2601 102.558C72.6432 102.558 72.9756 102.479 73.2573 102.321C73.5503 102.163 73.6968 101.932 73.6968 101.628C73.6968 101.414 73.6348 101.245 73.5108 101.121C73.3869 100.997 73.2235 100.896 73.0207 100.817C72.8291 100.738 72.5869 100.67 72.2939 100.614C72.2038 100.58 72.0911 100.552 71.9559 100.529C71.0545 100.36 70.3334 100.169 69.7925 99.9547C69.2517 99.7407 68.8348 99.4646 68.5418 99.1266C68.2601 98.7773 68.1193 98.3322 68.1193 97.7914C68.1193 97.2055 68.277 96.6984 68.5925 96.2702C68.908 95.8421 69.37 95.5153 69.9784 95.29C70.5869 95.0646 71.3193 94.9519 72.1756 94.9519C73.2911 94.9519 74.2094 95.2224 74.9306 95.7632C75.6517 96.304 76.0855 97.0421 76.232 97.9773L73.6968 98.0787ZM77.6212 99.6505C77.6212 98.7153 77.8071 97.8984 78.1789 97.1998C78.562 96.49 79.1029 95.9435 79.8015 95.5604C80.5001 95.166 81.3057 94.9688 82.2184 94.9688C83.0522 94.9688 83.8015 95.1604 84.4663 95.5435C85.1423 95.9153 85.6663 96.4731 86.0381 97.2167C86.4099 97.9491 86.5958 98.8224 86.5958 99.8364V100.31H80.2747C80.3198 100.974 80.5113 101.498 80.8493 101.882C81.1874 102.265 81.6437 102.456 82.2184 102.456C82.5902 102.456 82.9282 102.355 83.2324 102.152C83.5479 101.949 83.7733 101.679 83.9085 101.341L86.4775 101.51C86.2071 102.377 85.6832 103.065 84.9057 103.572C84.1395 104.079 83.2437 104.332 82.2184 104.332C81.3057 104.332 80.5001 104.141 79.8015 103.758C79.1029 103.363 78.562 102.817 78.1789 102.118C77.8071 101.408 77.6212 100.586 77.6212 99.6505ZM84.0268 98.7716C83.9592 98.1294 83.762 97.6505 83.4353 97.335C83.1085 97.0083 82.7029 96.8449 82.2184 96.8449C81.6775 96.8449 81.2381 97.0195 80.9001 97.3688C80.562 97.7069 80.3592 98.1745 80.2916 98.7716H84.0268ZM94.5549 100.056C94.6225 100.484 94.769 100.862 94.9944 101.189C95.2197 101.504 95.5183 101.752 95.8902 101.932C96.2733 102.101 96.7071 102.186 97.1916 102.186C97.5747 102.186 97.9071 102.135 98.1887 102.034C98.4817 101.932 98.7071 101.78 98.8648 101.577C99.0225 101.374 99.1014 101.132 99.1014 100.851C99.1014 100.411 98.8986 100.056 98.493 99.7857C98.0873 99.504 97.4113 99.2449 96.4648 99.0083C95.0902 98.6815 94.031 98.2308 93.2873 97.6562C92.5549 97.0815 92.1887 96.3322 92.1887 95.4083C92.1887 94.6871 92.3803 94.0618 92.7634 93.5322C93.1465 93.0026 93.6817 92.5914 94.369 92.2984C95.0564 92.0054 95.8507 91.859 96.7521 91.859C97.631 91.859 98.4141 92.028 99.1014 92.366C99.7887 92.704 100.341 93.1829 100.758 93.8026C101.186 94.4111 101.445 95.1153 101.535 95.9153L98.9662 96.0505C98.9211 95.6336 98.7972 95.2731 98.5944 94.9688C98.3916 94.6533 98.1268 94.4111 97.8 94.2421C97.4733 94.0731 97.1014 93.9885 96.6845 93.9885C96.1211 93.9885 95.6592 94.1238 95.2986 94.3942C94.9493 94.6646 94.7916 95.0139 94.8254 95.4421C94.8254 95.7463 94.9268 95.9998 95.1296 96.2026C95.3437 96.4055 95.6085 96.5688 95.924 96.6928C96.2395 96.8167 96.6451 96.9407 97.1409 97.0646C97.1859 97.0759 97.2479 97.0928 97.3268 97.1153C98.724 97.4195 99.8056 97.8759 100.572 98.4843C101.338 99.0815 101.721 99.8421 101.721 100.766C101.721 101.498 101.518 102.135 101.113 102.676C100.718 103.217 100.172 103.628 99.4733 103.91C98.7747 104.191 97.9916 104.332 97.124 104.332C96.1549 104.332 95.2873 104.163 94.5211 103.825C93.7662 103.487 93.1634 103.003 92.7127 102.372C92.2733 101.741 92.0254 101.008 91.969 100.174L94.5549 100.056ZM109.423 104.129L109.339 101.543L109.66 101.645C109.536 102.591 109.215 103.279 108.697 103.707C108.178 104.124 107.525 104.332 106.736 104.332C105.778 104.332 105.029 104.028 104.488 103.42C103.959 102.811 103.694 101.983 103.694 100.935V95.1716H106.229V100.09C106.229 100.856 106.325 101.42 106.516 101.78C106.719 102.141 107.074 102.321 107.581 102.321C108.111 102.321 108.511 102.129 108.781 101.746C109.063 101.363 109.204 100.811 109.204 100.09V95.1716H111.739V104.129H109.423ZM116.242 95.1716L116.292 96.5914C116.518 96.0731 116.845 95.6731 117.273 95.3914C117.712 95.1097 118.219 94.9688 118.794 94.9688C119.414 94.9688 119.943 95.1322 120.383 95.459C120.822 95.7745 121.143 96.2252 121.346 96.8111C121.56 96.2026 121.892 95.7463 122.343 95.4421C122.805 95.1266 123.346 94.9688 123.966 94.9688C124.574 94.9688 125.098 95.0984 125.537 95.3576C125.988 95.6167 126.332 95.9998 126.568 96.5069C126.816 97.0139 126.94 97.6336 126.94 98.366V104.129H124.405V99.2111C124.405 98.4674 124.298 97.9097 124.084 97.5378C123.87 97.166 123.554 96.9801 123.137 96.9801C122.788 96.9801 122.495 97.0646 122.259 97.2336C122.033 97.4026 121.859 97.6562 121.735 97.9942C121.622 98.3209 121.566 98.7266 121.566 99.2111V104.129H119.318V99.2111C119.318 98.4562 119.211 97.8984 118.997 97.5378C118.794 97.166 118.478 96.9801 118.05 96.9801C117.712 96.9801 117.425 97.0646 117.188 97.2336C116.952 97.4026 116.777 97.6562 116.664 97.9942C116.552 98.3209 116.495 98.7266 116.495 99.2111V104.129H113.96V95.1716H116.242ZM131.179 95.1716L131.23 96.5914C131.455 96.0731 131.782 95.6731 132.21 95.3914C132.649 95.1097 133.156 94.9688 133.731 94.9688C134.351 94.9688 134.88 95.1322 135.32 95.459C135.759 95.7745 136.08 96.2252 136.283 96.8111C136.497 96.2026 136.83 95.7463 137.28 95.4421C137.742 95.1266 138.283 94.9688 138.903 94.9688C139.511 94.9688 140.035 95.0984 140.475 95.3576C140.925 95.6167 141.269 95.9998 141.506 96.5069C141.754 97.0139 141.878 97.6336 141.878 98.366V104.129H139.342V99.2111C139.342 98.4674 139.235 97.9097 139.021 97.5378C138.807 97.166 138.492 96.9801 138.075 96.9801C137.725 96.9801 137.432 97.0646 137.196 97.2336C136.971 97.4026 136.796 97.6562 136.672 97.9942C136.559 98.3209 136.503 98.7266 136.503 99.2111V104.129H134.255V99.2111C134.255 98.4562 134.148 97.8984 133.934 97.5378C133.731 97.166 133.416 96.9801 132.987 96.9801C132.649 96.9801 132.362 97.0646 132.125 97.2336C131.889 97.4026 131.714 97.6562 131.602 97.9942C131.489 98.3209 131.432 98.7266 131.432 99.2111V104.129H128.897V95.1716H131.179ZM143.58 97.9435C143.749 96.9857 144.188 96.2533 144.898 95.7463C145.608 95.228 146.555 94.9688 147.738 94.9688C149.101 94.9688 150.126 95.3012 150.814 95.966C151.512 96.6195 151.862 97.5829 151.862 98.8562V101.679C151.862 101.949 151.907 102.141 151.997 102.253C152.098 102.355 152.239 102.405 152.419 102.405H152.74V104.129L152.301 104.146L152.149 104.163C151.585 104.197 151.062 104.135 150.577 103.977C150.104 103.808 149.822 103.403 149.732 102.76C149.495 103.245 149.118 103.628 148.6 103.91C148.081 104.191 147.428 104.332 146.639 104.332C145.704 104.332 144.932 104.101 144.324 103.639C143.726 103.166 143.428 102.541 143.428 101.763C143.428 101.234 143.557 100.794 143.816 100.445C144.076 100.096 144.447 99.8139 144.932 99.5998C145.416 99.3857 146.047 99.2055 146.825 99.059L149.293 98.5519C149.281 97.8984 149.146 97.4139 148.887 97.0984C148.639 96.7829 148.25 96.6252 147.721 96.6252C147.293 96.6252 146.943 96.7491 146.673 96.997C146.402 97.2336 146.216 97.5885 146.115 98.0618L143.58 97.9435ZM146.031 101.679C146.031 101.972 146.149 102.214 146.385 102.405C146.633 102.597 146.983 102.693 147.433 102.693C147.805 102.682 148.132 102.586 148.414 102.405C148.695 102.225 148.915 101.955 149.073 101.594C149.242 101.222 149.326 100.772 149.326 100.242V100.124L147.856 100.394C147.777 100.405 147.698 100.422 147.619 100.445C147.247 100.512 146.955 100.591 146.74 100.682C146.526 100.76 146.352 100.879 146.216 101.036C146.093 101.194 146.031 101.408 146.031 101.679ZM156.699 95.1716L156.767 97.8083L156.581 97.7238C156.716 96.8674 156.97 96.2308 157.342 95.8139C157.713 95.3857 158.232 95.1716 158.896 95.1716H159.725V97.0646H158.88C158.395 97.0646 158.001 97.1435 157.696 97.3012C157.392 97.4477 157.167 97.6787 157.02 97.9942C156.885 98.2984 156.818 98.6871 156.818 99.1604V104.129H154.282V95.1716H156.699ZM163.152 95.1716L165.383 101.476L167.546 95.1716H169.946L166.43 104.991C166.216 105.566 165.906 105.989 165.501 106.259C165.106 106.529 164.583 106.665 163.929 106.665H162.323V104.822H163.456C163.726 104.822 163.935 104.777 164.081 104.687C164.239 104.597 164.363 104.439 164.453 104.214L164.673 103.673H163.963L160.735 95.1716H163.152Z" fill="#1A1A1A"/>
<rect x="14.7041" y="126.665" width="137.324" height="28.169" rx="14.0845" fill="#F9F9F9"/>
<path d="M29.8448 134.294V135.468H33.3659V134.294H34.5396V135.468H36.8871C37.2112 135.468 37.4739 135.73 37.4739 136.055V145.444C37.4739 145.768 37.2112 146.031 36.8871 146.031H26.3237C25.9996 146.031 25.7368 145.768 25.7368 145.444V136.055C25.7368 135.73 25.9996 135.468 26.3237 135.468H28.6711V134.294H29.8448ZM36.3002 140.162H26.9105V144.857H36.3002V140.162ZM28.6711 136.641H26.9105V138.989H36.3002V136.641H34.5396V137.815H33.3659V136.641H29.8448V137.815H28.6711V136.641Z" fill="#1A1A1A"/>
<path d="M43.9789 137.25L45.9113 142.672L47.8339 137.25H49.5691V144.25H48.2874V139.438L46.5226 144.24H45.3001L43.5353 139.438V144.25H42.2536V137.25H43.9789ZM50.806 140.621C50.9112 140.076 51.1642 139.655 51.5652 139.359C51.9727 139.057 52.4985 138.906 53.1426 138.906C53.8919 138.906 54.4605 139.096 54.8483 139.478C55.2426 139.859 55.4398 140.418 55.4398 141.154V142.948C55.4398 143.093 55.4661 143.195 55.5187 143.254C55.5778 143.306 55.66 143.333 55.7652 143.333H55.9722V144.25L55.6764 144.259H55.568C55.2656 144.273 54.9961 144.227 54.7595 144.121C54.5229 144.01 54.3849 143.786 54.3454 143.451C54.214 143.727 53.9971 143.95 53.6947 144.121C53.399 144.286 53.0342 144.368 52.6004 144.368C52.0614 144.368 51.6112 144.233 51.2497 143.964C50.8947 143.694 50.7173 143.333 50.7173 142.879C50.7173 142.55 50.7929 142.284 50.944 142.08C51.1018 141.877 51.322 141.719 51.6046 141.607C51.8872 141.489 52.2553 141.384 52.7088 141.292L54.168 141.006C54.168 140.598 54.0825 140.299 53.9116 140.109C53.7407 139.911 53.4844 139.813 53.1426 139.813C52.86 139.813 52.63 139.888 52.4525 140.04C52.275 140.184 52.1567 140.401 52.0976 140.69L50.806 140.621ZM52.0285 142.84C52.0285 143.03 52.1074 143.185 52.2652 143.303C52.4229 143.421 52.6497 143.48 52.9454 143.48C53.1886 143.48 53.4023 143.421 53.5863 143.303C53.7769 143.185 53.9248 143.011 54.03 142.78C54.1417 142.544 54.1976 142.261 54.1976 141.933V141.864L53.2018 142.041C53.1558 142.048 53.1065 142.054 53.0539 142.061C52.8173 142.107 52.6267 142.156 52.4821 142.209C52.344 142.255 52.2323 142.33 52.1469 142.435C52.068 142.534 52.0285 142.669 52.0285 142.84ZM57.3945 139.024L58.7945 142.928L60.1452 139.024H61.3678L59.2875 144.802C59.1758 145.124 59.0082 145.357 58.7847 145.502C58.5678 145.653 58.2852 145.728 57.9368 145.728H57.079V144.762H57.7199C57.8711 144.762 57.9894 144.736 58.0748 144.683C58.1603 144.631 58.2293 144.542 58.2819 144.417L58.4298 144.033H58.065L56.172 139.024H57.3945ZM64.8347 138.472C65.2553 138.472 65.5642 138.373 65.7614 138.176C65.9586 137.979 66.0605 137.67 66.0671 137.25H67.0628V144.25H65.791V139.448H64.2825V138.472H64.8347ZM71.5069 144.407C70.9022 144.407 70.3797 144.259 69.9393 143.964C69.5055 143.661 69.1703 143.237 68.9337 142.692C68.7036 142.14 68.5886 141.496 68.5886 140.759C68.5886 140.023 68.7036 139.379 68.9337 138.827C69.1703 138.268 69.5088 137.841 69.9492 137.545C70.3896 137.243 70.9088 137.092 71.5069 137.092C72.105 137.092 72.621 137.243 73.0548 137.545C73.4952 137.841 73.8304 138.265 74.0604 138.817C74.2971 139.369 74.4154 140.017 74.4154 140.759C74.4154 141.496 74.2971 142.14 74.0604 142.692C73.8304 143.237 73.4952 143.661 73.0548 143.964C72.621 144.259 72.105 144.407 71.5069 144.407ZM71.5069 143.293C71.8421 143.293 72.128 143.195 72.3647 142.997C72.6079 142.8 72.7886 142.514 72.9069 142.14C73.0318 141.765 73.0942 141.305 73.0942 140.759C73.0942 140.214 73.0318 139.75 72.9069 139.369C72.7886 138.988 72.6079 138.699 72.3647 138.502C72.128 138.304 71.8421 138.206 71.5069 138.206C71.1651 138.206 70.8759 138.304 70.6393 138.502C70.4027 138.699 70.2219 138.988 70.0971 139.369C69.9788 139.75 69.9196 140.214 69.9196 140.759C69.9196 141.305 69.9788 141.765 70.0971 142.14C70.2219 142.514 70.4027 142.8 70.6393 142.997C70.8759 143.195 71.1651 143.293 71.5069 143.293ZM80.9799 140.838V141.903H77.6278V140.838H80.9799ZM86.2269 137.25L88.1593 142.672L90.0819 137.25H91.8171V144.25H90.5354V139.438L88.7706 144.24H87.5481L85.7833 139.438V144.25H84.5016V137.25H86.2269ZM93.054 140.621C93.1592 140.076 93.4122 139.655 93.8132 139.359C94.2207 139.057 94.7465 138.906 95.3906 138.906C96.1399 138.906 96.7085 139.096 97.0963 139.478C97.4906 139.859 97.6878 140.418 97.6878 141.154V142.948C97.6878 143.093 97.7141 143.195 97.7667 143.254C97.8259 143.306 97.908 143.333 98.0132 143.333H98.2202V144.25L97.9244 144.259H97.816C97.5137 144.273 97.2442 144.227 97.0075 144.121C96.7709 144.01 96.6329 143.786 96.5935 143.451C96.462 143.727 96.2451 143.95 95.9428 144.121C95.647 144.286 95.2822 144.368 94.8484 144.368C94.3094 144.368 93.8592 144.233 93.4977 143.964C93.1428 143.694 92.9653 143.333 92.9653 142.879C92.9653 142.55 93.0409 142.284 93.1921 142.08C93.3498 141.877 93.57 141.719 93.8526 141.607C94.1352 141.489 94.5033 141.384 94.9568 141.292L96.416 141.006C96.416 140.598 96.3306 140.299 96.1597 140.109C95.9888 139.911 95.7324 139.813 95.3906 139.813C95.108 139.813 94.878 139.888 94.7005 140.04C94.523 140.184 94.4047 140.401 94.3456 140.69L93.054 140.621ZM94.2766 142.84C94.2766 143.03 94.3554 143.185 94.5132 143.303C94.6709 143.421 94.8977 143.48 95.1935 143.48C95.4367 143.48 95.6503 143.421 95.8343 143.303C96.0249 143.185 96.1728 143.011 96.278 142.78C96.3897 142.544 96.4456 142.261 96.4456 141.933V141.864L95.4498 142.041C95.4038 142.048 95.3545 142.054 95.3019 142.061C95.0653 142.107 94.8747 142.156 94.7301 142.209C94.5921 142.255 94.4803 142.33 94.3949 142.435C94.316 142.534 94.2766 142.669 94.2766 142.84ZM99.6426 139.024L101.043 142.928L102.393 139.024H103.616L101.536 144.802C101.424 145.124 101.256 145.357 101.033 145.502C100.816 145.653 100.533 145.728 100.185 145.728H99.3271V144.762H99.9679C100.119 144.762 100.237 144.736 100.323 144.683C100.408 144.631 100.477 144.542 100.53 144.417L100.678 144.033H100.313L98.42 139.024H99.6426ZM109.242 140.059C109.446 140.066 109.636 140.036 109.814 139.971C109.998 139.898 110.146 139.787 110.257 139.635C110.376 139.478 110.435 139.284 110.435 139.054C110.435 138.883 110.385 138.735 110.287 138.61C110.188 138.485 110.05 138.387 109.873 138.314C109.695 138.242 109.485 138.206 109.242 138.206C108.933 138.206 108.677 138.278 108.473 138.423C108.276 138.561 108.157 138.751 108.118 138.995L106.816 138.916C106.856 138.561 106.984 138.245 107.201 137.969C107.424 137.693 107.714 137.48 108.069 137.328C108.424 137.171 108.821 137.092 109.262 137.092C109.761 137.092 110.198 137.167 110.573 137.319C110.954 137.47 111.247 137.683 111.45 137.959C111.661 138.229 111.766 138.548 111.766 138.916C111.766 139.343 111.624 139.695 111.342 139.971C111.059 140.24 110.648 140.421 110.109 140.513L110.119 140.414C110.52 140.487 110.859 140.611 111.135 140.789C111.417 140.96 111.631 141.177 111.776 141.44C111.927 141.696 112.002 141.992 112.002 142.327C112.002 142.741 111.887 143.106 111.657 143.421C111.434 143.737 111.115 143.98 110.701 144.151C110.287 144.322 109.807 144.407 109.262 144.407C108.762 144.407 108.315 144.319 107.921 144.141C107.533 143.964 107.224 143.714 106.994 143.392C106.764 143.07 106.639 142.698 106.619 142.278L107.931 142.219C107.963 142.567 108.111 142.833 108.374 143.017C108.637 143.201 108.936 143.293 109.271 143.293C109.515 143.293 109.741 143.254 109.952 143.175C110.169 143.089 110.343 142.961 110.474 142.79C110.606 142.619 110.671 142.406 110.671 142.15C110.671 141.9 110.602 141.689 110.464 141.519C110.333 141.348 110.159 141.219 109.942 141.134C109.725 141.049 109.492 141.009 109.242 141.016L108.66 141.026V140.05L109.242 140.059ZM115.854 144.407C115.249 144.407 114.727 144.259 114.286 143.964C113.852 143.661 113.517 143.237 113.281 142.692C113.051 142.14 112.936 141.496 112.936 140.759C112.936 140.023 113.051 139.379 113.281 138.827C113.517 138.268 113.856 137.841 114.296 137.545C114.736 137.243 115.256 137.092 115.854 137.092C116.452 137.092 116.968 137.243 117.402 137.545C117.842 137.841 118.177 138.265 118.407 138.817C118.644 139.369 118.762 140.017 118.762 140.759C118.762 141.496 118.644 142.14 118.407 142.692C118.177 143.237 117.842 143.661 117.402 143.964C116.968 144.259 116.452 144.407 115.854 144.407ZM115.854 143.293C116.189 143.293 116.475 143.195 116.712 142.997C116.955 142.8 117.136 142.514 117.254 142.14C117.379 141.765 117.441 141.305 117.441 140.759C117.441 140.214 117.379 139.75 117.254 139.369C117.136 138.988 116.955 138.699 116.712 138.502C116.475 138.304 116.189 138.206 115.854 138.206C115.512 138.206 115.223 138.304 114.986 138.502C114.75 138.699 114.569 138.988 114.444 139.369C114.326 139.75 114.267 140.214 114.267 140.759C114.267 141.305 114.326 141.765 114.444 142.14C114.569 142.514 114.75 142.8 114.986 142.997C115.223 143.195 115.512 143.293 115.854 143.293Z" fill="#1A1A1A"/>
<path d="M136.534 141.437L139.439 138.532L140.269 139.362L136.534 143.096L132.8 139.362L133.63 138.532L136.534 141.437Z" fill="#1A1A1A"/>
<path d="M64.2062 202.119C64.2062 188.449 53.1247 177.368 39.4551 177.368" stroke="#FFBE00" stroke-width="10.5634" stroke-linecap="round"/>
<path d="M39.4549 177.368C32.1293 177.368 25.547 180.55 21.0151 185.608" stroke="#229EFF" stroke-width="10.5634" stroke-linecap="round"/>
<path d="M22.6502 183.946C17.7635 188.467 14.7041 194.935 14.7041 202.118C14.7041 207.041 16.1415 211.628 18.6195 215.483" stroke="#F14CFF" stroke-width="10.5634" stroke-linecap="round"/>
<path d="M23.9496 221.413C19.9563 218.199 16.9815 213.771 15.5859 208.689" stroke="#00C159" stroke-width="10.5634" stroke-linecap="round"/>
<path d="M39.4553 226.869C33.3269 226.869 27.7187 224.642 23.396 220.953" stroke="#A479FF" stroke-width="10.5634" stroke-linecap="round"/>
<path d="M64.2062 202.119C64.2062 215.788 53.1247 226.87 39.4551 226.87" stroke="#FF4E4C" stroke-width="10.5634" stroke-linecap="round"/>
<path d="M82.2567 197.486V193.311H81.2764V192.06H82.2567V190.844H81.2764V189.593H82.2567V185.418H84.9102L86.2285 189.593H87.7666V185.418H89.6426V189.593H90.606V190.844H89.6426V192.06H90.606V193.311H89.6426V197.486H86.9722L85.6201 193.311H84.1328V197.486H82.2567ZM84.1328 192.06H85.2483L84.8764 190.844H84.099L84.1328 192.06ZM87.8173 194.849H87.9018L87.8342 193.311H87.3778L87.8173 194.849ZM84.0652 189.593H84.5384L84.0483 187.97H83.9807L84.0652 189.593ZM87.0229 192.06H87.8004L87.7666 190.844H86.6342L87.0229 192.06Z" fill="#1A1A1A"/>
<path d="M94.502 185.106C95.4034 185.106 96.0654 184.894 96.4879 184.472C96.9105 184.049 97.1288 183.387 97.1429 182.486H99.2767V197.486H96.5513V187.197H93.3189V185.106H94.502ZM103.645 200.782H102.145L103.053 197.486H105.018L103.645 200.782ZM104.997 194.634V197.486H101.976V194.634H104.997ZM112.066 188.507C112.502 188.521 112.911 188.458 113.291 188.317C113.685 188.162 114.002 187.922 114.242 187.599C114.495 187.26 114.622 186.845 114.622 186.352C114.622 185.986 114.516 185.669 114.305 185.401C114.094 185.134 113.798 184.922 113.418 184.768C113.037 184.613 112.587 184.535 112.066 184.535C111.404 184.535 110.854 184.69 110.418 185C109.995 185.296 109.742 185.704 109.657 186.225L106.868 186.056C106.953 185.296 107.228 184.62 107.692 184.028C108.171 183.437 108.791 182.979 109.552 182.655C110.312 182.317 111.164 182.148 112.108 182.148C113.178 182.148 114.115 182.31 114.918 182.634C115.735 182.958 116.361 183.415 116.798 184.007C117.249 184.584 117.474 185.268 117.474 186.056C117.474 186.972 117.171 187.725 116.566 188.317C115.96 188.894 115.08 189.282 113.925 189.479L113.946 189.268C114.805 189.422 115.53 189.69 116.122 190.07C116.728 190.437 117.185 190.901 117.495 191.465C117.819 192.014 117.981 192.648 117.981 193.366C117.981 194.253 117.735 195.035 117.242 195.711C116.763 196.387 116.08 196.908 115.192 197.275C114.305 197.641 113.277 197.824 112.108 197.824C111.037 197.824 110.08 197.634 109.235 197.253C108.404 196.873 107.742 196.338 107.249 195.648C106.756 194.958 106.488 194.162 106.446 193.26L109.256 193.134C109.326 193.88 109.643 194.451 110.206 194.845C110.77 195.239 111.411 195.437 112.129 195.437C112.65 195.437 113.136 195.352 113.587 195.183C114.052 195 114.425 194.725 114.706 194.359C114.988 193.993 115.129 193.535 115.129 192.986C115.129 192.451 114.981 192 114.685 191.634C114.404 191.268 114.03 190.993 113.566 190.81C113.101 190.627 112.601 190.542 112.066 190.556L110.819 190.577V188.486L112.066 188.507ZM119.938 187.176C120.037 186.204 120.333 185.338 120.826 184.577C121.319 183.817 121.974 183.225 122.791 182.803C123.622 182.366 124.565 182.148 125.622 182.148C126.607 182.148 127.495 182.345 128.284 182.739C129.072 183.12 129.685 183.648 130.122 184.324C130.572 185 130.798 185.76 130.798 186.606C130.798 187.324 130.629 187.972 130.291 188.549C129.953 189.127 129.502 189.648 128.938 190.113C128.389 190.563 127.706 191.035 126.889 191.528C126.424 191.782 125.917 192.106 125.368 192.5C124.819 192.88 124.312 193.31 123.847 193.789C123.396 194.253 123.157 194.69 123.129 195.099H130.882V197.486H119.791C119.791 196.19 120.002 195.077 120.424 194.148C120.861 193.218 121.417 192.444 122.093 191.824C122.769 191.19 123.643 190.542 124.713 189.88L125.389 189.479C126.248 188.958 126.889 188.472 127.312 188.021C127.748 187.556 127.967 187.077 127.967 186.584C127.967 186.19 127.868 185.838 127.671 185.528C127.474 185.218 127.192 184.979 126.826 184.81C126.474 184.627 126.072 184.535 125.622 184.535C124.861 184.535 124.234 184.782 123.741 185.275C123.248 185.753 122.924 186.444 122.769 187.345L119.938 187.176ZM138.697 197.824C137.401 197.824 136.281 197.507 135.337 196.873C134.408 196.225 133.69 195.317 133.182 194.148C132.69 192.965 132.443 191.584 132.443 190.007C132.443 188.43 132.69 187.049 133.182 185.866C133.69 184.669 134.415 183.753 135.359 183.12C136.302 182.472 137.415 182.148 138.697 182.148C139.978 182.148 141.084 182.472 142.013 183.12C142.957 183.753 143.675 184.662 144.168 185.845C144.675 187.028 144.929 188.415 144.929 190.007C144.929 191.584 144.675 192.965 144.168 194.148C143.675 195.317 142.957 196.225 142.013 196.873C141.084 197.507 139.978 197.824 138.697 197.824ZM138.697 195.437C139.415 195.437 140.028 195.225 140.535 194.803C141.056 194.38 141.443 193.768 141.697 192.965C141.964 192.162 142.098 191.176 142.098 190.007C142.098 188.838 141.964 187.845 141.697 187.028C141.443 186.211 141.056 185.591 140.535 185.169C140.028 184.746 139.415 184.535 138.697 184.535C137.964 184.535 137.344 184.746 136.837 185.169C136.33 185.591 135.943 186.211 135.675 187.028C135.422 187.845 135.295 188.838 135.295 190.007C135.295 191.176 135.422 192.162 135.675 192.965C135.943 193.768 136.33 194.38 136.837 194.803C137.344 195.225 137.964 195.437 138.697 195.437ZM147.654 200.782H146.154L147.062 197.486H149.027L147.654 200.782ZM149.006 194.634V197.486H145.985V194.634H149.006ZM156.317 197.824C155.021 197.824 153.901 197.507 152.958 196.873C152.028 196.225 151.31 195.317 150.803 194.148C150.31 192.965 150.063 191.584 150.063 190.007C150.063 188.43 150.31 187.049 150.803 185.866C151.31 184.669 152.035 183.753 152.979 183.12C153.922 182.472 155.035 182.148 156.317 182.148C157.598 182.148 158.704 182.472 159.634 183.12C160.577 183.753 161.296 184.662 161.789 185.845C162.296 187.028 162.549 188.415 162.549 190.007C162.549 191.584 162.296 192.965 161.789 194.148C161.296 195.317 160.577 196.225 159.634 196.873C158.704 197.507 157.598 197.824 156.317 197.824ZM156.317 195.437C157.035 195.437 157.648 195.225 158.155 194.803C158.676 194.38 159.063 193.768 159.317 192.965C159.584 192.162 159.718 191.176 159.718 190.007C159.718 188.838 159.584 187.845 159.317 187.028C159.063 186.211 158.676 185.591 158.155 185.169C157.648 184.746 157.035 184.535 156.317 184.535C155.584 184.535 154.965 184.746 154.458 185.169C153.951 185.591 153.563 186.211 153.296 187.028C153.042 187.845 152.915 188.838 152.915 190.007C152.915 191.176 153.042 192.162 153.296 192.965C153.563 193.768 153.951 194.38 154.458 194.803C154.965 195.225 155.584 195.437 156.317 195.437ZM169.764 188.507C170.201 188.521 170.609 188.458 170.989 188.317C171.384 188.162 171.701 187.922 171.94 187.599C172.194 187.26 172.32 186.845 172.32 186.352C172.32 185.986 172.215 185.669 172.003 185.401C171.792 185.134 171.496 184.922 171.116 184.768C170.736 184.613 170.285 184.535 169.764 184.535C169.102 184.535 168.553 184.69 168.116 185C167.694 185.296 167.44 185.704 167.356 186.225L164.567 186.056C164.651 185.296 164.926 184.62 165.391 184.028C165.87 183.437 166.489 182.979 167.25 182.655C168.01 182.317 168.863 182.148 169.806 182.148C170.877 182.148 171.813 182.31 172.616 182.634C173.433 182.958 174.06 183.415 174.496 184.007C174.947 184.584 175.172 185.268 175.172 186.056C175.172 186.972 174.87 187.725 174.264 188.317C173.658 188.894 172.778 189.282 171.623 189.479L171.644 189.268C172.503 189.422 173.229 189.69 173.82 190.07C174.426 190.437 174.884 190.901 175.194 191.465C175.517 192.014 175.679 192.648 175.679 193.366C175.679 194.253 175.433 195.035 174.94 195.711C174.461 196.387 173.778 196.908 172.891 197.275C172.003 197.641 170.975 197.824 169.806 197.824C168.736 197.824 167.778 197.634 166.933 197.253C166.102 196.873 165.44 196.338 164.947 195.648C164.454 194.958 164.187 194.162 164.144 193.26L166.954 193.134C167.025 193.88 167.341 194.451 167.905 194.845C168.468 195.239 169.109 195.437 169.827 195.437C170.348 195.437 170.834 195.352 171.285 195.183C171.75 195 172.123 194.725 172.405 194.359C172.687 193.993 172.827 193.535 172.827 192.986C172.827 192.451 172.679 192 172.384 191.634C172.102 191.268 171.729 190.993 171.264 190.81C170.799 190.627 170.299 190.542 169.764 190.556L168.517 190.577V188.486L169.764 188.507ZM187.968 182.486V184.662C186.475 186.465 185.32 188.451 184.503 190.62C183.686 192.775 183.299 195.063 183.341 197.486H180.531C180.531 195.218 180.947 193.007 181.778 190.852C182.623 188.697 183.792 186.704 185.285 184.873H177.024V182.486H187.968ZM192.21 194.634V197.486H189.189V194.634H192.21Z" fill="#1A1A1A"/>
<path d="M202.767 188.393C202.598 187.976 202.338 187.66 201.989 187.446C201.651 187.221 201.24 187.108 200.755 187.108C199.876 187.108 199.189 187.508 198.693 188.308C198.209 189.097 197.955 190.196 197.933 191.604L197.747 191.553C198.051 190.877 198.474 190.365 199.014 190.015C199.567 189.666 200.203 189.491 200.924 189.491C201.702 189.491 202.389 189.66 202.986 189.999C203.595 190.337 204.068 190.815 204.406 191.435C204.744 192.044 204.913 192.742 204.913 193.531C204.913 194.399 204.716 195.153 204.322 195.796C203.938 196.427 203.403 196.911 202.716 197.249C202.04 197.587 201.268 197.756 200.4 197.756C199.769 197.756 199.178 197.638 198.626 197.401C198.074 197.153 197.578 196.782 197.138 196.286C196.721 195.835 196.406 195.26 196.192 194.562C195.989 193.852 195.888 193.046 195.888 192.145C195.888 190.849 196.057 189.683 196.395 188.646C196.733 187.61 197.268 186.782 198 186.162C198.733 185.531 199.662 185.215 200.789 185.215C201.431 185.215 202.029 185.339 202.581 185.587C203.144 185.824 203.623 186.168 204.017 186.618C204.412 187.069 204.688 187.615 204.845 188.258L202.767 188.393ZM198.136 193.531C198.136 193.993 198.231 194.41 198.423 194.782C198.614 195.153 198.885 195.446 199.234 195.66C199.583 195.863 199.983 195.965 200.434 195.965C200.874 195.965 201.262 195.863 201.6 195.66C201.95 195.446 202.22 195.153 202.412 194.782C202.603 194.41 202.699 193.993 202.699 193.531C202.699 193.091 202.603 192.691 202.412 192.331C202.231 191.959 201.978 191.677 201.651 191.486C201.324 191.283 200.947 191.182 200.519 191.182C200.068 191.182 199.662 191.283 199.302 191.486C198.941 191.677 198.654 191.959 198.44 192.331C198.237 192.691 198.136 193.091 198.136 193.531ZM215.011 193.294H216.329V195.221H215.011V197.486H212.797V195.221H206.678V193.311L212.425 185.486H215.011V193.294ZM212.797 193.294V188.393L209.163 193.294H212.797Z" fill="#1A1A1A"/>
<path d="M85.1849 218.922C84.4384 218.922 83.787 218.764 83.2307 218.447C82.6814 218.13 82.2624 217.679 81.9736 217.095C81.6849 216.503 81.5405 215.81 81.5405 215.014C81.5405 214.211 81.6849 213.514 81.9736 212.922C82.2624 212.331 82.6814 211.877 83.2307 211.56C83.78 211.243 84.4314 211.084 85.1849 211.084C85.9384 211.084 86.5898 211.243 87.1391 211.56C87.6884 211.877 88.1074 212.331 88.3962 212.922C88.6919 213.514 88.8398 214.211 88.8398 215.014C88.8398 215.81 88.6919 216.503 88.3962 217.095C88.1074 217.679 87.6884 218.13 87.1391 218.447C86.5898 218.764 85.9384 218.922 85.1849 218.922ZM85.1849 217.57C85.6004 217.57 85.956 217.472 86.2518 217.275C86.5546 217.07 86.7835 216.775 86.9384 216.387C87.1004 216 87.1814 215.542 87.1814 215.014C87.1814 214.479 87.1004 214.018 86.9384 213.63C86.7835 213.243 86.5546 212.947 86.2518 212.743C85.956 212.539 85.6004 212.437 85.1849 212.437C84.7694 212.437 84.4138 212.539 84.118 212.743C83.8222 212.947 83.5933 213.243 83.4314 213.63C83.2764 214.018 83.199 214.479 83.199 215.014C83.199 215.542 83.2764 216 83.4314 216.387C83.5933 216.775 83.8222 217.07 84.118 217.275C84.4138 217.472 84.7694 217.57 85.1849 217.57ZM91.3099 213.155L91.3522 214.803L91.236 214.75C91.3205 214.215 91.4789 213.817 91.7113 213.556C91.9437 213.289 92.2677 213.155 92.6832 213.155H93.2008V214.338H92.6726C92.3698 214.338 92.1233 214.387 91.9332 214.486C91.743 214.577 91.6022 214.722 91.5106 214.919C91.4261 215.109 91.3839 215.352 91.3839 215.648V218.753H89.7994V213.155H91.3099ZM95.8919 211.253V213.937C96.0538 213.648 96.2827 213.426 96.5785 213.271C96.8743 213.109 97.1982 213.028 97.5503 213.028C98.0292 213.028 98.4482 213.148 98.8074 213.387C99.1665 213.627 99.4412 213.968 99.6313 214.412C99.8214 214.848 99.9165 215.363 99.9165 215.954C99.9165 216.546 99.8214 217.063 99.6313 217.507C99.4412 217.944 99.1665 218.282 98.8074 218.521C98.4482 218.76 98.0292 218.88 97.5503 218.88C97.1771 218.88 96.839 218.799 96.5362 218.637C96.2405 218.468 96.0116 218.236 95.8496 217.94L95.8179 218.753H94.3074V211.253H95.8919ZM95.7968 215.954C95.7968 216.299 95.8461 216.602 95.9447 216.863C96.0503 217.123 96.1947 217.324 96.3778 217.465C96.5679 217.606 96.7933 217.676 97.0538 217.676C97.42 217.676 97.7158 217.521 97.9412 217.211C98.1736 216.894 98.2897 216.475 98.2897 215.954C98.2897 215.426 98.1771 215.003 97.9517 214.687C97.7264 214.37 97.4271 214.211 97.0538 214.211C96.7933 214.211 96.5679 214.285 96.3778 214.433C96.1947 214.574 96.0503 214.775 95.9447 215.035C95.8461 215.296 95.7968 215.602 95.7968 215.954ZM102.473 213.155V218.753H100.889V213.155H102.473ZM102.494 211.253V212.426H100.857V211.253H102.494ZM105.79 211.877V216.926C105.79 217.13 105.843 217.289 105.948 217.401C106.054 217.514 106.205 217.57 106.402 217.57H107.258V218.753H106.064C105.445 218.753 104.976 218.602 104.659 218.299C104.35 217.989 104.195 217.532 104.195 216.926V211.877H105.79ZM107.247 213.155V214.327H103.286V213.155H107.247ZM114.355 215.299C114.313 214.968 114.189 214.711 113.985 214.528C113.788 214.338 113.545 214.243 113.256 214.243C112.862 214.243 112.556 214.394 112.337 214.697C112.119 214.993 112.01 215.412 112.01 215.954C112.01 216.496 112.119 216.919 112.337 217.222C112.556 217.518 112.862 217.665 113.256 217.665C113.559 217.665 113.809 217.57 114.006 217.38C114.21 217.19 114.337 216.915 114.387 216.556L116.024 216.62C115.975 217.077 115.823 217.479 115.57 217.824C115.323 218.162 114.999 218.422 114.598 218.606C114.196 218.789 113.749 218.88 113.256 218.88C112.686 218.88 112.182 218.76 111.746 218.521C111.309 218.275 110.971 217.933 110.732 217.496C110.499 217.053 110.383 216.539 110.383 215.954C110.383 215.37 110.499 214.859 110.732 214.422C110.971 213.979 111.309 213.637 111.746 213.398C112.182 213.151 112.686 213.028 113.256 213.028C113.735 213.028 114.172 213.116 114.566 213.292C114.968 213.468 115.291 213.725 115.538 214.063C115.784 214.394 115.932 214.782 115.982 215.225L114.355 215.299ZM119.611 218.88C119.033 218.88 118.526 218.76 118.09 218.521C117.66 218.275 117.326 217.933 117.086 217.496C116.854 217.053 116.738 216.539 116.738 215.954C116.738 215.37 116.854 214.859 117.086 214.422C117.326 213.979 117.66 213.637 118.09 213.398C118.526 213.151 119.033 213.028 119.611 213.028C120.181 213.028 120.681 213.151 121.111 213.398C121.547 213.637 121.885 213.979 122.125 214.422C122.364 214.859 122.484 215.37 122.484 215.954C122.484 216.539 122.364 217.053 122.125 217.496C121.885 217.933 121.547 218.275 121.111 218.521C120.681 218.76 120.181 218.88 119.611 218.88ZM119.611 217.665C120.005 217.665 120.308 217.518 120.519 217.222C120.738 216.919 120.847 216.496 120.847 215.954C120.847 215.412 120.738 214.993 120.519 214.697C120.308 214.394 120.005 214.243 119.611 214.243C119.216 214.243 118.91 214.394 118.692 214.697C118.473 214.993 118.364 215.412 118.364 215.954C118.364 216.496 118.473 216.919 118.692 217.222C118.91 217.518 119.216 217.665 119.611 217.665ZM125.044 213.155V218.753H123.46V213.155H125.044ZM125.065 211.253V212.426H123.428V211.253H125.065ZM127.723 213.155L127.786 214.792L127.585 214.729C127.663 214.13 127.864 213.697 128.188 213.429C128.518 213.162 128.934 213.028 129.434 213.028C130.04 213.028 130.511 213.218 130.849 213.598C131.188 213.979 131.357 214.496 131.357 215.151V218.753H129.772V215.679C129.772 215.201 129.709 214.848 129.582 214.623C129.455 214.398 129.23 214.285 128.906 214.285C128.575 214.285 128.321 214.405 128.145 214.644C127.969 214.884 127.881 215.229 127.881 215.679V218.753H126.297V213.155H127.723Z" fill="#C5C5C5"/>
<path d="M144.786 219.951C142.193 219.951 140.091 217.849 140.091 215.256C140.091 212.663 142.193 210.561 144.786 210.561C147.379 210.561 149.481 212.663 149.481 215.256C149.481 217.849 147.379 219.951 144.786 219.951ZM143.612 213.847L142.439 215.021L144.786 217.369L147.134 215.021L145.96 213.847H143.612Z" fill="#00C159"/>
<path d="M153.9 213.641C153.942 213.148 154.086 212.708 154.333 212.32C154.586 211.933 154.928 211.63 155.358 211.412C155.787 211.194 156.27 211.084 156.805 211.084C157.319 211.084 157.78 211.183 158.189 211.38C158.604 211.577 158.928 211.848 159.16 212.194C159.393 212.539 159.509 212.929 159.509 213.366C159.509 213.725 159.421 214.049 159.245 214.338C159.076 214.627 158.854 214.884 158.579 215.109C158.305 215.327 157.967 215.549 157.565 215.775C157.347 215.894 157.108 216.042 156.847 216.218C156.594 216.387 156.358 216.581 156.139 216.799C155.928 217.01 155.815 217.211 155.801 217.401H159.53V218.753H153.847C153.847 218.106 153.949 217.546 154.153 217.074C154.358 216.595 154.625 216.19 154.956 215.859C155.294 215.528 155.731 215.204 156.266 214.887L156.615 214.687C157.037 214.426 157.351 214.194 157.555 213.989C157.759 213.785 157.861 213.57 157.861 213.345C157.861 213.176 157.815 213.021 157.724 212.88C157.632 212.739 157.506 212.63 157.344 212.553C157.189 212.475 157.009 212.437 156.805 212.437C156.474 212.437 156.199 212.549 155.981 212.775C155.763 212.993 155.618 213.313 155.548 213.736L153.9 213.641ZM163.678 218.922C163.016 218.922 162.445 218.764 161.966 218.447C161.487 218.123 161.121 217.669 160.868 217.084C160.614 216.493 160.487 215.803 160.487 215.014C160.487 214.225 160.614 213.535 160.868 212.944C161.121 212.352 161.487 211.894 161.966 211.57C162.445 211.246 163.016 211.084 163.678 211.084C164.347 211.084 164.921 211.246 165.399 211.57C165.878 211.894 166.244 212.352 166.498 212.944C166.752 213.535 166.878 214.225 166.878 215.014C166.878 215.803 166.752 216.493 166.498 217.084C166.244 217.669 165.878 218.123 165.399 218.447C164.921 218.764 164.347 218.922 163.678 218.922ZM163.678 217.57C164.009 217.57 164.287 217.475 164.512 217.285C164.744 217.088 164.921 216.799 165.04 216.419C165.16 216.032 165.22 215.563 165.22 215.014C165.22 214.458 165.16 213.989 165.04 213.609C164.921 213.222 164.744 212.929 164.512 212.732C164.287 212.535 164.009 212.437 163.678 212.437C163.347 212.437 163.065 212.535 162.833 212.732C162.607 212.929 162.435 213.222 162.315 213.609C162.195 213.989 162.135 214.458 162.135 215.014C162.135 215.563 162.195 216.032 162.315 216.419C162.435 216.799 162.607 217.088 162.833 217.285C163.065 217.475 163.347 217.57 163.678 217.57ZM168.534 220.422H167.679L168.154 218.753H169.253L168.534 220.422ZM169.253 217.19V218.753H167.562V217.19H169.253ZM173.137 218.922C172.475 218.922 171.905 218.764 171.426 218.447C170.947 218.123 170.581 217.669 170.327 217.084C170.074 216.493 169.947 215.803 169.947 215.014C169.947 214.225 170.074 213.535 170.327 212.944C170.581 212.352 170.947 211.894 171.426 211.57C171.905 211.246 172.475 211.084 173.137 211.084C173.806 211.084 174.38 211.246 174.859 211.57C175.338 211.894 175.704 212.352 175.958 212.944C176.211 213.535 176.338 214.225 176.338 215.014C176.338 215.803 176.211 216.493 175.958 217.084C175.704 217.669 175.338 218.123 174.859 218.447C174.38 218.764 173.806 218.922 173.137 218.922ZM173.137 217.57C173.468 217.57 173.746 217.475 173.972 217.285C174.204 217.088 174.38 216.799 174.5 216.419C174.62 216.032 174.679 215.563 174.679 215.014C174.679 214.458 174.62 213.989 174.5 213.609C174.38 213.222 174.204 212.929 173.972 212.732C173.746 212.535 173.468 212.437 173.137 212.437C172.806 212.437 172.525 212.535 172.292 212.732C172.067 212.929 171.894 213.222 171.775 213.609C171.655 213.989 171.595 214.458 171.595 215.014C171.595 215.563 171.655 216.032 171.775 216.419C171.894 216.799 172.067 217.088 172.292 217.285C172.525 217.475 172.806 217.57 173.137 217.57ZM180.492 218.922C179.83 218.922 179.26 218.764 178.781 218.447C178.302 218.123 177.936 217.669 177.682 217.084C177.429 216.493 177.302 215.803 177.302 215.014C177.302 214.225 177.429 213.535 177.682 212.944C177.936 212.352 178.302 211.894 178.781 211.57C179.26 211.246 179.83 211.084 180.492 211.084C181.161 211.084 181.735 211.246 182.214 211.57C182.693 211.894 183.059 212.352 183.313 212.944C183.566 213.535 183.693 214.225 183.693 215.014C183.693 215.803 183.566 216.493 183.313 217.084C183.059 217.669 182.693 218.123 182.214 218.447C181.735 218.764 181.161 218.922 180.492 218.922ZM180.492 217.57C180.823 217.57 181.102 217.475 181.327 217.285C181.559 217.088 181.735 216.799 181.855 216.419C181.975 216.032 182.035 215.563 182.035 215.014C182.035 214.458 181.975 213.989 181.855 213.609C181.735 213.222 181.559 212.929 181.327 212.732C181.102 212.535 180.823 212.437 180.492 212.437C180.161 212.437 179.88 212.535 179.647 212.732C179.422 212.929 179.249 213.222 179.13 213.609C179.01 213.989 178.95 214.458 178.95 215.014C178.95 215.563 179.01 216.032 179.13 216.419C179.249 216.799 179.422 217.088 179.647 217.285C179.88 217.475 180.161 217.57 180.492 217.57ZM187.848 218.922C187.186 218.922 186.615 218.764 186.136 218.447C185.657 218.123 185.291 217.669 185.038 217.084C184.784 216.493 184.657 215.803 184.657 215.014C184.657 214.225 184.784 213.535 185.038 212.944C185.291 212.352 185.657 211.894 186.136 211.57C186.615 211.246 187.186 211.084 187.848 211.084C188.517 211.084 189.09 211.246 189.569 211.57C190.048 211.894 190.414 212.352 190.668 212.944C190.921 213.535 191.048 214.225 191.048 215.014C191.048 215.803 190.921 216.493 190.668 217.084C190.414 217.669 190.048 218.123 189.569 218.447C189.09 218.764 188.517 218.922 187.848 218.922ZM187.848 217.57C188.179 217.57 188.457 217.475 188.682 217.285C188.914 217.088 189.09 216.799 189.21 216.419C189.33 216.032 189.39 215.563 189.39 215.014C189.39 214.458 189.33 213.989 189.21 213.609C189.09 213.222 188.914 212.929 188.682 212.732C188.457 212.535 188.179 212.437 187.848 212.437C187.517 212.437 187.235 212.535 187.002 212.732C186.777 212.929 186.605 213.222 186.485 213.609C186.365 213.989 186.305 214.458 186.305 215.014C186.305 215.563 186.365 216.032 186.485 216.419C186.605 216.799 186.777 217.088 187.002 217.285C187.235 217.475 187.517 217.57 187.848 217.57Z" fill="#00C159"/>
<path d="M20.9914 252.406V253.679H17.0703V255.764H20.8562V257.026H17.0703V259.133H21.0816V260.406H15.6055V252.406H20.9914ZM28.0448 254.434L25.9603 257.364L28.1236 260.406H26.5011L25.1152 258.333L23.718 260.406H22.0955L24.2589 257.364L22.1743 254.434H23.7969L25.1152 256.395L26.4335 254.434H28.0448ZM29.3705 254.434H30.7451L30.7902 255.696L30.6662 255.572C30.8165 255.159 31.0531 254.844 31.3761 254.626C31.7066 254.408 32.1047 254.299 32.5705 254.299C33.1263 254.299 33.5958 254.438 33.9789 254.716C34.3695 254.987 34.6587 255.358 34.8465 255.832C35.0418 256.305 35.1395 256.834 35.1395 257.42C35.1395 258.006 35.0418 258.536 34.8465 259.009C34.6587 259.482 34.3695 259.858 33.9789 260.136C33.5958 260.406 33.1263 260.541 32.5705 260.541C32.27 260.541 31.9921 260.493 31.7367 260.395C31.4888 260.297 31.2747 260.151 31.0944 259.956C30.9141 259.76 30.7752 259.527 30.6775 259.257L30.8127 259.144V262.096H29.3705V254.434ZM30.7113 257.42C30.7113 257.773 30.7639 258.1 30.8691 258.401C30.9817 258.701 31.147 258.941 31.3648 259.122C31.5827 259.295 31.8531 259.381 32.1761 259.381C32.6569 259.381 33.0174 259.197 33.2578 258.829C33.5057 258.453 33.6296 257.984 33.6296 257.42C33.6296 256.864 33.5057 256.399 33.2578 256.023C33.0099 255.648 32.6493 255.46 32.1761 255.46C31.8531 255.46 31.5827 255.55 31.3648 255.73C31.147 255.91 30.9817 256.151 30.8691 256.451C30.7639 256.744 30.7113 257.067 30.7113 257.42ZM35.9935 257.42C35.9935 256.797 36.1175 256.249 36.3654 255.775C36.6133 255.302 36.9588 254.938 37.402 254.682C37.8452 254.427 38.3635 254.299 38.9569 254.299C39.4827 254.299 39.956 254.419 40.3766 254.66C40.7973 254.9 41.1316 255.257 41.3795 255.73C41.6273 256.203 41.755 256.782 41.7626 257.465V257.815H37.5147C37.5447 258.31 37.6837 258.701 37.9316 258.987C38.187 259.264 38.5287 259.403 38.9569 259.403C39.2273 259.403 39.4752 259.328 39.7006 259.178C39.9259 259.028 40.0949 258.825 40.2076 258.57L41.6837 258.682C41.5034 259.246 41.1654 259.696 40.6696 260.034C40.1738 260.372 39.6029 260.541 38.9569 260.541C38.3635 260.541 37.8452 260.414 37.402 260.158C36.9588 259.903 36.6133 259.539 36.3654 259.065C36.1175 258.592 35.9935 258.044 35.9935 257.42ZM40.2752 256.857C40.2226 256.369 40.0762 256.012 39.8358 255.787C39.5954 255.554 39.3025 255.437 38.9569 255.437C38.5588 255.437 38.2358 255.561 37.9879 255.809C37.74 256.057 37.586 256.406 37.5259 256.857H40.2752ZM44.17 254.434L44.2376 256.113L44.0574 256.023C44.14 255.43 44.3541 254.994 44.6996 254.716C45.0527 254.438 45.4883 254.299 46.0067 254.299C46.6527 254.299 47.156 254.506 47.5165 254.919C47.8771 255.325 48.0574 255.873 48.0574 256.564V260.406H46.6038V257.026C46.6038 256.5 46.525 256.11 46.3672 255.854C46.2095 255.599 45.9428 255.471 45.5672 255.471C45.1691 255.471 44.8574 255.606 44.632 255.877C44.4142 256.14 44.3052 256.523 44.3052 257.026V260.406H42.863V254.434H44.17ZM52.9434 256.35C52.8909 256.057 52.7481 255.824 52.5153 255.651C52.2824 255.471 52.0195 255.381 51.7265 255.381C51.4411 255.381 51.2007 255.452 51.0054 255.595C50.8176 255.738 50.7275 255.925 50.735 256.158C50.7425 256.384 50.8552 256.556 51.073 256.677C51.2909 256.797 51.5801 256.891 51.9406 256.958C52.519 257.056 52.9885 257.176 53.3491 257.319C53.7172 257.462 53.9951 257.653 54.1829 257.894C54.3782 258.134 54.4758 258.438 54.4758 258.806C54.4758 259.189 54.3632 259.512 54.1378 259.775C53.9125 260.031 53.6082 260.222 53.2251 260.35C52.842 260.478 52.4101 260.541 51.9294 260.541C51.3885 260.541 50.9078 260.463 50.4871 260.305C50.074 260.14 49.7434 259.903 49.4956 259.595C49.2552 259.287 49.12 258.926 49.0899 258.513L50.566 258.434C50.6035 258.645 50.6787 258.825 50.7913 258.975C50.904 259.125 51.0542 259.242 51.242 259.325C51.4298 259.407 51.6477 259.449 51.8956 259.449C52.1885 259.449 52.4439 259.392 52.6618 259.279C52.8796 259.167 52.9848 258.998 52.9773 258.772C52.9773 258.615 52.9284 258.487 52.8308 258.389C52.7406 258.292 52.6242 258.22 52.4815 258.175C52.3463 258.123 52.1622 258.07 51.9294 258.018C51.8693 258.002 51.7942 257.987 51.704 257.972C51.1481 257.86 50.6974 257.736 50.3519 257.601C50.0064 257.465 49.7322 257.285 49.5294 257.06C49.3341 256.827 49.2364 256.534 49.2364 256.181C49.2364 255.79 49.3378 255.456 49.5406 255.178C49.751 254.893 50.0477 254.675 50.4308 254.525C50.8214 254.374 51.2796 254.299 51.8054 254.299C52.5115 254.299 53.0937 254.476 53.5519 254.829C54.0176 255.182 54.3031 255.666 54.4082 256.282L52.9434 256.35ZM55.3245 257.42C55.3245 256.797 55.4485 256.249 55.6964 255.775C55.9442 255.302 56.2898 254.938 56.733 254.682C57.1762 254.427 57.6945 254.299 58.2879 254.299C58.8137 254.299 59.287 254.419 59.7076 254.66C60.1283 254.9 60.4626 255.257 60.7104 255.73C60.9583 256.203 61.086 256.782 61.0935 257.465V257.815H56.8457C56.8757 258.31 57.0147 258.701 57.2626 258.987C57.518 259.264 57.8597 259.403 58.2879 259.403C58.5583 259.403 58.8062 259.328 59.0316 259.178C59.2569 259.028 59.4259 258.825 59.5386 258.57L61.0147 258.682C60.8344 259.246 60.4964 259.696 60.0006 260.034C59.5048 260.372 58.9339 260.541 58.2879 260.541C57.6945 260.541 57.1762 260.414 56.733 260.158C56.2898 259.903 55.9442 259.539 55.6964 259.065C55.4485 258.592 55.3245 258.044 55.3245 257.42ZM59.6062 256.857C59.5536 256.369 59.4072 256.012 59.1668 255.787C58.9264 255.554 58.6334 255.437 58.2879 255.437C57.8898 255.437 57.5668 255.561 57.3189 255.809C57.071 256.057 56.917 256.406 56.8569 256.857H59.6062ZM66.3167 252.406V255.246C66.497 254.953 66.7449 254.724 67.0604 254.558C67.3758 254.386 67.7289 254.299 68.1195 254.299C68.6303 254.299 69.0773 254.427 69.4604 254.682C69.8435 254.938 70.1364 255.302 70.3392 255.775C70.542 256.241 70.6435 256.789 70.6435 257.42C70.6435 258.051 70.542 258.603 70.3392 259.077C70.1364 259.542 69.8435 259.903 69.4604 260.158C69.0773 260.414 68.6303 260.541 68.1195 260.541C67.7139 260.541 67.3496 260.455 67.0265 260.282C66.7035 260.102 66.4557 259.858 66.2829 259.55L66.2491 260.406H64.8744V252.406H66.3167ZM66.2266 257.42C66.2266 257.818 66.2866 258.164 66.4068 258.457C66.527 258.75 66.696 258.979 66.9139 259.144C67.1392 259.302 67.3984 259.381 67.6913 259.381C68.1345 259.381 68.4876 259.204 68.7505 258.851C69.0209 258.491 69.1561 258.014 69.1561 257.42C69.1561 256.812 69.0247 256.327 68.7618 255.967C68.4989 255.606 68.142 255.426 67.6913 255.426C67.3984 255.426 67.1392 255.509 66.9139 255.674C66.696 255.832 66.527 256.061 66.4068 256.361C66.2866 256.662 66.2266 257.015 66.2266 257.42ZM73.0883 254.434L73.1447 256.125L73.032 256.068C73.1146 255.512 73.2761 255.103 73.5165 254.84C73.7644 254.57 74.1137 254.434 74.5644 254.434H75.1165V255.55H74.5531C74.2376 255.55 73.9785 255.606 73.7757 255.719C73.5729 255.824 73.4226 255.986 73.325 256.203C73.2273 256.414 73.1785 256.68 73.1785 257.003V260.406H71.7362V254.434H73.0883ZM75.5864 257.42C75.5864 256.797 75.7104 256.249 75.9582 255.775C76.2061 255.302 76.5517 254.938 76.9949 254.682C77.4381 254.427 77.9564 254.299 78.5498 254.299C79.0756 254.299 79.5488 254.419 79.9695 254.66C80.3902 254.9 80.7244 255.257 80.9723 255.73C81.2202 256.203 81.3479 256.782 81.3554 257.465V257.815H77.1075C77.1376 258.31 77.2765 258.701 77.5244 258.987C77.7798 259.264 78.1216 259.403 78.5498 259.403C78.8202 259.403 79.0681 259.328 79.2934 259.178C79.5188 259.028 79.6878 258.825 79.8005 258.57L81.2765 258.682C81.0963 259.246 80.7582 259.696 80.2625 260.034C79.7667 260.372 79.1958 260.541 78.5498 260.541C77.9564 260.541 77.4381 260.414 76.9949 260.158C76.5517 259.903 76.2061 259.539 75.9582 259.065C75.7104 258.592 75.5864 258.044 75.5864 257.42ZM79.8681 256.857C79.8155 256.369 79.669 256.012 79.4287 255.787C79.1883 255.554 78.8953 255.437 78.5498 255.437C78.1517 255.437 77.8287 255.561 77.5808 255.809C77.3329 256.057 77.1789 256.406 77.1188 256.857H79.8681ZM82.3956 256.26C82.5158 255.636 82.805 255.156 83.2632 254.818C83.7289 254.472 84.3298 254.299 85.066 254.299C85.9223 254.299 86.5721 254.517 87.0153 254.953C87.466 255.388 87.6913 256.027 87.6913 256.868V258.919C87.6913 259.084 87.7214 259.201 87.7815 259.268C87.8491 259.328 87.943 259.358 88.0632 259.358H88.2998V260.406L87.9618 260.418H87.8378C87.4923 260.433 87.1843 260.38 86.9139 260.26C86.6435 260.132 86.4857 259.877 86.4406 259.494C86.2904 259.809 86.0425 260.064 85.697 260.26C85.3589 260.448 84.942 260.541 84.4463 260.541C83.8303 260.541 83.3158 260.387 82.9026 260.079C82.497 259.772 82.2942 259.358 82.2942 258.84C82.2942 258.464 82.3805 258.16 82.5533 257.927C82.7336 257.695 82.9852 257.514 83.3082 257.387C83.6312 257.251 84.0519 257.131 84.5702 257.026L86.2378 256.699C86.2378 256.233 86.1402 255.892 85.9449 255.674C85.7496 255.449 85.4566 255.336 85.066 255.336C84.743 255.336 84.4801 255.422 84.2773 255.595C84.0744 255.76 83.9392 256.008 83.8716 256.339L82.3956 256.26ZM83.7927 258.795C83.7927 259.013 83.8829 259.189 84.0632 259.325C84.2435 259.46 84.5026 259.527 84.8406 259.527C85.1186 259.527 85.3627 259.46 85.573 259.325C85.7909 259.189 85.9599 258.99 86.0801 258.727C86.2078 258.457 86.2716 258.134 86.2716 257.758V257.679L85.1336 257.882C85.081 257.89 85.0247 257.897 84.9646 257.905C84.6942 257.957 84.4763 258.014 84.3111 258.074C84.1533 258.126 84.0256 258.213 83.928 258.333C83.8378 258.446 83.7927 258.6 83.7927 258.795ZM90.7379 252.406V257.127L93.183 254.434H94.952L92.6196 256.902L95.0647 260.406H93.4421L91.6731 257.77L90.7379 258.772V260.406H89.2957V252.406H90.7379ZM99.5743 252.406H101.017V260.406H99.6419L99.6081 259.55C99.4353 259.858 99.1874 260.102 98.8644 260.282C98.5414 260.455 98.1771 260.541 97.7714 260.541C97.2606 260.541 96.8137 260.414 96.4306 260.158C96.0475 259.903 95.7545 259.542 95.5517 259.077C95.3489 258.603 95.2475 258.051 95.2475 257.42C95.2475 256.789 95.3489 256.241 95.5517 255.775C95.7545 255.302 96.0475 254.938 96.4306 254.682C96.8137 254.427 97.2606 254.299 97.7714 254.299C98.1621 254.299 98.5151 254.386 98.8306 254.558C99.1461 254.724 99.394 254.953 99.5743 255.246V252.406ZM99.4841 258.457C99.6043 258.164 99.6644 257.818 99.6644 257.42C99.6644 257.015 99.6043 256.662 99.4841 256.361C99.3639 256.061 99.1912 255.832 98.9658 255.674C98.748 255.509 98.4926 255.426 98.1996 255.426C97.7489 255.426 97.3921 255.606 97.1292 255.967C96.8663 256.327 96.7348 256.812 96.7348 257.42C96.7348 258.014 96.8663 258.491 97.1292 258.851C97.3996 259.204 97.7564 259.381 98.1996 259.381C98.4926 259.381 98.748 259.302 98.9658 259.144C99.1912 258.979 99.3639 258.75 99.4841 258.457ZM105.128 260.541C104.534 260.541 104.016 260.414 103.573 260.158C103.13 259.903 102.784 259.542 102.536 259.077C102.288 258.603 102.164 258.051 102.164 257.42C102.164 256.789 102.288 256.241 102.536 255.775C102.784 255.302 103.13 254.938 103.573 254.682C104.016 254.427 104.534 254.299 105.128 254.299C105.714 254.299 106.228 254.427 106.671 254.682C107.122 254.938 107.468 255.302 107.708 255.775C107.956 256.241 108.08 256.789 108.08 257.42C108.08 258.051 107.956 258.603 107.708 259.077C107.468 259.542 107.122 259.903 106.671 260.158C106.228 260.414 105.714 260.541 105.128 260.541ZM105.128 259.37C105.593 259.37 105.954 259.201 106.209 258.863C106.465 258.517 106.592 258.036 106.592 257.42C106.592 256.804 106.465 256.327 106.209 255.989C105.954 255.644 105.593 255.471 105.128 255.471C104.662 255.471 104.301 255.64 104.046 255.978C103.791 256.316 103.663 256.797 103.663 257.42C103.663 258.044 103.791 258.525 104.046 258.863C104.301 259.201 104.662 259.37 105.128 259.37ZM114.737 258.75L115.965 254.434H117.374L115.549 260.406H114.072L112.889 256.384L111.706 260.406H110.23L108.405 254.434H109.802L111.019 258.75L112.258 254.434H113.509L114.737 258.75ZM119.645 254.434L119.713 256.113L119.533 256.023C119.615 255.43 119.829 254.994 120.175 254.716C120.528 254.438 120.964 254.299 121.482 254.299C122.128 254.299 122.631 254.506 122.992 254.919C123.352 255.325 123.533 255.873 123.533 256.564V260.406H122.079V257.026C122.079 256.5 122 256.11 121.843 255.854C121.685 255.599 121.418 255.471 121.043 255.471C120.644 255.471 120.333 255.606 120.107 255.877C119.89 256.14 119.781 256.523 119.781 257.026V260.406H118.338V254.434H119.645Z" fill="#BABABA"/>
<rect x="14.7041" y="281.308" width="121.479" height="63.5211" rx="11.2676" fill="#F9F9F9"/>
<path d="M30.1975 294.922H35.8313C36.0906 294.922 36.3008 295.133 36.3008 295.392V303.843C36.3008 304.102 36.0906 304.312 35.8313 304.312H30.1975C29.9382 304.312 29.728 304.102 29.728 303.843V295.392C29.728 295.133 29.9382 294.922 30.1975 294.922ZM33.0144 301.965C32.7551 301.965 32.5449 302.175 32.5449 302.434C32.5449 302.693 32.7551 302.904 33.0144 302.904C33.2737 302.904 33.4839 302.693 33.4839 302.434C33.4839 302.175 33.2737 301.965 33.0144 301.965Z" fill="#D1D1D1"/>
<path d="M44.2155 296.118H45.7832L48.3071 303.118H46.9663L46.3846 301.461H43.6141L43.0324 303.118H41.6916L44.2155 296.118ZM46.0099 300.367L45.0043 297.409L43.9888 300.367H46.0099ZM50.4936 297.892V303.118H49.2316V297.892H50.4936ZM50.5232 296.128V297.173H49.2119V296.128H50.5232ZM52.9277 297.892L52.9769 299.371L52.8784 299.322C52.9507 298.836 53.092 298.477 53.3023 298.247C53.5192 298.011 53.8248 297.892 54.2192 297.892H54.7023V298.868H54.2093C53.9333 298.868 53.7065 298.918 53.5291 299.016C53.3516 299.108 53.2201 299.25 53.1347 299.44C53.0492 299.624 53.0065 299.858 53.0065 300.14V303.118H51.7446V297.892H52.9277ZM57.5261 296.709V301.511C57.5261 301.714 57.5754 301.872 57.674 301.984C57.7792 302.089 57.927 302.142 58.1176 302.142H58.9064V303.118H57.9106C57.3716 303.118 56.9608 302.983 56.6782 302.713C56.4022 302.444 56.2641 302.043 56.2641 301.511V296.709H57.5261ZM58.9064 297.892V298.868H55.436V297.892H58.9064ZM61.1808 297.892V303.118H59.9188V297.892H61.1808ZM61.2103 296.128V297.173H59.8991V296.128H61.2103ZM63.5754 297.892L63.605 298.73C63.7364 298.428 63.9303 298.195 64.1867 298.03C64.443 297.859 64.7421 297.774 65.0838 297.774C65.4519 297.774 65.7641 297.869 66.0205 298.06C66.2834 298.244 66.4707 298.51 66.5824 298.859C66.7073 298.504 66.9012 298.234 67.1641 298.05C67.427 297.866 67.7491 297.774 68.1303 297.774C68.4787 297.774 68.781 297.85 69.0374 298.001C69.3003 298.152 69.5007 298.379 69.6388 298.681C69.7768 298.977 69.8458 299.335 69.8458 299.756V303.118H68.5838V300.16C68.5838 299.713 68.5115 299.374 68.3669 299.144C68.2289 298.914 68.0219 298.799 67.7458 298.799C67.5289 298.799 67.3416 298.852 67.1838 298.957C67.0261 299.062 66.9078 299.217 66.8289 299.42C66.75 299.624 66.7106 299.871 66.7106 300.16V303.118H65.5571V300.16C65.5571 299.713 65.4848 299.374 65.3402 299.144C65.2021 298.914 65.0017 298.799 64.7388 298.799C64.5153 298.799 64.3247 298.852 64.1669 298.957C64.0158 299.062 63.8974 299.217 63.812 299.42C63.7331 299.624 63.6937 299.871 63.6937 300.16V303.118H62.4317V297.892H63.5754ZM70.8207 300.505C70.8207 299.959 70.9292 299.48 71.1461 299.066C71.363 298.651 71.6653 298.333 72.0531 298.109C72.4409 297.886 72.8944 297.774 73.4137 297.774C73.8738 297.774 74.2878 297.879 74.6559 298.09C75.024 298.3 75.3165 298.612 75.5334 299.026C75.7503 299.44 75.862 299.946 75.8686 300.544V300.85H72.1517C72.178 301.284 72.2996 301.626 72.5165 301.875C72.74 302.119 73.039 302.24 73.4137 302.24C73.6503 302.24 73.8672 302.174 74.0644 302.043C74.2616 301.912 74.4094 301.734 74.508 301.511L75.7996 301.609C75.6418 302.102 75.3461 302.497 74.9123 302.792C74.4785 303.088 73.9789 303.236 73.4137 303.236C72.8944 303.236 72.4409 303.124 72.0531 302.901C71.6653 302.677 71.363 302.359 71.1461 301.944C70.9292 301.53 70.8207 301.051 70.8207 300.505ZM74.5672 300.012C74.5212 299.585 74.393 299.273 74.1827 299.075C73.9724 298.872 73.716 298.77 73.4137 298.77C73.0653 298.77 72.7827 298.878 72.5658 299.095C72.3489 299.312 72.2141 299.618 72.1616 300.012H74.5672Z" fill="#A3A3A3"/>
<path d="M109.357 296.801H113.637C113.733 296.801 113.823 296.847 113.88 296.924L115.028 298.503C115.07 298.561 115.065 298.64 115.017 298.693L111.607 302.386C111.551 302.447 111.456 302.451 111.395 302.395C111.392 302.392 111.389 302.389 111.387 302.386L107.977 298.693C107.929 298.64 107.924 298.561 107.966 298.503L109.114 296.924C109.171 296.847 109.261 296.801 109.357 296.801Z" fill="#A3A3A3"/>
<circle cx="120.69" cy="299.618" r="2.8169" fill="#FF4E4C"/>
<path d="M28.3381 332.153V328.674H27.5212V327.632H28.3381V326.618H27.5212V325.575H28.3381V322.096H30.5494L31.648 325.575H32.9297V322.096H34.493V325.575H35.2959V326.618H34.493V327.632H35.2959V328.674H34.493V332.153H32.2677L31.1409 328.674H29.9015V332.153H28.3381ZM29.9015 327.632H30.8311L30.5212 326.618H29.8733L29.9015 327.632ZM32.9719 329.956H33.0423L32.986 328.674H32.6057L32.9719 329.956ZM29.8452 325.575H30.2395L29.8311 324.223H29.7747L29.8452 325.575ZM32.3099 327.632H32.9578L32.9297 326.618H31.986L32.3099 327.632ZM39.5672 326.167C39.8583 326.176 40.1306 326.134 40.3841 326.04C40.647 325.937 40.8583 325.777 41.0179 325.561C41.1869 325.336 41.2714 325.059 41.2714 324.73C41.2714 324.486 41.201 324.275 41.0602 324.096C40.9193 323.918 40.7221 323.777 40.4686 323.674C40.2151 323.571 39.9146 323.519 39.5672 323.519C39.1259 323.519 38.7597 323.622 38.4686 323.829C38.1869 324.026 38.0179 324.298 37.9616 324.646L36.1024 324.533C36.1588 324.026 36.3419 323.575 36.6517 323.181C36.971 322.787 37.3841 322.481 37.8912 322.266C38.3982 322.04 38.9663 321.927 39.5954 321.927C40.309 321.927 40.9334 322.035 41.4686 322.251C42.0132 322.467 42.4311 322.773 42.7221 323.167C43.0226 323.552 43.1728 324.007 43.1728 324.533C43.1728 325.143 42.971 325.646 42.5672 326.04C42.1635 326.425 41.5766 326.683 40.8066 326.815L40.8207 326.674C41.3935 326.777 41.8771 326.956 42.2714 327.209C42.6752 327.453 42.9804 327.763 43.1869 328.139C43.4029 328.505 43.5109 328.927 43.5109 329.406C43.5109 329.998 43.3466 330.519 43.0179 330.97C42.6987 331.42 42.2433 331.768 41.6517 332.012C41.0602 332.256 40.3747 332.378 39.5954 332.378C38.8818 332.378 38.2433 332.251 37.6799 331.998C37.1259 331.744 36.6846 331.388 36.3559 330.927C36.0273 330.467 35.8489 329.937 35.8207 329.336L37.694 329.251C37.7409 329.749 37.9522 330.129 38.3278 330.392C38.7034 330.655 39.1306 330.787 39.6095 330.787C39.9569 330.787 40.2808 330.73 40.5813 330.618C40.8912 330.496 41.14 330.312 41.3278 330.068C41.5156 329.824 41.6095 329.519 41.6095 329.153C41.6095 328.796 41.5109 328.496 41.3137 328.251C41.1259 328.007 40.8771 327.824 40.5672 327.702C40.2574 327.58 39.924 327.524 39.5672 327.533L38.7362 327.547V326.153L39.5672 326.167ZM44.8158 325.28C44.8815 324.632 45.0787 324.054 45.4073 323.547C45.736 323.04 46.1726 322.646 46.7172 322.364C47.2712 322.073 47.9003 321.927 48.6045 321.927C49.2618 321.927 49.8533 322.059 50.3792 322.322C50.905 322.575 51.3134 322.927 51.6045 323.378C51.905 323.829 52.0552 324.336 52.0552 324.899C52.0552 325.378 51.9425 325.81 51.7172 326.195C51.4918 326.58 51.1914 326.927 50.8158 327.237C50.4496 327.538 49.9942 327.852 49.4496 328.181C49.1397 328.35 48.8017 328.566 48.4355 328.829C48.0693 329.082 47.7313 329.369 47.4214 329.688C47.1209 329.998 46.9613 330.289 46.9425 330.561H52.1116V332.153H44.7172C44.7172 331.289 44.858 330.547 45.1397 329.927C45.4308 329.308 45.8017 328.791 46.2524 328.378C46.7031 327.956 47.2853 327.524 47.9989 327.082L48.4496 326.815C49.0224 326.467 49.4496 326.143 49.7313 325.843C50.0224 325.533 50.1679 325.214 50.1679 324.885C50.1679 324.622 50.1022 324.388 49.9707 324.181C49.8393 323.974 49.6515 323.815 49.4073 323.702C49.1726 323.58 48.905 323.519 48.6045 323.519C48.0975 323.519 47.6796 323.683 47.351 324.012C47.0224 324.331 46.8064 324.791 46.7031 325.392L44.8158 325.28ZM57.3212 332.378C56.4573 332.378 55.7108 332.167 55.0817 331.744C54.462 331.312 53.9831 330.707 53.6451 329.927C53.3165 329.139 53.1522 328.219 53.1522 327.167C53.1522 326.115 53.3165 325.195 53.6451 324.406C53.9831 323.608 54.4667 322.998 55.0958 322.575C55.7249 322.143 56.4667 321.927 57.3212 321.927C58.1756 321.927 58.9127 322.143 59.5324 322.575C60.1615 322.998 60.6404 323.604 60.9691 324.392C61.3071 325.181 61.4761 326.106 61.4761 327.167C61.4761 328.219 61.3071 329.139 60.9691 329.927C60.6404 330.707 60.1615 331.312 59.5324 331.744C58.9127 332.167 58.1756 332.378 57.3212 332.378ZM57.3212 330.787C57.8 330.787 58.2085 330.646 58.5465 330.364C58.8939 330.082 59.1522 329.674 59.3212 329.139C59.4996 328.604 59.5888 327.946 59.5888 327.167C59.5888 326.388 59.4996 325.726 59.3212 325.181C59.1522 324.636 58.8939 324.223 58.5465 323.942C58.2085 323.66 57.8 323.519 57.3212 323.519C56.8329 323.519 56.4198 323.66 56.0817 323.942C55.7437 324.223 55.4855 324.636 55.3071 325.181C55.1381 325.726 55.0536 326.388 55.0536 327.167C55.0536 327.946 55.1381 328.604 55.3071 329.139C55.4855 329.674 55.7437 330.082 56.0817 330.364C56.4198 330.646 56.8329 330.787 57.3212 330.787ZM63.2926 334.35H62.2926L62.8982 332.153H64.2081L63.2926 334.35ZM64.194 330.251V332.153H62.1799V330.251H64.194ZM69.068 332.378C68.2041 332.378 67.4577 332.167 66.8285 331.744C66.2088 331.312 65.73 330.707 65.3919 329.927C65.0633 329.139 64.899 328.219 64.899 327.167C64.899 326.115 65.0633 325.195 65.3919 324.406C65.73 323.608 66.2135 322.998 66.8426 322.575C67.4717 322.143 68.2135 321.927 69.068 321.927C69.9224 321.927 70.6595 322.143 71.2793 322.575C71.9084 322.998 72.3872 323.604 72.7159 324.392C73.0539 325.181 73.2229 326.106 73.2229 327.167C73.2229 328.219 73.0539 329.139 72.7159 329.927C72.3872 330.707 71.9084 331.312 71.2793 331.744C70.6595 332.167 69.9224 332.378 69.068 332.378ZM69.068 330.787C69.5469 330.787 69.9553 330.646 70.2933 330.364C70.6408 330.082 70.899 329.674 71.068 329.139C71.2464 328.604 71.3356 327.946 71.3356 327.167C71.3356 326.388 71.2464 325.726 71.068 325.181C70.899 324.636 70.6408 324.223 70.2933 323.942C69.9553 323.66 69.5469 323.519 69.068 323.519C68.5797 323.519 68.1666 323.66 67.8285 323.942C67.4905 324.223 67.2323 324.636 67.0539 325.181C66.8849 325.726 66.8004 326.388 66.8004 327.167C66.8004 327.946 66.8849 328.604 67.0539 329.139C67.2323 329.674 67.4905 330.082 67.8285 330.364C68.1666 330.646 68.5797 330.787 69.068 330.787ZM78.0328 326.167C78.3239 326.176 78.5962 326.134 78.8497 326.04C79.1126 325.937 79.3239 325.777 79.4835 325.561C79.6525 325.336 79.737 325.059 79.737 324.73C79.737 324.486 79.6666 324.275 79.5257 324.096C79.3849 323.918 79.1877 323.777 78.9342 323.674C78.6807 323.571 78.3802 323.519 78.0328 323.519C77.5915 323.519 77.2253 323.622 76.9342 323.829C76.6525 324.026 76.4835 324.298 76.4271 324.646L74.568 324.533C74.6243 324.026 74.8074 323.575 75.1173 323.181C75.4365 322.787 75.8497 322.481 76.3567 322.266C76.8638 322.04 77.4318 321.927 78.0609 321.927C78.7746 321.927 79.399 322.035 79.9342 322.251C80.4788 322.467 80.8966 322.773 81.1877 323.167C81.4882 323.552 81.6384 324.007 81.6384 324.533C81.6384 325.143 81.4365 325.646 81.0328 326.04C80.629 326.425 80.0422 326.683 79.2722 326.815L79.2863 326.674C79.8591 326.777 80.3426 326.956 80.737 327.209C81.1408 327.453 81.4459 327.763 81.6525 328.139C81.8685 328.505 81.9764 328.927 81.9764 329.406C81.9764 329.998 81.8121 330.519 81.4835 330.97C81.1642 331.42 80.7088 331.768 80.1173 332.012C79.5257 332.256 78.8403 332.378 78.0609 332.378C77.3473 332.378 76.7088 332.251 76.1454 331.998C75.5915 331.744 75.1501 331.388 74.8215 330.927C74.4929 330.467 74.3145 329.937 74.2863 329.336L76.1595 329.251C76.2065 329.749 76.4177 330.129 76.7933 330.392C77.1689 330.655 77.5962 330.787 78.075 330.787C78.4224 330.787 78.7464 330.73 79.0469 330.618C79.3567 330.496 79.6055 330.312 79.7933 330.068C79.9811 329.824 80.075 329.519 80.075 329.153C80.075 328.796 79.9764 328.496 79.7793 328.251C79.5915 328.007 79.3426 327.824 79.0328 327.702C78.7229 327.58 78.3896 327.524 78.0328 327.533L77.2018 327.547V326.153L78.0328 326.167ZM90.1687 322.153V323.604C89.1734 324.805 88.4034 326.129 87.8588 327.575C87.3142 329.012 87.056 330.538 87.0842 332.153H85.2109C85.2109 330.641 85.4879 329.167 86.0419 327.73C86.6053 326.294 87.3846 324.965 88.3799 323.744H82.8729V322.153H90.1687ZM92.9968 330.251V332.153H90.9827V330.251H92.9968ZM99.5609 324.575C99.4201 324.228 99.2041 323.965 98.9131 323.787C98.6314 323.599 98.2886 323.505 97.8849 323.505C97.1525 323.505 96.5797 323.838 96.1666 324.505C95.7628 325.162 95.5515 326.078 95.5328 327.251L95.3778 327.209C95.6314 326.646 95.9835 326.219 96.4342 325.927C96.8943 325.636 97.4248 325.491 98.0257 325.491C98.6736 325.491 99.2464 325.632 99.744 325.913C100.251 326.195 100.645 326.594 100.927 327.111C101.209 327.618 101.35 328.2 101.35 328.857C101.35 329.58 101.185 330.209 100.857 330.744C100.537 331.27 100.091 331.674 99.5187 331.956C98.9553 332.237 98.3121 332.378 97.5891 332.378C97.0633 332.378 96.5703 332.28 96.1102 332.082C95.6501 331.876 95.237 331.566 94.8708 331.153C94.5234 330.777 94.2605 330.298 94.0821 329.716C93.9131 329.125 93.8285 328.453 93.8285 327.702C93.8285 326.622 93.9694 325.65 94.2511 324.787C94.5328 323.923 94.9788 323.233 95.5891 322.716C96.1994 322.19 96.9741 321.927 97.9131 321.927C98.4483 321.927 98.9459 322.031 99.406 322.237C99.8755 322.435 100.275 322.721 100.603 323.096C100.932 323.472 101.162 323.927 101.293 324.463L99.5609 324.575ZM95.7018 328.857C95.7018 329.242 95.7816 329.589 95.9412 329.899C96.1008 330.209 96.3262 330.453 96.6173 330.632C96.9084 330.801 97.2417 330.885 97.6173 330.885C97.9835 330.885 98.3074 330.801 98.5891 330.632C98.8802 330.453 99.1055 330.209 99.2652 329.899C99.4248 329.589 99.5046 329.242 99.5046 328.857C99.5046 328.491 99.4248 328.158 99.2652 327.857C99.1149 327.547 98.9037 327.312 98.6314 327.153C98.3591 326.984 98.0445 326.899 97.6877 326.899C97.3121 326.899 96.9741 326.984 96.6736 327.153C96.3731 327.312 96.1337 327.547 95.9553 327.857C95.7863 328.158 95.7018 328.491 95.7018 328.857ZM106.285 326.167C106.576 326.176 106.849 326.134 107.102 326.04C107.365 325.937 107.576 325.777 107.736 325.561C107.905 325.336 107.99 325.059 107.99 324.73C107.99 324.486 107.919 324.275 107.778 324.096C107.638 323.918 107.44 323.777 107.187 323.674C106.933 323.571 106.633 323.519 106.285 323.519C105.844 323.519 105.478 323.622 105.187 323.829C104.905 324.026 104.736 324.298 104.68 324.646L102.821 324.533C102.877 324.026 103.06 323.575 103.37 323.181C103.689 322.787 104.102 322.481 104.609 322.266C105.116 322.04 105.684 321.927 106.314 321.927C107.027 321.927 107.652 322.035 108.187 322.251C108.731 322.467 109.149 322.773 109.44 323.167C109.741 323.552 109.891 324.007 109.891 324.533C109.891 325.143 109.689 325.646 109.285 326.04C108.882 326.425 108.295 326.683 107.525 326.815L107.539 326.674C108.112 326.777 108.595 326.956 108.99 327.209C109.393 327.453 109.699 327.763 109.905 328.139C110.121 328.505 110.229 328.927 110.229 329.406C110.229 329.998 110.065 330.519 109.736 330.97C109.417 331.42 108.961 331.768 108.37 332.012C107.778 332.256 107.093 332.378 106.314 332.378C105.6 332.378 104.961 332.251 104.398 331.998C103.844 331.744 103.403 331.388 103.074 330.927C102.746 330.467 102.567 329.937 102.539 329.336L104.412 329.251C104.459 329.749 104.67 330.129 105.046 330.392C105.422 330.655 105.849 330.787 106.328 330.787C106.675 330.787 106.999 330.73 107.299 330.618C107.609 330.496 107.858 330.312 108.046 330.068C108.234 329.824 108.328 329.519 108.328 329.153C108.328 328.796 108.229 328.496 108.032 328.251C107.844 328.007 107.595 327.824 107.285 327.702C106.976 327.58 106.642 327.524 106.285 327.533L105.454 327.547V326.153L106.285 326.167Z" fill="#767676"/>
<rect x="141.817" y="281.308" width="121.479" height="63.5211" rx="11.2676" fill="#F9F9F9"/>
<path d="M155.455 300.086H158.027C158.111 301.621 158.604 303.046 159.4 304.255C157.304 303.93 155.667 302.218 155.455 300.086ZM155.455 299.147C155.667 297.015 157.304 295.303 159.4 294.978C158.604 296.187 158.111 297.612 158.027 299.147H155.455ZM164.798 299.147H162.227C162.143 297.612 161.649 296.187 160.853 294.978C162.949 295.303 164.587 297.015 164.798 299.147ZM164.798 300.086C164.587 302.218 162.949 303.93 160.853 304.255C161.649 303.046 162.143 301.621 162.227 300.086H164.798ZM158.967 300.086H161.286C161.205 301.392 160.791 302.609 160.127 303.65C159.463 302.609 159.048 301.392 158.967 300.086ZM158.967 299.147C159.048 297.84 159.463 296.624 160.127 295.583C160.791 296.624 161.205 297.84 161.286 299.147H158.967Z" fill="#D1D1D1"/>
<path d="M171.693 296.118C172.811 296.118 173.668 296.423 174.266 297.035C174.871 297.639 175.173 298.504 175.173 299.628C175.173 300.745 174.878 301.606 174.286 302.211C173.695 302.815 172.85 303.118 171.752 303.118H169.366V296.118H171.693ZM171.693 302.004C172.423 302.004 172.965 301.806 173.32 301.412C173.681 301.018 173.862 300.423 173.862 299.628C173.862 298.819 173.681 298.218 173.32 297.823C172.965 297.429 172.423 297.232 171.693 297.232H170.648V302.004H171.693ZM176.099 299.49C176.204 298.944 176.457 298.523 176.858 298.228C177.266 297.925 177.792 297.774 178.436 297.774C179.185 297.774 179.754 297.965 180.141 298.346C180.536 298.727 180.733 299.286 180.733 300.022V301.816C180.733 301.961 180.759 302.063 180.812 302.122C180.871 302.174 180.953 302.201 181.058 302.201H181.265V303.118L180.97 303.128H180.861C180.559 303.141 180.289 303.095 180.053 302.99C179.816 302.878 179.678 302.654 179.639 302.319C179.507 302.595 179.29 302.819 178.988 302.99C178.692 303.154 178.327 303.236 177.893 303.236C177.354 303.236 176.904 303.101 176.543 302.832C176.188 302.562 176.01 302.201 176.01 301.747C176.01 301.419 176.086 301.152 176.237 300.949C176.395 300.745 176.615 300.587 176.898 300.475C177.18 300.357 177.548 300.252 178.002 300.16L179.461 299.874C179.461 299.467 179.376 299.167 179.205 298.977C179.034 298.78 178.777 298.681 178.436 298.681C178.153 298.681 177.923 298.757 177.746 298.908C177.568 299.052 177.45 299.269 177.391 299.559L176.099 299.49ZM177.322 301.708C177.322 301.898 177.401 302.053 177.558 302.171C177.716 302.29 177.943 302.349 178.239 302.349C178.482 302.349 178.695 302.29 178.879 302.171C179.07 302.053 179.218 301.879 179.323 301.649C179.435 301.412 179.491 301.129 179.491 300.801V300.732L178.495 300.909C178.449 300.916 178.4 300.922 178.347 300.929C178.11 300.975 177.92 301.024 177.775 301.077C177.637 301.123 177.525 301.198 177.44 301.304C177.361 301.402 177.322 301.537 177.322 301.708ZM183.666 296.709V301.511C183.666 301.714 183.716 301.872 183.814 301.984C183.92 302.089 184.067 302.142 184.258 302.142H185.047V303.118H184.051C183.512 303.118 183.101 302.983 182.819 302.713C182.543 302.444 182.404 302.043 182.404 301.511V296.709H183.666ZM185.047 297.892V298.868H181.576V297.892H185.047ZM185.862 299.49C185.967 298.944 186.22 298.523 186.621 298.228C187.029 297.925 187.554 297.774 188.199 297.774C188.948 297.774 189.516 297.965 189.904 298.346C190.299 298.727 190.496 299.286 190.496 300.022V301.816C190.496 301.961 190.522 302.063 190.575 302.122C190.634 302.174 190.716 302.201 190.821 302.201H191.028V303.118L190.732 303.128H190.624C190.322 303.141 190.052 303.095 189.815 302.99C189.579 302.878 189.441 302.654 189.401 302.319C189.27 302.595 189.053 302.819 188.751 302.99C188.455 303.154 188.09 303.236 187.656 303.236C187.117 303.236 186.667 303.101 186.306 302.832C185.951 302.562 185.773 302.201 185.773 301.747C185.773 301.419 185.849 301.152 186 300.949C186.158 300.745 186.378 300.587 186.661 300.475C186.943 300.357 187.311 300.252 187.765 300.16L189.224 299.874C189.224 299.467 189.138 299.167 188.968 298.977C188.797 298.78 188.54 298.681 188.199 298.681C187.916 298.681 187.686 298.757 187.508 298.908C187.331 299.052 187.213 299.269 187.154 299.559L185.862 299.49ZM187.085 301.708C187.085 301.898 187.163 302.053 187.321 302.171C187.479 302.29 187.706 302.349 188.001 302.349C188.245 302.349 188.458 302.29 188.642 302.171C188.833 302.053 188.981 301.879 189.086 301.649C189.198 301.412 189.254 301.129 189.254 300.801V300.732L188.258 300.909C188.212 300.916 188.162 300.922 188.11 300.929C187.873 300.975 187.683 301.024 187.538 301.077C187.4 301.123 187.288 301.198 187.203 301.304C187.124 301.402 187.085 301.537 187.085 301.708Z" fill="#A3A3A3"/>
<circle cx="247.803" cy="299.618" r="2.8169" fill="#FFBE00"/>
<path d="M155.451 332.153V328.674H154.634V327.632H155.451V326.618H154.634V325.575H155.451V322.096H157.662L158.761 325.575H160.042V322.096H161.606V325.575H162.409V326.618H161.606V327.632H162.409V328.674H161.606V332.153H159.38L158.254 328.674H157.014V332.153H155.451ZM157.014 327.632H157.944L157.634 326.618H156.986L157.014 327.632ZM160.085 329.956H160.155L160.099 328.674H159.719L160.085 329.956ZM156.958 325.575H157.352L156.944 324.223H156.888L156.958 325.575ZM159.423 327.632H160.071L160.042 326.618H159.099L159.423 327.632ZM166.68 326.167C166.971 326.176 167.243 326.134 167.497 326.04C167.76 325.937 167.971 325.777 168.131 325.561C168.3 325.336 168.384 325.059 168.384 324.73C168.384 324.486 168.314 324.275 168.173 324.096C168.032 323.918 167.835 323.777 167.581 323.674C167.328 323.571 167.027 323.519 166.68 323.519C166.239 323.519 165.872 323.622 165.581 323.829C165.3 324.026 165.131 324.298 165.074 324.646L163.215 324.533C163.272 324.026 163.455 323.575 163.765 323.181C164.084 322.787 164.497 322.481 165.004 322.266C165.511 322.04 166.079 321.927 166.708 321.927C167.422 321.927 168.046 322.035 168.581 322.251C169.126 322.467 169.544 322.773 169.835 323.167C170.135 323.552 170.286 324.007 170.286 324.533C170.286 325.143 170.084 325.646 169.68 326.04C169.276 326.425 168.689 326.683 167.919 326.815L167.934 326.674C168.506 326.777 168.99 326.956 169.384 327.209C169.788 327.453 170.093 327.763 170.3 328.139C170.516 328.505 170.624 328.927 170.624 329.406C170.624 329.998 170.459 330.519 170.131 330.97C169.811 331.42 169.356 331.768 168.765 332.012C168.173 332.256 167.488 332.378 166.708 332.378C165.995 332.378 165.356 332.251 164.793 331.998C164.239 331.744 163.797 331.388 163.469 330.927C163.14 330.467 162.962 329.937 162.934 329.336L164.807 329.251C164.854 329.749 165.065 330.129 165.441 330.392C165.816 330.655 166.243 330.787 166.722 330.787C167.07 330.787 167.394 330.73 167.694 330.618C168.004 330.496 168.253 330.312 168.441 330.068C168.628 329.824 168.722 329.519 168.722 329.153C168.722 328.796 168.624 328.496 168.426 328.251C168.239 328.007 167.99 327.824 167.68 327.702C167.37 327.58 167.037 327.524 166.68 327.533L165.849 327.547V326.153L166.68 326.167ZM171.929 325.28C171.994 324.632 172.191 324.054 172.52 323.547C172.849 323.04 173.285 322.646 173.83 322.364C174.384 322.073 175.013 321.927 175.717 321.927C176.375 321.927 176.966 322.059 177.492 322.322C178.018 322.575 178.426 322.927 178.717 323.378C179.018 323.829 179.168 324.336 179.168 324.899C179.168 325.378 179.055 325.81 178.83 326.195C178.605 326.58 178.304 326.927 177.929 327.237C177.562 327.538 177.107 327.852 176.562 328.181C176.253 328.35 175.914 328.566 175.548 328.829C175.182 329.082 174.844 329.369 174.534 329.688C174.234 329.998 174.074 330.289 174.055 330.561H179.224V332.153H171.83C171.83 331.289 171.971 330.547 172.253 329.927C172.544 329.308 172.914 328.791 173.365 328.378C173.816 327.956 174.398 327.524 175.112 327.082L175.562 326.815C176.135 326.467 176.562 326.143 176.844 325.843C177.135 325.533 177.281 325.214 177.281 324.885C177.281 324.622 177.215 324.388 177.084 324.181C176.952 323.974 176.764 323.815 176.52 323.702C176.285 323.58 176.018 323.519 175.717 323.519C175.21 323.519 174.792 323.683 174.464 324.012C174.135 324.331 173.919 324.791 173.816 325.392L171.929 325.28ZM181.444 334.35H180.444L181.05 332.153H182.36L181.444 334.35ZM182.345 330.251V332.153H180.331V330.251H182.345ZM187.22 332.378C186.356 332.378 185.609 332.167 184.98 331.744C184.36 331.312 183.881 330.707 183.543 329.927C183.215 329.139 183.05 328.219 183.05 327.167C183.05 326.115 183.215 325.195 183.543 324.406C183.881 323.608 184.365 322.998 184.994 322.575C185.623 322.143 186.365 321.927 187.22 321.927C188.074 321.927 188.811 322.143 189.431 322.575C190.06 322.998 190.539 323.604 190.867 324.392C191.205 325.181 191.374 326.106 191.374 327.167C191.374 328.219 191.205 329.139 190.867 329.927C190.539 330.707 190.06 331.312 189.431 331.744C188.811 332.167 188.074 332.378 187.22 332.378ZM187.22 330.787C187.698 330.787 188.107 330.646 188.445 330.364C188.792 330.082 189.05 329.674 189.22 329.139C189.398 328.604 189.487 327.946 189.487 327.167C189.487 326.388 189.398 325.726 189.22 325.181C189.05 324.636 188.792 324.223 188.445 323.942C188.107 323.66 187.698 323.519 187.22 323.519C186.731 323.519 186.318 323.66 185.98 323.942C185.642 324.223 185.384 324.636 185.205 325.181C185.036 325.726 184.952 326.388 184.952 327.167C184.952 327.946 185.036 328.604 185.205 329.139C185.384 329.674 185.642 330.082 185.98 330.364C186.318 330.646 186.731 330.787 187.22 330.787ZM196.621 332.378C195.757 332.378 195.011 332.167 194.381 331.744C193.762 331.312 193.283 330.707 192.945 329.927C192.616 329.139 192.452 328.219 192.452 327.167C192.452 326.115 192.616 325.195 192.945 324.406C193.283 323.608 193.766 322.998 194.396 322.575C195.025 322.143 195.766 321.927 196.621 321.927C197.475 321.927 198.212 322.143 198.832 322.575C199.461 322.998 199.94 323.604 200.269 324.392C200.607 325.181 200.776 326.106 200.776 327.167C200.776 328.219 200.607 329.139 200.269 329.927C199.94 330.707 199.461 331.312 198.832 331.744C198.212 332.167 197.475 332.378 196.621 332.378ZM196.621 330.787C197.1 330.787 197.508 330.646 197.846 330.364C198.194 330.082 198.452 329.674 198.621 329.139C198.799 328.604 198.889 327.946 198.889 327.167C198.889 326.388 198.799 325.726 198.621 325.181C198.452 324.636 198.194 324.223 197.846 323.942C197.508 323.66 197.1 323.519 196.621 323.519C196.133 323.519 195.72 323.66 195.381 323.942C195.043 324.223 194.785 324.636 194.607 325.181C194.438 325.726 194.353 326.388 194.353 327.167C194.353 327.946 194.438 328.604 194.607 329.139C194.785 329.674 195.043 330.082 195.381 330.364C195.72 330.646 196.133 330.787 196.621 330.787ZM206.022 332.378C205.158 332.378 204.412 332.167 203.783 331.744C203.163 331.312 202.684 330.707 202.346 329.927C202.018 329.139 201.853 328.219 201.853 327.167C201.853 326.115 202.018 325.195 202.346 324.406C202.684 323.608 203.168 322.998 203.797 322.575C204.426 322.143 205.168 321.927 206.022 321.927C206.877 321.927 207.614 322.143 208.234 322.575C208.863 322.998 209.342 323.604 209.67 324.392C210.008 325.181 210.177 326.106 210.177 327.167C210.177 328.219 210.008 329.139 209.67 329.927C209.342 330.707 208.863 331.312 208.234 331.744C207.614 332.167 206.877 332.378 206.022 332.378ZM206.022 330.787C206.501 330.787 206.91 330.646 207.248 330.364C207.595 330.082 207.853 329.674 208.022 329.139C208.201 328.604 208.29 327.946 208.29 327.167C208.29 326.388 208.201 325.726 208.022 325.181C207.853 324.636 207.595 324.223 207.248 323.942C206.91 323.66 206.501 323.519 206.022 323.519C205.534 323.519 205.121 323.66 204.783 323.942C204.445 324.223 204.187 324.636 204.008 325.181C203.839 325.726 203.755 326.388 203.755 327.167C203.755 327.946 203.839 328.604 204.008 329.139C204.187 329.674 204.445 330.082 204.783 330.364C205.121 330.646 205.534 330.787 206.022 330.787Z" fill="#767676"/>
<rect x="14.7041" y="350.462" width="121.479" height="76.5916" rx="11.2676" fill="#F9F9F9"/>
<rect x="141.817" y="350.462" width="121.479" height="76.5916" rx="11.2676" fill="#F9F9F9"/>
<defs>
<clipPath id="clip0_1061_20559">
<rect x="14.7041" y="43.2739" width="22.5352" height="22.5352" rx="11.2676" fill="white"/>
</clipPath>
</defs>
</svg>
