<svg width="130" height="48" viewBox="0 0 130 48" fill="none" xmlns="http://www.w3.org/2000/svg">
<rect width="129.008" height="48" transform="translate(0.5)" fill="white"/>
<g clip-path="url(#clip0_1061_20267)">
<path d="M39.6805 8.99513C39.2146 8.52922 38.6371 8.20952 37.9556 8.02861C35.294 7.32479 31.0908 8.78696 26.1616 12.2119H22.7837C18.6004 12.2119 14.6972 14.4646 12.6006 18.0903C11.5696 19.8697 11.0269 21.9019 11.0269 23.9663C11.0269 25.0418 11.1731 26.105 11.4606 27.1285C11.4978 27.2623 11.5349 27.3912 11.5796 27.5226C11.5696 27.5424 11.5573 27.5597 11.5473 27.5771C11.1211 28.2883 10.7394 28.9798 10.4024 29.6464C10.3503 29.748 10.3033 29.8472 10.2562 29.9438C10.2091 30.0405 10.162 30.1371 10.1174 30.2362C10.0827 30.3081 10.0505 30.38 10.0183 30.4494C9.99595 30.4989 9.97612 30.546 9.95382 30.5931C8.24135 34.3848 8.13974 37.3414 9.73821 38.9374C9.79521 38.9944 9.85469 39.0514 9.91665 39.1034C10.6651 39.7577 11.6737 40.0774 12.893 40.0774C15.5249 40.0774 19.1358 38.588 23.2571 35.7231H26.6325C26.8952 35.7231 27.1603 35.7157 27.4181 35.6958C33.5691 35.2944 38.3868 30.1396 38.3868 23.9663C38.3868 22.7494 38.201 21.5475 37.8367 20.405C41.0088 15.1486 41.6829 11 39.6805 8.99513ZM23.0762 14.5861C23.0638 14.591 23.0514 14.5935 23.0365 14.596L23.0762 14.5861ZM19.7851 14.4101C19.6785 14.4845 19.5818 14.5588 19.4926 14.6282C19.4728 14.6431 19.453 14.6579 19.4331 14.6728C19.3489 14.7372 19.2671 14.8017 19.1878 14.8711C19.168 14.8859 19.1481 14.9008 19.1283 14.9182C19.1085 14.933 19.0911 14.9479 19.0713 14.9628L19.0317 14.9999L19.0094 15.0198C19.0094 15.0198 18.9895 15.0371 18.9796 15.0445L18.9722 15.0495C18.878 15.1313 18.7888 15.2106 18.6946 15.2973C18.5905 15.3915 18.4864 15.4882 18.3774 15.5947L18.2882 15.6864L18.2708 15.7038L18.1643 15.8128C18.1098 15.8698 18.0552 15.9268 18.0007 15.9863C17.9908 15.9962 17.9809 16.0086 17.9734 16.016L17.9462 16.0458C17.8495 16.1498 17.7554 16.2564 17.6785 16.3506C17.6141 16.4225 17.5521 16.4993 17.4951 16.5687C17.4605 16.6108 17.4258 16.6579 17.3911 16.7025L17.3489 16.7545C17.2771 16.8438 17.2077 16.9355 17.1432 17.0272C17.0813 17.1114 17.0218 17.1932 16.9698 17.2725C16.9028 17.3642 16.8434 17.4534 16.7864 17.5402C16.7591 17.5798 16.7343 17.6195 16.7095 17.6566H14.9995C16.2486 16.1251 17.9165 14.9975 19.7851 14.4101ZM13.867 19.3914H15.8C15.7901 19.4112 15.7827 19.4311 15.7728 19.4534C15.7282 19.5649 15.6811 19.6789 15.6414 19.7879C15.5943 19.9044 15.5497 20.0258 15.5101 20.1473C15.4679 20.2687 15.4283 20.3926 15.3886 20.5215C15.3614 20.6107 15.3341 20.6999 15.3093 20.7916C15.2969 20.8288 15.287 20.866 15.2771 20.9031C15.2474 21.0147 15.2201 21.1287 15.1928 21.2427C15.1656 21.3492 15.1433 21.4558 15.121 21.5624C15.116 21.5896 15.1111 21.6094 15.1086 21.6317C15.0813 21.7507 15.0615 21.8697 15.0392 22.001C15.0169 22.1348 14.9971 22.2711 14.9797 22.4074C14.9772 22.4223 14.9748 22.4347 14.9723 22.4471C14.9624 22.5214 14.9549 22.5958 14.945 22.6726L14.9326 22.8089C14.9252 22.8734 14.9202 22.9403 14.9153 23.0047C14.9128 23.0196 14.9103 23.0369 14.9103 23.0518C14.9078 23.0667 14.9054 23.084 14.9054 23.0989H12.7989C12.9104 21.8052 13.2747 20.5438 13.867 19.3914ZM14.9079 24.8337C14.9079 24.846 14.9103 24.8609 14.9103 24.8733C14.9178 24.97 14.9277 25.0666 14.9376 25.1633C14.9475 25.2797 14.9624 25.3937 14.9772 25.5077C14.9946 25.6366 15.0119 25.763 15.0342 25.8894C15.0541 26.0133 15.0764 26.1347 15.1012 26.2587C15.1185 26.3454 15.1358 26.4297 15.1557 26.5164C15.173 26.6007 15.1928 26.6849 15.2152 26.7667C15.2201 26.794 15.2251 26.8187 15.2325 26.841C15.2523 26.9253 15.2746 27.0046 15.2969 27.0864C15.3242 27.188 15.3539 27.2846 15.3837 27.3838C15.4184 27.5052 15.458 27.6242 15.4977 27.7431C15.5324 27.8472 15.5695 27.9488 15.6092 28.0529C15.6464 28.1545 15.686 28.2586 15.7282 28.3602C15.7529 28.4222 15.7777 28.4816 15.805 28.5436H13.8719C13.2747 27.3912 12.9104 26.1298 12.7989 24.8337H14.9079ZM16.717 30.2784C16.8235 30.4469 16.9351 30.6129 17.054 30.779C17.2895 31.1136 17.5447 31.4332 17.8173 31.743C17.5769 31.9016 17.3365 32.0602 17.0986 32.2164C17.0565 32.1866 17.0144 32.1594 16.9747 32.1321C16.2362 31.6042 15.5745 30.9822 15.007 30.2784H16.717ZM27.2991 33.966C27.0786 33.9809 26.8555 33.9883 26.6325 33.9883C26.4094 33.9883 26.2037 33.9809 25.9856 33.966C25.8741 33.9586 25.7626 33.9512 25.656 33.9388C27.2743 32.6575 28.8728 31.23 30.4217 29.6811C30.6448 29.4581 30.8653 29.2326 31.0834 29.0095L31.1305 28.9624L31.1379 28.9525C31.1528 28.9376 31.1677 28.9203 31.185 28.9054C31.4056 28.7022 31.6088 28.4866 31.7972 28.2586C31.8071 28.2487 31.8145 28.2388 31.8244 28.2289C31.8418 28.2115 31.8641 28.1892 31.8864 28.162C33.6311 26.2884 35.2122 24.3306 36.5331 22.4174C36.6124 22.9279 36.6521 23.4458 36.6521 23.9663C36.6521 29.2301 32.5456 33.6215 27.2991 33.966ZM37.6136 17.1858C37.4253 17.5823 37.2146 17.9862 36.9891 18.4026C36.9891 18.4001 36.9841 18.3976 36.9841 18.3976C36.8206 18.7 36.6471 19.0073 36.4637 19.3171C36.4042 19.4211 36.3423 19.5252 36.2754 19.6318C36.2109 19.7384 36.1465 19.8449 36.0796 19.9515C36.0275 20.0358 35.9755 20.1175 35.921 20.2018C35.9061 20.2291 35.8912 20.2538 35.8714 20.2811C35.1354 21.4484 33.351 23.8027 33.351 23.8027C32.496 24.8807 31.5716 25.9538 30.5927 27.0046V27.0096L30.5828 27.017C30.5779 27.0195 30.5729 27.0269 30.5679 27.0343C30.563 27.0393 30.5555 27.0492 30.5481 27.0566C30.5308 27.074 29.9162 27.7208 29.8914 27.7481L29.8443 27.7952C29.6312 28.0157 29.4155 28.2363 29.195 28.4544C28.4168 29.2326 27.6263 29.9785 26.8283 30.6873C25.7106 31.686 24.573 32.6129 23.4281 33.4629C23.3116 33.5522 23.1927 33.6389 23.0762 33.7232C22.8804 33.8694 22.6846 34.0082 22.4839 34.1469C22.35 34.2411 22.2162 34.3328 22.0849 34.4245C22.0328 34.4592 21.9808 34.4964 21.9287 34.5286C21.8668 34.5732 21.8024 34.6153 21.7404 34.6575C21.3042 34.9499 20.873 35.2275 20.4492 35.4877C16.0305 38.1964 12.3503 39.0985 10.9625 37.7107C10.903 37.6512 10.8485 37.5868 10.7989 37.5198C9.80512 36.1841 10.4296 33.173 12.4296 29.5275C12.4841 29.6291 12.5411 29.7307 12.5981 29.8298C12.6502 29.924 12.7047 30.0132 12.7542 30.095C12.8856 30.318 13.0343 30.5411 13.2053 30.7815C13.9686 31.8521 14.8979 32.7814 15.9685 33.5447C16.1594 33.681 16.3651 33.8148 16.6302 33.9858H16.6426V33.9908C17.2399 34.3551 17.8694 34.6674 18.5187 34.9201C19.0788 34.5856 19.6537 34.2213 20.2386 33.8297C20.4715 33.6736 20.7045 33.5125 20.9399 33.3465C21.1382 33.2077 21.334 33.0689 21.5297 32.9227C21.614 32.8607 21.7007 32.7988 21.785 32.7343C21.4554 32.5534 21.1357 32.3527 20.8259 32.1321C20.4467 31.862 20.0874 31.5646 19.7578 31.2523H19.7553C19.277 30.8013 18.8433 30.3056 18.4666 29.7753C18.2808 29.5126 18.1098 29.2449 17.9561 28.9748C17.0738 27.4606 16.6104 25.7283 16.6104 23.9663C16.6104 23.7383 16.6178 23.5053 16.6327 23.2798C16.6401 23.1757 16.6501 23.0741 16.66 22.97L16.6724 22.8535C16.6773 22.8064 16.6823 22.7569 16.6872 22.7098C16.6922 22.6924 16.6947 22.6751 16.6947 22.6553V22.6454C16.712 22.5264 16.7294 22.4099 16.7517 22.2761C16.769 22.1794 16.7839 22.0853 16.8062 21.9886C16.8087 21.9688 16.8136 21.949 16.8161 21.9291V21.9192C16.8359 21.8374 16.8533 21.7507 16.8756 21.6689L16.883 21.6367C16.9053 21.5425 16.9276 21.4434 16.9549 21.3492L16.9797 21.26C16.9995 21.1832 17.0218 21.1088 17.0466 21.0345L17.054 21.0072C17.0838 20.9081 17.1135 20.8139 17.1482 20.7222L17.1556 20.6974C17.1878 20.6008 17.225 20.5041 17.2622 20.4025C17.2994 20.3034 17.339 20.2068 17.3836 20.1002C17.4233 20.0011 17.4679 19.9044 17.51 19.8078C17.5844 19.6442 17.6711 19.4707 17.7752 19.27C17.8049 19.2155 17.8371 19.1585 17.8669 19.1039L17.9487 18.9552H17.9511L17.9561 18.9503C17.9958 18.8809 18.0379 18.8065 18.0949 18.7173C18.137 18.6455 18.1816 18.5736 18.2337 18.4968C18.2783 18.4274 18.3254 18.358 18.3749 18.2886L18.3923 18.2638C18.4394 18.1969 18.484 18.13 18.5335 18.0631L18.5558 18.0358C18.6029 17.9664 18.655 17.8995 18.7045 17.8351L18.7541 17.7756C18.7764 17.7434 18.8012 17.7136 18.826 17.6839L18.8458 17.6616C18.8904 17.6046 18.935 17.5476 18.997 17.4782C19.0688 17.3915 19.1432 17.3072 19.2175 17.2254C19.2274 17.213 19.2374 17.2031 19.2473 17.1932L19.2745 17.1635C19.3191 17.1139 19.3662 17.0643 19.4133 17.0172L19.5001 16.928C19.5174 16.9107 19.5323 16.8933 19.5471 16.8785L19.5942 16.8314C19.6834 16.7446 19.7751 16.6604 19.8619 16.5786C19.9437 16.5067 20.023 16.4348 20.1147 16.3531C20.132 16.3407 20.1494 16.3258 20.1667 16.3109L20.2435 16.2465L20.2931 16.2069C20.3575 16.1523 20.4244 16.0978 20.4938 16.0458L20.5409 16.0086C20.5409 16.0086 20.5459 16.0061 20.5484 16.0012C20.6425 15.9293 20.7392 15.8574 20.8507 15.7806C20.9374 15.7186 21.0242 15.6592 21.1109 15.6022L21.1456 15.5799C21.1877 15.5501 21.2299 15.5229 21.2869 15.4882C21.3587 15.4411 21.4306 15.3989 21.505 15.3568L21.5421 15.332C21.609 15.2899 21.6784 15.2527 21.7627 15.2081C21.9634 15.0941 22.1667 14.99 22.3872 14.8859C22.5012 14.8339 22.6127 14.7794 22.7292 14.7323L22.754 14.7249C22.873 14.6728 22.9944 14.6257 23.1158 14.5786H23.1208L23.1456 14.5662H23.1555L23.1753 14.5588C23.2868 14.5167 23.4008 14.477 23.5297 14.4349C23.5495 14.4275 23.5669 14.4225 23.5867 14.4175L23.6288 14.4027C23.7032 14.3779 23.78 14.3556 23.8568 14.3358L23.8965 14.3259C23.9337 14.3135 23.9683 14.3035 24.0055 14.2936L24.0526 14.2812C24.1369 14.2589 24.2236 14.2366 24.3103 14.2143L24.402 14.1945C24.4417 14.1846 24.4838 14.1747 24.5334 14.1648C24.64 14.1425 24.744 14.1226 24.8531 14.1028H24.858C25.4404 13.9987 26.0377 13.9467 26.6325 13.9467C28.4936 13.9467 30.3028 14.4572 31.8641 15.4212H31.869C32.0598 15.5402 32.2507 15.6666 32.4465 15.8054C33.3535 16.4472 34.1441 17.2378 34.7983 18.1548C34.8603 18.2415 34.9198 18.3307 34.9792 18.4175C35.3188 17.84 35.6261 17.2775 35.9011 16.7322C35.1973 15.8302 34.3745 15.0445 33.4501 14.3903C33.2246 14.2317 32.9991 14.0805 32.7736 13.9442H32.7686C31.6014 13.2206 30.3152 12.715 28.9719 12.4449C32.3225 10.3904 35.2494 9.37678 37.0709 9.61221C37.6508 9.68656 38.1192 9.8873 38.4537 10.2219C39.4029 11.171 39.2592 13.28 38.1564 15.9788C38.1167 16.078 38.0746 16.1771 38.03 16.2787C38.0275 16.2911 38.02 16.3035 38.0151 16.3159C37.9457 16.4745 37.8738 16.6331 37.7995 16.7967C37.74 16.9255 37.678 17.0544 37.6136 17.1858Z" fill="#1A1A1A"/>
<path d="M32.1101 20.0703C31.6715 19.4532 31.1386 18.9229 30.529 18.4917C30.4051 18.4025 30.2762 18.3157 30.1424 18.2364H30.1399C29.0916 17.5871 27.8797 17.2451 26.6332 17.2451C26.2342 17.2451 25.8327 17.2798 25.4436 17.3492H25.4337C25.3643 17.3616 25.2949 17.3765 25.2305 17.3889L25.0694 17.426C25.0124 17.4384 24.9554 17.4533 24.9009 17.4682C24.8587 17.4781 24.8191 17.4905 24.777 17.5029C24.7224 17.5177 24.6679 17.5351 24.6134 17.5524C24.5812 17.5623 24.5465 17.5722 24.5291 17.5797C24.4647 17.602 24.4003 17.6218 24.3358 17.6466C24.311 17.654 24.2887 17.6615 24.264 17.6739C24.1847 17.7036 24.1054 17.7333 24.026 17.768C23.9443 17.8002 23.865 17.8374 23.7881 17.8721C23.6419 17.9415 23.4957 18.0159 23.3668 18.0877C23.3123 18.1199 23.2578 18.1497 23.2033 18.1844C23.1463 18.2166 23.0917 18.2488 23.0496 18.2761C23.01 18.3009 22.9703 18.3256 22.9331 18.3529C22.8712 18.3925 22.8092 18.4347 22.7473 18.4793C22.6754 18.5289 22.6085 18.5784 22.5441 18.628L22.5341 18.6379C22.4821 18.6751 22.4301 18.7172 22.3805 18.7593C22.3681 18.7692 22.3582 18.7767 22.3483 18.7841L22.3086 18.8188L22.2566 18.8634L22.2343 18.8832C22.1872 18.9229 22.1426 18.965 22.093 19.0072C22.036 19.0617 21.9765 19.1162 21.9096 19.1806L21.7956 19.2971C21.7609 19.3343 21.7262 19.3715 21.6915 19.4086L21.6643 19.4359C21.6097 19.4954 21.5552 19.5573 21.5156 19.6069C21.4784 19.649 21.4412 19.6936 21.4065 19.7382C21.3867 19.763 21.3669 19.7878 21.3471 19.8126L21.3272 19.8374C21.2851 19.8919 21.2454 19.9439 21.2058 19.9985C21.1711 20.0431 21.1414 20.0877 21.1116 20.1323C21.072 20.1843 21.0373 20.2388 21.0075 20.2859C20.9679 20.3429 20.9332 20.3999 20.9084 20.4396C20.8737 20.4941 20.839 20.5536 20.8068 20.6106L20.8291 20.623L20.7845 20.6502L20.7647 20.6849C20.7374 20.7295 20.7126 20.7766 20.6903 20.8188C20.6284 20.9377 20.5664 21.0592 20.5119 21.1831C20.4821 21.2475 20.4524 21.3119 20.4202 21.3912C20.3954 21.4532 20.3706 21.5151 20.3483 21.5746C20.3211 21.6415 20.2963 21.7109 20.274 21.7828C20.2492 21.8522 20.2244 21.9216 20.2046 21.9959C20.1872 22.0455 20.1724 22.0951 20.16 22.1471C20.1525 22.1694 20.1451 22.1942 20.1401 22.219C20.1203 22.2859 20.1054 22.3503 20.0906 22.4123C20.0757 22.4742 20.0608 22.5411 20.0484 22.6031V22.618C20.0286 22.6923 20.0162 22.7691 20.0063 22.8361C19.9915 22.9178 19.9791 23.0021 19.9667 23.0864C19.9592 23.1359 19.9543 23.183 19.9493 23.2326L19.9419 23.3044C19.9369 23.3714 19.9295 23.4358 19.9245 23.5052C19.9146 23.6564 19.9097 23.81 19.9097 23.9637C19.9097 25.1483 20.2219 26.3106 20.8118 27.3217C20.9134 27.5001 21.0298 27.681 21.1562 27.8595C21.409 28.2163 21.699 28.5484 22.0187 28.8508C22.2417 29.0614 22.4821 29.2597 22.7374 29.4406C23.342 29.8718 24.0013 30.194 24.6952 30.4022C25.2404 29.9313 25.7831 29.4431 26.3209 28.94H26.3085C26.1152 28.9276 25.9368 28.9078 25.7559 28.8731C25.0297 28.7442 24.3507 28.4617 23.7435 28.028C23.5552 27.8942 23.3767 27.7455 23.2107 27.5893C22.9703 27.3638 22.7572 27.1185 22.5688 26.8533C22.4747 26.722 22.3904 26.5906 22.3136 26.4568C21.8749 25.7034 21.6444 24.841 21.6444 23.9637C21.6444 23.8497 21.6494 23.7357 21.6568 23.6217C21.6593 23.5696 21.6643 23.5176 21.6692 23.4705L21.6767 23.4135C21.6791 23.3887 21.6791 23.3664 21.6841 23.3416H21.6816L21.6891 23.3044C21.6965 23.2499 21.7039 23.1929 21.7163 23.1285C21.7237 23.0789 21.7312 23.0294 21.7411 22.9773L21.7461 22.96C21.756 22.9104 21.7684 22.8584 21.7807 22.8014C21.7931 22.7543 21.8031 22.7072 21.8154 22.6601L21.8278 22.6105C21.8278 22.6105 21.8254 22.6304 21.8229 22.6378L21.8303 22.613C21.8402 22.5783 21.8501 22.5436 21.8675 22.4891C21.8799 22.442 21.8947 22.3974 21.9096 22.3553L21.9195 22.3305C21.9344 22.2834 21.9517 22.2388 21.9691 22.1892C21.9889 22.1421 22.0063 22.0951 22.0311 22.0381C22.0509 21.9885 22.0732 21.9414 22.093 21.8918C22.1351 21.8026 22.1773 21.7159 22.2268 21.6242C22.2392 21.5994 22.2541 21.5746 22.269 21.5498L22.3136 21.4681H22.3161C22.3334 21.4334 22.3532 21.3987 22.3854 21.3491C22.4053 21.3169 22.4251 21.2847 22.4524 21.2425C22.4747 21.2103 22.4945 21.1781 22.5193 21.1459L22.5341 21.1236C22.5564 21.0914 22.5763 21.0616 22.5986 21.0319L22.6184 21.0046C22.6407 20.9749 22.663 20.9452 22.6828 20.9179L22.7572 20.8262C22.7795 20.7989 22.7993 20.7717 22.834 20.732C22.8712 20.6874 22.9108 20.6453 22.948 20.6032L22.9728 20.5784C22.9951 20.5511 23.0199 20.5263 23.0447 20.5015L23.1289 20.4148C23.1735 20.3727 23.2181 20.3281 23.2627 20.2884C23.3049 20.2512 23.347 20.2141 23.3891 20.1769C23.399 20.1695 23.409 20.1595 23.4189 20.1521L23.4313 20.1397C23.4313 20.1397 23.4362 20.1348 23.4387 20.1323L23.4858 20.0976C23.513 20.0728 23.5428 20.0505 23.5725 20.0282L23.5973 20.0059H23.5998C23.6494 19.9687 23.6964 19.9315 23.746 19.8968C23.7906 19.8671 23.8352 19.8349 23.8798 19.8076L23.917 19.7828C23.9319 19.7705 23.9467 19.7605 23.9765 19.7432C24.0087 19.7209 24.0409 19.7035 24.0731 19.6837L24.1103 19.6614C24.14 19.6441 24.1698 19.6267 24.2119 19.6044C24.311 19.5474 24.4151 19.4954 24.5192 19.4458C24.5762 19.421 24.6307 19.3938 24.6853 19.3715L24.7026 19.364C24.7621 19.3392 24.8191 19.3145 24.881 19.2922L24.9083 19.2822C24.9653 19.2624 25.0248 19.2426 25.0843 19.2228L25.1363 19.2054C25.171 19.193 25.2057 19.1831 25.2404 19.1732L25.3494 19.1435C25.3916 19.1335 25.4337 19.1212 25.4758 19.1112L25.5824 19.0865C25.6369 19.0765 25.689 19.0666 25.7435 19.0567H25.746C26.0359 19.0047 26.3333 18.9774 26.6307 18.9774C27.5551 18.9774 28.4547 19.2327 29.2304 19.711H29.2378C29.3345 19.7729 29.4286 19.8374 29.5253 19.9043C29.9763 20.224 30.3679 20.6155 30.6926 21.0715C30.7595 21.1657 30.8214 21.2599 30.8834 21.359C31.2427 21.9464 31.4782 22.6031 31.5723 23.2871C32.0382 22.7072 32.4843 22.1273 32.9056 21.5498C32.7594 21.1707 32.5785 20.8014 32.3629 20.452C32.2811 20.3206 32.1969 20.1918 32.1076 20.0678L32.1101 20.0703Z" fill="#1A1A1A"/>
</g>
<path d="M121.332 21.964H116.598V29.8873C116.598 31.7942 116.631 31.9586 118.406 31.9586H121.332V35.6408H117.518C114.033 35.6408 112.39 34.4901 112.39 30.3147V21.964H109.233V18.2819H112.39V13.5476H116.598V18.2819H121.332V21.964Z" fill="black"/>
<path d="M103.427 16.1777V11.9695H107.635V16.1777H103.427ZM103.427 35.6407V18.2818H107.635V35.6407H103.427Z" fill="black"/>
<path d="M87.8899 11.9695V18.9393C87.8899 19.6298 87.7255 20.1558 87.4296 20.7476C87.2981 21.0763 87.0679 21.4709 87.3967 21.6352C87.7255 21.7996 87.9227 21.3722 87.9885 21.2407C89.0405 19.3996 90.783 18.0188 93.4789 18.0188C97.983 18.0188 101.041 21.964 101.041 26.9613C101.041 31.9585 97.983 35.9037 93.4789 35.9037C90.8488 35.9037 89.0405 34.5558 87.9885 32.6489C87.9227 32.5503 87.7912 32.2215 87.4953 32.3202C87.1337 32.4517 87.2652 32.7804 87.4296 33.1092C87.7255 33.701 87.8899 34.227 87.8899 34.8846V35.6407H83.6816V11.9695H87.8899ZM92.4926 32.09C95.4515 32.09 96.8323 29.7229 96.8323 26.9613C96.8323 24.1996 95.4515 21.8325 92.4926 21.8325C89.731 21.8325 87.8899 24.1996 87.8899 26.9613C87.8899 29.7229 89.731 32.09 92.4926 32.09Z" fill="black"/>
<path d="M74.6548 21.9964C74.8521 22.0293 75.0165 21.7663 75.0494 21.6676C76.1014 19.2676 77.0548 18.0183 81.2959 18.0183V22.2923C76.3973 21.9635 74.9836 23.706 74.9836 28.1115V35.6402H70.7754V18.2813H74.9836V19.2347C74.9836 19.9909 74.7863 20.6484 74.4905 21.2402C74.359 21.5361 74.2603 21.9306 74.6548 21.9964Z" fill="black"/>
<path d="M56.5741 12.2332C63.8069 12.2332 68.1467 17.5263 68.1467 24.0688C68.1467 30.6112 63.8069 35.9044 56.5741 35.9044C49.3412 35.9044 45.0015 30.6112 45.0015 24.0688C45.0015 17.5263 49.3412 12.2332 56.5741 12.2332ZM56.5741 31.9592C61.0124 31.9592 63.6754 28.4414 63.6754 24.0688C63.6754 19.6962 61.0124 16.1784 56.5741 16.1784C52.1357 16.1784 49.4727 19.6962 49.4727 24.0688C49.4727 28.4414 52.1357 31.9592 56.5741 31.9592Z" fill="black"/>
<defs>
<clipPath id="clip0_1061_20267">
<rect width="32.2123" height="32.2223" fill="white" transform="translate(8.60107 7.85547)"/>
</clipPath>
</defs>
</svg>