<svg width="15" height="17" viewBox="0 0 15 17" fill="none" xmlns="http://www.w3.org/2000/svg">
<path d="M11.0681 9.21292C11.0543 7.70983 12.3304 6.97857 12.3888 6.94452C11.666 5.91712 10.5458 5.77674 10.1521 5.76555C9.21128 5.66901 8.29864 6.31446 7.81936 6.31446C7.33051 6.31446 6.59246 5.77488 5.79701 5.79073C4.7734 5.80612 3.8158 6.38395 3.2906 7.28124C2.20672 9.11079 3.01509 11.7994 4.05352 13.2782C4.57298 14.0025 5.17997 14.8112 5.97447 14.7827C6.75174 14.7515 7.04208 14.2996 7.98008 14.2996C8.90946 14.2996 9.1821 14.7827 9.99238 14.7645C10.8266 14.7515 11.3518 14.037 11.8531 13.3062C12.4533 12.4761 12.6944 11.6585 12.704 11.6166C12.6844 11.61 11.0839 11.0145 11.0681 9.21292Z" fill="#767676"/>
<path d="M9.53749 4.79271C9.95555 4.28297 10.2416 3.58949 10.1622 2.88574C9.5571 2.91186 8.8004 3.29381 8.36465 3.79236C7.97912 4.23167 7.63473 4.95174 7.72369 5.6289C8.40339 5.67834 9.10126 5.29452 9.53749 4.79271Z" fill="#767676"/>
</svg>
