<svg width="16" height="17" viewBox="0 0 16 17" fill="none" xmlns="http://www.w3.org/2000/svg">
<path d="M2.65769 3.02847C2.5439 3.15632 2.47303 3.35408 2.47303 3.61936V14.0473C2.47303 14.3117 2.54343 14.509 2.65656 14.6369L8.5745 8.86923V8.79505L2.65769 3.02847Z" fill="#767676" stroke="#333333" stroke-width="0.120905"/>
<path d="M8.72498 8.87074L10.658 10.7577L13.0215 9.44891C13.3459 9.26885 13.4891 9.04273 13.4891 8.83391C13.4891 8.62515 13.346 8.39965 13.0217 8.22077L13.0216 8.22069L10.6595 6.91033L8.72498 8.79651V8.87074Z" fill="#767676" stroke="#333333" stroke-width="0.120905"/>
<mask id="path-4-inside-1_1061_21236" fill="white">
<path d="M10.6931 10.8259L8.6504 8.83431L2.62207 14.7125C2.84635 14.9424 3.21209 14.9701 3.628 14.7402L10.6931 10.8259"/>
</mask>
<path d="M10.6931 10.8259L8.6504 8.83431L2.62207 14.7125C2.84635 14.9424 3.21209 14.9701 3.628 14.7402L10.6931 10.8259" fill="#767676"/>
<path d="M8.6504 8.83431L8.54488 8.72611L8.65039 8.62323L8.7559 8.7261L8.6504 8.83431ZM2.62207 14.7125L2.5139 14.8181L2.40832 14.7099L2.51656 14.6043L2.62207 14.7125ZM3.628 14.7402L3.70124 14.8724L3.70111 14.8725L3.628 14.7402ZM10.5876 10.9342L8.54489 8.94252L8.7559 8.7261L10.7986 10.7177L10.5876 10.9342ZM8.75591 8.94252L2.72758 14.8207L2.51656 14.6043L8.54488 8.72611L8.75591 8.94252ZM2.73024 14.607C2.88958 14.7703 3.17343 14.8188 3.55489 14.608L3.70111 14.8725C3.25074 15.1214 2.80312 15.1145 2.5139 14.8181L2.73024 14.607ZM3.55476 14.608L10.6198 10.6937L10.7663 10.9581L3.70124 14.8724L3.55476 14.608Z" fill="#333333" mask="url(#path-4-inside-1_1061_21236)"/>
<path d="M3.59156 2.99328C3.22972 2.79541 2.92872 2.80844 2.73275 2.9595L8.65039 8.72748L10.5676 6.85823L3.59174 2.99338C3.59168 2.99335 3.59162 2.99332 3.59156 2.99328Z" fill="#767676" stroke="#333333" stroke-width="0.120905"/>
</svg>
