<svg width="114" height="33" viewBox="0 0 114 33" fill="none" xmlns="http://www.w3.org/2000/svg">
<g clip-path="url(#clip0_1061_21190)">
<path d="M31.5794 1.4944C31.1135 1.02848 30.5361 0.70879 29.8545 0.527877C27.1929 -0.175947 22.9898 1.28622 18.0605 4.71117H14.6827C10.4994 4.71117 6.59612 6.9639 4.49952 10.5896C3.46857 12.369 2.92583 14.4011 2.92583 16.4655C2.92583 17.5411 3.07205 18.6043 3.35952 19.6278C3.3967 19.7616 3.43387 19.8905 3.47848 20.0218C3.46857 20.0417 3.45618 20.059 3.44626 20.0763C3.02 20.7876 2.63835 21.479 2.30131 22.1457C2.24927 22.2473 2.20218 22.3464 2.15509 22.4431C2.10801 22.5397 2.06092 22.6364 2.01631 22.7355C1.98161 22.8074 1.9494 22.8793 1.91718 22.9486C1.89488 22.9982 1.87505 23.0453 1.85275 23.0924C0.140272 26.8841 0.0386637 29.8407 1.63714 31.4367C1.69414 31.4937 1.75362 31.5507 1.81557 31.6027C2.564 32.257 3.57265 32.5767 4.79195 32.5767C7.42386 32.5767 11.0347 31.0872 15.156 28.2224H18.5314C18.7941 28.2224 19.0593 28.2149 19.317 28.1951C25.468 27.7936 30.2858 22.6389 30.2858 16.4655C30.2858 15.2487 30.0999 14.0468 29.7356 12.9043C32.9077 7.6479 33.5818 3.4993 31.5794 1.4944ZM14.9751 7.08534C14.9627 7.09029 14.9503 7.09277 14.9354 7.09525L14.9751 7.08534ZM11.684 6.90938C11.5774 6.98373 11.4808 7.05808 11.3915 7.12747C11.3717 7.14234 11.3519 7.15721 11.3321 7.17208C11.2478 7.23651 11.166 7.30095 11.0867 7.37034C11.0669 7.38521 11.0471 7.40008 11.0272 7.41742C11.0074 7.43229 10.9901 7.44716 10.9702 7.46203L10.9306 7.49921L10.9083 7.51903C10.9083 7.51903 10.8885 7.53638 10.8785 7.54382L10.8711 7.54877C10.7769 7.63055 10.6877 7.70986 10.5935 7.7966C10.4895 7.89077 10.3854 7.98742 10.2763 8.09399L10.1871 8.18568L10.1698 8.20303L10.0632 8.31207C10.0087 8.36907 9.95416 8.42607 9.89964 8.48555C9.88972 8.49547 9.87981 8.50786 9.87238 8.51529L9.84511 8.54503C9.74846 8.64912 9.65429 8.75568 9.57746 8.84986C9.51303 8.92173 9.45107 8.99855 9.39407 9.06794C9.35938 9.11007 9.32468 9.15716 9.28999 9.20177L9.24786 9.25381C9.17599 9.34303 9.1066 9.43472 9.04216 9.52642C8.9802 9.61068 8.92073 9.69246 8.86868 9.77177C8.80177 9.86346 8.74229 9.95268 8.68529 10.0394C8.65803 10.0791 8.63325 10.1187 8.60847 10.1559H6.89847C8.14751 8.62433 9.81538 7.49673 11.684 6.90938ZM5.76591 11.8907H7.69895C7.68903 11.9105 7.6816 11.9303 7.67169 11.9526C7.62708 12.0642 7.57999 12.1782 7.54034 12.2872C7.49325 12.4037 7.44864 12.5251 7.40899 12.6465C7.36686 12.768 7.32721 12.8919 7.28756 13.0208C7.2603 13.11 7.23304 13.1992 7.20825 13.2909C7.19586 13.3281 7.18595 13.3652 7.17604 13.4024C7.1463 13.5139 7.11904 13.6279 7.09177 13.7419C7.06451 13.8485 7.04221 13.9551 7.01991 14.0616C7.01495 14.0889 7.00999 14.1087 7.00751 14.131C6.98025 14.25 6.96043 14.3689 6.93812 14.5003C6.91582 14.6341 6.89599 14.7704 6.87864 14.9067C6.87617 14.9216 6.87369 14.934 6.87121 14.9464C6.8613 15.0207 6.85386 15.0951 6.84395 15.1719L6.83156 15.3082C6.82412 15.3726 6.81917 15.4395 6.81421 15.504C6.81173 15.5188 6.80925 15.5362 6.80925 15.5511C6.80678 15.5659 6.8043 15.5833 6.8043 15.5981H4.69778C4.8093 14.3045 5.17361 13.0431 5.76591 11.8907ZM6.80678 17.3329C6.80678 17.3453 6.80925 17.3602 6.80925 17.3726C6.81669 17.4692 6.8266 17.5659 6.83651 17.6625C6.84643 17.779 6.8613 17.893 6.87617 18.007C6.89351 18.1359 6.91086 18.2623 6.93317 18.3887C6.95299 18.5126 6.9753 18.634 7.00008 18.7579C7.01743 18.8447 7.03478 18.9289 7.0546 19.0157C7.07195 19.0999 7.09177 19.1842 7.11408 19.266C7.11904 19.2932 7.12399 19.318 7.13143 19.3403C7.15125 19.4246 7.17356 19.5039 7.19586 19.5857C7.22312 19.6873 7.25286 19.7839 7.2826 19.883C7.3173 20.0045 7.35695 20.1234 7.3966 20.2424C7.4313 20.3465 7.46847 20.4481 7.50812 20.5522C7.5453 20.6538 7.58495 20.7579 7.62708 20.8595C7.65186 20.9214 7.67664 20.9809 7.7039 21.0429H5.77087C5.17361 19.8905 4.8093 18.629 4.69778 17.3329H6.80678ZM8.6159 22.7776C8.72247 22.9462 8.83399 23.1122 8.95294 23.2783C9.18838 23.6128 9.44364 23.9325 9.71625 24.2423C9.47585 24.4009 9.23547 24.5595 8.99755 24.7156C8.95542 24.6859 8.91329 24.6586 8.87364 24.6314C8.13512 24.1035 7.47343 23.4815 6.90591 22.7776H8.6159ZM19.198 26.4653C18.9775 26.4802 18.7544 26.4876 18.5314 26.4876C18.3084 26.4876 18.1027 26.4802 17.8846 26.4653C17.7731 26.4579 17.6615 26.4504 17.555 26.438C19.1733 25.1568 20.7717 23.7293 22.3206 22.1804C22.5437 21.9573 22.7643 21.7318 22.9823 21.5088L23.0294 21.4617L23.0369 21.4518C23.0517 21.4369 23.0666 21.4196 23.0839 21.4047C23.3045 21.2015 23.5077 20.9859 23.6961 20.7579C23.706 20.748 23.7134 20.738 23.7233 20.7281C23.7407 20.7108 23.763 20.6885 23.7853 20.6612C25.53 18.7877 27.1111 16.8298 28.432 14.9166C28.5113 15.4271 28.551 15.9451 28.551 16.4655C28.551 21.7293 24.4445 26.1208 19.198 26.4653ZM29.5125 9.68503C29.3242 10.0815 29.1135 10.4855 28.888 10.9019C28.888 10.8994 28.8831 10.8969 28.8831 10.8969C28.7195 11.1992 28.546 11.5065 28.3626 11.8163C28.3032 11.9204 28.2412 12.0245 28.1743 12.1311C28.1098 12.2376 28.0454 12.3442 27.9785 12.4508C27.9265 12.535 27.8744 12.6168 27.8199 12.7011C27.805 12.7283 27.7902 12.7531 27.7703 12.7804C27.0343 13.9476 25.2499 16.302 25.2499 16.302C24.3949 17.38 23.4706 18.4531 22.4916 19.5039V19.5088L22.4817 19.5163C22.4768 19.5187 22.4718 19.5262 22.4669 19.5336C22.4619 19.5386 22.4545 19.5485 22.447 19.5559C22.4297 19.5733 21.8151 20.2201 21.7903 20.2473L21.7432 20.2944C21.5301 20.515 21.3145 20.7356 21.0939 20.9537C20.3157 21.7318 19.5252 22.4778 18.7272 23.1866C17.6095 24.1853 16.472 25.1122 15.327 25.9622C15.2105 26.0514 15.0916 26.1382 14.9751 26.2224C14.7793 26.3686 14.5835 26.5074 14.3828 26.6462C14.249 26.7404 14.1151 26.8321 13.9838 26.9238C13.9318 26.9585 13.8797 26.9956 13.8277 27.0279C13.7657 27.0725 13.7013 27.1146 13.6393 27.1567C13.2031 27.4492 12.7719 27.7267 12.3482 27.9869C7.92942 30.6957 4.24922 31.5978 2.86139 30.2099C2.80192 30.1505 2.7474 30.086 2.69783 30.0191C1.70405 28.6833 2.32857 25.6722 4.32852 22.0267C4.38304 22.1283 4.44004 22.23 4.49704 22.3291C4.54909 22.4233 4.60361 22.5125 4.65317 22.5943C4.78452 22.8173 4.93322 23.0403 5.10422 23.2807C5.86752 24.3513 6.79686 25.2807 7.86747 26.044C8.05829 26.1803 8.26399 26.3141 8.52916 26.4851H8.54155V26.4901C9.13881 26.8544 9.76829 27.1666 10.4176 27.4194C10.9777 27.0849 11.5526 26.7205 12.1375 26.329C12.3705 26.1729 12.6034 26.0118 12.8388 25.8457C13.0371 25.7069 13.2329 25.5682 13.4287 25.4219C13.5129 25.36 13.5997 25.298 13.6839 25.2336C13.3543 25.0527 13.0346 24.8519 12.7248 24.6314C12.3457 24.3613 11.9863 24.0639 11.6567 23.7516H11.6542C11.1759 23.3006 10.7422 22.8049 10.3655 22.2746C10.1797 22.0119 10.0087 21.7442 9.85503 21.4741C8.97277 19.9599 8.50934 18.2276 8.50934 16.4655C8.50934 16.2375 8.51677 16.0046 8.53164 15.7791C8.53907 15.675 8.54899 15.5734 8.5589 15.4693L8.57129 15.3528C8.57625 15.3057 8.58121 15.2561 8.58616 15.2091C8.59112 15.1917 8.5936 15.1744 8.5936 15.1545V15.1446C8.61094 15.0257 8.62829 14.9092 8.6506 14.7754C8.66794 14.6787 8.68281 14.5845 8.70512 14.4879C8.7076 14.4681 8.71255 14.4482 8.71503 14.4284V14.4185C8.73486 14.3367 8.7522 14.25 8.77451 14.1682L8.78194 14.136C8.80425 14.0418 8.82655 13.9427 8.85381 13.8485L8.8786 13.7593C8.89842 13.6825 8.92073 13.6081 8.94551 13.5338L8.95294 13.5065C8.98268 13.4074 9.01242 13.3132 9.04712 13.2215L9.05455 13.1967C9.08677 13.1001 9.12394 13.0034 9.16112 12.9018C9.19829 12.8027 9.23794 12.706 9.28255 12.5995C9.3222 12.5003 9.36681 12.4037 9.40894 12.307C9.48329 12.1435 9.57003 11.97 9.67412 11.7692C9.70385 11.7147 9.73607 11.6577 9.76581 11.6032L9.84759 11.4545H9.85007L9.85503 11.4495C9.89468 11.3802 9.93681 11.3058 9.99381 11.2166C10.0359 11.1447 10.0805 11.0728 10.1326 10.996C10.1772 10.9266 10.2243 10.8572 10.2739 10.7879L10.2912 10.7631C10.3383 10.6962 10.3829 10.6292 10.4325 10.5623L10.4548 10.5351C10.5019 10.4657 10.5539 10.3988 10.6035 10.3343L10.653 10.2749C10.6753 10.2426 10.7001 10.2129 10.7249 10.1832L10.7447 10.1609C10.7893 10.1039 10.8339 10.0469 10.8959 9.97746C10.9678 9.89072 11.0421 9.80646 11.1165 9.72468C11.1264 9.71229 11.1363 9.70238 11.1462 9.69246L11.1735 9.66272C11.2181 9.61316 11.2652 9.56359 11.3122 9.51651L11.399 9.42729C11.4163 9.40994 11.4312 9.39259 11.4461 9.37772L11.4932 9.33064C11.5824 9.2439 11.6741 9.15964 11.7608 9.07786C11.8426 9.00599 11.9219 8.93412 12.0136 8.85233C12.0309 8.83994 12.0483 8.82507 12.0656 8.8102L12.1425 8.74577L12.192 8.70612C12.2565 8.6516 12.3234 8.59707 12.3928 8.54503L12.4398 8.50786C12.4398 8.50786 12.4448 8.50538 12.4473 8.50042C12.5415 8.42855 12.6381 8.35668 12.7496 8.27986C12.8364 8.2179 12.9231 8.15842 13.0098 8.10142L13.0445 8.07912C13.0867 8.04938 13.1288 8.02212 13.1858 7.98742C13.2577 7.94034 13.3295 7.89821 13.4039 7.85608L13.4411 7.83129C13.508 7.78916 13.5774 7.75199 13.6616 7.70738C13.8624 7.59338 14.0656 7.48929 14.2861 7.38521C14.4001 7.33316 14.5117 7.27864 14.6281 7.23156L14.6529 7.22412C14.7719 7.17208 14.8933 7.12499 15.0148 7.0779H15.0197L15.0445 7.06551H15.0544L15.0742 7.05808C15.1858 7.01595 15.2998 6.97629 15.4286 6.93417C15.4484 6.92673 15.4658 6.92177 15.4856 6.91682L15.5278 6.90195C15.6021 6.87717 15.6789 6.85486 15.7558 6.83503L15.7954 6.82512C15.8326 6.81273 15.8673 6.80282 15.9044 6.7929L15.9515 6.78051C16.0358 6.75821 16.1225 6.7359 16.2093 6.7136L16.301 6.69377C16.3406 6.68386 16.3827 6.67395 16.4323 6.66404C16.5389 6.64173 16.643 6.6219 16.752 6.60208H16.757C17.3394 6.49799 17.9366 6.44595 18.5314 6.44595C20.3926 6.44595 22.2017 6.95647 23.763 7.92051H23.7679C23.9588 8.03947 24.1496 8.16586 24.3454 8.30464C25.2524 8.94651 26.043 9.73707 26.6972 10.654C26.7592 10.7408 26.8187 10.83 26.8782 10.9167C27.2177 10.3393 27.525 9.77672 27.8001 9.23151C27.0962 8.32942 26.2735 7.54382 25.3491 6.88956C25.1236 6.73095 24.898 6.57977 24.6725 6.44347H24.6676C23.5003 5.71982 22.2141 5.21426 20.8709 4.94413C24.2215 2.88965 27.1483 1.87605 28.9698 2.11148C29.5497 2.18583 30.0181 2.38657 30.3527 2.72113C31.3018 3.6703 31.1581 5.7793 30.0553 8.47812C30.0156 8.57725 29.9735 8.67638 29.9289 8.77799C29.9264 8.79038 29.919 8.80277 29.914 8.81516C29.8446 8.97377 29.7728 9.13238 29.6984 9.29594C29.6389 9.42481 29.577 9.55368 29.5125 9.68503Z" fill="#767676"/>
<path d="M24.009 12.5713C23.5704 11.9542 23.0376 11.4239 22.4279 10.9927C22.304 10.9034 22.1751 10.8167 22.0413 10.7374H22.0388C20.9905 10.0881 19.7787 9.74609 18.5321 9.74609C18.1331 9.74609 17.7316 9.78079 17.3425 9.85018H17.3326C17.2632 9.86257 17.1938 9.87744 17.1294 9.88983L16.9683 9.92701C16.9113 9.9394 16.8543 9.95427 16.7998 9.96914C16.7577 9.97905 16.718 9.99144 16.6759 10.0038C16.6214 10.0187 16.5668 10.036 16.5123 10.0534C16.4801 10.0633 16.4454 10.0732 16.4281 10.0807C16.3636 10.103 16.2992 10.1228 16.2348 10.1476C16.21 10.155 16.1877 10.1624 16.1629 10.1748C16.0836 10.2046 16.0043 10.2343 15.925 10.269C15.8432 10.3012 15.7639 10.3384 15.6871 10.3731C15.5408 10.4425 15.3946 10.5168 15.2658 10.5887C15.2112 10.6209 15.1567 10.6507 15.1022 10.6854C15.0452 10.7176 14.9907 10.7498 14.9485 10.777C14.9089 10.8018 14.8692 10.8266 14.8321 10.8539C14.7701 10.8935 14.7082 10.9357 14.6462 10.9803C14.5743 11.0298 14.5074 11.0794 14.443 11.129L14.4331 11.1389C14.381 11.176 14.329 11.2182 14.2794 11.2603C14.267 11.2702 14.2571 11.2777 14.2472 11.2851L14.2075 11.3198L14.1555 11.3644L14.1332 11.3842C14.0861 11.4239 14.0415 11.466 13.9919 11.5081C13.9349 11.5627 13.8755 11.6172 13.8085 11.6816L13.6945 11.7981C13.6598 11.8353 13.6252 11.8724 13.5905 11.9096L13.5632 11.9369C13.5087 11.9963 13.4542 12.0583 13.4145 12.1079C13.3773 12.15 13.3402 12.1946 13.3055 12.2392C13.2856 12.264 13.2658 12.2888 13.246 12.3136L13.2262 12.3383C13.184 12.3929 13.1444 12.4449 13.1047 12.4994C13.07 12.544 13.0403 12.5887 13.0105 12.6333C12.9709 12.6853 12.9362 12.7398 12.9065 12.7869C12.8668 12.8439 12.8321 12.9009 12.8073 12.9406C12.7726 12.9951 12.7379 13.0546 12.7057 13.1116L12.728 13.124L12.6834 13.1512L12.6636 13.1859C12.6363 13.2305 12.6115 13.2776 12.5892 13.3197C12.5273 13.4387 12.4653 13.5601 12.4108 13.684C12.3811 13.7485 12.3513 13.8129 12.3191 13.8922C12.2943 13.9542 12.2695 14.0161 12.2472 14.0756C12.22 14.1425 12.1952 14.2119 12.1729 14.2838C12.1481 14.3532 12.1233 14.4226 12.1035 14.4969C12.0862 14.5465 12.0713 14.596 12.0589 14.6481C12.0515 14.6704 12.044 14.6952 12.0391 14.7199C12.0192 14.7869 12.0044 14.8513 11.9895 14.9133C11.9746 14.9752 11.9598 15.0421 11.9474 15.1041V15.1189C11.9275 15.1933 11.9152 15.2701 11.9052 15.337C11.8904 15.4188 11.878 15.5031 11.8656 15.5873C11.8582 15.6369 11.8532 15.684 11.8482 15.7336L11.8408 15.8054C11.8359 15.8723 11.8284 15.9368 11.8235 16.0062C11.8135 16.1573 11.8086 16.311 11.8086 16.4646C11.8086 17.6492 12.1209 18.8115 12.7107 19.8227C12.8123 20.0011 12.9288 20.182 13.0552 20.3605C13.3079 20.7173 13.5979 21.0494 13.9176 21.3518C14.1406 21.5624 14.381 21.7607 14.6363 21.9416C15.241 22.3728 15.9002 22.695 16.5941 22.9031C17.1393 22.4323 17.6821 21.9441 18.2198 21.441H18.2074C18.0141 21.4286 17.8357 21.4088 17.6548 21.3741C16.9287 21.2452 16.2496 20.9627 15.6425 20.529C15.4541 20.3952 15.2757 20.2465 15.1096 20.0903C14.8692 19.8648 14.6561 19.6195 14.4678 19.3543C14.3736 19.2229 14.2893 19.0916 14.2125 18.9578C13.7738 18.2044 13.5434 17.3419 13.5434 16.4646C13.5434 16.3506 13.5483 16.2366 13.5558 16.1226C13.5582 16.0706 13.5632 16.0186 13.5682 15.9715L13.5756 15.9145C13.5781 15.8897 13.5781 15.8674 13.583 15.8426H13.5805L13.588 15.8054C13.5954 15.7509 13.6028 15.6939 13.6152 15.6295C13.6227 15.5799 13.6301 15.5303 13.64 15.4783L13.645 15.4609C13.6549 15.4114 13.6673 15.3593 13.6797 15.3023C13.6921 15.2553 13.702 15.2082 13.7144 15.1611L13.7268 15.1115C13.7268 15.1115 13.7243 15.1313 13.7218 15.1388L13.7292 15.114C13.7392 15.0793 13.7491 15.0446 13.7664 14.9901C13.7788 14.943 13.7937 14.8984 13.8085 14.8563L13.8185 14.8315C13.8333 14.7844 13.8507 14.7398 13.868 14.6902C13.8878 14.6431 13.9052 14.596 13.93 14.539C13.9498 14.4895 13.9721 14.4424 13.9919 14.3928C14.0341 14.3036 14.0762 14.2169 14.1258 14.1252C14.1382 14.1004 14.153 14.0756 14.1679 14.0508L14.2125 13.969H14.215C14.2323 13.9343 14.2522 13.8996 14.2844 13.8501C14.3042 13.8179 14.324 13.7856 14.3513 13.7435C14.3736 13.7113 14.3934 13.6791 14.4182 13.6469L14.4331 13.6246C14.4554 13.5923 14.4752 13.5626 14.4975 13.5329L14.5173 13.5056C14.5396 13.4759 14.5619 13.4461 14.5818 13.4189L14.6561 13.3272C14.6784 13.2999 14.6982 13.2726 14.7329 13.233C14.7701 13.1884 14.8098 13.1463 14.8469 13.1041L14.8717 13.0793C14.894 13.0521 14.9188 13.0273 14.9436 13.0025L15.0278 12.9158C15.0725 12.8737 15.1171 12.829 15.1617 12.7894C15.2038 12.7522 15.2459 12.715 15.2881 12.6779C15.298 12.6704 15.3079 12.6605 15.3178 12.6531L15.3302 12.6407C15.3302 12.6407 15.3351 12.6357 15.3376 12.6333L15.3847 12.5986C15.412 12.5738 15.4417 12.5515 15.4715 12.5292L15.4962 12.5069H15.4987C15.5483 12.4697 15.5954 12.4325 15.6449 12.3978C15.6895 12.3681 15.7341 12.3359 15.7788 12.3086L15.8159 12.2838C15.8308 12.2714 15.8457 12.2615 15.8754 12.2442C15.9076 12.2219 15.9398 12.2045 15.9721 12.1847L16.0092 12.1624C16.039 12.145 16.0687 12.1277 16.1108 12.1054C16.21 12.0484 16.3141 11.9963 16.4181 11.9468C16.4751 11.922 16.5297 11.8947 16.5842 11.8724L16.6015 11.865C16.661 11.8402 16.718 11.8154 16.78 11.7931L16.8072 11.7832C16.8642 11.7634 16.9237 11.7436 16.9832 11.7237L17.0352 11.7064C17.0699 11.694 17.1046 11.6841 17.1393 11.6742L17.2484 11.6444C17.2905 11.6345 17.3326 11.6221 17.3748 11.6122L17.4813 11.5874C17.5358 11.5775 17.5879 11.5676 17.6424 11.5577H17.6449C17.9348 11.5057 18.2322 11.4784 18.5296 11.4784C19.454 11.4784 20.3536 11.7337 21.1293 12.212H21.1367C21.2334 12.2739 21.3276 12.3383 21.4242 12.4053C21.8753 12.725 22.2668 13.1165 22.5915 13.5725C22.6584 13.6667 22.7203 13.7609 22.7823 13.86C23.1417 14.4473 23.3771 15.1041 23.4713 15.7881C23.9372 15.2082 24.3833 14.6283 24.8046 14.0508C24.6583 13.6716 24.4774 13.3024 24.2618 12.953C24.18 12.8216 24.0958 12.6927 24.0066 12.5688L24.009 12.5713Z" fill="#767676"/>
</g>
<path d="M113.043 14.4936H108.309V22.4169C108.309 24.3237 108.342 24.4881 110.117 24.4881H113.043V28.1703H109.229C105.744 28.1703 104.101 27.0196 104.101 22.8443V14.4936H100.944V10.8114H104.101V6.07715H108.309V10.8114H113.043V14.4936Z" fill="#767676"/>
<path d="M95.1382 8.70724V4.49902H99.3464V8.70724H95.1382ZM95.1382 28.1703V10.8114H99.3464V28.1703H95.1382Z" fill="#767676"/>
<path d="M79.6008 4.49902V11.4689C79.6008 12.1593 79.4364 12.6853 79.1405 13.2771C79.009 13.6059 78.7789 14.0004 79.1076 14.1648C79.4364 14.3292 79.6337 13.9018 79.6994 13.7703C80.7515 11.9292 82.4939 10.5483 85.1898 10.5483C89.6939 10.5483 92.7515 14.4935 92.7515 19.4908C92.7515 24.4881 89.6939 28.4333 85.1898 28.4333C82.5597 28.4333 80.7515 27.0853 79.6994 25.1785C79.6337 25.0798 79.5022 24.7511 79.2063 24.8497C78.8446 24.9812 78.9761 25.31 79.1405 25.6388C79.4364 26.2305 79.6008 26.7566 79.6008 27.4141V28.1703H75.3926V4.49902H79.6008ZM84.2035 24.6196C87.1624 24.6196 88.5433 22.2525 88.5433 19.4908C88.5433 16.7292 87.1624 14.362 84.2035 14.362C81.4419 14.362 79.6008 16.7292 79.6008 19.4908C79.6008 22.2525 81.4419 24.6196 84.2035 24.6196Z" fill="#767676"/>
<path d="M66.3658 14.5259C66.563 14.5588 66.7274 14.2958 66.7603 14.1972C67.8124 11.7972 68.7658 10.5479 73.0069 10.5479V14.8218C68.1082 14.4931 66.6945 16.2355 66.6945 20.641V28.1698H62.4863V10.8109H66.6945V11.7643C66.6945 12.5205 66.4973 13.178 66.2014 13.7698C66.0699 14.0657 65.9713 14.4602 66.3658 14.5259Z" fill="#767676"/>
<path d="M48.285 4.7627C55.5179 4.7627 59.8576 10.0558 59.8576 16.5983C59.8576 23.1408 55.5179 28.4339 48.285 28.4339C41.0521 28.4339 36.7124 23.1408 36.7124 16.5983C36.7124 10.0558 41.0521 4.7627 48.285 4.7627ZM48.285 24.4887C52.7234 24.4887 55.3864 20.9709 55.3864 16.5983C55.3864 12.2257 52.7234 8.7079 48.285 8.7079C43.8466 8.7079 41.1836 12.2257 41.1836 16.5983C41.1836 20.9709 43.8466 24.4887 48.285 24.4887Z" fill="#767676"/>
<defs>
<clipPath id="clip0_1061_21190">
<rect width="32.2123" height="32.2223" fill="white" transform="translate(0.5 0.355469)"/>
</clipPath>
</defs>
</svg>
