<svg width="16" height="18" viewBox="0 0 16 18" fill="none" xmlns="http://www.w3.org/2000/svg">
<path d="M11.9679 9.40832C11.953 7.78585 13.3305 6.9965 13.3935 6.95976C12.6133 5.85075 11.4041 5.69923 10.9792 5.68715C9.9636 5.58294 8.97848 6.27965 8.46114 6.27965C7.93346 6.27965 7.13679 5.69721 6.27817 5.71433C5.17326 5.73094 4.1396 6.35466 3.57269 7.32322C2.40273 9.29808 3.2753 12.2002 4.39621 13.7965C4.95692 14.5783 5.61212 15.4512 6.46972 15.4205C7.30873 15.3868 7.62213 14.899 8.63462 14.899C9.63781 14.899 9.93211 15.4205 10.8067 15.4009C11.7072 15.3868 12.2741 14.6156 12.8152 13.8267C13.4632 12.9307 13.7234 12.0482 13.7337 12.0029C13.7125 11.9958 11.985 11.353 11.9679 9.40832Z" fill="white"/>
<path d="M10.3157 4.63704C10.767 4.08682 11.0757 3.33825 10.99 2.57861C10.3369 2.6068 9.52009 3.01909 9.04973 3.55723C8.63358 4.03144 8.26184 4.8087 8.35787 5.53965C9.09155 5.59301 9.84485 5.17871 10.3157 4.63704Z" fill="white"/>
</svg>
