<svg width="17" height="18" viewBox="0 0 17 18" fill="none" xmlns="http://www.w3.org/2000/svg">
<path d="M2.63685 2.73362C2.51402 2.87162 2.43752 3.08509 2.43752 3.37144V14.6276C2.43752 14.913 2.51352 15.126 2.63564 15.264L9.02359 9.03827V8.9582L2.63685 2.73362Z" fill="white" stroke="#333333" stroke-width="0.130508"/>
<path d="M11.2752 6.92233L9.18704 8.95832V9.03844L11.2736 11.0753L13.8248 9.66253C13.8249 9.66252 13.8249 9.6625 13.8249 9.66249C14.175 9.46814 14.3295 9.22408 14.3295 8.99869C14.3295 8.77335 14.175 8.52994 13.825 8.33686L13.8249 8.33676L11.2752 6.92233Z" fill="white" stroke="#333333" stroke-width="0.130508"/>
<mask id="path-4-inside-1_1061_20292" fill="white">
<path d="M11.3102 11.1487L9.10526 8.99884L2.59814 15.3439C2.84024 15.5921 3.23502 15.622 3.68397 15.3738L11.3102 11.1487Z"/>
</mask>
<path d="M11.3102 11.1487L9.10526 8.99884L2.59814 15.3439C2.84024 15.5921 3.23502 15.622 3.68397 15.3738L11.3102 11.1487Z" fill="white"/>
<path d="M9.10526 8.99884L8.99136 8.88204L9.10525 8.77099L9.21914 8.88204L9.10526 8.99884ZM2.59814 15.3439L2.48138 15.4579L2.36742 15.3411L2.48425 15.2271L2.59814 15.3439ZM3.68397 15.3738L3.76303 15.5165L3.76288 15.5166L3.68397 15.3738ZM11.1963 11.2655L8.99137 9.11564L9.21914 8.88204L11.4241 11.0318L11.1963 11.2655ZM9.21915 9.11564L2.71204 15.4607L2.48425 15.2271L8.99136 8.88204L9.21915 9.11564ZM2.71491 15.23C2.8869 15.4063 3.1933 15.4586 3.60506 15.2311L3.76288 15.5166C3.27675 15.7853 2.79357 15.7778 2.48138 15.4579L2.71491 15.23ZM3.60491 15.2311L11.2311 11.006L11.3892 11.2913L3.76303 15.5165L3.60491 15.2311Z" fill="#333333" mask="url(#path-4-inside-1_1061_20292)"/>
<path d="M9.10525 8.88511L11.1747 6.8674L3.64482 2.69559C3.64478 2.69557 3.64475 2.69555 3.64471 2.69553C3.2541 2.48189 2.92917 2.49595 2.71762 2.65902L9.10525 8.88511Z" fill="white" stroke="#333333" stroke-width="0.130508"/>
</svg>