<svg width="41" height="41" viewBox="0 0 41 41" fill="none" xmlns="http://www.w3.org/2000/svg">
<rect x="0.5" y="0.200195" width="40" height="40" rx="20" fill="#FF4E4C"/>
<path d="M10.5 28.2002H30.5V30.2002H10.5V28.2002ZM12.5 20.2002H14.5V27.2002H12.5V20.2002ZM17.5 20.2002H19.5V27.2002H17.5V20.2002ZM21.5 20.2002H23.5V27.2002H21.5V20.2002ZM26.5 20.2002H28.5V27.2002H26.5V20.2002ZM10.5 15.2002L20.5 10.2002L30.5 15.2002V19.2002H10.5V15.2002ZM20.5 16.2002C21.0523 16.2002 21.5 15.7525 21.5 15.2002C21.5 14.6479 21.0523 14.2002 20.5 14.2002C19.9477 14.2002 19.5 14.6479 19.5 15.2002C19.5 15.7525 19.9477 16.2002 20.5 16.2002Z" fill="white"/>
</svg>
