<svg width="21" height="20" viewBox="0 0 21 20" fill="none" xmlns="http://www.w3.org/2000/svg">
<path d="M10.4998 18.3332C5.89746 18.3332 2.1665 14.6022 2.1665 9.99984C2.1665 5.39746 5.89746 1.6665 10.4998 1.6665C15.1022 1.6665 18.8332 5.39746 18.8332 9.99984C18.8332 14.6022 15.1022 18.3332 10.4998 18.3332ZM10.4998 16.6665C14.1818 16.6665 17.1665 13.6818 17.1665 9.99984C17.1665 6.31794 14.1818 3.33317 10.4998 3.33317C6.81794 3.33317 3.83317 6.31794 3.83317 9.99984C3.83317 13.6818 6.81794 16.6665 10.4998 16.6665ZM9.66867 13.3332L6.13316 9.79767L7.31168 8.61909L9.66867 10.9762L14.3828 6.2621L15.5613 7.44061L9.66867 13.3332Z" fill="#229EFF"/>
</svg>
