<svg width="21" height="21" viewBox="0 0 21 21" fill="none" xmlns="http://www.w3.org/2000/svg">
<path d="M10.5003 2.08691C5.89797 2.08691 2.16699 5.81789 2.16699 10.4202C2.16699 15.0226 5.89797 18.7536 10.5003 18.7536C15.1027 18.7536 18.8337 15.0226 18.8337 10.4202C18.8337 5.81789 15.1027 2.08691 10.5003 2.08691ZM6.41229 5.15373C7.54124 4.27615 8.95966 3.75358 10.5003 3.75358C14.1822 3.75358 17.167 6.73831 17.167 10.4202C17.167 11.9609 16.6444 13.3793 15.7668 14.5082L13.9712 12.7127C14.1487 12.406 14.2503 12.05 14.2503 11.6702C14.2503 10.5197 13.3176 9.58691 12.167 9.58691H8.83366C8.60356 9.58691 8.41699 9.40033 8.41699 9.17025C8.41699 8.94016 8.60356 8.75358 8.83366 8.75358H13.417V7.08691H11.3337V5.42025H9.66699V7.08691H8.83366C8.68229 7.08691 8.53458 7.10299 8.39238 7.13371L6.41229 5.15373ZM5.23381 6.33221L7.02946 8.12787C6.85195 8.43447 6.75033 8.7905 6.75033 9.17025C6.75033 10.3208 7.68304 11.2536 8.83366 11.2536H12.167C12.3971 11.2536 12.5837 11.4402 12.5837 11.6702C12.5837 11.9003 12.3971 12.0869 12.167 12.0869H7.58366V13.7536H9.66699V15.4202H11.3337V13.7536H12.167C12.3185 13.7536 12.4662 13.7375 12.6084 13.7067L14.5883 15.6867C13.4594 16.5643 12.041 17.0869 10.5003 17.0869C6.81838 17.0869 3.83366 14.1022 3.83366 10.4202C3.83366 8.87958 4.35623 7.46116 5.23381 6.33221Z" fill="#229EFF"/>
</svg>
