<svg width="33" height="33" viewBox="0 0 33 33" fill="none" xmlns="http://www.w3.org/2000/svg">
<rect x="0.322266" y="0.675781" width="32" height="32" rx="8.4425" fill="#1A1A1A"/>
<g clip-path="url(#clip0_2323_41688)">
<path d="M26.0223 6.97607C25.7205 6.67426 25.3464 6.46716 24.905 6.34997C23.1808 5.89403 20.458 6.84122 17.2649 9.05987H15.0767C12.3668 9.05987 9.83835 10.5192 8.48019 12.8679C7.81235 14.0205 7.46076 15.337 7.46076 16.6742C7.46076 17.371 7.55548 18.0597 7.74171 18.7227C7.76579 18.8094 7.78987 18.8929 7.81877 18.978C7.81235 18.9908 7.80432 19.0021 7.7979 19.0133C7.52177 19.4741 7.27454 19.922 7.05621 20.3538C7.02249 20.4196 6.99199 20.4838 6.96149 20.5465C6.93099 20.6091 6.90048 20.6717 6.87159 20.7359C6.84911 20.7824 6.82824 20.829 6.80737 20.874C6.79292 20.9061 6.78008 20.9366 6.76563 20.9671C5.6563 23.4233 5.59048 25.3386 6.62596 26.3724C6.66288 26.4094 6.70141 26.4463 6.74155 26.48C7.22638 26.9038 7.87977 27.1109 8.66963 27.1109C10.3746 27.1109 12.7136 26.1461 15.3834 24.2902H17.5699C17.7401 24.2902 17.9119 24.2854 18.0788 24.2726C22.0634 24.0125 25.1843 20.6733 25.1843 16.6742C25.1843 15.886 25.0639 15.1074 24.8279 14.3673C26.8828 10.9623 27.3195 8.27483 26.0223 6.97607ZM15.2662 10.5978C15.2582 10.601 15.2501 10.6027 15.2405 10.6043L15.2662 10.5978ZM13.1342 10.4839C13.0652 10.532 13.0026 10.5802 12.9448 10.6251C12.9319 10.6348 12.9191 10.6444 12.9063 10.654C12.8517 10.6958 12.7987 10.7375 12.7473 10.7825C12.7345 10.7921 12.7216 10.8017 12.7088 10.813C12.696 10.8226 12.6847 10.8322 12.6719 10.8419L12.6462 10.8659L12.6317 10.8788C12.6317 10.8788 12.6189 10.89 12.6125 10.8948L12.6077 10.898C12.5466 10.951 12.4889 11.0024 12.4279 11.0586C12.3604 11.1196 12.293 11.1822 12.2224 11.2512L12.1646 11.3106L12.1533 11.3219L12.0843 11.3925C12.049 11.4294 12.0137 11.4664 11.9783 11.5049C11.9719 11.5113 11.9655 11.5193 11.9607 11.5241L11.943 11.5434C11.8804 11.6108 11.8194 11.6799 11.7696 11.7409C11.7279 11.7874 11.6878 11.8372 11.6508 11.8821C11.6284 11.9094 11.6059 11.9399 11.5834 11.9688L11.5561 12.0026C11.5096 12.0603 11.4646 12.1197 11.4229 12.1791C11.3827 12.2337 11.3442 12.2867 11.3105 12.3381C11.2672 12.3975 11.2286 12.4553 11.1917 12.5115C11.174 12.5372 11.158 12.5628 11.1419 12.5869H10.0342C10.8433 11.5948 11.9238 10.8643 13.1342 10.4839ZM9.30055 13.7107H10.5528C10.5463 13.7235 10.5415 13.7364 10.5351 13.7508C10.5062 13.8231 10.4757 13.8969 10.45 13.9676C10.4195 14.043 10.3906 14.1217 10.3649 14.2003C10.3376 14.279 10.3119 14.3593 10.2863 14.4428C10.2686 14.5005 10.2509 14.5583 10.2349 14.6177C10.2269 14.6418 10.2204 14.6659 10.214 14.69C10.1947 14.7622 10.1771 14.8361 10.1594 14.9099C10.1418 14.979 10.1273 15.048 10.1129 15.117C10.1097 15.1347 10.1065 15.1475 10.1048 15.162C10.0872 15.239 10.0743 15.3161 10.0599 15.4012C10.0454 15.4879 10.0326 15.5762 10.0214 15.6645C10.0198 15.6741 10.0182 15.6821 10.0166 15.6901C10.0101 15.7383 10.0053 15.7865 9.99889 15.8362L9.99086 15.9245C9.98605 15.9663 9.98284 16.0096 9.97963 16.0514C9.97802 16.061 9.97642 16.0722 9.97642 16.0819C9.97481 16.0915 9.97321 16.1027 9.97321 16.1124H8.60862C8.68086 15.2743 8.91686 14.4572 9.30055 13.7107ZM9.97481 17.2361C9.97481 17.2442 9.97642 17.2538 9.97642 17.2618C9.98123 17.3244 9.98765 17.387 9.99408 17.4497C10.0005 17.5251 10.0101 17.599 10.0198 17.6728C10.031 17.7563 10.0422 17.8382 10.0567 17.92C10.0695 18.0003 10.084 18.079 10.1 18.1592C10.1113 18.2154 10.1225 18.27 10.1353 18.3262C10.1466 18.3808 10.1594 18.4354 10.1739 18.4883C10.1771 18.506 10.1803 18.5221 10.1851 18.5365C10.198 18.5911 10.2124 18.6425 10.2269 18.6954C10.2445 18.7613 10.2638 18.8239 10.283 18.8881C10.3055 18.9667 10.3312 19.0438 10.3569 19.1209C10.3794 19.1883 10.4035 19.2541 10.4291 19.3215C10.4532 19.3874 10.4789 19.4548 10.5062 19.5206C10.5222 19.5607 10.5383 19.5993 10.556 19.6394H9.30376C8.91686 18.8929 8.68086 18.0758 8.60862 17.2361H9.97481ZM11.1467 20.7632C11.2158 20.8724 11.288 20.9799 11.3651 21.0875C11.5176 21.3042 11.6829 21.5113 11.8595 21.712C11.7038 21.8147 11.5481 21.9175 11.394 22.0186C11.3667 21.9993 11.3394 21.9817 11.3137 21.964C10.8353 21.6221 10.4067 21.2191 10.039 20.7632H11.1467ZM18.0018 23.152C17.8589 23.1616 17.7144 23.1665 17.5699 23.1665C17.4254 23.1665 17.2922 23.1616 17.1509 23.152C17.0787 23.1472 17.0064 23.1424 16.9374 23.1343C17.9857 22.3044 19.0212 21.3797 20.0246 20.3763C20.1691 20.2318 20.3119 20.0857 20.4532 19.9412L20.4837 19.9107L20.4885 19.9043C20.4982 19.8947 20.5078 19.8834 20.519 19.8738C20.6619 19.7422 20.7936 19.6025 20.9156 19.4548C20.922 19.4484 20.9268 19.4419 20.9332 19.4355C20.9445 19.4243 20.9589 19.4098 20.9734 19.3922C22.1036 18.1785 23.1278 16.9102 23.9835 15.6709C24.0348 16.0016 24.0605 16.3371 24.0605 16.6742C24.0605 20.0841 21.4004 22.9289 18.0018 23.152ZM24.6834 12.2819C24.5614 12.5388 24.425 12.8004 24.2789 13.0701C24.2789 13.0685 24.2757 13.0669 24.2757 13.0669C24.1697 13.2628 24.0573 13.4619 23.9385 13.6625C23.9 13.73 23.8599 13.7974 23.8165 13.8664C23.7748 13.9354 23.733 14.0045 23.6897 14.0735C23.656 14.1281 23.6223 14.1811 23.5869 14.2357C23.5773 14.2533 23.5677 14.2694 23.5548 14.287C23.078 15.0432 21.9221 16.5683 21.9221 16.5683C21.3683 17.2666 20.7695 17.9618 20.1353 18.6425V18.6457L20.1289 18.6505C20.1257 18.6521 20.1225 18.6569 20.1193 18.6617C20.1161 18.6649 20.1113 18.6714 20.1064 18.6762C20.0952 18.6874 19.6971 19.1064 19.681 19.1241L19.6505 19.1546C19.5125 19.2975 19.3728 19.4403 19.2299 19.5816C18.7258 20.0857 18.2137 20.5689 17.6968 21.0281C16.9727 21.675 16.2358 22.2755 15.4942 22.8261C15.4187 22.8839 15.3416 22.9401 15.2662 22.9947C15.1394 23.0894 15.0125 23.1793 14.8825 23.2692C14.7958 23.3302 14.7091 23.3896 14.624 23.449C14.5903 23.4715 14.5566 23.4956 14.5229 23.5164C14.4828 23.5453 14.441 23.5726 14.4009 23.5999C14.1183 23.7893 13.839 23.9692 13.5645 24.1377C10.7021 25.8924 8.31804 26.4768 7.41902 25.5778C7.3805 25.5392 7.34518 25.4975 7.31307 25.4541C6.66931 24.5888 7.07387 22.6383 8.36942 20.2767C8.40474 20.3426 8.44166 20.4084 8.47858 20.4726C8.5123 20.5336 8.54762 20.5914 8.57972 20.6444C8.66481 20.7889 8.76113 20.9334 8.87191 21.0891C9.36637 21.7826 9.96839 22.3846 10.6619 22.8791C10.7855 22.9674 10.9188 23.0541 11.0906 23.1649H11.0986V23.1681C11.4855 23.4041 11.8933 23.6063 12.3139 23.7701C12.6767 23.5534 13.0491 23.3174 13.428 23.0637C13.5789 22.9626 13.7298 22.8582 13.8823 22.7507C14.0108 22.6608 14.1376 22.5709 14.2644 22.4761C14.319 22.436 14.3752 22.3959 14.4298 22.3541C14.2163 22.2369 14.0092 22.1069 13.8085 21.964C13.5629 21.789 13.3301 21.5964 13.1166 21.3941H13.115C12.8051 21.1019 12.5242 20.7808 12.2802 20.4373C12.1598 20.2671 12.049 20.0937 11.9494 19.9187C11.3779 18.9379 11.0777 17.8157 11.0777 16.6742C11.0777 16.5266 11.0825 16.3756 11.0922 16.2296C11.097 16.1621 11.1034 16.0963 11.1098 16.0289L11.1178 15.9534C11.1211 15.9229 11.1243 15.8908 11.1275 15.8603C11.1307 15.8491 11.1323 15.8378 11.1323 15.825V15.8186C11.1435 15.7415 11.1548 15.6661 11.1692 15.5794C11.1805 15.5168 11.1901 15.4558 11.2045 15.3931C11.2061 15.3803 11.2094 15.3675 11.211 15.3546V15.3482C11.2238 15.2952 11.235 15.239 11.2495 15.186L11.2543 15.1652C11.2688 15.1042 11.2832 15.04 11.3009 14.979L11.3169 14.9212C11.3298 14.8714 11.3442 14.8232 11.3603 14.7751L11.3651 14.7574C11.3843 14.6932 11.4036 14.6322 11.4261 14.5728L11.4309 14.5567C11.4518 14.4941 11.4759 14.4315 11.4999 14.3657C11.524 14.3015 11.5497 14.2389 11.5786 14.1698C11.6043 14.1056 11.6332 14.043 11.6605 13.9804C11.7086 13.8744 11.7648 13.7621 11.8322 13.632C11.8515 13.5967 11.8724 13.5598 11.8916 13.5245L11.9446 13.4281H11.9462L11.9494 13.4249C11.9751 13.38 12.0024 13.3318 12.0393 13.274C12.0666 13.2275 12.0955 13.1809 12.1292 13.1311C12.1581 13.0862 12.1886 13.0412 12.2208 12.9963L12.232 12.9802C12.2625 12.9369 12.2914 12.8935 12.3235 12.8502L12.3379 12.8325C12.3685 12.7876 12.4022 12.7442 12.4343 12.7025L12.4664 12.664C12.4808 12.6431 12.4969 12.6238 12.5129 12.6046L12.5258 12.5901C12.5547 12.5532 12.5836 12.5163 12.6237 12.4713C12.6703 12.4151 12.7184 12.3606 12.7666 12.3076C12.773 12.2996 12.7794 12.2931 12.7859 12.2867L12.8035 12.2674C12.8324 12.2353 12.8629 12.2032 12.8934 12.1727L12.9496 12.1149C12.9608 12.1037 12.9705 12.0925 12.9801 12.0828L13.0106 12.0523C13.0684 11.9961 13.1278 11.9415 13.184 11.8886C13.237 11.842 13.2883 11.7955 13.3477 11.7425C13.359 11.7345 13.3702 11.7248 13.3815 11.7152L13.4312 11.6734L13.4633 11.6478C13.5051 11.6124 13.5484 11.5771 13.5934 11.5434L13.6239 11.5193C13.6239 11.5193 13.6271 11.5177 13.6287 11.5145C13.6897 11.468 13.7523 11.4214 13.8245 11.3716C13.8807 11.3315 13.9369 11.293 13.9931 11.256L14.0156 11.2416C14.0429 11.2223 14.0702 11.2047 14.1071 11.1822C14.1536 11.1517 14.2002 11.1244 14.2484 11.0971L14.2724 11.0811C14.3158 11.0538 14.3607 11.0297 14.4153 11.0008C14.5454 10.9269 14.677 10.8595 14.8199 10.7921C14.8937 10.7584 14.966 10.7231 15.0414 10.6926L15.0575 10.6877C15.1345 10.654 15.2132 10.6235 15.2919 10.593H15.2951L15.3111 10.585H15.3176L15.3304 10.5802C15.4026 10.5529 15.4765 10.5272 15.56 10.4999C15.5728 10.4951 15.5841 10.4919 15.5969 10.4887L15.6242 10.479C15.6723 10.463 15.7221 10.4485 15.7719 10.4357L15.7976 10.4293C15.8217 10.4212 15.8441 10.4148 15.8682 10.4084L15.8987 10.4004C15.9533 10.3859 16.0095 10.3715 16.0657 10.357L16.1251 10.3442C16.1508 10.3378 16.178 10.3313 16.2102 10.3249C16.2792 10.3105 16.3466 10.2976 16.4173 10.2848H16.4205C16.7977 10.2174 17.1846 10.1836 17.5699 10.1836C18.7756 10.1836 19.9475 10.5144 20.9589 11.1389H20.9621C21.0857 11.2159 21.2094 11.2978 21.3362 11.3877C21.9238 11.8035 22.4359 12.3156 22.8597 12.9096C22.8998 12.9658 22.9384 13.0236 22.9769 13.0798C23.1968 12.7057 23.3959 12.3413 23.5741 11.9881C23.1182 11.4037 22.5852 10.8948 21.9864 10.471C21.8403 10.3683 21.6942 10.2703 21.5481 10.182H21.5449C20.7887 9.71326 19.9555 9.38576 19.0854 9.21078C21.2559 7.87991 23.1519 7.2233 24.3318 7.37581C24.7075 7.42397 25.0109 7.55401 25.2276 7.77074C25.8425 8.3856 25.7494 9.75179 25.035 11.5001C25.0093 11.5643 24.982 11.6285 24.9531 11.6943C24.9515 11.7023 24.9467 11.7104 24.9435 11.7184C24.8985 11.8211 24.852 11.9239 24.8038 12.0298C24.7653 12.1133 24.7252 12.1968 24.6834 12.2819Z" fill="white"/>
<path d="M21.1182 14.1466C20.834 13.7468 20.4889 13.4033 20.094 13.1239C20.0137 13.0661 19.9302 13.0099 19.8435 12.9586H19.8419C19.1628 12.538 18.3778 12.3164 17.5703 12.3164C17.3118 12.3164 17.0517 12.3389 16.7997 12.3838H16.7933C16.7483 12.3919 16.7034 12.4015 16.6616 12.4095L16.5573 12.4336C16.5203 12.4416 16.4834 12.4513 16.4481 12.4609C16.4208 12.4673 16.3951 12.4753 16.3678 12.4834C16.3325 12.493 16.2972 12.5042 16.2619 12.5155C16.241 12.5219 16.2185 12.5283 16.2073 12.5331C16.1656 12.5476 16.1238 12.5604 16.0821 12.5765C16.066 12.5813 16.0516 12.5861 16.0355 12.5941C15.9841 12.6134 15.9328 12.6327 15.8814 12.6551C15.8284 12.676 15.7771 12.7001 15.7273 12.7226C15.6326 12.7675 15.5378 12.8157 15.4544 12.8622C15.419 12.8831 15.3837 12.9024 15.3484 12.9249C15.3115 12.9457 15.2762 12.9666 15.2489 12.9842C15.2232 13.0003 15.1975 13.0164 15.1734 13.034C15.1333 13.0597 15.0932 13.087 15.053 13.1159C15.0065 13.148 14.9631 13.1801 14.9214 13.2122L14.915 13.2186C14.8812 13.2427 14.8475 13.27 14.8154 13.2973C14.8074 13.3037 14.801 13.3085 14.7946 13.3134L14.7689 13.3358L14.7352 13.3647L14.7207 13.3776C14.6902 13.4033 14.6613 13.4305 14.6292 13.4578C14.5923 13.4932 14.5537 13.5285 14.5104 13.5702L14.4365 13.6457C14.4141 13.6698 14.3916 13.6938 14.3691 13.7179L14.3515 13.7356C14.3161 13.7741 14.2808 13.8142 14.2551 13.8463C14.2311 13.8736 14.207 13.9025 14.1845 13.9314C14.1717 13.9475 14.1588 13.9635 14.146 13.9796L14.1331 13.9956C14.1058 14.031 14.0802 14.0647 14.0545 14.1C14.032 14.1289 14.0127 14.1578 13.9935 14.1867C13.9678 14.2204 13.9453 14.2557 13.926 14.2862C13.9003 14.3231 13.8779 14.3601 13.8618 14.3858C13.8393 14.4211 13.8169 14.4596 13.796 14.4965L13.8104 14.5046L13.7815 14.5222L13.7687 14.5447C13.751 14.5736 13.735 14.6041 13.7205 14.6314C13.6804 14.7084 13.6403 14.7871 13.605 14.8674C13.5857 14.9091 13.5664 14.9509 13.5456 15.0022C13.5295 15.0424 13.5134 15.0825 13.499 15.121C13.4813 15.1644 13.4653 15.2093 13.4508 15.2559C13.4348 15.3008 13.4187 15.3458 13.4059 15.3939C13.3946 15.4261 13.385 15.4582 13.377 15.4919C13.3722 15.5063 13.3674 15.5224 13.3641 15.5384C13.3513 15.5818 13.3417 15.6235 13.332 15.6637C13.3224 15.7038 13.3128 15.7471 13.3047 15.7873V15.7969C13.2919 15.8451 13.2839 15.8948 13.2775 15.9382C13.2678 15.9912 13.2598 16.0457 13.2518 16.1003C13.247 16.1324 13.2437 16.1629 13.2405 16.195L13.2357 16.2416C13.2325 16.2849 13.2277 16.3267 13.2245 16.3716C13.2181 16.4696 13.2148 16.5691 13.2148 16.6686C13.2148 17.436 13.4171 18.1889 13.7992 18.8439C13.865 18.9595 13.9405 19.0767 14.0224 19.1923C14.1861 19.4235 14.3739 19.6386 14.581 19.8345C14.7255 19.9709 14.8812 20.0993 15.0466 20.2165C15.4383 20.4959 15.8653 20.7046 16.3149 20.8394C16.668 20.5344 17.0196 20.2181 17.368 19.8923H17.36C17.2347 19.8842 17.1192 19.8714 17.002 19.8489C16.5316 19.7654 16.0917 19.5824 15.6984 19.3015C15.5764 19.2148 15.4608 19.1185 15.3532 19.0173C15.1975 18.8712 15.0594 18.7123 14.9374 18.5405C14.8764 18.4554 14.8218 18.3703 14.7721 18.2837C14.4879 17.7956 14.3386 17.2369 14.3386 16.6686C14.3386 16.5948 14.3418 16.5209 14.3466 16.4471C14.3483 16.4134 14.3515 16.3797 14.3547 16.3492L14.3595 16.3122C14.3611 16.2962 14.3611 16.2817 14.3643 16.2657H14.3627L14.3675 16.2416C14.3723 16.2063 14.3771 16.1693 14.3852 16.1276C14.39 16.0955 14.3948 16.0634 14.4012 16.0297L14.4044 16.0184C14.4109 15.9863 14.4189 15.9526 14.4269 15.9157C14.4349 15.8852 14.4414 15.8547 14.4494 15.8242L14.4574 15.7921C14.4574 15.7921 14.4558 15.8049 14.4542 15.8097L14.459 15.7937C14.4654 15.7712 14.4719 15.7487 14.4831 15.7134C14.4911 15.6829 14.5008 15.654 14.5104 15.6267L14.5168 15.6107C14.5264 15.5802 14.5377 15.5513 14.5489 15.5192C14.5618 15.4887 14.573 15.4582 14.5891 15.4212C14.6019 15.3891 14.6164 15.3586 14.6292 15.3265C14.6565 15.2687 14.6838 15.2125 14.7159 15.1531C14.7239 15.1371 14.7335 15.121 14.7432 15.105L14.7721 15.052H14.7737C14.7849 15.0295 14.7978 15.007 14.8186 14.9749C14.8315 14.9541 14.8443 14.9332 14.862 14.9059C14.8764 14.885 14.8893 14.8642 14.9053 14.8433L14.915 14.8288C14.9294 14.808 14.9422 14.7887 14.9567 14.7694L14.9695 14.7518C14.984 14.7325 14.9984 14.7133 15.0113 14.6956L15.0594 14.6362C15.0739 14.6185 15.0867 14.6009 15.1092 14.5752C15.1333 14.5463 15.159 14.519 15.1831 14.4917L15.1991 14.4757C15.2136 14.458 15.2296 14.4419 15.2457 14.4259L15.3002 14.3697C15.3291 14.3424 15.358 14.3135 15.3869 14.2878C15.4142 14.2637 15.4415 14.2397 15.4688 14.2156C15.4752 14.2108 15.4817 14.2043 15.4881 14.1995L15.4961 14.1915C15.4961 14.1915 15.4993 14.1883 15.5009 14.1867L15.5314 14.1642C15.5491 14.1482 15.5683 14.1337 15.5876 14.1193L15.6037 14.1048H15.6053C15.6374 14.0807 15.6679 14.0567 15.7 14.0342C15.7289 14.0149 15.7578 13.994 15.7867 13.9764L15.8108 13.9603C15.8204 13.9523 15.83 13.9459 15.8493 13.9346C15.8702 13.9202 15.891 13.909 15.9119 13.8961L15.936 13.8817C15.9552 13.8704 15.9745 13.8592 16.0018 13.8447C16.066 13.8078 16.1334 13.7741 16.2009 13.742C16.2378 13.7259 16.2731 13.7083 16.3084 13.6938L16.3197 13.689C16.3582 13.673 16.3951 13.6569 16.4353 13.6425L16.4529 13.636C16.4898 13.6232 16.5284 13.6104 16.5669 13.5975L16.6006 13.5863C16.6231 13.5782 16.6456 13.5718 16.668 13.5654L16.7387 13.5461C16.766 13.5397 16.7933 13.5317 16.8206 13.5253L16.8896 13.5092C16.9249 13.5028 16.9586 13.4964 16.9939 13.4899H16.9955C17.1834 13.4562 17.376 13.4386 17.5687 13.4386C18.1675 13.4386 18.7502 13.6039 19.2527 13.9138H19.2575C19.3202 13.9539 19.3812 13.9956 19.4438 14.039C19.7359 14.2461 19.9896 14.4997 20.1999 14.7951C20.2433 14.8561 20.2834 14.9171 20.3235 14.9814C20.5563 15.3618 20.7088 15.7873 20.7698 16.2304C21.0716 15.8547 21.3606 15.479 21.6335 15.105C21.5388 14.8593 21.4216 14.6201 21.2819 14.3938C21.229 14.3087 21.1744 14.2252 21.1166 14.1449L21.1182 14.1466Z" fill="white"/>
</g>
<defs>
<clipPath id="clip0_2323_41688">
<rect width="20.8669" height="20.8733" fill="white" transform="translate(5.88965 6.23828)"/>
</clipPath>
</defs>
</svg>
