<svg width="25" height="25" viewBox="0 0 25 25" fill="none" xmlns="http://www.w3.org/2000/svg">
<path d="M13.5281 2.5C14.6535 2.50186 15.2238 2.50782 15.7166 2.52249L15.9107 2.52883C16.1349 2.5368 16.3561 2.5468 16.6228 2.5593C17.6869 2.60847 18.4128 2.7768 19.0503 3.0243C19.7094 3.27847 20.2661 3.6218 20.8219 4.17764C21.3769 4.73347 21.7203 5.2918 21.9753 5.9493C22.2219 6.58597 22.3903 7.31264 22.4403 8.3768C22.4522 8.64347 22.4618 8.86467 22.4697 9.08891L22.476 9.283C22.4906 9.77574 22.4973 10.3461 22.4994 11.4716L22.5002 12.2172C22.5003 12.3083 22.5003 12.4023 22.5003 12.4993L22.5002 12.7814L22.4996 13.5271C22.4977 14.6525 22.4918 15.2229 22.4771 15.7156L22.4707 15.9097C22.4628 16.134 22.4528 16.3552 22.4403 16.6218C22.3911 17.686 22.2219 18.4118 21.9753 19.0493C21.7211 19.7085 21.3769 20.2652 20.8219 20.821C20.2661 21.376 19.7069 21.7193 19.0503 21.9743C18.4128 22.221 17.6869 22.3893 16.6228 22.4393C16.3561 22.4512 16.1349 22.4609 15.9107 22.4687L15.7166 22.475C15.2238 22.4897 14.6535 22.4963 13.5281 22.4985L12.7824 22.4993C12.6913 22.4993 12.5973 22.4993 12.5003 22.4993H12.2182L11.4725 22.4986C10.3471 22.4968 9.77672 22.4908 9.28397 22.4761L9.08989 22.4698C8.86564 22.4618 8.64444 22.4518 8.37778 22.4393C7.31361 22.3902 6.58861 22.221 5.95028 21.9743C5.29194 21.7202 4.73444 21.376 4.17861 20.821C3.62278 20.2652 3.28028 19.706 3.02528 19.0493C2.77778 18.4118 2.61028 17.686 2.56028 16.6218C2.5484 16.3552 2.53871 16.134 2.53086 15.9097L2.52457 15.7156C2.50994 15.2229 2.50327 14.6525 2.50111 13.5271L2.50098 11.4716C2.50284 10.3461 2.50879 9.77574 2.52346 9.283L2.52981 9.08891C2.53778 8.86467 2.54778 8.64347 2.56028 8.3768C2.60944 7.3118 2.77778 6.5868 3.02528 5.9493C3.27944 5.29097 3.62278 4.73347 4.17861 4.17764C4.73444 3.6218 5.29278 3.2793 5.95028 3.0243C6.58778 2.7768 7.31278 2.6093 8.37778 2.5593C8.64444 2.54743 8.86564 2.53774 9.08989 2.52989L9.28397 2.5236C9.77672 2.50896 10.3471 2.50229 11.4725 2.50013L13.5281 2.5ZM12.5003 7.4993C9.73738 7.4993 7.50028 9.73883 7.50028 12.4993C7.50028 15.2622 9.73981 17.4993 12.5003 17.4993C15.2632 17.4993 17.5003 15.2598 17.5003 12.4993C17.5003 9.7364 15.2607 7.4993 12.5003 7.4993ZM12.5003 9.4993C14.1572 9.4993 15.5003 10.842 15.5003 12.4993C15.5003 14.1562 14.1576 15.4993 12.5003 15.4993C10.8434 15.4993 9.50028 14.1567 9.50028 12.4993C9.50028 10.8424 10.8429 9.4993 12.5003 9.4993ZM17.7503 5.9993C17.061 5.9993 16.5003 6.55921 16.5003 7.24845C16.5003 7.9377 17.0602 8.49847 17.7503 8.49847C18.4395 8.49847 19.0003 7.93857 19.0003 7.24845C19.0003 6.55921 18.4386 5.99844 17.7503 5.9993Z" fill="#484848"/>
</svg>
