<svg width="41" height="41" viewBox="0 0 41 41" fill="none" xmlns="http://www.w3.org/2000/svg">
<rect x="0.5" y="0.799805" width="40" height="40" rx="20" fill="#A479FF"/>
<path d="M10.5498 21.7998H16.0277C16.2067 25.0687 17.2579 28.1052 18.9525 30.6808C14.4881 29.987 11.0006 26.3401 10.5498 21.7998ZM10.5498 19.7998C11.0006 15.2596 14.4881 11.6127 18.9525 10.9189C17.2579 13.4945 16.2067 16.531 16.0277 19.7998H10.5498ZM30.4511 19.7998H24.9731C24.7941 16.531 23.743 13.4945 22.0484 10.9189C26.5128 11.6127 30.0003 15.2596 30.4511 19.7998ZM30.4511 21.7998C30.0003 26.3401 26.5128 29.987 22.0484 30.6808C23.743 28.1052 24.7941 25.0687 24.9731 21.7998H30.4511ZM18.0312 21.7998H22.9697C22.7981 24.5827 21.9151 27.1731 20.5004 29.3914C19.0857 27.1731 18.2028 24.5827 18.0312 21.7998ZM18.0312 19.7998C18.2028 17.017 19.0857 14.4266 20.5004 12.2083C21.9151 14.4266 22.7981 17.017 22.9697 19.7998H18.0312Z" fill="white"/>
</svg>
