<svg width="21" height="20" viewBox="0 0 21 20" fill="none" xmlns="http://www.w3.org/2000/svg">
<path d="M5.5 8.3335V16.6668H16.3333V8.3335H5.5ZM15.5 6.66683H17.1667C17.6269 6.66683 18 7.03993 18 7.50016V17.5002C18 17.9604 17.6269 18.3335 17.1667 18.3335H3.83333C3.3731 18.3335 3 17.9604 3 17.5002V7.50016C3 7.03993 3.3731 6.66683 3.83333 6.66683H5.5V5.8335C5.5 3.07207 7.73857 0.833496 10.5 0.833496C13.2614 0.833496 15.5 3.07207 15.5 5.8335V6.66683ZM13.8333 6.66683V5.8335C13.8333 3.99255 12.3409 2.50016 10.5 2.50016C8.65905 2.50016 7.16667 3.99255 7.16667 5.8335V6.66683H13.8333ZM6.33333 9.16683H8V10.8335H6.33333V9.16683ZM6.33333 11.6668H8V13.3335H6.33333V11.6668ZM6.33333 14.1668H8V15.8335H6.33333V14.1668Z" fill="#229EFF"/>
</svg>
