<svg width="85" height="69" viewBox="0 0 85 69" fill="none" xmlns="http://www.w3.org/2000/svg">
<path d="M3.60023 48.59C3.18843 48.5333 2.83817 48.3491 2.54945 48.0374C2.25955 47.7166 2.0147 47.2475 1.81489 46.6301C1.71951 46.3208 1.60516 45.7245 1.47185 44.8411C1.44833 44.6603 1.42364 44.4705 1.39777 44.2716C1.30723 43.5757 1.23183 42.8548 1.17156 42.1089C1.13908 41.7179 1.10248 41.2953 1.06176 40.841C1.01318 40.397 0.976953 40.0478 0.953068 39.7936C0.906473 39.2941 0.886739 38.9658 0.893864 38.8086C0.910029 38.6502 0.965874 38.5143 1.0614 38.4007C1.18955 38.2554 1.3395 38.1716 1.51123 38.1492C1.57449 38.141 1.63894 38.1418 1.70456 38.1516C1.94661 38.1753 2.13833 38.3066 2.27972 38.5456C2.31624 38.6143 2.3496 38.7295 2.37981 38.891C2.40097 39.0537 2.44132 39.4345 2.50085 40.0334C2.5298 40.3973 2.56622 40.7832 2.61009 41.1911C2.64611 41.6092 2.67312 41.9228 2.69112 42.1318C2.74823 42.9241 2.80735 43.5552 2.8685 44.0252C2.9206 44.4963 2.97862 44.907 3.04256 45.2571C3.15044 45.8038 3.26622 46.2345 3.38989 46.5493C3.51239 46.8551 3.64044 47.0268 3.77403 47.0646C3.88955 47.1047 4.04871 47.0564 4.25152 46.9198C4.46455 46.7909 4.72457 46.5641 5.03158 46.2392C5.24857 45.9996 5.39932 45.8513 5.48382 45.7944C5.56833 45.7374 5.67385 45.7007 5.80039 45.6842C5.945 45.6654 6.08587 45.6885 6.22299 45.7533C6.37033 45.8261 6.47541 45.9273 6.53824 46.057C6.57476 46.1258 6.5989 46.2054 6.61066 46.2958C6.61419 46.3229 6.61771 46.35 6.62124 46.3771C6.62749 46.4958 6.6139 46.6032 6.58046 46.6995C6.54585 46.7867 6.42398 46.9451 6.21485 47.1745C6.0069 47.4129 5.80839 47.618 5.61932 47.7896C5.28049 48.0819 4.93677 48.3012 4.58817 48.4477C4.3952 48.5188 4.21286 48.5655 4.04113 48.5878C3.88747 48.6078 3.74051 48.6085 3.60023 48.59ZM8.27121 47.7204C7.99852 47.6731 7.75885 47.5619 7.55221 47.3865C7.34675 47.2202 7.1698 46.9905 7.02136 46.6973C6.88784 46.4481 6.79223 46.2078 6.73455 45.9763C6.68825 45.7617 6.62512 45.3472 6.54517 44.7325C6.54164 44.7054 6.53811 44.6783 6.53458 44.6512C6.47226 44.1722 6.42975 43.81 6.40704 43.5648C6.38551 43.3286 6.36992 42.9263 6.36029 42.3576C6.36389 42.1733 6.36337 41.9574 6.35874 41.7099C6.3541 41.4623 6.34929 41.178 6.34429 40.8569C6.34164 40.554 6.33884 40.1085 6.33589 39.5207C6.29504 39.4892 6.23944 39.4505 6.16912 39.4045C5.94793 39.2586 5.82599 39.0631 5.80328 38.8179C5.78843 38.5625 5.87554 38.3489 6.06461 38.1773C6.1389 38.1124 6.41931 38.007 6.90584 37.861C7.3912 37.706 7.98108 37.5419 8.6755 37.3688C8.98714 37.2915 9.21527 37.2435 9.35988 37.2247C9.39603 37.22 9.42315 37.2164 9.44123 37.2141C9.56894 37.2067 9.69801 37.245 9.82845 37.3291C9.90899 37.383 9.98343 37.4606 10.0518 37.562C10.1213 37.6725 10.1613 37.7684 10.1719 37.8497C10.1872 37.9672 10.163 38.0991 10.0993 38.2452C10.0344 38.3823 9.94732 38.4902 9.83805 38.5687C9.81329 38.5903 9.71229 38.6265 9.53505 38.6771C9.34994 38.7379 9.14617 38.7966 8.92374 38.8531C8.34565 39.0019 8.02222 39.0945 7.95344 39.131C7.88348 39.1585 7.8477 39.2367 7.84608 39.3656C7.84131 39.5408 7.83947 39.7387 7.84058 39.9591C7.84051 40.1705 7.84161 40.391 7.84389 40.6205C7.85161 41.0331 7.85856 41.4044 7.86474 41.7345C7.87995 42.0634 7.89208 42.2273 7.90112 42.2261C7.91016 42.2249 7.94514 42.2112 8.00605 42.1849C8.07601 42.1574 8.15383 42.1197 8.23951 42.0718C8.51029 41.963 8.72369 41.9077 8.87969 41.9058C9.04473 41.9027 9.19424 41.9568 9.3282 42.068C9.48259 42.195 9.56879 42.363 9.58679 42.5721C9.61266 42.7709 9.55817 42.9527 9.42333 43.1173C9.38402 43.1683 9.31249 43.219 9.20873 43.2693C9.10615 43.3286 8.9511 43.4085 8.74358 43.509C8.40402 43.6543 8.18747 43.756 8.09392 43.8141C8.00155 43.8813 7.94986 43.9432 7.93884 43.9998C7.93017 44.0744 7.947 44.2744 7.98933 44.5998C8.0407 44.924 8.08777 45.1799 8.13054 45.3673C8.18352 45.5626 8.23808 45.7348 8.29423 45.8837C8.35037 46.0327 8.40456 46.1313 8.45681 46.1797C8.50906 46.228 8.58883 46.2406 8.69611 46.2175C8.81243 46.1931 8.95117 46.1291 9.11232 46.0254C9.29823 45.9002 9.48847 45.7375 9.68305 45.5376C9.87881 45.3467 10.1064 45.0827 10.3659 44.7456C10.6187 44.4278 10.7991 44.2251 10.9072 44.1375C11.0165 44.0589 11.1587 44.0221 11.334 44.0268C11.4177 44.0343 11.4833 44.0442 11.5308 44.0564C11.5886 44.0764 11.6538 44.1185 11.7265 44.1826C11.8695 44.2926 11.9645 44.4227 12.0117 44.5729C12.0254 44.6078 12.0352 44.6479 12.0411 44.6931C12.0552 44.8016 12.0428 44.9181 12.0038 45.0426C11.9826 45.0914 11.9012 45.2077 11.7597 45.3915C11.6193 45.5844 11.4654 45.7791 11.298 45.9755C11.1867 46.1095 11.0794 46.2383 10.976 46.3621C10.8714 46.4768 10.7871 46.5705 10.723 46.6431C10.291 47.067 9.86635 47.3704 9.44896 47.5534C9.23123 47.646 9.01843 47.7059 8.81054 47.7329C8.62977 47.7565 8.45 47.7523 8.27121 47.7204ZM15.3398 36.9844C15.4938 37.0379 15.6787 37.1517 15.8943 37.3259C16.1088 37.491 16.2662 37.6406 16.3663 37.7746C16.5109 37.9672 16.5442 38.188 16.4663 38.4371C16.3794 38.6874 16.2214 38.8505 15.9922 38.9262C15.8433 38.9824 15.7014 38.987 15.5667 38.9402C15.424 38.9036 15.2834 38.8116 15.1447 38.6642C15.0379 38.5494 14.9346 38.4618 14.8348 38.4012C14.7452 38.3486 14.6637 38.3224 14.5902 38.3228C14.5088 38.3333 14.4102 38.3875 14.2942 38.4853C14.1783 38.5832 14.0788 38.7018 13.9958 38.8413C13.8209 39.1214 13.6801 39.4522 13.5735 39.8337C13.4669 40.2153 13.3983 40.6424 13.3679 41.1151C13.3529 41.2825 13.3505 41.4758 13.3607 41.6951C13.3708 41.9144 13.3855 42.1331 13.4046 42.3512C13.4289 42.6789 13.4665 42.9681 13.5175 43.2188C13.5685 43.4696 13.6166 43.592 13.6618 43.5861C13.6709 43.5849 13.7035 43.5531 13.7597 43.4907C13.8159 43.4282 13.8749 43.3516 13.9366 43.2608C14.1218 42.9886 14.3122 42.757 14.508 42.5661C14.7116 42.365 14.9205 42.2045 15.1347 42.0847C15.4244 41.9092 15.7021 41.8179 15.9677 41.8109C16.2412 41.7937 16.5161 41.8223 16.7923 41.8967C16.9475 41.9592 17.1182 42.0703 17.3044 42.2299C17.4804 42.3816 17.6094 42.5257 17.6915 42.6621C17.8443 42.9179 17.9418 43.2085 17.9842 43.5339C17.9948 43.6153 18.0014 43.7017 18.0041 43.7933C18.0244 44.2318 17.9484 44.6369 17.7762 45.0086C17.6633 45.2715 17.499 45.5272 17.2832 45.7759C17.0674 46.0246 16.8439 46.2145 16.6128 46.3457C16.3919 46.4847 16.116 46.5895 15.7851 46.6601C15.6778 46.6833 15.5745 46.7013 15.4751 46.7143C15.2852 46.739 15.1157 46.7426 14.9664 46.7253C14.5738 46.6753 14.2074 46.5437 13.8672 46.3306C13.5191 46.1277 13.2188 45.8681 12.9662 45.5517C12.6261 45.1271 12.36 44.6011 12.1681 43.9735C12.0542 43.593 11.9703 43.1949 11.9162 42.7792C11.8809 42.508 11.858 42.2261 11.8475 41.9333C11.825 41.0539 11.9125 40.2428 12.11 39.5002C12.2997 38.7678 12.581 38.1751 12.9541 37.7222C13.1845 37.444 13.4276 37.2286 13.6834 37.0758C13.9055 36.9458 14.134 36.8655 14.369 36.8349C14.4052 36.8302 14.4368 36.8261 14.4639 36.8226C14.6097 36.8128 14.7534 36.8217 14.8948 36.8493C15.0453 36.8756 15.1936 36.9207 15.3398 36.9844ZM15.8841 43.3935C15.7465 43.4666 15.6136 43.5758 15.4855 43.7211C15.3483 43.8676 15.2001 44.0708 15.0408 44.3304C14.9634 44.4416 14.8893 44.5432 14.8185 44.6351C14.7399 44.7373 14.6792 44.8003 14.6363 44.8243C14.6037 44.8561 14.5756 44.8873 14.552 44.918C14.5272 44.9396 14.52 44.9543 14.5302 44.9622C14.5325 44.9802 14.5587 45.0044 14.6086 45.0347C14.6675 45.0638 14.736 45.0962 14.8142 45.132C14.9309 45.1812 15.0221 45.2107 15.0877 45.2205C15.1443 45.2315 15.2313 45.2294 15.3488 45.2141C15.3579 45.2129 15.3624 45.2124 15.3624 45.2124C15.4437 45.2018 15.5194 45.1827 15.5893 45.1553C15.6695 45.1356 15.7395 45.1081 15.7992 45.0728C16.0213 44.9428 16.2001 44.7633 16.3358 44.5342C16.4624 44.3064 16.5188 44.0692 16.5052 43.8228C16.4981 43.7686 16.4922 43.7234 16.4875 43.6873C16.4817 43.6421 16.477 43.6059 16.4734 43.5788C16.4573 43.5258 16.4328 43.4784 16.3998 43.4367C16.3566 43.3872 16.3151 43.3512 16.2755 43.3288C16.2358 43.3064 16.1928 43.2936 16.1464 43.2905C16.1373 43.2916 16.1238 43.2934 16.1057 43.2958C16.0786 43.2993 16.0521 43.3073 16.0261 43.3199C15.9821 43.3348 15.9348 43.3594 15.8841 43.3935ZM22.0275 37.2036C22.2796 37.6579 22.5423 38.2993 22.8155 39.1277C23.0977 39.955 23.3452 40.8328 23.5579 41.761C23.6203 42.0286 23.6781 42.2968 23.7315 42.5656C23.786 42.8435 23.8343 43.1083 23.8762 43.3602C23.9182 43.6121 23.9533 43.8466 23.9815 44.0635C24.0074 44.2623 24.0275 44.4527 24.042 44.6347C24.071 44.9986 24.0699 45.2377 24.0388 45.352C23.9944 45.5049 23.9 45.6274 23.7558 45.7197C23.6713 45.7767 23.5838 45.811 23.4935 45.8228C23.4302 45.831 23.3657 45.8302 23.3001 45.8204C23.1587 45.7928 23.0408 45.7346 22.9465 45.6458C22.8511 45.5479 22.7888 45.4227 22.7598 45.2702C22.7539 45.225 22.7422 45.1347 22.7245 44.9991C22.7057 44.8545 22.6875 44.7144 22.6698 44.5788C22.6554 44.3969 22.6422 44.2607 22.6305 44.1703C22.6097 44.0811 22.5942 44.0326 22.584 44.0247C22.5521 43.9921 22.4193 43.9956 22.1855 44.0352C21.9505 44.0657 21.6941 44.1083 21.4162 44.1628C21.0661 44.2268 20.7313 44.3025 20.4118 44.39C20.1001 44.4673 19.9337 44.5303 19.9125 44.5791C19.8956 44.5904 19.8891 44.6464 19.8929 44.747C19.8878 44.8488 19.8884 44.959 19.8946 45.0777C19.9106 45.3422 19.9161 45.5253 19.9109 45.6271C19.9058 45.7288 19.8847 45.8143 19.8478 45.8835C19.7829 46.0206 19.672 46.1223 19.5152 46.1887C19.3584 46.255 19.2081 46.2654 19.0643 46.2198C18.9115 46.1753 18.7958 46.0984 18.7172 45.9892C18.641 45.898 18.5929 45.7756 18.5729 45.6219C18.5706 45.6038 18.5682 45.5858 18.5659 45.5677C18.5369 45.2038 18.5191 44.8201 18.5126 44.4165C18.5139 44.0027 18.5237 43.5832 18.5419 43.1581C18.5673 42.3643 18.6379 41.5646 18.7537 40.7591C18.8605 39.9548 18.9992 39.2198 19.17 38.5542C19.3608 37.8308 19.561 37.2854 19.7706 36.9181C19.9814 36.5598 20.2374 36.3381 20.5389 36.2529C20.5479 36.2517 20.5615 36.2499 20.5795 36.2476C20.5964 36.2362 20.6139 36.2293 20.632 36.227C20.6501 36.2246 20.6682 36.2223 20.6862 36.2199C20.9303 36.1882 21.159 36.2503 21.3723 36.4064C21.6139 36.568 21.8323 36.8337 22.0275 37.2036ZM20.058 41.1409C20.0462 41.2619 20.0316 41.3971 20.0143 41.5464C19.9969 41.6958 19.9835 41.84 19.974 41.9791C19.9449 42.2494 19.9257 42.4909 19.9166 42.7035C19.904 42.8889 19.9 42.9998 19.9047 43.0359C19.9059 43.0449 19.9065 43.0495 19.9065 43.0495C19.9155 43.0483 19.9426 43.0448 19.9878 43.0389C20.024 43.0342 20.0782 43.0271 20.1505 43.0177C20.294 42.9899 20.4684 42.9534 20.674 42.9083C20.9778 42.8412 21.2737 42.7843 21.5617 42.7376C21.8407 42.6921 22.0757 42.6616 22.2667 42.6459C22.2758 42.6447 22.2887 42.6384 22.3056 42.6271C22.3135 42.6168 22.3208 42.6021 22.3275 42.5829C22.3365 42.5817 22.3375 42.554 22.3304 42.4997C22.3163 42.3913 22.2706 42.1812 22.1933 41.8696C22.0881 41.4145 21.9694 40.9612 21.8371 40.5096C21.6531 39.8718 21.4568 39.2815 21.2483 38.7388C21.0308 38.1972 20.8937 37.9209 20.8372 37.9099C20.8372 37.9099 20.8326 37.9105 20.8236 37.9117C20.7796 37.9266 20.7064 38.1061 20.6041 38.4503C20.5097 38.7843 20.4145 39.1827 20.3185 39.6456C20.2677 39.8912 20.2181 40.1458 20.1697 40.4095C20.1291 40.6629 20.0919 40.9067 20.058 41.1409ZM26.6447 45.5645C26.2851 45.5561 25.9289 45.4324 25.5761 45.1934C25.2245 44.9634 24.9376 44.6652 24.7153 44.2989C24.5158 43.9664 24.3585 43.6054 24.2435 43.216C24.1273 42.8175 24.0316 42.329 23.9563 41.7505C23.9552 41.7415 23.954 41.7324 23.9528 41.7234C23.8282 40.7653 23.7972 39.8916 23.86 39.1022C23.9306 38.3025 24.0971 37.5685 24.3594 36.9002C24.6485 36.1548 25.0414 35.6074 25.5382 35.2578C25.8165 35.0654 26.1002 34.9503 26.3895 34.9127C26.6245 34.8821 26.8659 34.9013 27.1139 34.9701C27.3437 35.0413 27.5455 35.1437 27.7191 35.2774C27.8939 35.4201 28.0809 35.621 28.2801 35.88C28.3688 35.9971 28.427 36.0907 28.4544 36.1606C28.491 36.2294 28.5139 36.3 28.5233 36.3723C28.5574 36.6344 28.4607 36.8446 28.2331 37.0029C28.0055 37.1612 27.7564 37.189 27.4857 37.0863C27.4087 37.0596 27.3395 37.0226 27.2782 36.9754C27.2248 36.918 27.1429 36.8184 27.0325 36.6765C26.9563 36.5853 26.8852 36.4981 26.8193 36.4147C26.7454 36.3416 26.6943 36.3023 26.666 36.2968C26.6173 36.2755 26.5794 36.2667 26.5523 36.2702C26.5264 36.2828 26.4756 36.317 26.4002 36.3727C26.0464 36.621 25.7737 37.139 25.5821 37.9268C25.3814 38.7158 25.3039 39.6037 25.3496 40.5904C25.3984 41.5308 25.5335 42.322 25.7549 42.9642C25.9865 43.6142 26.2683 44.0141 26.6003 44.164C26.8542 44.278 27.1827 44.1893 27.586 43.8979C27.9802 43.6076 28.3945 43.1539 28.829 42.5367C28.9143 42.4153 29.0008 42.3029 29.0884 42.1996C29.1682 42.1065 29.2205 42.0492 29.2453 42.0276C29.4324 41.9113 29.6294 41.8719 29.8365 41.9093C30.0436 41.9467 30.2041 42.0499 30.318 42.2189C30.3851 42.3113 30.4246 42.4026 30.4364 42.493C30.4411 42.5292 30.4373 42.571 30.4251 42.6186C30.4043 42.7408 30.313 42.9227 30.1514 43.1643C29.5959 43.9811 29.023 44.5933 28.4326 45.001C27.9853 45.3074 27.5312 45.4905 27.0702 45.5505C26.9256 45.5693 26.7838 45.574 26.6447 45.5645ZM32.9235 45.0785C32.7887 45.0317 32.6781 44.9588 32.5917 44.8597C32.5132 44.7505 32.4645 44.6235 32.4457 44.4789C32.4327 44.3795 32.4412 44.2681 32.4711 44.1447C32.501 44.0213 32.5856 43.753 32.7249 43.3396C32.9487 42.6579 33.109 42.1591 33.2058 41.8432C33.2935 41.5285 33.3311 41.3582 33.3185 41.3322C33.3173 41.3232 33.2684 41.2652 33.1718 41.1583C33.0763 41.0604 32.965 40.9462 32.8377 40.8157C32.2968 40.2611 31.8113 39.7084 31.3812 39.1577C30.9511 38.607 30.5257 37.9868 30.1051 37.297C29.9421 37.0333 29.8433 36.8393 29.8088 36.7152C29.795 36.6802 29.7864 36.6491 29.7829 36.622C29.779 36.5214 29.7932 36.4185 29.8254 36.3132C29.9135 36.0719 30.0767 35.9128 30.3148 35.8359C30.5632 35.7668 30.7895 35.8109 30.9938 35.9682C31.0244 35.9917 31.0904 36.0751 31.1918 36.2181C31.2931 36.3612 31.3968 36.5224 31.5028 36.7016C31.6167 36.8706 31.7534 37.0734 31.9129 37.31C32.0723 37.5466 32.2084 37.7449 32.3211 37.9049C32.4087 38.013 32.5026 38.134 32.6028 38.2681C32.712 38.4009 32.8212 38.5338 32.9304 38.6666C33.1374 38.9155 33.3318 39.1383 33.5137 39.3353C33.6853 39.5243 33.7853 39.6216 33.8136 39.6271C33.8407 39.6236 33.9233 39.4107 34.0614 38.9883C34.1892 38.558 34.3403 38.0237 34.5146 37.3852C34.6079 37.0421 34.7033 36.6804 34.8009 36.3001C34.8894 35.9209 34.9819 35.5366 35.0783 35.1473C35.1967 34.6447 35.2884 34.3249 35.3533 34.1877C35.4091 34.0518 35.5103 33.9467 35.6569 33.8725C35.7336 33.8258 35.8171 33.7965 35.9075 33.7848C36.0431 33.7671 36.1851 33.7992 36.3336 33.881C36.5693 33.9974 36.7037 34.1821 36.7366 34.4352C36.7507 34.5436 36.6991 34.8537 36.5819 35.3653C36.4646 35.8769 36.3072 36.504 36.1097 37.2466C36.0054 37.6462 35.8905 38.0701 35.765 38.5185C35.6395 38.9668 35.5056 39.4208 35.3632 39.8805C35.1531 40.5972 34.9391 41.319 34.7211 42.0459C34.493 42.7649 34.2731 43.4415 34.0615 44.0757C33.9556 44.3928 33.8815 44.6 33.839 44.6975C33.7966 44.7949 33.7421 44.8709 33.6757 44.9255C33.5688 45.0222 33.4481 45.0838 33.3137 45.1105C33.2956 45.1128 33.2776 45.1152 33.2595 45.1176C33.142 45.1328 33.03 45.1198 32.9235 45.0785ZM44.7636 35.9415C45.1746 36.0627 45.5272 36.265 45.8215 36.5484C46.1157 36.8318 46.3419 37.193 46.5001 37.632C46.6077 37.8938 46.6762 38.1376 46.7056 38.3636C46.735 38.5895 46.7335 38.8609 46.7012 39.1776C46.6681 39.5587 46.5962 39.8898 46.4857 40.1707C46.3831 40.4414 46.2211 40.7153 45.9998 40.9922C45.6986 41.3623 45.3246 41.6315 44.8778 41.8C44.6939 41.8699 44.5154 41.9114 44.3425 41.9247C44.0895 41.9577 43.8395 41.9442 43.5928 41.8844C43.2407 41.7923 42.9227 41.6085 42.6387 41.333C42.3547 41.0574 42.1371 40.7273 41.9859 40.3425C41.8862 40.0705 41.8165 39.8177 41.7769 39.5838C41.7757 39.5748 41.7752 39.5703 41.7752 39.5703C41.7446 39.3353 41.7403 39.0555 41.7625 38.7309C41.7846 38.4063 41.825 38.1161 41.8836 37.8604C41.9411 37.5955 42.0329 37.3124 42.1591 37.0111C42.3715 36.5239 42.5638 36.2001 42.7359 36.0399C42.8507 35.933 42.9849 35.8696 43.1386 35.8496C43.2199 35.839 43.307 35.8369 43.3997 35.8432C43.4473 35.8554 43.5304 35.8584 43.649 35.8521C43.7598 35.8561 43.8752 35.8595 43.995 35.8623C44.0956 35.8584 44.1782 35.8568 44.2426 35.8576C44.3059 35.8494 44.3658 35.8508 44.4224 35.8618C44.4778 35.8638 44.5293 35.8709 44.5768 35.8831C44.6334 35.8941 44.6957 35.9136 44.7636 35.9415ZM43.6974 37.39C43.6275 37.4175 43.5563 37.5416 43.4839 37.7625C43.4116 37.9833 43.3512 38.2255 43.3027 38.4892C43.2842 38.6294 43.2702 38.7691 43.2608 38.9082C43.2501 39.0383 43.2512 39.1531 43.2642 39.2525C43.2689 39.2886 43.273 39.3203 43.2765 39.3474C43.3294 39.7541 43.4655 40.0581 43.6847 40.2594C43.8493 40.3942 44.022 40.4499 44.2028 40.4264C44.2931 40.4146 44.3857 40.3842 44.4804 40.3351C44.7205 40.2027 44.9122 39.9802 45.0553 39.6674C45.1973 39.3457 45.251 39.017 45.2166 38.6814C45.2142 38.6633 45.2119 38.6452 45.2095 38.6271C45.1742 38.356 45.0916 38.1094 44.9616 37.8873C44.8112 37.6495 44.6442 37.4966 44.4608 37.4286C44.4222 37.4152 44.3792 37.4024 44.3317 37.3902C44.2841 37.378 44.2327 37.3709 44.1773 37.3689C44.0743 37.3548 43.9776 37.3535 43.8873 37.3653C43.8499 37.361 43.8177 37.3606 43.7906 37.3641C43.7454 37.37 43.7143 37.3786 43.6974 37.39ZM50.1339 32.8164C50.3912 32.9575 50.6255 33.1338 50.8369 33.3453C51.0404 33.567 51.2049 33.8076 51.3306 34.067C51.4036 34.2045 51.4511 34.3224 51.4731 34.4207C51.4951 34.5189 51.5265 34.6895 51.5672 34.9323C51.5931 35.1312 51.6052 35.295 51.6036 35.4239C51.611 35.5516 51.6088 35.676 51.597 35.797C51.5426 36.2269 51.4274 36.6831 51.2511 37.1656C51.0659 37.6493 50.8337 38.1253 50.5545 38.5936C50.5007 38.6741 50.4553 38.7489 50.4183 38.8181C50.3813 38.8872 50.3629 38.9218 50.3629 38.9218C50.364 38.9309 50.4719 39.0179 50.6864 39.183C50.8907 39.3403 51.1409 39.5329 51.4371 39.7609C51.9785 40.1777 52.3179 40.4552 52.4554 40.5936C52.6031 40.7398 52.6858 40.8807 52.7034 41.0163C52.7222 41.1609 52.6953 41.3069 52.6225 41.4542C52.5498 41.6015 52.4531 41.706 52.3324 41.7677C52.2558 41.8144 52.1491 41.8421 52.0123 41.8507C51.8846 41.8581 51.7822 41.8485 51.7052 41.8217C51.6667 41.8083 51.5357 41.7197 51.3122 41.5557C51.0796 41.393 50.8203 41.2015 50.5343 40.9814C50.2495 40.7703 50.0004 40.5867 49.7871 40.4306C49.5737 40.2745 49.458 40.1976 49.44 40.2C49.4219 40.2023 49.4011 40.2188 49.3775 40.2495C49.3448 40.2813 49.3173 40.3171 49.2949 40.3567C49.2411 40.4373 49.2212 40.5318 49.2353 40.6402C49.2415 40.7589 49.3015 41.1142 49.4153 41.706C49.4851 42.1013 49.5265 42.3487 49.5394 42.4481C49.5421 42.5397 49.5313 42.633 49.5069 42.7281C49.4613 42.8719 49.3935 42.9864 49.3034 43.0717C49.2044 43.1581 49.078 43.2113 48.9244 43.2313C48.8984 43.2439 48.8719 43.2519 48.8448 43.2554C48.7906 43.2625 48.7403 43.2644 48.6939 43.2613C48.6385 43.2593 48.5813 43.2438 48.5224 43.2147C48.4171 43.1824 48.3212 43.1167 48.2348 43.0177C48.1586 42.9265 48.1044 42.8278 48.0722 42.7217C48.055 42.6596 48.0312 42.5478 48.001 42.3863C47.972 42.2338 47.9383 42.0452 47.8998 41.8204C47.8163 41.3901 47.7255 40.8688 47.6274 40.2566C47.5282 39.6353 47.4267 38.9959 47.3227 38.3384C47.2329 37.7894 47.1488 37.2489 47.0704 36.7168C46.992 36.1847 46.9246 35.7018 46.8681 35.2679C46.8297 35.0431 46.7799 34.6957 46.7188 34.2257C46.6712 34.2135 46.5966 34.2049 46.4948 34.1997C46.3545 34.1812 46.2402 34.1501 46.1518 34.1065C46.0724 34.0617 45.9946 33.9937 45.9184 33.9025C45.8399 33.7932 45.793 33.6798 45.7777 33.5623C45.7671 33.481 45.7701 33.3979 45.7866 33.313C45.8228 33.0969 45.9345 32.9307 46.1216 32.8144C46.1644 32.7905 46.2564 32.7555 46.3975 32.7096C46.5476 32.6625 46.7164 32.6176 46.9038 32.5748C47.019 32.5414 47.1353 32.5171 47.2528 32.5018C47.3601 32.4787 47.4725 32.4594 47.59 32.4442C47.599 32.443 47.608 32.4418 47.6171 32.4406C48.0961 32.3783 48.5415 32.3755 48.9533 32.4322C49.3754 32.4968 49.7689 32.6249 50.1339 32.8164ZM48.4383 35.5738C48.5618 36.5228 48.6619 37.2221 48.7388 37.6717C48.8145 38.1122 48.8704 38.3301 48.9066 38.3254C48.9156 38.3242 48.9476 38.2879 49.0027 38.2164C49.0487 38.1461 49.102 38.061 49.1625 37.9612C49.4216 37.5507 49.6276 37.1562 49.7806 36.7778C49.9336 36.3995 50.0302 36.0468 50.0704 35.7199C50.0999 35.523 50.1035 35.3387 50.0812 35.167C50.0659 35.0495 50.0416 34.9332 50.0082 34.818C49.9109 34.5642 49.751 34.3598 49.5286 34.2049C49.388 34.1129 49.1892 34.033 48.9322 33.9654C48.6764 33.9067 48.4717 33.8874 48.318 33.9074C48.2999 33.9097 48.2683 33.9139 48.2231 33.9197C48.2702 34.2813 48.3419 34.8326 48.4383 35.5738ZM52.6381 31.7185C52.9635 31.6762 53.3337 31.6602 53.7487 31.6705C54.1546 31.6821 54.5131 31.7181 54.8243 31.7788C55.0982 31.835 55.3275 31.9017 55.5122 31.9788C55.7059 32.0547 55.9037 32.1622 56.1056 32.3014C56.4085 32.5102 56.6363 32.7425 56.7891 32.9984C56.9521 33.2621 57.052 33.5708 57.0888 33.9245C57.1453 34.3583 57.0972 34.8012 56.9446 35.253C56.7908 35.6958 56.5358 36.138 56.1796 36.5796C56.0695 36.7226 56 36.8235 55.9709 36.8825C55.9508 36.9402 55.9724 36.965 56.0357 36.9568C56.0537 36.9544 56.1058 36.966 56.1919 36.9916C56.2767 37.0081 56.3718 37.0325 56.4771 37.0648C57.2221 37.2804 57.6799 37.7263 57.8507 38.4027C57.8703 38.4828 57.886 38.5681 57.8977 38.6585C57.9832 39.2448 57.7967 39.8252 57.3384 40.3995C57.0789 40.7366 56.7452 41.0328 56.3372 41.288C55.928 41.5343 55.4751 41.7265 54.9783 41.8647C54.7469 41.9223 54.5956 41.9604 54.5244 41.9789C54.4973 41.9824 54.4702 41.9859 54.4431 41.9894C54.416 41.993 54.3979 41.9953 54.3889 41.9965C54.3798 41.9977 54.3612 41.9955 54.3329 41.99C54.2955 41.9857 54.2633 41.9852 54.2362 41.9888C54.1615 41.9801 54.0692 41.9416 53.9592 41.8732C53.8402 41.8059 53.7624 41.7379 53.7259 41.6691C53.6803 41.6015 53.6511 41.518 53.6381 41.4186C53.6264 41.3282 53.6287 41.2406 53.6453 41.1557C53.6575 41.1082 53.6526 41.0353 53.6306 40.937C53.6177 40.8376 53.5779 40.6727 53.5111 40.4424C53.411 40.097 53.2968 39.6431 53.1685 39.0807C53.039 38.5093 52.9088 37.8967 52.7778 37.2427C52.7048 36.8938 52.6312 36.5403 52.5571 36.1823C52.4908 35.814 52.4257 35.4549 52.3617 35.1047C52.2398 34.4496 52.1311 33.8617 52.0358 33.341C51.9405 32.8203 51.8875 32.5193 51.8769 32.4379C51.8769 32.4379 51.8764 32.4334 51.8752 32.4244C51.8634 32.334 51.8833 32.2395 51.9348 32.1409C51.9761 32.0344 52.0423 31.9431 52.1335 31.8669C52.1831 31.8236 52.2344 31.794 52.2874 31.7779C52.3314 31.763 52.4116 31.7434 52.5279 31.719C52.5279 31.719 52.5324 31.7185 52.5415 31.7173C52.5517 31.7251 52.5658 31.7279 52.5839 31.7255C52.602 31.7232 52.6201 31.7208 52.6381 31.7185ZM53.5572 33.0604C53.5749 33.1959 53.6064 33.4032 53.6519 33.6822C53.6684 33.8088 53.6958 33.9844 53.7343 34.2092C53.7739 34.443 53.8147 34.6859 53.8566 34.9378C53.9241 35.3151 53.9925 35.6646 54.062 35.9865C54.1236 36.3186 54.16 36.493 54.1714 36.5099C54.184 36.5359 54.2038 36.5471 54.231 36.5436C54.24 36.5424 54.253 36.5361 54.2699 36.5247C54.3127 36.5008 54.4027 36.4155 54.5399 36.269C54.8166 35.994 55.0358 35.7357 55.1974 35.4941C55.3578 35.2434 55.4764 34.989 55.5531 34.7309C55.583 34.6075 55.6023 34.5085 55.6109 34.4338C55.6196 34.3592 55.6151 34.2541 55.5975 34.1185C55.5846 34.0191 55.5638 33.9299 55.5351 33.8509C55.5167 33.7797 55.4955 33.7227 55.4715 33.6799C55.4032 33.5785 55.3032 33.4812 55.1716 33.388C55.0309 33.296 54.8893 33.2317 54.7467 33.1951C54.6119 33.1483 54.4325 33.1119 54.2085 33.0859C53.9846 33.0599 53.8081 33.0461 53.6792 33.0445C53.6521 33.048 53.6114 33.0533 53.5572 33.0604ZM54.5811 38.3868C54.5822 38.3959 54.5858 38.423 54.5916 38.4682C54.594 38.4863 54.5969 38.5089 54.6005 38.536C54.6122 38.6264 54.6308 38.7342 54.6563 38.8596C54.736 39.1893 54.8184 39.5049 54.9036 39.8063C54.9809 40.118 55.0258 40.2867 55.0384 40.3127C55.051 40.3386 55.0798 40.3487 55.125 40.3428C55.1431 40.3404 55.1606 40.3336 55.1775 40.3222C55.2486 40.3037 55.3648 40.2427 55.5259 40.139C55.8156 39.9634 56.0412 39.7548 56.2028 39.5132C56.3554 39.2728 56.4181 39.0486 56.3911 38.8407C56.3699 38.678 56.3082 38.5574 56.2061 38.4788C56.0949 38.4013 55.9268 38.3451 55.7016 38.31C55.5715 38.2994 55.4059 38.2979 55.2047 38.3057C55.0306 38.31 54.8848 38.3198 54.7673 38.335C54.7493 38.3374 54.7357 38.3392 54.7267 38.3403C54.6815 38.3462 54.6498 38.3503 54.6318 38.3527C54.6058 38.3652 54.5889 38.3766 54.5811 38.3868ZM59.0594 40.6995C58.9109 40.6177 58.8109 40.5204 58.7595 40.4077C58.708 40.2949 58.6582 40.0532 58.61 39.6826C58.59 39.5289 58.5647 39.3346 58.5342 39.0996C58.5098 38.9833 58.4894 38.8619 58.473 38.7353C58.4553 38.5998 58.4416 38.4591 58.4319 38.3133C58.366 37.8071 58.2972 37.2784 58.2255 36.727C58.164 36.1836 58.1132 35.7582 58.0733 35.4509C58.0588 35.2689 58.0396 35.0508 58.0157 34.7966C57.993 34.5513 57.9736 34.2965 57.9576 34.032C57.9122 33.5416 57.8794 33.0771 57.8591 32.6386C57.8309 32.2102 57.8218 31.9633 57.8316 31.8976C57.8466 31.7303 57.9386 31.5896 58.1076 31.4757C58.2157 31.3881 58.333 31.3361 58.4596 31.3196C58.5047 31.3137 58.555 31.3118 58.6105 31.3138C58.7315 31.3256 58.847 31.3657 58.957 31.4341C59.058 31.5037 59.1336 31.5904 59.1838 31.6942C59.2306 31.7708 59.2651 31.895 59.2875 32.0667C59.311 32.2475 59.3499 32.6882 59.4043 33.3889C59.4583 34.016 59.5128 34.611 59.5676 35.1737C59.6224 35.7365 59.6957 36.3703 59.7874 37.0753C59.8277 37.4561 59.8767 37.8679 59.9343 38.3108C59.9931 38.7628 60.0623 39.2593 60.1419 39.8004C60.1666 39.9902 60.1595 40.1474 60.1205 40.2719C60.0737 40.4067 59.9969 40.5224 59.8899 40.6191C59.7897 40.6964 59.6679 40.749 59.5244 40.7769C59.5154 40.7781 59.5018 40.7798 59.4838 40.7822C59.3289 40.7931 59.1875 40.7656 59.0594 40.6995ZM62.727 40.2775C62.6205 40.2362 62.5253 40.1751 62.4412 40.0941C62.356 40.0041 62.3024 39.91 62.2804 39.8117C62.2655 39.7677 62.2445 39.6418 62.2174 39.4339C62.1904 39.226 62.1604 38.9955 62.1275 38.7424C62.1036 38.4882 62.0633 38.1074 62.0064 37.6001C61.9496 37.0927 61.8918 36.6131 61.833 36.1612C61.7731 35.7002 61.7159 35.2251 61.6614 34.7359C61.607 34.2466 61.565 33.889 61.5356 33.6631C61.5164 33.445 61.4912 33.2506 61.4598 33.0801C61.4386 32.9174 61.4229 32.8321 61.4127 32.8243C61.4115 32.8152 61.3064 32.8197 61.0974 32.8377C60.8895 32.8648 60.7455 32.8881 60.6653 32.9077C60.4134 32.9497 60.2149 32.9433 60.07 32.8887C59.9159 32.8352 59.7961 32.7267 59.7105 32.5632C59.6614 32.4684 59.631 32.3759 59.6192 32.2855C59.6063 32.1861 59.612 32.0888 59.6364 31.9937C59.6852 31.8036 59.7908 31.6612 59.9531 31.5665C59.9869 31.5437 60.1563 31.5033 60.4612 31.4453C60.7662 31.3872 61.0214 31.3356 61.227 31.2905C61.7477 31.1952 62.2006 31.1087 62.5857 31.031C62.981 30.9612 63.4491 30.8497 63.9899 30.6967C64.4064 30.5781 64.6774 30.5061 64.8028 30.4806C64.8299 30.4771 64.857 30.4736 64.8841 30.47C64.9655 30.4595 65.0389 30.4591 65.1046 30.4689C65.2664 30.5122 65.4014 30.5958 65.5094 30.7196C65.5958 30.8186 65.6484 30.9405 65.6673 31.0851C65.6708 31.1122 65.6743 31.1393 65.6778 31.1664C65.6888 31.3213 65.6646 31.4531 65.6052 31.5619C65.547 31.6798 65.4582 31.7741 65.3387 31.8448C65.2789 31.8801 65.0492 31.9513 64.6496 32.0585C64.2499 32.1656 63.8632 32.2665 63.4895 32.3611C63.3551 32.3877 63.2393 32.4166 63.1422 32.4476C63.0452 32.4786 62.9882 32.4998 62.9713 32.5112C62.9477 32.5418 62.9539 32.7662 62.9899 33.1843C63.035 33.6013 63.1347 34.4385 63.2891 35.696C63.3589 36.3028 63.4219 36.8231 63.4784 37.2569C63.5246 37.6829 63.5671 38.045 63.6059 38.3433C63.6863 39.0314 63.725 39.4354 63.7222 39.5552C63.7206 39.6841 63.7025 39.7922 63.6679 39.8794C63.5908 40.0641 63.4609 40.1959 63.2781 40.2748C63.2082 40.3023 63.1416 40.3201 63.0783 40.3283C62.9608 40.3436 62.8437 40.3267 62.727 40.2775ZM7.4157 55.2393C7.66782 55.6936 7.9305 56.335 8.20372 57.1635C8.48598 57.9907 8.73344 58.8685 8.94612 59.7967C9.00851 60.0644 9.06638 60.3326 9.11973 60.6014C9.17426 60.8792 9.2225 61.1441 9.26446 61.396C9.30643 61.6479 9.34152 61.8823 9.36974 62.0992C9.39561 62.2981 9.41578 62.4885 9.43026 62.6704C9.45922 63.0343 9.45815 63.2734 9.42707 63.3877C9.38262 63.5406 9.28827 63.6632 9.14402 63.7555C9.05951 63.8124 8.97207 63.8468 8.88168 63.8585C8.81842 63.8667 8.75397 63.8659 8.68835 63.8561C8.5469 63.8285 8.42903 63.7703 8.33475 63.6815C8.23929 63.5836 8.17705 63.4584 8.14802 63.306C8.14214 63.2608 8.13038 63.1704 8.11275 63.0348C8.09393 62.8902 8.07571 62.7501 8.05807 62.6145C8.04359 62.4326 8.03047 62.2964 8.01871 62.206C7.99792 62.1168 7.98241 62.0683 7.9722 62.0604C7.94038 62.0278 7.80756 62.0313 7.57373 62.0709C7.33874 62.1015 7.08232 62.144 6.80448 62.1986C6.45433 62.2625 6.11951 62.3382 5.8 62.4257C5.48836 62.5031 5.32192 62.5661 5.30069 62.6148C5.28378 62.6262 5.27728 62.6822 5.28118 62.7828C5.27604 62.8845 5.27659 62.9948 5.28284 63.1134C5.29886 63.3779 5.3043 63.561 5.29916 63.6628C5.29401 63.7646 5.27296 63.85 5.236 63.9192C5.17112 64.0563 5.06027 64.158 4.90346 64.2244C4.74664 64.2908 4.59633 64.3011 4.45253 64.2555C4.29968 64.211 4.18398 64.1342 4.10543 64.0249C4.02922 63.9337 3.98113 63.8113 3.96114 63.6576C3.95879 63.6396 3.95643 63.6215 3.95408 63.6034C3.92512 63.2395 3.90737 62.8558 3.90083 62.4522C3.90215 62.0384 3.91191 61.619 3.93013 61.1938C3.95555 60.4 4.02616 59.6004 4.14195 58.7949C4.24872 57.9905 4.38748 57.2555 4.55825 56.5899C4.74907 55.8665 4.94927 55.3212 5.15884 54.9538C5.36959 54.5955 5.62567 54.3738 5.9271 54.2886C5.93614 54.2874 5.94969 54.2857 5.96777 54.2833C5.98467 54.2719 6.00216 54.2651 6.02024 54.2627C6.03831 54.2604 6.05639 54.258 6.07447 54.2557C6.31851 54.2239 6.54719 54.2861 6.76051 54.4421C7.00212 54.6037 7.22052 54.8694 7.4157 55.2393ZM5.44625 59.1767C5.43442 59.2977 5.41984 59.4329 5.4025 59.5822C5.38516 59.7315 5.37175 59.8757 5.36227 60.0148C5.3331 60.2851 5.31396 60.5266 5.30485 60.7392C5.29221 60.9247 5.28825 61.0355 5.29295 61.0716C5.29413 61.0807 5.29471 61.0852 5.29471 61.0852C5.30375 61.084 5.33087 61.0805 5.37606 61.0746C5.41221 61.0699 5.46644 61.0629 5.53875 61.0534C5.68219 61.0256 5.85668 60.9891 6.06221 60.944C6.36599 60.8769 6.6619 60.82 6.94996 60.7733C7.22897 60.7279 7.46397 60.6973 7.65495 60.6816C7.66399 60.6805 7.67696 60.6742 7.69386 60.6628C7.70172 60.6526 7.709 60.6378 7.71569 60.6186C7.72472 60.6174 7.72572 60.5897 7.71866 60.5355C7.70455 60.427 7.65884 60.217 7.58153 59.9053C7.47637 59.4502 7.35766 58.9969 7.22538 58.5454C7.0413 57.9075 6.84502 57.3173 6.63654 56.7745C6.41902 56.2329 6.28197 55.9566 6.22539 55.9456C6.22539 55.9456 6.22087 55.9462 6.21183 55.9474C6.16781 55.9623 6.09466 56.1419 5.99238 56.4861C5.89796 56.82 5.80273 57.2185 5.70669 57.6813C5.65592 57.9269 5.60632 58.1815 5.5579 58.4452C5.51734 58.6986 5.48012 58.9425 5.44625 59.1767ZM10.9819 53.1898C11.3937 53.2466 11.7673 53.3634 12.1029 53.5403C12.4384 53.7173 12.725 53.9419 12.9626 54.2143C13.1606 54.4643 13.3187 54.7609 13.4368 55.104C13.5114 55.324 13.5628 55.5425 13.591 55.7595C13.6099 55.9041 13.619 56.0454 13.6186 56.1833C13.6152 56.8639 13.4728 57.535 13.1912 58.1967C12.9096 58.8583 12.471 59.5496 11.8755 60.2704C11.763 60.3954 11.604 60.5861 11.3984 60.8426C11.4278 61.0686 11.4815 61.4109 11.5596 61.8695C11.6788 62.6444 11.7485 63.1455 11.7689 63.3726C11.7983 63.5986 11.7951 63.7506 11.7593 63.8288C11.6901 64.0033 11.5698 64.1384 11.3985 64.2342C11.3139 64.2912 11.2265 64.3255 11.1361 64.3373C11.0548 64.3479 10.9711 64.3404 10.885 64.3148C10.7899 64.2904 10.7021 64.2513 10.6216 64.1974C10.541 64.1436 10.4774 64.0783 10.4307 64.0017C10.3953 63.9419 10.3592 63.8409 10.3223 63.6987C10.2956 63.5643 10.2502 63.2853 10.1859 62.8616C10.1415 62.5917 10.0884 62.2539 10.0265 61.8483C9.95429 61.4349 9.88311 60.9938 9.81293 60.525C9.67058 59.6427 9.52195 58.7475 9.36704 57.8394C9.22116 56.93 9.10979 56.2505 9.03292 55.801C8.94312 55.252 8.8786 54.8973 8.83935 54.737C8.79894 54.5676 8.75536 54.4446 8.70862 54.3679C8.64932 54.2654 8.61261 54.1598 8.5985 54.0514C8.58439 53.9429 8.59347 53.836 8.62572 53.7307C8.6981 53.5099 8.84768 53.3526 9.07444 53.2587C9.10942 53.245 9.15344 53.2301 9.20649 53.214C9.25168 53.2081 9.29688 53.2022 9.34207 53.1964C9.36015 53.194 9.37822 53.1917 9.3963 53.1893C9.62344 53.1689 9.89301 53.1569 10.205 53.153C10.517 53.1492 10.776 53.1615 10.9819 53.1898ZM10.7302 56.7659C10.8129 57.2606 10.8829 57.6927 10.9402 58.0621C10.9974 58.4315 11.0278 58.6298 11.0313 58.6569C11.0407 58.7292 11.0635 58.763 11.0997 58.7583C11.0997 58.7583 11.1087 58.7571 11.1268 58.7548C11.1685 58.7218 11.2431 58.6247 11.3509 58.4636C11.4877 58.2436 11.6131 58.0067 11.7272 57.7529C11.8424 57.5081 11.9283 57.2856 11.985 57.0852C12.0936 56.6482 12.1306 56.262 12.0962 55.9264C12.0762 55.7727 12.0342 55.6265 11.9702 55.4878C11.7974 55.0783 11.4609 54.8233 10.9607 54.7229C10.8759 54.7064 10.7865 54.6905 10.6926 54.6751C10.5998 54.6688 10.5399 54.6674 10.5128 54.6709C10.5037 54.6721 10.4947 54.6733 10.4857 54.6745C10.4766 54.6756 10.467 54.6723 10.4568 54.6644C10.4297 54.668 10.4157 54.7019 10.4149 54.7664C10.4106 54.8037 10.4143 54.8676 10.426 54.958C10.4378 55.0483 10.457 55.1607 10.4837 55.2951C10.5049 55.4578 10.5352 55.6561 10.5749 55.8899C10.6156 56.1328 10.6674 56.4248 10.7302 56.7659ZM15.9846 52.539C16.3964 52.5957 16.7701 52.7126 17.1056 52.8895C17.4412 53.0664 17.7278 53.2911 17.9654 53.5635C18.1634 53.8135 18.3214 54.11 18.4396 54.4531C18.5142 54.6732 18.5656 54.8917 18.5938 55.1086C18.6126 55.2533 18.6218 55.3945 18.6214 55.5325C18.618 56.2131 18.4755 56.8842 18.1939 57.5458C17.9124 58.2075 17.4738 58.8987 16.8782 59.6196C16.7658 59.7445 16.6068 59.9353 16.4012 60.1918C16.4306 60.4178 16.4843 60.76 16.5623 61.2186C16.6815 61.9936 16.7513 62.4946 16.7717 62.7218C16.8011 62.9477 16.7979 63.0998 16.7621 63.178C16.6929 63.3524 16.5726 63.4876 16.4012 63.5834C16.3167 63.6404 16.2293 63.6747 16.1389 63.6865C16.0575 63.6971 15.9738 63.6896 15.8878 63.664C15.7927 63.6396 15.7049 63.6005 15.6244 63.5466C15.5438 63.4927 15.4802 63.4275 15.4334 63.3508C15.3981 63.2911 15.362 63.1901 15.3251 63.0478C15.2984 62.9134 15.2529 62.6344 15.1886 62.2108C15.1443 61.9408 15.0912 61.6031 15.0292 61.1975C14.9571 60.7841 14.8859 60.343 14.8157 59.8741C14.6733 58.9919 14.5247 58.0967 14.3698 57.1885C14.2239 56.2792 14.1126 55.5997 14.0357 55.1501C13.9459 54.6011 13.8814 54.2465 13.8421 54.0861C13.8017 53.9168 13.7581 53.7938 13.7114 53.7171C13.6521 53.6145 13.6154 53.509 13.6013 53.4005C13.5872 53.2921 13.5962 53.1852 13.6285 53.0799C13.7009 52.8591 13.8504 52.7018 14.0772 52.6079C14.1122 52.5942 14.1562 52.5793 14.2093 52.5632C14.2544 52.5573 14.2996 52.5514 14.3448 52.5455C14.3629 52.5432 14.381 52.5408 14.3991 52.5385C14.6262 52.5181 14.8958 52.506 15.2078 52.5022C15.5198 52.4984 15.7787 52.5106 15.9846 52.539ZM15.7329 56.115C15.8157 56.6098 15.8857 57.0419 15.9429 57.4113C16.0002 57.7807 16.0306 57.9789 16.0341 58.006C16.0435 58.0783 16.0663 58.1122 16.1024 58.1074C16.1024 58.1074 16.1115 58.1063 16.1296 58.1039C16.1712 58.0709 16.2459 57.9739 16.3536 57.8128C16.4905 57.5928 16.6159 57.3559 16.7299 57.1021C16.8452 56.8573 16.9311 56.6347 16.9877 56.4343C17.0963 55.9974 17.1334 55.6111 17.0989 55.2755C17.079 55.1219 17.037 54.9757 16.973 54.837C16.8002 54.4274 16.4637 54.1725 15.9635 54.0721C15.8786 54.0556 15.7892 54.0396 15.6953 54.0243C15.6026 54.018 15.5427 54.0166 15.5156 54.0201C15.5065 54.0213 15.4975 54.0224 15.4884 54.0236C15.4794 54.0248 15.4698 54.0215 15.4596 54.0136C15.4324 54.0171 15.4185 54.0511 15.4177 54.1156C15.4133 54.1529 15.417 54.2167 15.4288 54.3071C15.4406 54.3975 15.4598 54.5099 15.4865 54.6443C15.5076 54.807 15.538 55.0053 15.5776 55.2391C15.6184 55.4819 15.6702 55.7739 15.7329 56.115ZM25.9049 61.2854C25.5269 61.2059 25.178 60.9618 24.8583 60.553C24.5386 60.1442 24.2252 59.537 23.9182 58.7313C23.7646 58.3285 23.588 57.8184 23.3882 57.201C23.1872 56.5745 22.9556 55.8188 22.6934 54.9338C22.691 54.9157 22.6881 54.8931 22.6846 54.866C22.6764 54.8027 22.6805 54.7286 22.697 54.6438C22.71 54.5318 22.739 54.4361 22.7838 54.3567C22.8365 54.2672 22.9141 54.1927 23.0167 54.1334C23.109 54.0663 23.2191 54.029 23.3468 54.0215C23.4643 54.0063 23.5661 54.0114 23.6521 54.037C23.7393 54.0716 23.834 54.1282 23.9362 54.2068C24.0191 54.2788 24.076 54.3633 24.107 54.4603C24.1459 54.5472 24.2568 54.905 24.4397 55.5338C24.6042 56.0915 24.7622 56.5994 24.9137 57.0577C25.0652 57.5159 25.1959 57.8849 25.3059 58.1648C25.457 58.5495 25.6114 58.8879 25.7688 59.1799C25.9275 59.481 26.0414 59.65 26.1105 59.687C26.1785 59.7149 26.2796 59.5731 26.4137 59.2615C26.5478 58.9499 26.6585 58.6 26.7459 58.2118C26.9052 57.5293 27.01 56.7803 27.0602 55.965C27.1025 55.1598 27.1012 54.2317 27.0564 53.1805C27.0322 52.8527 27.0232 52.6425 27.0295 52.5498C27.0358 52.457 27.0569 52.3716 27.0927 52.2934C27.2091 52.0577 27.4028 51.9221 27.674 51.8869C27.9361 51.8528 28.1542 51.9393 28.3282 52.1464C28.393 52.2207 28.4334 52.2844 28.4495 52.3375C28.4633 52.3724 28.4772 52.4442 28.4913 52.5526C28.4984 52.6069 28.506 52.6656 28.5142 52.7289C28.5452 53.0374 28.5706 53.4798 28.5904 54.0563C28.6024 54.643 28.5993 55.1489 28.5811 55.5741C28.5438 56.4889 28.448 57.3424 28.2937 58.1345C28.1406 58.9357 27.9443 59.5817 27.7048 60.0724C27.6097 60.2594 27.4829 60.4505 27.3245 60.6458C27.1649 60.832 27.0174 60.9707 26.8822 61.0618C26.7561 61.1517 26.5947 61.2187 26.3982 61.2626C26.344 61.2697 26.2943 61.2761 26.2491 61.282C26.1226 61.2985 26.0078 61.2996 25.9049 61.2854ZM31.2954 60.8599C31.0227 60.8127 30.7831 60.7014 30.5764 60.526C30.371 60.3597 30.194 60.13 30.0456 59.8368C29.912 59.5876 29.8164 59.3473 29.7588 59.1158C29.7125 58.9013 29.6493 58.4867 29.5694 57.8721C29.5658 57.8449 29.5623 57.8178 29.5588 57.7907C29.4965 57.3117 29.454 56.9495 29.4312 56.7043C29.4097 56.4682 29.3941 56.0658 29.3845 55.4972C29.3881 55.3129 29.3876 55.0969 29.3829 54.8494C29.3783 54.6018 29.3735 54.3175 29.3685 53.9964C29.3658 53.6935 29.363 53.2481 29.3601 52.6602C29.3192 52.6287 29.2637 52.59 29.1933 52.544C28.9721 52.3982 28.8502 52.2026 28.8275 51.9574C28.8126 51.702 28.8997 51.4884 29.0888 51.3168C29.1631 51.252 29.4435 51.1465 29.9301 51.0005C30.4154 50.8455 31.0053 50.6814 31.6997 50.5084C32.0113 50.431 32.2395 50.383 32.3841 50.3642C32.4202 50.3595 32.4474 50.3559 32.4654 50.3536C32.5931 50.3462 32.7222 50.3845 32.8527 50.4687C32.9332 50.5225 33.0076 50.6002 33.076 50.7016C33.1455 50.812 33.1855 50.9079 33.1961 50.9892C33.2114 51.1067 33.1872 51.2386 33.1235 51.3847C33.0586 51.5219 32.9715 51.6297 32.8623 51.7082C32.8375 51.7298 32.7365 51.766 32.5593 51.8166C32.3741 51.8774 32.1704 51.9361 31.9479 51.9926C31.3699 52.1414 31.0464 52.234 30.9776 52.2705C30.9077 52.298 30.8719 52.3762 30.8703 52.5051C30.8655 52.6803 30.8637 52.8782 30.8648 53.0986C30.8647 53.3101 30.8658 53.5305 30.8681 53.76C30.8758 54.1726 30.8828 54.5439 30.8889 54.874C30.9042 55.2029 30.9163 55.3668 30.9253 55.3656C30.9344 55.3645 30.9693 55.3507 31.0303 55.3244C31.1002 55.2969 31.178 55.2592 31.2637 55.2113C31.5345 55.1026 31.7479 55.0472 31.9039 55.0453C32.0689 55.0422 32.2184 55.0963 32.3524 55.2076C32.5068 55.3345 32.593 55.5026 32.611 55.7116C32.6369 55.9105 32.5824 56.0922 32.4475 56.2568C32.4082 56.3079 32.3367 56.3585 32.2329 56.4088C32.1304 56.4681 31.9753 56.548 31.7678 56.6485C31.4282 56.7938 31.2117 56.8955 31.1181 56.9536C31.0258 57.0208 30.9741 57.0827 30.963 57.1393C30.9544 57.2139 30.9712 57.4139 31.0135 57.7393C31.0649 58.0635 31.112 58.3194 31.1547 58.5068C31.2077 58.7021 31.2623 58.8743 31.3184 59.0232C31.3746 59.1722 31.4288 59.2708 31.481 59.3192C31.5333 59.3675 31.613 59.3801 31.7203 59.357C31.8366 59.3327 31.9754 59.2686 32.1365 59.165C32.3224 59.0397 32.5127 58.877 32.7073 58.6771C32.903 58.4862 33.1306 58.2222 33.3901 57.8851C33.6429 57.5673 33.8233 57.3646 33.9314 57.277C34.0407 57.1985 34.1829 57.1616 34.3582 57.1663C34.4419 57.1738 34.5075 57.1837 34.5551 57.1959C34.6128 57.2159 34.678 57.258 34.7507 57.3221C34.8937 57.4322 34.9888 57.5623 35.0359 57.7124C35.0496 57.7474 35.0594 57.7874 35.0653 57.8326C35.0794 57.9411 35.067 58.0576 35.028 58.1822C35.0068 58.2309 34.9254 58.3472 34.7839 58.531C34.6435 58.7239 34.4896 58.9186 34.3222 59.115C34.2109 59.249 34.1036 59.3778 34.0002 59.5016C33.8956 59.6163 33.8113 59.71 33.7472 59.7826C33.3152 60.2065 32.8906 60.5099 32.4732 60.6929C32.2554 60.7856 32.0426 60.8454 31.8347 60.8725C31.654 60.896 31.4742 60.8918 31.2954 60.8599ZM38.1251 50.5135C38.3825 50.6546 38.6168 50.8309 38.8282 51.0424C39.0316 51.2641 39.1962 51.5047 39.3219 51.764C39.3949 51.9016 39.4424 52.0195 39.4644 52.1178C39.4864 52.216 39.5178 52.3866 39.5585 52.6294C39.5844 52.8283 39.5965 52.9921 39.5949 53.121C39.6023 53.2487 39.6001 53.3731 39.5883 53.4941C39.5339 53.924 39.4186 54.3802 39.2424 54.8627C39.0572 55.3464 38.825 55.8223 38.5458 56.2907C38.492 56.3712 38.4466 56.446 38.4096 56.5152C38.3726 56.5843 38.3542 56.6189 38.3542 56.6189C38.3553 56.6279 38.4632 56.715 38.6777 56.8801C38.882 57.0374 39.1322 57.23 39.4284 57.458C39.9698 57.8748 40.3092 58.1523 40.4467 58.2907C40.5944 58.4369 40.6771 58.5778 40.6947 58.7134C40.7135 58.858 40.6865 59.004 40.6138 59.1513C40.5411 59.2986 40.4444 59.4031 40.3237 59.4648C40.2471 59.5115 40.1404 59.5392 40.0036 59.5478C39.8759 59.5552 39.7735 59.5455 39.6965 59.5188C39.658 59.5054 39.527 59.4168 39.3035 59.2528C39.0709 59.0901 38.8116 58.8986 38.5256 58.6785C38.2408 58.4673 37.9917 58.2837 37.7784 58.1277C37.565 57.9716 37.4493 57.8947 37.4313 57.8971C37.4132 57.8994 37.3924 57.9159 37.3688 57.9466C37.3361 57.9784 37.3086 58.0141 37.2862 58.0538C37.2323 58.1344 37.2125 58.2289 37.2266 58.3373C37.2328 58.456 37.2928 58.8113 37.4066 59.4031C37.4764 59.7984 37.5178 60.0458 37.5307 60.1452C37.5334 60.2368 37.5226 60.3301 37.4982 60.4252C37.4526 60.569 37.3847 60.6835 37.2947 60.7688C37.1957 60.8552 37.0693 60.9084 36.9157 60.9284C36.8897 60.941 36.8632 60.949 36.8361 60.9525C36.7819 60.9596 36.7316 60.9615 36.6852 60.9584C36.6298 60.9564 36.5726 60.9408 36.5137 60.9117C36.4084 60.8795 36.3125 60.8138 36.2261 60.7148C36.1499 60.6236 36.0957 60.5249 36.0635 60.4188C36.0462 60.3567 36.0225 60.2449 35.9923 60.0834C35.9633 59.9309 35.9295 59.7423 35.8911 59.5175C35.8076 59.0872 35.7168 58.5659 35.6187 57.9537C35.5195 57.3324 35.418 56.693 35.314 56.0355C35.2242 55.4865 35.1401 54.946 35.0617 54.4139C34.9833 53.8818 34.9159 53.3988 34.8594 52.965C34.821 52.7402 34.7712 52.3928 34.7101 51.9228C34.6625 51.9106 34.5879 51.902 34.4861 51.8968C34.3458 51.8783 34.2315 51.8472 34.1431 51.8036C34.0637 51.7587 33.9859 51.6907 33.9097 51.5995C33.8312 51.4903 33.7842 51.3769 33.769 51.2594C33.7584 51.1781 33.7614 51.0949 33.7779 51.0101C33.8141 50.794 33.9258 50.6278 34.1129 50.5115C34.1557 50.4876 34.2477 50.4526 34.3887 50.4067C34.5389 50.3596 34.7077 50.3146 34.8951 50.2719C35.0103 50.2385 35.1266 50.2142 35.2441 50.1989C35.3514 50.1758 35.4638 50.1565 35.5813 50.1413C35.5903 50.1401 35.5993 50.1389 35.6084 50.1377C36.0874 50.0754 36.5328 50.0726 36.9446 50.1293C37.3667 50.1939 37.7602 50.322 38.1251 50.5135ZM36.4296 53.2709C36.5531 54.2199 36.6532 54.9192 36.7301 55.3688C36.8058 55.8093 36.8617 56.0272 36.8979 56.0225C36.9069 56.0213 36.9389 55.985 36.994 55.9135C37.04 55.8432 37.0933 55.7581 37.1538 55.6583C37.4129 55.2478 37.6189 54.8533 37.7719 54.4749C37.9249 54.0966 38.0215 53.7439 38.0617 53.417C38.0912 53.2201 38.0948 53.0358 38.0725 52.8641C38.0572 52.7466 38.0329 52.6303 37.9995 52.5151C37.9021 52.2613 37.7423 52.0569 37.5199 51.902C37.3793 51.81 37.1805 51.7301 36.9235 51.6624C36.6677 51.6038 36.463 51.5845 36.3093 51.6045C36.2912 51.6068 36.2596 51.6109 36.2144 51.6168C36.2614 51.9784 36.3332 52.5297 36.4296 53.2709ZM44.1403 59.3405C43.9085 59.3247 43.6975 59.2924 43.5073 59.2436C43.3183 59.2039 43.1875 59.152 43.1148 59.0879C42.9514 58.9621 42.8528 58.8049 42.8191 58.6162C42.7932 58.4174 42.8386 58.2368 42.9554 58.0746C43.0655 57.9316 43.1775 57.8389 43.2915 57.7965C43.4157 57.762 43.6084 57.7599 43.8697 57.7902C44.1864 57.8225 44.434 57.8179 44.6124 57.7763C44.7999 57.7335 44.9667 57.6383 45.1129 57.4906C45.203 57.4054 45.2529 57.3299 45.2627 57.2643C45.2816 57.1975 45.2638 57.1309 45.2092 57.0645C45.1283 56.9371 44.9717 56.8288 44.7395 56.7395C44.4982 56.6514 44.1275 56.5572 43.6273 56.4568C42.8532 56.3002 42.2491 56.1076 41.815 55.8791C41.3887 55.6405 41.0389 55.3183 40.7655 54.9127C40.5354 54.5566 40.3921 54.1616 40.3356 53.7278C40.3286 53.6736 40.3221 53.6239 40.3162 53.5787C40.2799 53.0871 40.3565 52.5808 40.546 52.0598C40.7478 51.4912 41.0736 50.9571 41.5233 50.4574C41.9639 49.9589 42.4488 49.5879 42.9778 49.3445C43.3252 49.189 43.6706 49.0889 44.0141 49.0442C44.0231 49.043 44.0322 49.0418 44.0412 49.0407C44.3937 48.9948 44.7725 49.0099 45.1776 49.0858C45.413 49.1288 45.5908 49.1883 45.711 49.2646C45.8403 49.3397 45.9318 49.4427 45.9856 49.5736C46.0256 49.6695 46.0498 49.7491 46.058 49.8123C46.0592 49.8214 46.0604 49.8304 46.0615 49.8394C46.0607 49.9039 46.0403 49.9939 46.0002 50.1094C45.9278 50.3302 45.8087 50.4744 45.6428 50.5419C45.4781 50.6185 45.2498 50.6298 44.9579 50.5759C44.7225 50.533 44.5139 50.5187 44.3319 50.5332C44.1488 50.5387 43.9698 50.5757 43.7949 50.6444C43.532 50.743 43.28 50.8906 43.0391 51.0874C42.7981 51.2842 42.5766 51.5244 42.3746 51.8081C42.1725 52.0917 42.0219 52.3825 41.9228 52.6803C41.8327 52.977 41.8047 53.2563 41.8388 53.5185C41.8658 53.7263 41.9153 53.8945 41.9871 54.0231C42.0578 54.1426 42.18 54.2691 42.3536 54.4028C42.5375 54.5443 42.7257 54.6485 42.9182 54.7154C43.1017 54.7834 43.439 54.8682 43.9302 54.9698C44.3557 55.0615 44.6976 55.1457 44.9557 55.2224C45.2139 55.2991 45.437 55.3896 45.6252 55.4938C46.0004 55.6931 46.2906 55.9449 46.4956 56.2491C46.7018 56.5624 46.7995 56.8897 46.7888 57.2312C46.7658 57.8316 46.4874 58.3412 45.9536 58.7599C45.5618 59.0683 45.1308 59.253 44.6608 59.3142C44.4981 59.3353 44.3246 59.3441 44.1403 59.3405ZM47.7557 58.3049C47.6072 58.2231 47.5072 58.1258 47.4558 58.013C47.4043 57.9002 47.3545 57.6585 47.3063 57.288C47.2863 57.1343 47.261 56.94 47.2305 56.705C47.2061 56.5887 47.1857 56.4672 47.1693 56.3407C47.1516 56.2051 47.1379 56.0644 47.1282 55.9187C47.0623 55.4125 46.9935 54.8838 46.9218 54.3324C46.8603 53.7889 46.8095 53.3635 46.7696 53.0562C46.7551 52.8743 46.7359 52.6562 46.712 52.4019C46.6893 52.1567 46.6699 51.9019 46.6539 51.6374C46.6085 51.147 46.5756 50.6825 46.5554 50.244C46.5272 49.8156 46.5181 49.5686 46.5279 49.503C46.5429 49.3356 46.6349 49.195 46.8039 49.0811C46.912 48.9935 47.0293 48.9415 47.1558 48.925C47.201 48.9191 47.2513 48.9172 47.3067 48.9192C47.4278 48.931 47.5433 48.9711 47.6533 49.0395C47.7543 49.1091 47.8299 49.1958 47.8801 49.2995C47.9269 49.3762 47.9614 49.5004 47.9838 49.6721C48.0073 49.8529 48.0462 50.2936 48.1006 50.9942C48.1546 51.6214 48.209 52.2164 48.2639 52.7791C48.3187 53.3418 48.392 53.9757 48.4837 54.6807C48.524 55.0615 48.573 55.4733 48.6306 55.9162C48.6894 56.3681 48.7586 56.8647 48.8382 57.4058C48.8629 57.5956 48.8558 57.7528 48.8168 57.8773C48.77 58.0121 48.6932 58.1278 48.5862 58.2244C48.486 58.3018 48.3642 58.3544 48.2207 58.3823C48.2117 58.3834 48.1981 58.3852 48.1801 58.3876C48.0252 58.3985 47.8838 58.371 47.7557 58.3049ZM52.2101 51.1076C52.6211 51.2288 52.9737 51.4311 53.268 51.7145C53.5622 51.9979 53.7884 52.3591 53.9466 52.7981C54.0542 53.0598 54.1227 53.3037 54.1521 53.5297C54.1815 53.7556 54.18 54.027 54.1477 54.3437C54.1146 54.7248 54.0427 55.0559 53.9322 55.3368C53.8296 55.6075 53.6676 55.8813 53.4462 56.1583C53.1451 56.5284 52.7711 56.7976 52.3243 56.9661C52.1404 57.0359 51.9619 57.0775 51.789 57.0908C51.536 57.1238 51.286 57.1103 51.0393 57.0505C50.6872 56.9584 50.3692 56.7746 50.0852 56.4991C49.8011 56.2235 49.5836 55.8933 49.4324 55.5086C49.3327 55.2366 49.263 54.9837 49.2234 54.7499C49.2222 54.7409 49.2216 54.7364 49.2216 54.7364C49.1911 54.5014 49.1868 54.2216 49.209 53.897C49.2311 53.5724 49.2714 53.2822 49.3301 53.0264C49.3875 52.7616 49.4794 52.4785 49.6056 52.1771C49.818 51.69 50.0103 51.3662 50.1824 51.206C50.2972 51.0991 50.4314 51.0357 50.5851 51.0157C50.6664 51.0051 50.7535 51.003 50.8462 51.0093C50.8937 51.0215 50.9769 51.0245 51.0955 51.0182C51.2063 51.0222 51.3217 51.0256 51.4415 51.0284C51.5421 51.0245 51.6246 51.0229 51.6891 51.0237C51.7524 51.0155 51.8123 51.0169 51.8689 51.0279C51.9243 51.0299 51.9757 51.037 52.0233 51.0492C52.0799 51.0602 52.1421 51.0797 52.2101 51.1076ZM51.1439 52.5561C51.074 52.5836 51.0028 52.7077 50.9304 52.9285C50.8581 53.1494 50.7977 53.3916 50.7492 53.6552C50.7307 53.7955 50.7167 53.9352 50.7072 54.0743C50.6966 54.2044 50.6977 54.3191 50.7107 54.4186C50.7154 54.4547 50.7195 54.4863 50.723 54.5135C50.7759 54.9202 50.912 55.2242 51.1312 55.4255C51.2958 55.5603 51.4685 55.616 51.6492 55.5924C51.7396 55.5807 51.8322 55.5503 51.9269 55.5012C52.167 55.3688 52.3587 55.1463 52.5018 54.8335C52.6438 54.5117 52.6975 54.1831 52.6631 53.8475C52.6607 53.8294 52.6584 53.8113 52.656 53.7932C52.6207 53.5221 52.5381 53.2755 52.4081 53.0534C52.2577 52.8156 52.0907 52.6627 51.9072 52.5947C51.8687 52.5813 51.8257 52.5685 51.7782 52.5563C51.7306 52.5441 51.6791 52.537 51.6237 52.535C51.5208 52.5208 51.4241 52.5196 51.3337 52.5314C51.2964 52.5271 51.2642 52.5267 51.2371 52.5302C51.1919 52.5361 51.1608 52.5447 51.1439 52.5561ZM60.8933 57.6574C60.7994 57.642 60.7115 57.6029 60.6298 57.54C60.5403 57.4873 60.4709 57.4136 60.4218 57.3189C60.3763 57.2513 60.3476 57.1723 60.3359 57.0819C60.3151 56.9927 60.2933 56.8255 60.2706 56.5803C60.2428 56.2254 60.1838 55.7368 60.0937 55.1143C60.0114 54.4816 59.9269 53.8676 59.8402 53.2722C59.7387 52.6328 59.6259 52.0133 59.5019 51.4136C59.3882 50.8218 59.2801 50.3441 59.1776 49.9806C59.1247 49.7853 59.077 49.6306 59.0346 49.5166C58.9933 49.4117 58.9637 49.3604 58.9456 49.3628C58.9083 49.3584 58.8389 49.4961 58.7374 49.7759C58.6269 50.0568 58.5244 50.3643 58.43 50.6983C58.3777 50.8613 58.296 51.1523 58.1851 51.5711C58.0741 51.99 57.9683 52.4128 57.8675 52.8395C57.7888 53.153 57.7229 53.4236 57.6698 53.6511C57.6065 53.8707 57.5537 54.066 57.5116 54.2369C57.4318 54.5414 57.3696 54.7701 57.3252 54.923C57.2705 55.068 57.2119 55.218 57.1493 55.3732C57.031 55.6644 56.902 55.8742 56.7625 56.0026C56.6229 56.1311 56.4396 56.2055 56.2124 56.2258C56.1209 56.2286 56.0468 56.2244 55.9902 56.2134C55.9337 56.2024 55.8612 56.175 55.7728 56.1314C55.596 56.0441 55.4483 55.8979 55.3297 55.6927C55.2122 55.4966 55.0905 55.1264 54.9646 54.5821C54.8908 54.2975 54.8127 53.9446 54.7303 53.5234C54.6491 53.1111 54.5522 52.6136 54.4397 52.0308C54.3514 51.5643 54.2694 51.1108 54.1937 50.6703C54.1102 50.24 54.0545 49.9531 54.0266 49.8097C53.9976 49.6572 53.9766 49.5313 53.9637 49.4318C53.9496 49.3234 53.9435 49.2414 53.9455 49.186C53.9483 49.0662 53.9884 48.9507 54.0658 48.8395C54.1511 48.7181 54.2592 48.6305 54.3901 48.5767C54.521 48.5229 54.6566 48.5053 54.7968 48.5238C54.901 48.547 55.0137 48.6013 55.1351 48.6866C55.2475 48.7731 55.3231 48.8598 55.362 48.9466C55.3883 49.0075 55.4571 49.3249 55.5685 49.8986C55.689 50.4712 55.819 51.1528 55.9587 51.9435C56.0528 52.4552 56.1126 52.7737 56.1381 52.899C56.1648 53.0334 56.1917 53.0989 56.2188 53.0953C56.2278 53.0942 56.2573 53.003 56.3073 52.8219C56.3585 52.6498 56.4139 52.4404 56.4737 52.1936C56.7661 50.9791 57.0311 50.0484 57.2686 49.4017C57.4972 48.7561 57.7418 48.2694 58.0024 47.9413C58.1439 47.7575 58.2829 47.6245 58.4193 47.5424C58.5466 47.4615 58.6871 47.4111 58.8408 47.3911C58.8588 47.3887 58.8769 47.3864 58.895 47.384C59.3776 47.3488 59.774 47.6052 60.0842 48.153C60.3956 48.71 60.6934 49.6915 60.9774 51.0976C61.0457 51.4104 61.1159 51.7735 61.1881 52.1869C61.2524 52.6106 61.3178 53.0432 61.3845 53.4849C61.4312 53.773 61.4733 54.0616 61.5109 54.3509C61.5529 54.6028 61.5892 54.8462 61.6197 55.0812C61.6233 55.1083 61.6268 55.1354 61.6303 55.1625C61.6938 55.6506 61.7394 56.0721 61.7672 56.4269C61.8029 56.7716 61.8113 56.9773 61.7924 57.0441C61.7561 57.2602 61.649 57.4258 61.471 57.5409C61.3617 57.6194 61.2528 57.6658 61.1444 57.6799C61.063 57.6904 60.9793 57.683 60.8933 57.6574ZM66.8895 56.2707C66.7751 56.2396 66.6748 56.1745 66.5883 56.0755C66.4941 55.9866 66.4342 55.8795 66.4087 55.7542C66.3832 55.6288 66.3534 55.3294 66.3194 54.8558C66.2956 54.3902 66.2605 53.5905 66.2141 52.4568C66.1767 51.3219 66.1356 50.4403 66.0906 49.812C66.0366 49.1848 65.9886 48.8509 65.9465 48.8105C65.9351 48.7936 65.9153 48.7823 65.887 48.7768C65.8678 48.7702 65.8497 48.7725 65.8328 48.7839C65.7899 48.8078 65.7119 48.8088 65.5988 48.7868C65.4766 48.7659 65.3809 48.737 65.3117 48.7C65.2222 48.6473 65.1432 48.5703 65.0749 48.4689C65.0065 48.3675 64.9641 48.2535 64.9477 48.127C64.9253 47.9552 64.9601 47.799 65.0521 47.6584C65.1363 47.528 65.2921 47.3836 65.5197 47.2253C65.6302 47.1558 65.7158 47.1079 65.7768 47.0816C65.8467 47.0541 65.945 47.0321 66.0715 47.0157C66.2432 46.9933 66.3914 47.0016 66.5159 47.0406C66.6314 47.0807 66.7613 47.1603 66.9055 47.2794C67.0622 47.4245 67.1755 47.589 67.2454 47.7729C67.3153 47.9568 67.3904 48.2871 67.4708 48.7638C67.4896 48.9084 67.5079 49.0485 67.5255 49.1841C67.5443 49.3287 67.5625 49.4688 67.5802 49.6044C67.6064 49.8767 67.6291 50.2276 67.6482 50.6571C67.6595 50.8855 67.6704 51.146 67.6809 51.4387C67.7017 51.7394 67.7187 52.0818 67.7319 52.4661C67.7486 52.8776 67.7644 53.3167 67.7792 53.7836C67.8018 54.2402 67.8188 54.5826 67.8301 54.811C67.8414 55.0393 67.8504 55.2495 67.857 55.4417C67.8534 55.626 67.8489 55.7323 67.8434 55.7605C67.8268 55.8454 67.7865 55.9242 67.7225 55.9969C67.6686 56.0774 67.5988 56.1416 67.5131 56.1895C67.4117 56.2579 67.3113 56.2985 67.2119 56.3115C67.1125 56.3244 67.005 56.3108 66.8895 56.2707Z" fill="#D1D1D1"/>
<path d="M36.541 31.0519C36.5654 31.6037 37.0324 32.0312 37.5841 32.0068C38.1359 31.9825 38.5634 31.5155 38.5391 30.9637L36.541 31.0519ZM14.8733 4.26706C14.3585 4.46701 14.1032 5.04644 14.3032 5.56126L17.5615 13.9507C17.7615 14.4655 18.3409 14.7208 18.8557 14.5208C19.3706 14.3209 19.6258 13.7415 19.4259 13.2266L16.5296 5.76934L23.9869 2.87302C24.5017 2.67308 24.7569 2.09364 24.557 1.57882C24.357 1.064 23.7776 0.808751 23.2628 1.0087L14.8733 4.26706ZM38.5391 30.9637C38.2816 25.1311 33.2367 12.0365 15.6385 4.28408L14.8322 6.11436C31.7702 13.5759 36.3188 26.018 36.541 31.0519L38.5391 30.9637Z" fill="#BABABA"/>
</svg>
