<svg width="43" height="43" viewBox="0 0 43 43" fill="none" xmlns="http://www.w3.org/2000/svg">
<rect x="0.381348" width="42.0359" height="42.0359" rx="21.0179" fill="#00C159"/>
<path d="M21.3994 31.0147C15.8766 31.0147 11.3994 26.5375 11.3994 21.0147C11.3994 15.4918 15.8766 11.0146 21.3994 11.0146C26.9222 11.0146 31.3994 15.4918 31.3994 21.0147C31.3994 26.5375 26.9222 31.0147 21.3994 31.0147ZM26.4504 27.2188L25.5888 23.7722C25.4775 23.327 25.0775 23.0147 24.6186 23.0147H18.1802C17.7213 23.0147 17.3213 23.327 17.21 23.7722L16.3484 27.2188C17.7257 28.3415 19.4839 29.0147 21.3994 29.0147C23.3149 29.0147 25.0731 28.3415 26.4504 27.2188ZM19.3994 21.0147H23.3994V19.5147L22.3609 15.88C22.266 15.5478 22.0063 15.2881 21.6741 15.1932C21.1431 15.0415 20.5896 15.3489 20.4379 15.88L19.3994 19.5147V21.0147Z" fill="white"/>
</svg>
