<svg width="43" height="43" viewBox="0 0 43 43" fill="none" xmlns="http://www.w3.org/2000/svg">
<rect x="0.381348" width="42.0359" height="42.0359" rx="21.0179" fill="#FFBE00"/>
<path d="M19.2417 28.5185V25.1705C19.2417 23.8879 20.2365 22.8781 21.7084 22.3026C20.7848 21.9585 19.7852 21.7705 18.7417 21.7705C16.8518 21.7705 15.106 22.3873 13.6946 23.4305C14.5737 25.9249 16.6544 27.8525 19.2417 28.5185ZM28.1211 24.8564C27.7279 24.3231 26.4125 23.7705 24.7417 23.7705C22.7356 23.7705 21.2417 24.5672 21.2417 25.1705V28.7705C24.1672 28.7705 26.726 27.2001 28.1211 24.8564ZM18.7917 20.2705C20.0343 20.2705 21.0417 19.2631 21.0417 18.0205C21.0417 16.7779 20.0343 15.7705 18.7917 15.7705C17.5491 15.7705 16.5417 16.7779 16.5417 18.0205C16.5417 19.2631 17.5491 20.2705 18.7917 20.2705ZM24.7417 21.2705C25.8463 21.2705 26.7417 20.3751 26.7417 19.2705C26.7417 18.1659 25.8463 17.2705 24.7417 17.2705C23.6371 17.2705 22.7417 18.1659 22.7417 19.2705C22.7417 20.3751 23.6371 21.2705 24.7417 21.2705ZM21.2417 30.7705C15.7188 30.7705 11.2417 26.2933 11.2417 20.7705C11.2417 15.2477 15.7188 10.7705 21.2417 10.7705C26.7645 10.7705 31.2417 15.2477 31.2417 20.7705C31.2417 26.2933 26.7645 30.7705 21.2417 30.7705Z" fill="white"/>
</svg>
