<svg width="43" height="43" viewBox="0 0 43 43" fill="none" xmlns="http://www.w3.org/2000/svg">
<rect x="0.0556641" y="0.481934" width="42.0359" height="42.0359" rx="21.0179" fill="#229EFF"/>
<path d="M27.0737 17.4995H29.0737C29.626 17.4995 30.0737 17.9472 30.0737 18.4995V30.4995C30.0737 31.0518 29.626 31.4995 29.0737 31.4995H13.0737C12.5215 31.4995 12.0737 31.0518 12.0737 30.4995V18.4995C12.0737 17.9472 12.5215 17.4995 13.0737 17.4995H15.0737V16.4995C15.0737 13.1858 17.76 10.4995 21.0737 10.4995C24.3874 10.4995 27.0737 13.1858 27.0737 16.4995V17.4995ZM20.0737 25.2319V27.4995H22.0737V25.2319C22.6715 24.8861 23.0737 24.2398 23.0737 23.4995C23.0737 22.3949 22.1783 21.4995 21.0737 21.4995C19.9691 21.4995 19.0737 22.3949 19.0737 23.4995C19.0737 24.2398 19.4759 24.8861 20.0737 25.2319ZM25.0737 17.4995V16.4995C25.0737 14.2904 23.2828 12.4995 21.0737 12.4995C18.8646 12.4995 17.0737 14.2904 17.0737 16.4995V17.4995H25.0737Z" fill="white"/>
</svg>
