<svg width="21" height="20" viewBox="0 0 21 20" fill="none" xmlns="http://www.w3.org/2000/svg">
<path d="M10.5003 1.6665C15.1022 1.6665 18.8337 4.98132 18.8337 9.07392C18.8337 11.6295 16.7596 13.7035 14.204 13.7035H12.5652C11.7967 13.7035 11.1762 14.3239 11.1762 15.0924C11.1762 15.4443 11.3152 15.7683 11.5281 16.0091C11.7503 16.2591 11.8892 16.5832 11.8892 16.9443C11.8892 17.7128 11.2503 18.3332 10.5003 18.3332C5.89848 18.3332 2.16699 14.6017 2.16699 9.99984C2.16699 5.39799 5.89848 1.6665 10.5003 1.6665ZM9.50958 15.0924C9.50958 13.4034 10.8762 12.0368 12.5652 12.0368H14.204C15.8391 12.0368 17.167 10.709 17.167 9.07392C17.167 5.94917 14.2234 3.33317 10.5003 3.33317C6.81895 3.33317 3.83366 6.31846 3.83366 9.99984C3.83366 13.4915 6.51916 16.3569 9.93699 16.643C9.66266 16.1805 9.50958 15.6466 9.50958 15.0924ZM6.75033 9.99984C6.05997 9.99984 5.50033 9.44017 5.50033 8.74984C5.50033 8.05948 6.05997 7.49984 6.75033 7.49984C7.44068 7.49984 8.00033 8.05948 8.00033 8.74984C8.00033 9.44017 7.44068 9.99984 6.75033 9.99984ZM14.2503 9.99984C13.56 9.99984 13.0003 9.44017 13.0003 8.74984C13.0003 8.05948 13.56 7.49984 14.2503 7.49984C14.9407 7.49984 15.5003 8.05948 15.5003 8.74984C15.5003 9.44017 14.9407 9.99984 14.2503 9.99984ZM10.5003 7.49984C9.80999 7.49984 9.25033 6.9402 9.25033 6.24984C9.25033 5.55948 9.80999 4.99984 10.5003 4.99984C11.1907 4.99984 11.7503 5.55948 11.7503 6.24984C11.7503 6.9402 11.1907 7.49984 10.5003 7.49984Z" fill="#229EFF"/>
</svg>
