<svg width="21" height="20" viewBox="0 0 21 20" fill="none" xmlns="http://www.w3.org/2000/svg">
<path d="M10.4998 1.6665C5.89748 1.6665 2.1665 5.39748 2.1665 9.99984C2.1665 14.6022 5.89748 18.3332 10.4998 18.3332C15.1022 18.3332 18.8332 14.6022 18.8332 9.99984C18.8332 5.39748 15.1022 1.6665 10.4998 1.6665ZM6.4118 4.73332C7.54075 3.85574 8.95917 3.33317 10.4998 3.33317C14.1818 3.33317 17.1665 6.3179 17.1665 9.99984C17.1665 11.5405 16.6439 12.9589 15.7663 14.0878L13.9707 12.2923C14.1483 11.9856 14.2498 11.6296 14.2498 11.2498C14.2498 10.0993 13.3171 9.1665 12.1665 9.1665H8.83317C8.60307 9.1665 8.4165 8.97992 8.4165 8.74984C8.4165 8.51975 8.60307 8.33317 8.83317 8.33317H13.4165V6.6665H11.3332V4.99984H9.6665V6.6665H8.83317C8.6818 6.6665 8.5341 6.68258 8.39189 6.7133L6.4118 4.73332ZM5.23332 5.9118L7.02897 7.70746C6.85146 8.01406 6.74984 8.37009 6.74984 8.74984C6.74984 9.90042 7.68255 10.8332 8.83317 10.8332H12.1665C12.3966 10.8332 12.5832 11.0198 12.5832 11.2498C12.5832 11.4799 12.3966 11.6665 12.1665 11.6665H7.58317V13.3332H9.6665V14.9998H11.3332V13.3332H12.1665C12.318 13.3332 12.4657 13.3171 12.6079 13.2863L14.5878 15.2663C13.4589 16.1439 12.0405 16.6665 10.4998 16.6665C6.8179 16.6665 3.83317 13.6818 3.83317 9.99984C3.83317 8.45917 4.35574 7.04075 5.23332 5.9118Z" fill="#229EFF"/>
</svg>
