<svg width="114" height="45" viewBox="0 0 114 45" fill="none" xmlns="http://www.w3.org/2000/svg">
<path d="M48.0518 22.3155C47.6975 22.2566 47.3747 22.036 47.0833 21.6537C46.7933 21.2817 46.4422 20.5606 46.0298 19.4903C45.7983 18.9216 45.5454 18.2297 45.2713 17.4145C44.9882 16.611 44.6636 15.6501 44.2975 14.5317C44.2239 14.2892 44.1596 14.0769 44.1044 13.895C44.0389 13.7145 43.9871 13.5584 43.9489 13.4268C43.9054 13.2539 43.877 13.1158 43.8635 13.0125C43.8528 12.9298 43.8492 12.862 43.8528 12.809C43.8807 12.7004 43.9396 12.5877 44.0294 12.4709C44.1013 12.3775 44.2055 12.2905 44.3421 12.2097C44.48 12.1392 44.5864 12.1096 44.6614 12.1209C44.6717 12.1195 44.6982 12.1213 44.7409 12.1263C44.7836 12.1312 44.8211 12.1368 44.8534 12.1431C44.949 12.1517 45.0611 12.2054 45.1895 12.3043C45.3282 12.4018 45.4191 12.495 45.4622 12.5839C45.4779 12.6239 45.5362 12.7896 45.6372 13.0811C45.7381 13.3726 45.8496 13.7048 45.9717 14.0775C46.397 15.4088 46.7904 16.5761 47.1521 17.5795C47.5137 18.5829 47.784 19.2883 47.9631 19.6957C48.0519 19.8942 48.1231 19.9165 48.1766 19.7625C48.2314 19.6188 48.372 19.0438 48.5982 18.0374C48.7867 17.2251 48.9853 16.653 49.1943 16.3212C49.4032 15.9894 49.6885 15.7999 50.05 15.7529C50.2773 15.7233 50.4854 15.7488 50.6744 15.8292C50.8635 15.9097 51.0613 16.0573 51.2678 16.272C51.3782 16.3942 51.5564 16.6336 51.8024 16.9903C52.0484 17.347 52.37 17.8409 52.7672 18.472C52.8453 18.5879 52.9111 18.6896 52.9645 18.7772C53.0269 18.8531 53.0684 18.8897 53.0891 18.887C53.1717 18.8763 53.2168 18.4555 53.2242 17.6247C53.2317 16.7939 53.1984 15.69 53.1243 14.313C53.0511 12.8624 53.0028 11.8445 52.9792 11.2594C52.9672 10.6832 52.9752 10.3407 53.0031 10.2321C53.017 10.1777 53.0458 10.1162 53.0894 10.0475C53.1316 9.96848 53.1765 9.91012 53.2242 9.87241C53.2884 9.80102 53.3508 9.75613 53.4115 9.73774C53.4604 9.71036 53.5572 9.68727 53.7018 9.66845C53.8568 9.6483 53.9614 9.64519 54.0158 9.65913C54.0791 9.6614 54.1509 9.68881 54.2313 9.74139C54.287 9.76565 54.3453 9.81058 54.4064 9.87617C54.4661 9.93143 54.5155 9.98803 54.5545 10.046C54.6093 10.1439 54.6434 10.2445 54.6568 10.3478C54.6716 10.4614 54.6881 10.7902 54.7063 11.334C54.7233 11.626 54.7454 12.038 54.7726 12.5702C54.7882 13.0934 54.8087 13.5739 54.8341 14.0118C54.9457 15.9196 54.9781 17.3387 54.931 18.2692C54.884 19.1998 54.7421 19.8853 54.5053 20.3257C54.2981 20.7519 54.0003 21.0059 53.6118 21.088C53.2143 21.1817 52.8339 21.0841 52.4707 20.7953C52.2606 20.6335 52.0229 20.3808 51.7576 20.0372C51.491 19.6832 51.1577 19.1803 50.7577 18.5286C50.6666 18.3933 50.5892 18.2826 50.5254 18.1964C50.4617 18.1101 50.4247 18.0677 50.4143 18.069C50.3847 18.0834 50.3528 18.1611 50.3186 18.3021C50.2754 18.4547 50.192 18.8227 50.0683 19.4061C49.9127 20.0671 49.7738 20.5736 49.6515 20.9257C49.5175 21.2687 49.3704 21.5505 49.21 21.7709C49.1021 21.911 49.0154 22.0116 48.9498 22.0726C48.8843 22.1337 48.8018 22.1864 48.7026 22.2309C48.5633 22.291 48.4524 22.3264 48.3698 22.3372C48.3594 22.3385 48.3543 22.3392 48.3543 22.3392C48.2716 22.35 48.1708 22.3421 48.0518 22.3155ZM56.8582 20.7287C56.6885 20.6352 56.5742 20.524 56.5154 20.3951C56.4566 20.2662 56.3997 19.99 56.3446 19.5665C56.3217 19.3909 56.2928 19.1688 56.2579 18.9002C56.2301 18.7673 56.2068 18.6285 56.188 18.4839C56.1678 18.3289 56.1522 18.1682 56.141 18.0015C56.0657 17.4231 55.9871 16.8188 55.9051 16.1887C55.8348 15.5676 55.7769 15.0814 55.7312 14.7302C55.7146 14.5223 55.6927 14.273 55.6654 13.9824C55.6394 13.7022 55.6173 13.411 55.599 13.1087C55.5471 12.5482 55.5095 12.0174 55.4864 11.5162C55.4542 11.0267 55.4437 10.7444 55.455 10.6694C55.4721 10.4781 55.5773 10.3174 55.7704 10.1872C55.8939 10.0871 56.028 10.0276 56.1726 10.0088C56.2243 10.0021 56.2818 9.99985 56.3451 10.0021C56.4834 10.0156 56.6154 10.0615 56.7411 10.1397C56.8565 10.2192 56.943 10.3183 57.0004 10.4368C57.0538 10.5244 57.0933 10.6664 57.1188 10.8626C57.1457 11.0692 57.1902 11.5729 57.2524 12.3736C57.3141 13.0904 57.3763 13.7704 57.439 14.4135C57.5016 15.0566 57.5853 15.781 57.6902 16.5867C57.7363 17.0219 57.7923 17.4926 57.8581 17.9988C57.9253 18.5152 58.0044 19.0827 58.0953 19.7011C58.1235 19.918 58.1154 20.0977 58.0709 20.24C58.0174 20.394 57.9296 20.5263 57.8074 20.6367C57.6928 20.7251 57.5536 20.7853 57.3897 20.8171C57.3793 20.8185 57.3638 20.8205 57.3432 20.8232C57.1662 20.8357 57.0046 20.8042 56.8582 20.7287ZM61.0497 20.2464C60.928 20.1992 60.8192 20.1293 60.7231 20.0368C60.6257 19.9339 60.5644 19.8263 60.5393 19.7141C60.5222 19.6638 60.4983 19.5198 60.4674 19.2822C60.4365 19.0447 60.4022 18.7813 60.3646 18.492C60.3373 18.2014 60.2912 17.7663 60.2262 17.1865C60.1613 16.6067 60.0952 16.0585 60.0281 15.542C59.9595 15.0152 59.8941 14.4722 59.8319 13.9131C59.7697 13.354 59.7217 12.9453 59.6881 12.687C59.6662 12.4378 59.6373 12.2157 59.6015 12.0208C59.5773 11.8348 59.5593 11.7374 59.5477 11.7284C59.5463 11.7181 59.4262 11.7232 59.1873 11.7438C58.9497 11.7747 58.7851 11.8013 58.6935 11.8238C58.4056 11.8717 58.1788 11.8645 58.0131 11.802C57.8371 11.7408 57.7001 11.6168 57.6023 11.43C57.5462 11.3217 57.5114 11.216 57.498 11.1127C57.4832 10.999 57.4898 10.8879 57.5176 10.7792C57.5734 10.5619 57.694 10.3991 57.8795 10.291C57.9182 10.2649 58.1118 10.2187 58.4603 10.1524C58.8088 10.086 59.1005 10.0271 59.3354 9.9755C59.9305 9.86657 60.4481 9.76772 60.8882 9.67895C61.3401 9.59916 61.875 9.47179 62.493 9.29685C62.9691 9.16139 63.2787 9.07908 63.422 9.04994C63.453 9.04591 63.484 9.04188 63.515 9.03784C63.6079 9.02575 63.6919 9.02533 63.7669 9.03658C63.9519 9.08604 64.1062 9.18153 64.2296 9.32303C64.3284 9.43624 64.3885 9.57548 64.41 9.74075C64.414 9.77174 64.4181 9.80273 64.4221 9.83372C64.4346 10.0107 64.407 10.1613 64.3391 10.2857C64.2726 10.4204 64.1711 10.5282 64.0345 10.609C63.9662 10.6493 63.7037 10.7308 63.2469 10.8532C62.7902 10.9757 62.3482 11.0909 61.9211 11.199C61.7675 11.2295 61.6352 11.2625 61.5243 11.2979C61.4133 11.3334 61.3482 11.3576 61.3289 11.3706C61.3019 11.4056 61.309 11.6621 61.3502 12.1399C61.4017 12.6164 61.5157 13.5733 61.6921 15.0104C61.7718 15.7038 61.8439 16.2985 61.9084 16.7943C61.9613 17.2811 62.0099 17.695 62.0542 18.0359C62.146 18.8223 62.1903 19.2839 62.1871 19.4209C62.1853 19.5682 62.1646 19.6917 62.125 19.7914C62.0369 20.0024 61.8885 20.1531 61.6796 20.2433C61.5996 20.2747 61.5235 20.2951 61.4512 20.3045C61.3169 20.322 61.1831 20.3026 61.0497 20.2464ZM71.3801 19.9582C71.2831 19.9393 71.1886 19.8991 71.0966 19.8375C71.0162 19.7849 70.9441 19.7155 70.8804 19.6293C70.8544 19.5907 70.8153 19.5327 70.7632 19.4554C70.7301 19.0396 70.6812 18.4209 70.6163 17.5995C70.5832 17.1836 70.5336 16.5598 70.4674 15.7281C70.2918 15.7509 70.0232 15.7859 69.6617 15.8329C69.1556 15.8988 68.7231 15.9655 68.3642 16.0332C68.0157 16.0996 67.8273 16.1451 67.799 16.1698C67.79 16.1814 67.7931 16.2861 67.8083 16.4837C67.8325 16.6696 67.8654 16.9227 67.9071 17.2429C67.9792 17.7167 68.0182 18.0163 68.024 18.1416C68.0401 18.2656 68.0329 18.3715 68.0023 18.4596C67.9515 18.6342 67.8643 18.7716 67.7408 18.8717C67.6276 18.9705 67.4825 19.0261 67.3056 19.0387C67.1713 19.0561 67.0543 19.0451 66.9546 19.0055C66.846 18.9776 66.7487 18.9168 66.663 18.8229C66.5786 18.7393 66.5122 18.6324 66.4637 18.5021C66.4242 18.3602 66.3803 18.1033 66.3319 17.7315C66.1617 16.5036 65.9553 15.2804 65.7127 14.0619C65.4715 12.8538 65.2101 11.7323 64.9284 10.6975C64.8759 10.5363 64.8337 10.3737 64.8019 10.2097C64.7624 10.0678 64.7387 9.96586 64.7306 9.90388C64.7306 9.90388 64.7299 9.89872 64.7286 9.88839C64.7228 9.76309 64.7435 9.63959 64.7907 9.5179C64.8392 9.40655 64.9208 9.30665 65.0353 9.21822C65.2038 9.05974 65.4115 9.0012 65.6585 9.0426C65.9041 9.07367 66.0869 9.18646 66.2067 9.38096C66.2341 9.42992 66.2734 9.52985 66.3245 9.68077C66.3653 9.83302 66.4212 10.0201 66.4921 10.242C66.6105 10.6677 66.7403 11.1813 66.8816 11.7827C67.0332 12.3828 67.1679 12.9745 67.2859 13.5579C67.3284 13.8045 67.3722 14.0194 67.417 14.2026C67.4619 14.3859 67.4901 14.482 67.5018 14.491C67.5018 14.491 67.5903 14.4847 67.7672 14.4722C67.9428 14.4493 68.1436 14.418 68.3695 14.3781C68.6071 14.3472 68.8595 14.3091 69.1267 14.2638C69.4042 14.2172 69.6153 14.1845 69.7599 14.1657C69.8736 14.1509 70.0492 14.128 70.2868 14.0971C70.2756 13.9305 70.2595 13.6858 70.2385 13.3629C70.2219 13.1549 70.1812 12.761 70.1163 12.1812C70.0603 11.5898 69.9979 10.9886 69.9289 10.3778C69.8846 10.037 69.847 9.74774 69.8161 9.51016C69.7941 9.2609 69.7724 9.05364 69.7509 8.88836C69.7102 8.49449 69.6948 8.2549 69.7047 8.16957C69.7029 8.07526 69.7128 7.98994 69.7344 7.9136C69.7996 7.76856 69.8791 7.65317 69.973 7.56743C70.0786 7.49067 70.2133 7.43637 70.3772 7.40454C70.3876 7.4032 70.3927 7.40253 70.3927 7.40253C70.5477 7.38237 70.6802 7.39139 70.7902 7.4296C70.9015 7.47814 71.0124 7.56351 71.1229 7.6857C71.1592 7.72299 71.2086 7.77959 71.271 7.85551C71.3006 8.08276 71.3442 8.41847 71.402 8.86264C71.4199 9.08091 71.449 9.34499 71.4893 9.65488C71.518 9.95578 71.5507 10.2877 71.5874 10.6506C71.6644 11.3233 71.7436 12.0536 71.8251 12.8413C71.8976 13.6407 71.9705 14.4033 72.0439 15.1291C72.1084 15.8665 72.1679 16.5258 72.2225 17.1069C72.2654 17.6791 72.2951 18.0692 72.3117 18.2771C72.3326 18.8416 72.3325 19.204 72.3113 19.3643C72.2888 19.5143 72.2016 19.6517 72.0498 19.7765C71.9635 19.8403 71.8546 19.8912 71.723 19.9293C71.6727 19.9464 71.6269 19.9576 71.5856 19.963C71.5133 19.9724 71.4448 19.9708 71.3801 19.9582ZM80.8177 18.2577C80.5528 18.2397 80.3116 18.2028 80.0943 18.147C79.8783 18.1016 79.7288 18.0422 79.6457 17.969C79.4589 17.8252 79.3463 17.6456 79.3077 17.43C79.2782 17.2027 79.3301 16.9964 79.4635 16.8109C79.5893 16.6475 79.7174 16.5416 79.8476 16.4931C79.9895 16.4536 80.2098 16.4512 80.5085 16.4859C80.8704 16.5229 81.1534 16.5176 81.3573 16.47C81.5715 16.4212 81.7622 16.3123 81.9293 16.1435C82.0322 16.0461 82.0892 15.9599 82.1005 15.8849C82.1221 15.8086 82.1017 15.7324 82.0393 15.6565C81.9468 15.511 81.7679 15.3872 81.5025 15.2852C81.2268 15.1845 80.8031 15.0768 80.2314 14.9621C79.3468 14.783 78.6564 14.563 78.1602 14.3019C77.673 14.0291 77.2732 13.6609 76.9608 13.1974C76.6978 12.7904 76.534 12.339 76.4695 11.8432C76.4615 11.7812 76.4541 11.7244 76.4473 11.6727C76.4058 11.1109 76.4933 10.5323 76.71 9.93686C76.9406 9.2871 77.3129 8.67668 77.8268 8.1056C78.3304 7.53587 78.8845 7.11189 79.4891 6.83365C79.8862 6.65594 80.281 6.54155 80.6735 6.49049C80.6838 6.48915 80.6941 6.4878 80.7045 6.48646C81.1073 6.43405 81.5402 6.45126 82.0032 6.53809C82.2722 6.58713 82.4754 6.65524 82.6128 6.74241C82.7605 6.82823 82.8651 6.94593 82.9266 7.0955C82.9724 7.20509 83 7.29605 83.0094 7.36835C83.0107 7.37868 83.0121 7.38901 83.0134 7.39934C83.0125 7.47299 82.9891 7.57583 82.9432 7.70785C82.8605 7.96021 82.7244 8.12498 82.5349 8.20216C82.3467 8.28967 82.0857 8.30261 81.7521 8.24097C81.4831 8.19193 81.2446 8.17568 81.0367 8.19223C80.8274 8.19845 80.6228 8.24082 80.423 8.31934C80.1225 8.43196 79.8345 8.60073 79.5592 8.82563C79.2838 9.05054 79.0306 9.32507 78.7997 9.64924C78.5688 9.97341 78.3966 10.3057 78.2834 10.6461C78.1804 10.9851 78.1484 11.3044 78.1874 11.6039C78.2183 11.8415 78.2748 12.0338 78.3569 12.1806C78.4377 12.3172 78.5774 12.4618 78.7758 12.6146C78.9859 12.7763 79.201 12.8954 79.421 12.9718C79.6307 13.0496 80.0163 13.1465 80.5776 13.2626C81.0639 13.3674 81.4546 13.4636 81.7496 13.5513C82.0446 13.639 82.2997 13.7423 82.5148 13.8614C82.9436 14.0893 83.2751 14.377 83.5095 14.7247C83.7451 15.0827 83.8568 15.4568 83.8445 15.8471C83.8183 16.5333 83.5001 17.1157 82.8901 17.5942C82.4422 17.9466 81.9497 18.1577 81.4126 18.2276C81.2266 18.2518 81.0284 18.2618 80.8177 18.2577ZM87.4993 9.17926C87.969 9.31774 88.372 9.54893 88.7082 9.87284C89.0445 10.1968 89.303 10.6096 89.4838 11.1113C89.6068 11.4104 89.6851 11.6891 89.7187 11.9473C89.7523 12.2056 89.7506 12.5157 89.7136 12.8776C89.6758 13.3132 89.5937 13.6916 89.4674 14.0126C89.3501 14.322 89.1649 14.635 88.912 14.9515C88.5678 15.3744 88.1404 15.6821 87.6297 15.8746C87.4195 15.9545 87.2156 16.002 87.018 16.0172C86.7288 16.0549 86.4432 16.0395 86.1612 15.9711C85.7588 15.8659 85.3953 15.6558 85.0707 15.3409C84.7462 15.026 84.4975 14.6487 84.3247 14.209C84.2108 13.8981 84.1311 13.6091 84.0859 13.3419C84.0845 13.3316 84.0839 13.3264 84.0839 13.3264C84.0489 13.0578 84.0441 12.7381 84.0694 12.3671C84.0946 11.9962 84.1408 11.6645 84.2078 11.3722C84.2735 11.0695 84.3784 10.746 84.5227 10.4016C84.7654 9.8448 84.9851 9.47482 85.1819 9.29165C85.3131 9.16954 85.4665 9.09707 85.6421 9.07422C85.735 9.06213 85.8345 9.05969 85.9405 9.06691C85.9948 9.08085 86.0898 9.08425 86.2254 9.07711C86.3521 9.08165 86.4839 9.08551 86.6209 9.0887C86.7358 9.08424 86.8301 9.08248 86.9038 9.0834C86.9761 9.07399 87.0446 9.07559 87.1093 9.08819C87.1726 9.09045 87.2314 9.09856 87.2857 9.1125C87.3504 9.12509 87.4216 9.14735 87.4993 9.17926ZM86.2808 10.8347C86.2008 10.8661 86.1195 11.008 86.0368 11.2603C85.9541 11.5127 85.885 11.7895 85.8297 12.0909C85.8085 12.2512 85.7925 12.4108 85.7817 12.5698C85.7695 12.7184 85.7708 12.8496 85.7856 12.9632C85.791 13.0045 85.7957 13.0407 85.7997 13.0717C85.8602 13.5365 86.0157 13.8839 86.2662 14.1139C86.4543 14.268 86.6517 14.3317 86.8583 14.3048C86.9616 14.2913 87.0673 14.2566 87.1756 14.2005C87.45 14.0492 87.6691 13.7949 87.8326 13.4375C87.9949 13.0697 88.0563 12.6941 88.0169 12.3105C88.0142 12.2899 88.0115 12.2692 88.0089 12.2485C87.9685 11.9387 87.8741 11.6568 87.7255 11.403C87.5536 11.1313 87.3628 10.9565 87.1531 10.8787C87.1091 10.8635 87.0599 10.8488 87.0056 10.8349C86.9513 10.821 86.8924 10.8129 86.8291 10.8106C86.7115 10.7944 86.601 10.793 86.4977 10.8064C86.455 10.8015 86.4182 10.801 86.3872 10.8051C86.3356 10.8118 86.3001 10.8216 86.2808 10.8347ZM102.464 16.4185C102.264 16.3291 102.126 16.1999 102.052 16.031C101.977 15.8621 101.928 15.5639 101.904 15.1364C101.856 14.2813 101.786 13.4657 101.696 12.6896C101.596 11.9253 101.494 11.303 101.39 10.8229C101.325 10.5687 101.267 10.3661 101.216 10.2152C101.155 10.0656 101.098 9.98904 101.045 9.98543C100.937 9.96788 100.73 10.2732 100.423 10.9014C100.106 11.5309 99.8097 12.2417 99.5346 13.0338C99.2442 13.8699 99.0098 14.4099 98.8315 14.6537C98.6544 14.9078 98.3993 15.0461 98.0661 15.0684C97.8361 15.0773 97.6343 15.0195 97.4605 14.8951C97.2854 14.7603 97.1449 14.5685 97.039 14.3196C96.9318 14.0605 96.8329 13.6637 96.7423 13.1292C96.6518 12.5948 96.525 11.6606 96.362 10.3267C96.2877 9.67463 96.2111 9.08585 96.1322 8.56038C96.0533 8.03491 95.9782 7.61925 95.9069 7.31339C95.8684 7.09781 95.8399 6.95971 95.8215 6.89907C95.7928 6.83978 95.7643 6.82248 95.736 6.84717C95.709 6.8822 95.6267 7.21854 95.4891 7.85621C95.3515 8.49388 95.1909 9.31836 95.0073 10.3297C94.8548 11.0953 94.7212 11.764 94.6065 12.3356C94.4918 12.9073 94.3825 13.3995 94.2786 13.8121C94.0938 14.5715 93.9175 15.1144 93.7499 15.4408C93.5926 15.7659 93.3981 16.0066 93.1663 16.1628C93.0401 16.2422 92.9053 16.2965 92.7621 16.3257C92.6278 16.3431 92.485 16.3355 92.3336 16.3026C91.9106 16.2001 91.545 15.8117 91.2367 15.1375C90.9284 14.4633 90.5807 13.2848 90.1937 11.6019C90.1264 11.327 90.0453 10.9857 89.9502 10.5779C89.8538 10.1597 89.7699 9.79775 89.6986 9.49189C89.5784 8.9718 89.5049 8.60846 89.478 8.40186C89.4726 8.36055 89.4679 8.32439 89.4639 8.2934C89.4514 8.11646 89.499 7.95794 89.6069 7.81786C89.6864 7.70247 89.7796 7.61156 89.8865 7.54513C89.9844 7.49037 90.1116 7.45808 90.2678 7.44825C90.4875 7.44069 90.6731 7.49532 90.8249 7.61213C90.9766 7.72895 91.0828 7.89897 91.1433 8.12219C91.1617 8.18282 91.2171 8.40671 91.3095 8.79386C91.4019 9.18101 91.5003 9.61465 91.6048 10.0948C91.9098 11.3892 92.1275 12.2957 92.258 12.8145C92.3988 13.3319 92.4899 13.5879 92.5312 13.5825C92.5636 13.5888 92.6258 13.3811 92.7181 12.9595C92.8103 12.5378 92.9652 11.7508 93.183 10.5985C93.4322 9.28454 93.6239 8.33522 93.7579 7.75054C93.8802 7.15688 93.996 6.67436 94.1053 6.303C94.2564 5.76863 94.4119 5.34923 94.5719 5.04479C94.7215 4.74171 94.9012 4.50824 95.111 4.34439C95.2166 4.26763 95.299 4.21489 95.3583 4.18616C95.4189 4.16777 95.5061 4.15118 95.6197 4.1364C95.63 4.13506 95.6403 4.13371 95.6507 4.13237C96.2925 4.05938 96.7841 4.44712 97.1256 5.29557C97.4774 6.14268 97.7863 7.70967 98.0523 9.99655C98.1235 10.544 98.1705 10.9056 98.1934 11.0812C98.2265 11.2554 98.2535 11.3412 98.2741 11.3385C98.2844 11.3372 98.319 11.2802 98.3779 11.1674C98.4368 11.0547 98.4981 10.9207 98.562 10.7653C98.8276 10.1425 99.1118 9.62236 99.4146 9.20481C99.7175 8.78725 100.025 8.48983 100.338 8.31254C100.475 8.23175 100.584 8.18081 100.665 8.15973C100.747 8.13865 100.881 8.12118 101.068 8.10732C101.257 8.10379 101.389 8.10766 101.464 8.11891C101.539 8.13016 101.632 8.16522 101.745 8.22409C102.092 8.38902 102.376 8.6725 102.596 9.07451C102.828 9.48551 103.019 10.1067 103.17 10.938C103.233 11.2659 103.291 11.6312 103.344 12.0341C103.363 12.1787 103.382 12.3285 103.402 12.4834C103.467 13.0632 103.528 13.7328 103.585 14.4923C103.634 15.0321 103.658 15.3808 103.658 15.5385C103.668 15.6947 103.657 15.8169 103.627 15.9049C103.579 16.0266 103.528 16.1173 103.473 16.177C103.419 16.247 103.339 16.3153 103.232 16.3817C103.143 16.4248 103.047 16.4531 102.943 16.4665C102.912 16.4705 102.887 16.4739 102.866 16.4766C102.72 16.4851 102.586 16.4657 102.464 16.4185ZM105.509 14.8722C105.198 14.8182 104.924 14.691 104.687 14.4906C104.453 14.3006 104.25 14.038 104.081 13.7029C103.928 13.4181 103.819 13.1435 103.753 12.879C103.7 12.6337 103.628 12.1599 103.537 11.4575C103.533 11.4265 103.529 11.3955 103.524 11.3645C103.453 10.8171 103.405 10.4032 103.379 10.123C103.354 9.85305 103.336 9.39317 103.325 8.74332C103.329 8.5327 103.329 8.28592 103.324 8.00299C103.318 7.72006 103.313 7.39514 103.307 7.02823C103.304 6.68197 103.301 6.17292 103.297 5.50108C103.251 5.46513 103.187 5.42088 103.107 5.36831C102.854 5.20161 102.715 4.97814 102.689 4.69789C102.672 4.40598 102.771 4.16193 102.987 3.96574C103.072 3.89167 103.393 3.7712 103.949 3.60432C104.503 3.42711 105.178 3.23962 105.971 3.04183C106.327 2.95348 106.588 2.89855 106.753 2.87705C106.795 2.87168 106.826 2.86765 106.846 2.86496C106.992 2.85647 107.14 2.90031 107.289 2.99647C107.381 3.05802 107.466 3.14675 107.544 3.26264C107.624 3.38886 107.669 3.49846 107.681 3.59142C107.699 3.72571 107.671 3.87637 107.598 4.04341C107.524 4.20012 107.425 4.32336 107.3 4.41314C107.272 4.43783 107.156 4.47911 106.954 4.53697C106.742 4.60651 106.509 4.67357 106.255 4.73816C105.594 4.90814 105.225 5.01401 105.146 5.05575C105.066 5.08716 105.025 5.17651 105.023 5.32381C105.018 5.52411 105.016 5.75023 105.017 6.00217C105.017 6.24378 105.018 6.49572 105.021 6.758C105.03 7.22955 105.038 7.65394 105.045 8.03119C105.062 8.40708 105.076 8.59436 105.086 8.59302C105.097 8.59167 105.137 8.57597 105.206 8.5459C105.286 8.51449 105.375 8.47141 105.473 8.41665C105.782 8.29236 106.026 8.22912 106.205 8.22693C106.393 8.2234 106.564 8.28521 106.717 8.41235C106.894 8.55747 106.992 8.74949 107.013 8.98842C107.042 9.21567 106.98 9.42335 106.826 9.61147C106.781 9.66984 106.699 9.72775 106.581 9.78519C106.463 9.85296 106.286 9.9443 106.049 10.0592C105.661 10.2252 105.413 10.3415 105.307 10.4079C105.201 10.4846 105.142 10.5554 105.129 10.62C105.119 10.7053 105.139 10.9339 105.187 11.3058C105.246 11.6763 105.3 11.9687 105.348 12.1829C105.409 12.4062 105.471 12.6029 105.535 12.7731C105.6 12.9433 105.662 13.0561 105.721 13.1113C105.781 13.1666 105.872 13.181 105.995 13.1545C106.128 13.1267 106.286 13.0536 106.47 12.9351C106.683 12.7919 106.9 12.6061 107.123 12.3775C107.346 12.1594 107.607 11.8577 107.903 11.4724C108.192 11.1092 108.398 10.8775 108.522 10.7774C108.647 10.6877 108.809 10.6455 109.009 10.651C109.105 10.6595 109.18 10.6708 109.234 10.6847C109.3 10.7076 109.375 10.7557 109.458 10.829C109.622 10.9548 109.73 11.1034 109.784 11.275C109.8 11.315 109.811 11.3608 109.818 11.4124C109.834 11.5364 109.82 11.6696 109.775 11.8119C109.751 11.8676 109.658 12.0005 109.496 12.2106C109.336 12.4311 109.16 12.6535 108.968 12.878C108.841 13.0311 108.719 13.1784 108.6 13.3198C108.481 13.4509 108.385 13.558 108.311 13.641C107.818 14.1254 107.332 14.4722 106.855 14.6813C106.606 14.7872 106.363 14.8556 106.126 14.8865C105.919 14.9134 105.714 14.9086 105.509 14.8722ZM48.7462 28.6224C49.2169 28.6872 49.6439 28.8207 50.0274 29.023C50.4108 29.2252 50.7384 29.482 51.01 29.7933C51.2362 30.079 51.4168 30.4179 51.5519 30.81C51.6371 31.0615 51.6959 31.3112 51.7281 31.5591C51.7496 31.7244 51.7601 31.8859 51.7596 32.0435C51.7558 32.8213 51.593 33.5883 51.2712 34.3445C50.9493 35.1006 50.4481 35.8907 49.7675 36.7145C49.639 36.8573 49.4572 37.0753 49.2223 37.3684C49.2559 37.6267 49.3173 38.0179 49.4065 38.542C49.5427 39.4277 49.6224 40.0003 49.6457 40.2599C49.6793 40.5181 49.6756 40.6919 49.6347 40.7813C49.5556 40.9806 49.4182 41.1351 49.2223 41.2446C49.1257 41.3097 49.0258 41.3489 48.9225 41.3624C48.8295 41.3745 48.7339 41.3659 48.6355 41.3367C48.5269 41.3088 48.4265 41.2641 48.3345 41.2025C48.2424 41.141 48.1697 41.0664 48.1163 40.9788C48.0759 40.9105 48.0346 40.7951 47.9925 40.6325C47.962 40.4789 47.91 40.16 47.8365 39.6759C47.7858 39.3673 47.7251 38.9813 47.6543 38.5178C47.5718 38.0454 47.4905 37.5412 47.4103 37.0054C47.2476 35.9971 47.0777 34.9741 46.9007 33.9361C46.734 32.8969 46.6067 32.1203 46.5189 31.6066C46.4162 30.9791 46.3425 30.5738 46.2976 30.3906C46.2514 30.197 46.2016 30.0564 46.1482 29.9688C46.0805 29.8516 46.0385 29.731 46.0224 29.607C46.0062 29.4831 46.0166 29.3609 46.0535 29.2406C46.1362 28.9882 46.3071 28.8084 46.5663 28.7012C46.6063 28.6855 46.6566 28.6684 46.7172 28.65C46.7689 28.6433 46.8205 28.6366 46.8722 28.6299C46.8928 28.6272 46.9135 28.6245 46.9341 28.6218C47.1937 28.5985 47.5018 28.5847 47.8584 28.5803C48.215 28.576 48.5109 28.59 48.7462 28.6224ZM48.4586 32.7093C48.5531 33.2747 48.6331 33.7685 48.6986 34.1907C48.764 34.6129 48.7987 34.8395 48.8028 34.8704C48.8135 34.9531 48.8395 34.9917 48.8809 34.9863C48.8809 34.9863 48.8912 34.985 48.9118 34.9823C48.9595 34.9446 49.0448 34.8337 49.1679 34.6496C49.3243 34.3982 49.4677 34.1274 49.598 33.8373C49.7297 33.5576 49.8279 33.3032 49.8926 33.0742C50.0167 32.5749 50.0591 32.1334 50.0197 31.7499C49.9969 31.5743 49.9489 31.4072 49.8757 31.2486C49.6783 30.7806 49.2937 30.4892 48.7221 30.3745C48.6251 30.3556 48.5229 30.3374 48.4156 30.3199C48.3096 30.3126 48.2411 30.311 48.2101 30.3151C48.1998 30.3164 48.1895 30.3178 48.1791 30.3191C48.1688 30.3205 48.1578 30.3166 48.1461 30.3076C48.1151 30.3117 48.0992 30.3505 48.0983 30.4242C48.0933 30.4668 48.0976 30.5398 48.111 30.6431C48.1244 30.7464 48.1464 30.8749 48.1769 31.0285C48.2011 31.2144 48.2358 31.441 48.2811 31.7082C48.3277 31.9857 48.3868 32.3194 48.4586 32.7093ZM54.6699 39.6377C54.3583 39.5838 54.0844 39.4566 53.8482 39.2562C53.6134 39.0661 53.4112 38.8036 53.2415 38.4685C53.0889 38.1837 52.9797 37.9091 52.9137 37.6445C52.8608 37.3993 52.7887 36.9255 52.6973 36.2231C52.6933 36.1921 52.6892 36.1611 52.6852 36.1301C52.614 35.5826 52.5654 35.1688 52.5394 34.8885C52.5148 34.6186 52.497 34.1587 52.486 33.5089C52.4901 33.2983 52.4895 33.0515 52.4842 32.7686C52.4789 32.4856 52.4734 32.1607 52.4677 31.7938C52.4647 31.4475 52.4615 30.9385 52.4581 30.2667C52.4114 30.2307 52.3479 30.1865 52.2675 30.1339C52.0147 29.9672 51.8754 29.7437 51.8494 29.4635C51.8325 29.1715 51.932 28.9275 52.1481 28.7313C52.233 28.6572 52.5535 28.5368 53.1095 28.3699C53.6642 28.1927 54.3383 28.0052 55.132 27.8074C55.4881 27.7191 55.7488 27.6641 55.9141 27.6426C55.9554 27.6373 55.9864 27.6332 56.0071 27.6305C56.153 27.622 56.3006 27.6659 56.4496 27.762C56.5417 27.8236 56.6267 27.9123 56.7048 28.0282C56.7843 28.1544 56.8301 28.264 56.8422 28.357C56.8596 28.4913 56.832 28.6419 56.7591 28.809C56.685 28.9657 56.5855 29.0889 56.4606 29.1787C56.4323 29.2034 56.3169 29.2447 56.1143 29.3025C55.9028 29.3721 55.6699 29.4391 55.4157 29.5037C54.755 29.6737 54.3854 29.7796 54.3067 29.8213C54.2268 29.8527 54.1859 29.9421 54.1841 30.0894C54.1786 30.2897 54.1765 30.5158 54.1778 30.7677C54.1777 31.0094 54.1789 31.2613 54.1816 31.5236C54.1904 31.9951 54.1983 32.4195 54.2054 32.7968C54.2228 33.1727 54.2366 33.3599 54.247 33.3586C54.2573 33.3572 54.2973 33.3415 54.3669 33.3115C54.4468 33.2801 54.5358 33.237 54.6337 33.1822C54.9432 33.0579 55.187 32.9947 55.3653 32.9925C55.5539 32.989 55.7248 33.0508 55.8779 33.1779C56.0543 33.323 56.1529 33.5151 56.1734 33.754C56.203 33.9812 56.1407 34.1889 55.9866 34.377C55.9417 34.4354 55.8599 34.4933 55.7414 34.5508C55.6241 34.6185 55.4469 34.7099 55.2098 34.8248C54.8217 34.9908 54.5742 35.107 54.4673 35.1735C54.3617 35.2502 54.3027 35.3209 54.2901 35.3856C54.2802 35.4709 54.2994 35.6995 54.3478 36.0714C54.4065 36.4419 54.4603 36.7343 54.5091 36.9485C54.5697 37.1717 54.6321 37.3685 54.6962 37.5387C54.7604 37.7089 54.8223 37.8217 54.882 37.8769C54.9417 37.9322 55.0329 37.9466 55.1555 37.9201C55.2885 37.8923 55.447 37.8192 55.6312 37.7007C55.8437 37.5575 56.0611 37.3716 56.2835 37.1431C56.5072 36.9249 56.7673 36.6232 57.0638 36.238C57.3527 35.8748 57.5589 35.6431 57.6825 35.543C57.8073 35.4532 57.9699 35.4111 58.1702 35.4165C58.2659 35.4251 58.3409 35.4364 58.3952 35.4503C58.4612 35.4732 58.5358 35.5213 58.6188 35.5945C58.7822 35.7203 58.8909 35.869 58.9447 36.0406C58.9604 36.0806 58.9716 36.1264 58.9783 36.178C58.9945 36.302 58.9803 36.4351 58.9358 36.5775C58.9115 36.6332 58.8185 36.7661 58.6567 36.9762C58.4963 37.1966 58.3205 37.4191 58.1291 37.6436C58.0019 37.7967 57.8793 37.9439 57.7611 38.0854C57.6416 38.2165 57.5452 38.3235 57.472 38.4066C56.9783 38.891 56.4929 39.2378 56.0159 39.4469C55.7671 39.5528 55.5239 39.6212 55.2863 39.6521C55.0797 39.679 54.8742 39.6742 54.6699 39.6377ZM62.4753 27.8132C62.7694 27.9746 63.0372 28.1761 63.2788 28.4178C63.5113 28.6711 63.6994 28.946 63.843 29.2425C63.9265 29.3997 63.9808 29.5344 64.0059 29.6467C64.031 29.759 64.0669 29.9539 64.1135 30.2315C64.143 30.4587 64.1569 30.646 64.1551 30.7933C64.1635 30.9393 64.161 31.0814 64.1475 31.2197C64.0854 31.711 63.9536 32.2324 63.7522 32.7838C63.5405 33.3366 63.2752 33.8805 62.9561 34.4158C62.8946 34.5078 62.8427 34.5933 62.8004 34.6724C62.7582 34.7514 62.7371 34.7909 62.7371 34.7909C62.7384 34.8012 62.8616 34.9007 63.1068 35.0894C63.3403 35.2692 63.6263 35.4893 63.9648 35.7499C64.5835 36.2262 64.9714 36.5433 65.1285 36.7015C65.2973 36.8686 65.3918 37.0296 65.412 37.1846C65.4335 37.3498 65.4026 37.5167 65.3195 37.6851C65.2364 37.8534 65.1258 37.9729 64.9879 38.0433C64.9004 38.0967 64.7784 38.1284 64.6221 38.1382C64.4762 38.1467 64.3592 38.1356 64.2712 38.1051C64.2272 38.0898 64.0774 37.9885 63.822 37.8011C63.5562 37.6151 63.2598 37.3963 62.933 37.1447C62.6075 36.9034 62.3228 36.6936 62.079 36.5152C61.8352 36.3368 61.703 36.249 61.6823 36.2517C61.6617 36.2544 61.6378 36.2732 61.6109 36.3082C61.5736 36.3446 61.5422 36.3855 61.5165 36.4308C61.455 36.5229 61.4323 36.6309 61.4484 36.7548C61.4555 36.8904 61.5241 37.2964 61.6541 37.9728C61.7339 38.4246 61.7812 38.7074 61.796 38.821C61.7991 38.9256 61.7867 39.0323 61.7588 39.141C61.7067 39.3053 61.6292 39.4362 61.5263 39.5336C61.4131 39.6324 61.2687 39.6932 61.0931 39.716C61.0634 39.7304 61.0331 39.7396 61.0021 39.7436C60.9401 39.7517 60.8827 39.7539 60.8297 39.7503C60.7663 39.748 60.701 39.7303 60.6337 39.697C60.5133 39.6601 60.4038 39.5851 60.305 39.4719C60.2179 39.3677 60.156 39.2549 60.1192 39.1337C60.0994 39.0627 60.0723 38.9349 60.0378 38.7503C60.0046 38.5761 59.9661 38.3605 59.9221 38.1036C59.8267 37.6118 59.7229 37.0161 59.6108 36.3163C59.4975 35.6063 59.3814 34.8756 59.2626 34.1242C59.16 33.4968 59.0639 32.879 58.9743 32.2709C58.8846 31.6628 58.8076 31.1108 58.7431 30.615C58.6992 30.3581 58.6423 29.9611 58.5724 29.424C58.518 29.41 58.4327 29.4001 58.3164 29.3942C58.1561 29.3731 58.0254 29.3375 57.9244 29.2877C57.8337 29.2364 57.7448 29.1587 57.6577 29.0545C57.5679 28.9296 57.5143 28.8 57.4968 28.6657C57.4847 28.5728 57.4881 28.4778 57.507 28.3808C57.5484 28.1338 57.676 27.9439 57.8898 27.811C57.9388 27.7836 58.0439 27.7437 58.2052 27.6912C58.3767 27.6374 58.5696 27.586 58.7839 27.5372C58.9155 27.499 59.0484 27.4712 59.1827 27.4538C59.3053 27.4273 59.4337 27.4053 59.568 27.3879C59.5784 27.3865 59.5887 27.3852 59.599 27.3838C60.1465 27.3126 60.6555 27.3094 61.1262 27.3742C61.6085 27.4481 62.0582 27.5944 62.4753 27.8132ZM60.5375 30.9646C60.6787 32.0492 60.7931 32.8484 60.881 33.3622C60.9675 33.8656 61.0314 34.1147 61.0727 34.1093C61.083 34.1079 61.1197 34.0664 61.1826 33.9847C61.2351 33.9043 61.296 33.8071 61.3652 33.6931C61.6613 33.2239 61.8968 32.7731 62.0716 32.3406C62.2465 31.9082 62.3569 31.5052 62.4028 31.1316C62.4366 30.9066 62.4407 30.696 62.4151 30.4997C62.3977 30.3654 62.3699 30.2325 62.3317 30.1009C62.2205 29.8107 62.0378 29.5771 61.7836 29.4001C61.6229 29.295 61.3957 29.2037 61.102 29.1264C60.8097 29.0594 60.5757 29.0373 60.4001 29.0601C60.3794 29.0628 60.3433 29.0675 60.2916 29.0742C60.3454 29.4874 60.4274 30.1175 60.5375 30.9646ZM67.1251 39.0889C66.9387 39.0291 66.8013 38.9419 66.7129 38.8273C66.6361 38.7218 66.5322 38.4884 66.4012 38.1273C66.2254 37.583 66.0583 36.9849 65.9 36.3333C65.7403 35.6712 65.576 34.8523 65.407 33.8763C65.3178 33.3522 65.2271 32.7758 65.1348 32.147C65.0411 31.5079 64.9387 30.8017 64.8276 30.0283C64.7138 29.2342 64.628 28.6151 64.5702 28.171C64.5501 28.016 64.5326 27.8817 64.5178 27.7681C64.4614 27.3343 64.4446 27.0843 64.4675 27.0183C64.5355 26.6523 64.7475 26.4252 65.1037 26.3368C65.145 26.3314 65.1812 26.3267 65.2122 26.3227C65.522 26.2824 65.7784 26.3961 65.9813 26.6638C66.0321 26.7308 66.068 26.8049 66.089 26.8862C66.1205 26.9661 66.1577 27.1714 66.2007 27.5019C66.2298 27.6452 66.2585 27.8253 66.2867 28.0422C66.3136 28.2488 66.3452 28.4915 66.3815 28.7704C66.4939 29.5541 66.5721 30.0745 66.616 30.3313C66.66 30.5882 66.6922 30.7153 66.7129 30.7127C66.7542 30.7073 66.8937 30.5683 67.1314 30.2958C67.369 30.0233 67.6137 29.7236 67.8653 29.3968C68.1528 29.0232 68.4177 28.6368 68.6599 28.2377C68.9021 27.8385 69.1396 27.4032 69.3724 26.9317C69.6218 26.4266 69.7676 26.1345 69.8098 26.0555C69.8624 25.9751 69.937 25.9024 70.0336 25.8373C70.2447 25.6838 70.4816 25.6477 70.7443 25.7291C71.0056 25.8001 71.1893 25.96 71.2952 26.2089C71.3356 26.2772 71.3605 26.3474 71.3699 26.4198C71.3793 26.4921 71.3732 26.5664 71.3516 26.6427C71.3291 26.7927 71.2399 27.0354 71.0839 27.3708C70.6916 28.2307 70.2305 29.047 69.7008 29.8197C69.1697 30.5821 68.5668 31.3171 67.892 32.0246C67.7981 32.1104 67.7249 32.1934 67.6723 32.2738C67.6081 32.3452 67.5773 32.3912 67.58 32.4119C67.5854 32.4532 67.7746 32.5756 68.1477 32.7792C68.5195 32.9724 68.9457 33.1796 69.4261 33.4007C69.6838 33.5248 69.9461 33.643 70.2128 33.7553C70.4795 33.8677 70.7236 33.9672 70.945 34.054C71.1663 34.1407 71.3605 34.2205 71.5276 34.2933C71.6946 34.3661 71.795 34.4109 71.8286 34.4275C71.8987 34.4814 71.9676 34.567 72.0354 34.6842C72.1045 34.8118 72.1503 34.9214 72.1727 35.013C72.2049 35.2609 72.1299 35.4913 71.9475 35.7041C71.7534 35.9079 71.5349 36.0046 71.2919 35.9942C71.1859 35.987 70.9336 35.9043 70.5348 35.746C70.1374 35.5982 69.716 35.4271 69.2706 35.233C69.0258 35.1283 68.7863 35.0229 68.5519 34.9168C68.3265 34.7991 68.1238 34.6941 67.9437 34.602C67.787 34.5279 67.6471 34.462 67.5241 34.4045C67.401 34.347 67.3344 34.3189 67.324 34.3202C67.2724 34.3269 67.2797 34.5046 67.3461 34.8531C67.4021 35.2029 67.492 35.6114 67.6158 36.0785C67.6701 36.3341 67.7353 36.5934 67.8116 36.8566C67.8865 37.1095 67.9652 37.3514 68.0478 37.5822C68.1541 37.915 68.2063 38.1551 68.2045 38.3024C68.2116 38.438 68.162 38.5811 68.0555 38.7315C67.9503 38.8922 67.8127 39.0047 67.6424 39.0688C67.5818 39.0872 67.5205 39.1004 67.4585 39.1085C67.3552 39.1219 67.2441 39.1154 67.1251 39.0889ZM76.3378 36.9922C76.0729 36.9742 75.8317 36.9372 75.6144 36.8815C75.3984 36.8361 75.2488 36.7767 75.1658 36.7035C74.979 36.5597 74.8663 36.38 74.8278 36.1645C74.7982 35.9372 74.8502 35.7309 74.9836 35.5454C75.1094 35.382 75.2374 35.2761 75.3677 35.2276C75.5096 35.1881 75.7299 35.1857 76.0285 35.2204C76.3905 35.2574 76.6734 35.2521 76.8773 35.2045C77.0916 35.1557 77.2822 35.0468 77.4494 34.878C77.5522 34.7806 77.6093 34.6944 77.6206 34.6194C77.6421 34.5431 77.6217 34.4669 77.5593 34.391C77.4669 34.2455 77.2879 34.1217 77.0226 34.0197C76.7468 33.919 76.3232 33.8113 75.7515 33.6966C74.8668 33.5175 74.1764 33.2975 73.6803 33.0364C73.1931 32.7636 72.7933 32.3954 72.4809 31.9319C72.2179 31.5249 72.0541 31.0735 71.9896 30.5777C71.9815 30.5157 71.9741 30.4589 71.9674 30.4072C71.9258 29.8454 72.0134 29.2668 72.23 28.6714C72.4606 28.0216 72.8329 27.4112 73.3469 26.8401C73.8505 26.2704 74.4046 25.8464 75.0092 25.5681C75.4062 25.3904 75.801 25.276 76.1936 25.225C76.2039 25.2236 76.2142 25.2223 76.2245 25.221C76.6274 25.1685 77.0603 25.1858 77.5233 25.2726C77.7923 25.3216 77.9955 25.3897 78.1329 25.4769C78.2806 25.5627 78.3852 25.6804 78.4467 25.83C78.4925 25.9396 78.52 26.0305 78.5295 26.1028C78.5308 26.1132 78.5321 26.1235 78.5335 26.1338C78.5326 26.2075 78.5092 26.3103 78.4633 26.4423C78.3806 26.6947 78.2445 26.8595 78.0549 26.9367C77.8667 27.0242 77.6058 27.0371 77.2721 26.9755C77.0032 26.9264 76.7647 26.9102 76.5568 26.9267C76.3475 26.9329 76.1429 26.9753 75.943 27.0538C75.6425 27.1665 75.3546 27.3352 75.0792 27.5601C74.8039 27.785 74.5507 28.0596 74.3198 28.3837C74.0888 28.7079 73.9167 29.0402 73.8034 29.3806C73.7005 29.7196 73.6685 30.0389 73.7075 30.3384C73.7384 30.576 73.7949 30.7683 73.877 30.9151C73.9578 31.0517 74.0974 31.1963 74.2959 31.3491C74.506 31.5108 74.7211 31.6299 74.9411 31.7063C75.1508 31.7841 75.5363 31.881 76.0977 31.9971C76.584 32.1019 76.9747 32.1981 77.2697 32.2858C77.5647 32.3735 77.8198 32.4768 78.0348 32.5959C78.4637 32.8237 78.7952 33.1115 79.0295 33.4592C79.2652 33.8172 79.3769 34.1913 79.3646 34.5816C79.3383 35.2678 79.0202 35.8502 78.4102 36.3287C77.9623 36.6811 77.4698 36.8922 76.9327 36.9621C76.7467 36.9863 76.5484 36.9963 76.3378 36.9922Z" fill="#FFBE00"/>
<path d="M34.0657 25.2499C34.6915 25.0639 35.3496 25.4204 35.5356 26.0462C35.7216 26.672 35.3651 27.33 34.7393 27.516L34.0657 25.2499ZM6.72755 8.16256C7.10425 7.62936 7.84187 7.50249 8.37507 7.87918L17.0641 14.0178C17.5973 14.3945 17.7241 15.1321 17.3475 15.6653C16.9708 16.1985 16.2331 16.3254 15.6999 15.9487L7.97638 10.4921L2.51983 18.2157C2.14313 18.7489 1.40551 18.8758 0.872312 18.4991C0.339111 18.1224 0.21224 17.3848 0.588936 16.8516L6.72755 8.16256ZM34.7393 27.516C30.7975 28.6876 24.6611 29.1857 19.0223 26.8121C13.2945 24.401 8.25734 19.099 6.52803 9.04501L8.85797 8.64425C10.4638 17.9805 15.0246 22.5642 19.9395 24.6331C24.9433 26.7394 30.494 26.3115 34.0657 25.2499L34.7393 27.516Z" fill="#FFBE00"/>
</svg>
