<svg width="193" height="70" viewBox="0 0 193 70" fill="none" xmlns="http://www.w3.org/2000/svg">
<path d="M77.7551 24.433C77.1454 24.2167 76.6426 23.7236 76.2467 22.9537C75.85 22.2027 75.4549 20.8131 75.0617 18.7851C74.8306 17.7037 74.6007 16.397 74.372 14.865C74.1237 13.3508 73.8515 11.5445 73.5554 9.44584C73.5015 8.99256 73.4544 8.59594 73.414 8.25598C73.3548 7.91514 73.3122 7.62203 73.2861 7.37665C73.2636 7.05631 73.2567 6.80244 73.2655 6.61504C73.2725 6.46511 73.2876 6.34374 73.3107 6.25092C73.3945 6.06703 73.5344 5.88577 73.7306 5.70715C73.8876 5.56425 74.0999 5.44273 74.3675 5.34258C74.6342 5.26118 74.8323 5.24229 74.9618 5.28592C74.9805 5.28679 75.0269 5.29836 75.101 5.32061C75.1751 5.34287 75.2398 5.36468 75.2951 5.38605C75.462 5.43144 75.6437 5.56203 75.8402 5.77784C76.0554 5.99452 76.1872 6.18851 76.2355 6.3598C76.2508 6.43564 76.3019 6.74793 76.3888 7.29667C76.4758 7.84541 76.5686 8.46955 76.6673 9.16909C77.0012 11.6639 77.3303 13.858 77.6548 15.7513C77.9793 17.6447 78.2359 18.9808 78.4248 19.7597C78.5197 20.1397 78.6389 20.2017 78.7824 19.9455C78.925 19.708 79.3557 18.7327 80.0745 17.0198C80.6651 15.6388 81.198 14.6872 81.6733 14.1648C82.1485 13.6424 82.7141 13.3965 83.37 13.4273C83.7823 13.4466 84.1433 13.5574 84.4531 13.7598C84.7629 13.9621 85.067 14.2862 85.3654 14.7322C85.5226 14.9837 85.7631 15.4645 86.0866 16.1746C86.4102 16.8847 86.8245 17.862 87.3297 19.1064C87.4316 19.3366 87.5161 19.5377 87.5831 19.7099C87.6698 19.8642 87.7319 19.9423 87.7693 19.944C87.9193 19.951 88.132 19.2191 88.4075 17.7483C88.683 16.2775 88.9725 14.3096 89.2758 11.8447C89.604 9.24943 89.8395 7.42928 89.9824 6.38421C90.1432 5.35876 90.2654 4.75409 90.3491 4.5702C90.391 4.47826 90.4614 4.37826 90.5604 4.27021C90.6603 4.14342 90.7584 4.05411 90.8547 4.00228C90.9911 3.89598 91.116 3.8361 91.2293 3.82263C91.3248 3.78954 91.5037 3.77914 91.7661 3.79144C92.0472 3.80461 92.2337 3.83213 92.3257 3.874C92.4372 3.89801 92.556 3.96931 92.6819 4.0879C92.7729 4.14851 92.8622 4.24661 92.9498 4.38218C93.0382 4.49901 93.1079 4.61497 93.1589 4.73004C93.2251 4.92096 93.2538 5.11012 93.245 5.29752C93.2353 5.50366 93.1608 6.09179 93.0214 7.06189C92.9594 7.58487 92.8685 8.32247 92.7487 9.27472C92.6111 10.2073 92.4957 11.0659 92.4026 11.8503C91.9983 15.2684 91.6076 17.795 91.2304 19.4301C90.8533 21.0652 90.3853 22.2359 89.8263 22.9421C89.3244 23.6323 88.7161 23.9888 88.0013 24.0117C87.2669 24.0524 86.6233 23.7593 86.0705 23.1324C85.7489 22.7792 85.4072 22.2561 85.0453 21.563C84.6842 20.8512 84.252 19.8543 83.7487 18.5724C83.6298 18.3039 83.5274 18.0831 83.4416 17.91C83.3558 17.737 83.3036 17.65 83.2848 17.6491C83.2277 17.6652 83.1466 17.7929 83.0415 18.0321C82.9168 18.2892 82.6526 18.9154 82.2492 19.9107C81.7646 21.0337 81.3583 21.888 81.0303 22.4736C80.6845 23.0396 80.3346 23.4928 79.9806 23.833C79.7452 24.0474 79.5597 24.1983 79.4241 24.2859C79.2885 24.3734 79.1257 24.4409 78.9357 24.4884C78.6698 24.551 78.4619 24.5789 78.312 24.5718C78.2933 24.571 78.2839 24.5705 78.2839 24.5705C78.134 24.5635 77.9577 24.5177 77.7551 24.433ZM93.8711 24.3994C93.5997 24.1801 93.4322 23.9469 93.3686 23.6998C93.3051 23.4526 93.2913 22.9449 93.3273 22.1765C93.3423 21.8579 93.3612 21.455 93.384 20.9678C93.3767 20.7233 93.3791 20.4698 93.3914 20.2075C93.4046 19.9264 93.4276 19.6363 93.4604 19.3374C93.5096 18.2879 93.5609 17.1916 93.6145 16.0484C93.6859 14.9249 93.7366 14.0445 93.7664 13.4074C93.8027 13.0334 93.8426 12.5846 93.8859 12.0607C93.9283 11.5556 93.981 11.0322 94.044 10.4905C94.1289 9.48026 94.2299 8.52713 94.347 7.63111C94.4445 6.75295 94.5151 6.24916 94.5587 6.11973C94.6495 5.78592 94.8867 5.53409 95.2702 5.36426C95.5209 5.22575 95.7774 5.16264 96.0398 5.17494C96.1335 5.17933 96.2361 5.19353 96.3477 5.21754C96.5886 5.28518 96.8083 5.40816 97.0065 5.58648C97.186 5.76392 97.308 5.96685 97.3724 6.19524C97.4394 6.36742 97.4646 6.63154 97.4479 6.9876C97.4304 7.36241 97.3503 8.26956 97.2077 9.70905C97.0909 10.9995 96.9865 12.2248 96.8946 13.3849C96.8027 14.5451 96.7225 15.856 96.654 17.3178C96.5983 18.104 96.549 18.9562 96.506 19.8745C96.4621 20.8115 96.4231 21.8427 96.3892 22.968C96.3708 23.3615 96.2996 23.6775 96.1757 23.9158C96.0323 24.172 95.8348 24.3788 95.5832 24.536C95.3522 24.6567 95.0863 24.7193 94.7856 24.724C94.7669 24.7231 94.7388 24.7218 94.7013 24.7201C94.3836 24.6864 94.1069 24.5795 93.8711 24.3994ZM101.456 24.8675C101.255 24.7454 101.084 24.5872 100.943 24.3928C100.802 24.1796 100.728 23.9695 100.719 23.7625C100.704 23.6679 100.707 23.4051 100.727 22.9741C100.748 22.543 100.77 22.0651 100.795 21.5404C100.838 21.0166 100.894 20.2304 100.961 19.1818C101.029 18.1332 101.085 17.1404 101.129 16.2034C101.174 15.2476 101.229 14.2642 101.296 13.2531C101.362 12.242 101.406 11.5022 101.428 11.0337C101.468 10.5848 101.487 10.1819 101.484 9.82495C101.5 9.48762 101.499 9.30915 101.481 9.28953C101.482 9.27079 101.268 9.24195 100.837 9.20301C100.406 9.18281 100.106 9.17813 99.9366 9.18897C99.411 9.18312 99.0112 9.09865 98.7371 8.93555C98.4443 8.77158 98.2406 8.50848 98.1261 8.14627C98.0608 7.93662 98.0326 7.73809 98.0413 7.55068C98.051 7.34454 98.0977 7.14952 98.1815 6.96563C98.3489 6.59785 98.6142 6.34734 98.9773 6.21411C99.054 6.18014 99.4119 6.15934 100.051 6.15172C100.69 6.1441 101.226 6.13165 101.658 6.11436C102.748 6.10908 103.697 6.09721 104.505 6.07875C105.332 6.07991 106.32 6.02294 107.472 5.90785C108.358 5.81794 108.934 5.76976 109.197 5.76332C109.253 5.76595 109.309 5.76859 109.365 5.77122C109.534 5.77913 109.683 5.80489 109.813 5.84852C110.125 5.99463 110.368 6.21263 110.543 6.50252C110.682 6.73443 110.745 7.0003 110.731 7.30015C110.728 7.35637 110.725 7.41259 110.723 7.46881C110.689 7.78652 110.592 8.04493 110.433 8.24405C110.272 8.46191 110.058 8.62091 109.791 8.72106C109.657 8.77113 109.166 8.83263 108.317 8.90555C107.468 8.97847 106.648 9.04335 105.857 9.10016C105.575 9.10573 105.33 9.12242 105.122 9.15024C104.914 9.17806 104.791 9.20047 104.753 9.21745C104.694 9.27104 104.626 9.72798 104.548 10.5883C104.489 11.4495 104.389 13.1821 104.248 15.7861C104.17 17.0408 104.11 18.1179 104.068 19.0175C104.008 19.8974 103.964 20.6466 103.935 21.265C103.849 22.6884 103.782 23.521 103.733 23.7629C103.683 24.0235 103.608 24.2359 103.506 24.4002C103.283 24.7466 102.972 24.9668 102.574 25.0608C102.422 25.0912 102.28 25.1034 102.149 25.0973C101.906 25.0858 101.674 25.0093 101.456 24.8675ZM119.864 27.6177C119.698 27.5536 119.543 27.4524 119.399 27.3142C119.273 27.1956 119.168 27.0498 119.082 26.8768C119.048 26.8 118.997 26.685 118.929 26.5315C119.002 25.7837 119.11 24.6713 119.254 23.1943C119.327 22.4464 119.436 21.3246 119.581 19.8289C119.263 19.814 118.775 19.7912 118.119 19.7604C117.201 19.7174 116.413 19.6993 115.755 19.706C115.117 19.7136 114.768 19.7349 114.71 19.7697C114.691 19.7876 114.663 19.9741 114.628 20.3293C114.612 20.6666 114.59 21.1257 114.563 21.7067C114.541 22.5696 114.516 23.1131 114.487 23.3371C114.476 23.562 114.43 23.7476 114.348 23.894C114.203 24.1877 114.005 24.4038 113.754 24.5423C113.522 24.6817 113.247 24.7346 112.93 24.7009C112.686 24.6895 112.482 24.633 112.318 24.5314C112.134 24.4476 111.981 24.309 111.858 24.1154C111.735 23.9406 111.651 23.7301 111.606 23.4838C111.581 23.2197 111.584 22.7503 111.616 22.0757C111.702 19.8447 111.722 17.6107 111.676 15.3735C111.63 13.1552 111.52 11.0841 111.348 9.16026C111.306 8.85778 111.282 8.55618 111.277 8.25546C111.252 7.99134 111.242 7.80305 111.248 7.69061C111.248 7.69061 111.248 7.68124 111.249 7.6625C111.278 7.4385 111.354 7.22606 111.476 7.02518C111.597 6.84305 111.773 6.69166 112.004 6.57102C112.353 6.3432 112.74 6.30498 113.165 6.45636C113.591 6.589 113.879 6.84668 114.03 7.22939C114.063 7.32485 114.101 7.51444 114.144 7.79818C114.169 8.08104 114.209 8.43037 114.264 8.84617C114.34 9.63854 114.408 10.5902 114.468 11.7011C114.548 12.813 114.6 13.9047 114.625 14.9764C114.623 15.4271 114.632 15.822 114.654 16.161C114.676 16.5001 114.695 16.6795 114.713 16.6991C114.713 16.6991 114.872 16.7159 115.19 16.7496C115.508 16.7645 115.874 16.7723 116.287 16.7729C116.718 16.793 117.178 16.8052 117.666 16.8093C118.173 16.8143 118.558 16.8229 118.82 16.8352C119.026 16.8448 119.345 16.8598 119.776 16.88C119.808 16.581 119.857 16.1419 119.922 15.5627C119.958 15.1888 120.01 14.4776 120.078 13.429C120.166 12.3625 120.245 11.2769 120.315 10.1721C120.344 9.55368 120.369 9.02895 120.389 8.59793C120.429 8.14904 120.456 7.77467 120.47 7.47483C120.522 6.76357 120.57 6.33386 120.615 6.1857C120.642 6.01791 120.686 5.86975 120.748 5.7412C120.91 5.5046 121.087 5.3251 121.281 5.2027C121.492 5.09992 121.748 5.04618 122.049 5.04149C122.068 5.04237 122.077 5.04281 122.077 5.04281C122.358 5.05598 122.59 5.11381 122.773 5.2163C122.955 5.33752 123.125 5.52389 123.282 5.77542C123.335 5.85302 123.405 5.96897 123.491 6.12329C123.472 6.53557 123.444 7.14463 123.406 7.95047C123.369 8.34313 123.337 8.82057 123.31 9.38278C123.266 9.92537 123.219 10.5242 123.17 11.1792C123.094 12.3965 123.004 13.7163 122.9 15.1388C122.776 16.5792 122.665 17.9544 122.566 19.2645C122.447 20.5924 122.344 21.7802 122.258 22.8279C122.153 23.856 122.083 24.557 122.047 24.9309C121.905 25.9385 121.791 26.5811 121.703 26.8587C121.615 27.1176 121.418 27.3337 121.109 27.507C120.936 27.5928 120.727 27.6487 120.481 27.6748C120.387 27.6892 120.302 27.6946 120.227 27.6911C120.096 27.6849 119.975 27.6605 119.864 27.6177ZM137.135 27.5819C136.671 27.4662 136.255 27.3247 135.887 27.1572C135.519 27.0084 135.272 26.856 135.148 26.7C134.862 26.3861 134.719 26.0319 134.719 25.6375C134.738 25.2252 134.896 24.8757 135.191 24.589C135.466 24.339 135.726 24.1915 135.972 24.1467C136.236 24.1216 136.628 24.1868 137.146 24.3426C137.776 24.5224 138.28 24.6023 138.656 24.5824C139.052 24.5634 139.424 24.4306 139.774 24.184C139.987 24.0438 140.115 23.9089 140.159 23.7795C140.221 23.6509 140.209 23.5095 140.122 23.3552C140.004 23.0679 139.726 22.792 139.288 22.5273C138.831 22.2617 138.114 21.937 137.136 21.5531C135.624 20.9564 134.469 20.3482 133.672 19.7286C132.894 19.0911 132.302 18.3121 131.894 17.3915C131.556 16.5868 131.408 15.7348 131.45 14.8352C131.456 14.7228 131.46 14.6197 131.465 14.526C131.568 13.5167 131.906 12.5183 132.478 11.5309C133.092 10.4516 133.945 9.48673 135.037 8.63638C136.11 7.78514 137.226 7.20828 138.386 6.90578C139.146 6.71602 139.882 6.63783 140.594 6.6712C140.613 6.67208 140.632 6.67296 140.651 6.67384C141.381 6.70809 142.144 6.87527 142.937 7.1754C143.399 7.34728 143.738 7.53219 143.954 7.73013C144.188 7.92895 144.337 8.17067 144.399 8.45528C144.445 8.66406 144.465 8.83404 144.459 8.96522C144.458 8.98397 144.457 9.00271 144.457 9.02145C144.432 9.15175 144.358 9.32671 144.235 9.54632C144.008 9.96769 143.715 10.2169 143.355 10.2939C142.993 10.3897 142.526 10.3302 141.954 10.1156C141.493 9.94371 141.075 9.83962 140.701 9.80332C140.328 9.74828 139.952 9.75882 139.573 9.83496C139.004 9.9398 138.441 10.1481 137.881 10.46C137.322 10.7719 136.787 11.1787 136.275 11.6806C135.763 12.1825 135.353 12.7174 135.044 13.2851C134.755 13.8538 134.597 14.4099 134.572 14.9533C134.552 15.3844 134.591 15.7431 134.69 16.0294C134.791 16.2971 134.993 16.5976 135.296 16.9311C135.618 17.2843 135.961 17.5633 136.327 17.7683C136.675 17.9724 137.328 18.2659 138.286 18.6489C139.116 18.9883 139.778 19.2823 140.273 19.5309C140.769 19.7795 141.189 20.0433 141.532 20.3223C142.221 20.8617 142.718 21.4766 143.024 22.1671C143.328 22.8762 143.408 23.5749 143.263 24.263C143 25.4715 142.252 26.4037 141.019 27.0596C140.114 27.5431 139.174 27.762 138.2 27.7163C137.862 27.7005 137.508 27.6557 137.135 27.5819ZM151.849 13.5937C152.638 13.9875 153.279 14.5247 153.773 15.2052C154.267 15.8857 154.596 16.6993 154.758 17.6459C154.881 18.2152 154.932 18.734 154.91 19.2026C154.888 19.6711 154.787 20.2204 154.608 20.8505C154.403 21.611 154.138 22.2559 153.813 22.7853C153.507 23.2969 153.08 23.7934 152.531 24.2748C151.788 24.916 150.933 25.3267 149.966 25.5068C149.568 25.5821 149.192 25.602 148.837 25.5666C148.312 25.542 147.81 25.4246 147.332 25.2143C146.652 24.9007 146.074 24.4135 145.597 23.7526C145.121 23.0917 144.799 22.3442 144.632 21.5099C144.528 20.9228 144.478 20.3852 144.482 19.8971C144.483 19.8784 144.483 19.869 144.483 19.869C144.506 19.3818 144.599 18.8132 144.761 18.1635C144.923 17.5137 145.109 16.9402 145.32 16.443C145.532 15.9271 145.82 15.3865 146.185 14.8214C146.791 13.9107 147.298 13.3241 147.704 13.0614C147.975 12.8863 148.27 12.8062 148.589 12.8211C148.757 12.829 148.935 12.8561 149.12 12.9024C149.212 12.9443 149.38 12.9803 149.622 13.0104C149.845 13.0584 150.078 13.1069 150.32 13.1558C150.525 13.1842 150.693 13.2108 150.823 13.2357C150.954 13.2419 151.075 13.2663 151.186 13.3091C151.298 13.3331 151.399 13.366 151.491 13.4079C151.602 13.4506 151.721 13.5126 151.849 13.5937ZM149.166 16.1443C149.014 16.1748 148.825 16.4007 148.599 16.822C148.372 17.2434 148.162 17.7125 147.969 18.2293C147.881 18.5069 147.802 18.7849 147.733 19.0634C147.664 19.3231 147.625 19.5561 147.616 19.7622C147.612 19.8372 147.609 19.9028 147.606 19.959C147.567 20.8023 147.733 21.4674 148.104 21.9544C148.389 22.287 148.719 22.4621 149.094 22.4797C149.281 22.4885 149.48 22.4602 149.69 22.3949C150.224 22.2134 150.693 21.8315 151.096 21.2494C151.499 20.6485 151.727 20.0018 151.778 19.3093C151.78 19.2718 151.782 19.2344 151.783 19.1969C151.81 18.6347 151.731 18.1051 151.548 17.6082C151.329 17.0721 151.046 16.7019 150.698 16.4979C150.625 16.4569 150.543 16.4154 150.451 16.3736C150.359 16.3317 150.257 16.2987 150.145 16.2747C149.942 16.2089 149.747 16.1715 149.559 16.1627C149.485 16.1405 149.42 16.128 149.364 16.1254C149.27 16.121 149.204 16.1273 149.166 16.1443ZM176.099 31.1545C175.771 30.9325 175.568 30.6601 175.489 30.3371C175.411 30.0141 175.417 29.4698 175.51 28.704C175.694 27.1726 175.829 25.7046 175.913 24.2999C175.978 22.9131 175.994 21.7776 175.96 20.8933C175.926 20.4221 175.887 20.0447 175.844 19.761C175.782 19.4763 175.705 19.3225 175.612 19.2993C175.428 19.2343 174.964 19.7103 174.221 20.7273C173.46 21.7434 172.71 22.9102 171.972 24.2279C171.194 25.6188 170.608 26.5023 170.214 26.8782C169.82 27.273 169.324 27.4375 168.726 27.372C168.316 27.3152 167.976 27.149 167.707 26.8735C167.439 26.5792 167.251 26.1947 167.141 25.7201C167.033 25.2267 166.983 24.4918 166.991 23.5156C166.999 22.5393 167.07 20.8429 167.202 18.4263C167.276 17.2465 167.326 16.1783 167.352 15.2217C167.378 14.265 167.376 13.5043 167.346 12.9395C167.346 12.545 167.339 12.2912 167.325 12.1778C167.293 12.0636 167.248 12.024 167.19 12.0588C167.131 12.1124 166.879 12.6828 166.434 13.77C165.988 14.8573 165.443 16.2685 164.799 18.0038C164.286 19.3133 163.838 20.4567 163.455 21.4341C163.071 22.4116 162.721 23.2498 162.407 23.9487C161.84 25.2368 161.356 26.1438 160.955 26.6697C160.574 27.1965 160.153 27.5618 159.693 27.7656C159.444 27.8667 159.188 27.9204 158.924 27.9268C158.681 27.9154 158.43 27.8567 158.172 27.7507C157.454 27.4354 156.929 26.6313 156.595 25.3385C156.261 24.0457 156.017 21.8462 155.862 18.74C155.829 18.2314 155.793 17.6005 155.753 16.8474C155.714 16.0755 155.68 15.4072 155.65 14.8423C155.601 13.8822 155.585 13.2147 155.603 12.8399C155.606 12.765 155.609 12.6994 155.612 12.6431C155.646 12.3254 155.78 12.0594 156.016 11.8451C156.193 11.6656 156.387 11.5338 156.598 11.4498C156.789 11.3836 157.024 11.3664 157.304 11.3984C157.696 11.4543 158.008 11.6098 158.24 11.8648C158.473 12.1198 158.607 12.4548 158.644 12.8697C158.657 12.9831 158.685 13.3975 158.727 14.1132C158.768 14.8288 158.806 15.6288 158.84 16.5131C158.972 18.9046 159.071 20.5808 159.139 21.5418C159.226 22.5037 159.306 22.9864 159.381 22.9899C159.437 23.0113 159.613 22.6627 159.909 21.9441C160.206 21.2256 160.729 19.879 161.479 17.9045C162.336 15.6534 162.975 14.0306 163.397 13.0361C163.802 12.0221 164.159 11.2031 164.47 10.5791C164.907 9.67927 165.315 8.9847 165.695 8.4954C166.056 8.00522 166.448 7.64798 166.872 7.42367C167.083 7.32089 167.246 7.25339 167.36 7.22118C167.474 7.20771 167.633 7.20581 167.84 7.21547C167.858 7.21634 167.877 7.21722 167.896 7.2181C169.057 7.29129 169.806 8.13401 170.144 9.74625C170.5 11.3594 170.553 14.2354 170.303 18.3744C170.256 19.3676 170.226 20.0235 170.211 20.3421C170.215 20.6616 170.235 20.8222 170.273 20.824C170.291 20.8248 170.371 20.7346 170.511 20.5534C170.651 20.3721 170.802 20.1538 170.964 19.8985C171.632 18.878 172.3 18.0454 172.969 17.4006C173.637 16.7558 174.277 16.3256 174.888 16.1101C175.156 16.01 175.365 15.954 175.516 15.9423C175.667 15.9306 175.91 15.942 176.247 15.9766C176.582 16.0299 176.815 16.0783 176.944 16.122C177.074 16.1656 177.229 16.2574 177.41 16.3973C177.974 16.7994 178.387 17.3916 178.651 18.174C178.933 18.976 179.076 20.1378 179.08 21.6592C179.089 22.2607 179.076 22.9269 179.042 23.6577C179.03 23.9201 179.017 24.1918 179.004 24.4729C178.936 25.5215 178.833 26.7281 178.694 28.0926C178.61 29.0653 178.544 29.6914 178.493 29.9707C178.461 30.2509 178.404 30.4643 178.322 30.6107C178.2 30.8115 178.08 30.9562 177.964 31.0446C177.846 31.1518 177.682 31.2474 177.471 31.3315C177.3 31.3798 177.121 31.3995 176.933 31.3908C176.877 31.3881 176.83 31.3859 176.793 31.3842C176.531 31.3531 176.3 31.2766 176.099 31.1545ZM181.986 29.3738C181.45 29.1796 181.005 28.8676 180.649 28.4378C180.293 28.0267 180.017 27.4973 179.822 26.8496C179.642 26.2964 179.535 25.7749 179.501 25.285C179.485 24.8335 179.507 23.9706 179.566 22.6963C179.569 22.64 179.572 22.5838 179.574 22.5276C179.621 21.5344 179.665 20.7852 179.708 20.2801C179.749 19.7937 179.863 18.9726 180.048 17.8169C180.122 17.4447 180.199 17.007 180.279 16.5036C180.359 16.0002 180.452 15.4224 180.557 14.77C180.661 14.1551 180.816 13.2514 181.023 12.0591C180.951 11.9806 180.852 11.8821 180.727 11.7635C180.331 11.3881 180.154 10.9478 180.197 10.4427C180.259 9.91975 180.512 9.51844 180.958 9.2388C181.131 9.13426 181.738 9.02181 182.776 8.90145C183.816 8.76234 185.07 8.64271 186.54 8.54255C187.199 8.49832 187.679 8.48324 187.979 8.49729C188.054 8.5008 188.11 8.50343 188.148 8.50519C188.409 8.53622 188.657 8.66052 188.891 8.87808C189.035 9.01629 189.157 9.20047 189.259 9.43062C189.36 9.67952 189.407 9.88829 189.399 10.057C189.388 10.3006 189.291 10.559 189.109 10.8322C188.928 11.0867 188.713 11.2738 188.463 11.3935C188.405 11.4284 188.187 11.4651 187.81 11.5038C187.413 11.5603 186.979 11.6057 186.508 11.64C185.282 11.7328 184.594 11.8038 184.441 11.853C184.289 11.8835 184.189 12.029 184.139 12.2896C184.066 12.643 183.991 13.0433 183.914 13.4905C183.837 13.9189 183.76 14.366 183.682 14.8319C183.548 15.6708 183.429 16.4258 183.322 17.0969C183.234 17.769 183.2 18.1054 183.218 18.1063C183.237 18.1072 183.313 18.0919 183.446 18.0606C183.598 18.0302 183.769 17.9818 183.96 17.9157C184.548 17.793 185 17.7578 185.317 17.8102C185.653 17.8635 185.936 18.027 186.167 18.3008C186.434 18.6138 186.548 18.9854 186.509 19.4156C186.49 19.8279 186.314 20.1765 185.982 20.4614C185.883 20.5507 185.72 20.6276 185.492 20.692C185.263 20.7751 184.919 20.8811 184.463 21.01C183.722 21.1819 183.247 21.3099 183.036 21.3939C182.825 21.4967 182.698 21.6034 182.655 21.7141C182.61 21.8623 182.572 22.2737 182.541 22.9483C182.528 23.6239 182.531 24.1593 182.55 24.5546C182.587 24.9695 182.635 25.338 182.695 25.6601C182.755 25.9822 182.83 26.2017 182.918 26.3185C183.006 26.4353 183.164 26.4896 183.389 26.4814C183.634 26.4741 183.938 26.3945 184.302 26.2425C184.724 26.0557 185.168 25.7948 185.635 25.4598C186.1 25.1435 186.657 24.6907 187.304 24.1012C187.931 23.5484 188.37 23.2027 188.62 23.0642C188.87 22.9444 189.172 22.921 189.525 22.9939C189.692 23.0393 189.822 23.0829 189.914 23.1248C190.023 23.1863 190.14 23.2951 190.264 23.4511C190.515 23.7258 190.66 24.0237 190.702 24.3449C190.717 24.4208 190.722 24.5056 190.718 24.5993C190.707 24.8241 190.64 25.0558 190.516 25.2941C190.456 25.3852 190.249 25.5915 189.896 25.913C189.542 26.2533 189.159 26.5922 188.749 26.9298C188.475 27.1611 188.211 27.3835 187.957 27.597C187.704 27.7917 187.499 27.9512 187.343 28.0753C186.315 28.7784 185.345 29.24 184.433 29.4603C183.958 29.5695 183.505 29.614 183.074 29.5938C182.7 29.5762 182.337 29.5029 181.986 29.3738ZM77.015 35.417C77.829 35.6805 78.5441 36.0521 79.1602 36.5317C79.7763 37.0114 80.276 37.5701 80.6593 38.2078C80.9702 38.7858 81.1836 39.4438 81.2992 40.1817C81.371 40.6546 81.3963 41.1159 81.3752 41.5657C81.3612 41.8655 81.3288 42.1551 81.2782 42.4345C81.0258 43.8125 80.4949 45.1211 79.6856 46.3603C78.8763 47.5995 77.7381 48.8421 76.2711 50.088C75.9982 50.3006 75.6072 50.6298 75.098 51.0754C75.076 51.544 75.0614 52.257 75.0541 53.2145C75.016 54.8279 74.9767 55.8684 74.936 56.3361C74.914 56.8046 74.8527 57.1116 74.7519 57.2571C74.5487 57.5857 74.2562 57.8161 73.8744 57.9485C73.6826 58.0334 73.493 58.0715 73.3056 58.0627C73.1369 58.0548 72.97 58.0094 72.8049 57.9265C72.621 57.8428 72.4571 57.7318 72.3134 57.5936C72.1696 57.4554 72.0642 57.3002 71.9971 57.128C71.947 56.9942 71.9103 56.7765 71.8869 56.4749C71.8813 56.1929 71.8898 55.6111 71.9123 54.7294C71.9199 54.1663 71.9341 53.4627 71.9549 52.6185C71.9578 51.7547 71.9727 50.8351 71.9996 49.8597C72.0295 48.0205 72.0513 46.1528 72.065 44.2565C72.0975 42.3611 72.1169 40.944 72.1234 40.0052C72.1395 38.8603 72.1367 38.1183 72.115 37.7792C72.0942 37.4214 72.0503 37.1564 71.9832 36.9842C71.9001 36.755 71.8637 36.5279 71.8743 36.303C71.8848 36.0781 71.9418 35.8648 72.0451 35.6631C72.2715 35.2417 72.6313 34.9768 73.1247 34.8685C73.2006 34.8533 73.2952 34.8389 73.4085 34.8254C73.5022 34.8298 73.5959 34.8342 73.6896 34.8386C73.7271 34.8404 73.7645 34.8421 73.802 34.8439C74.2697 34.8846 74.8203 34.9573 75.454 35.0622C76.0876 35.167 76.6079 35.2853 77.015 35.417ZM75.2147 42.5729C75.2039 43.6054 75.1898 44.5062 75.1726 45.2755C75.1553 46.0447 75.1453 46.4574 75.1427 46.5136C75.1357 46.6636 75.1696 46.7403 75.2446 46.7438C75.2446 46.7438 75.2633 46.7447 75.3008 46.7464C75.3972 46.6946 75.5835 46.5249 75.86 46.2374C76.2166 45.8409 76.5563 45.406 76.8789 44.9328C77.2007 44.4784 77.4552 44.0583 77.6423 43.6727C78.02 42.8265 78.2345 42.0571 78.2857 41.3646C78.3007 41.046 78.2683 40.7346 78.1886 40.4303C77.9863 39.5381 77.3964 38.9001 76.419 38.5162C76.253 38.4521 76.0776 38.3875 75.8928 38.3225C75.7071 38.2763 75.5862 38.2518 75.53 38.2492C75.5112 38.2483 75.4925 38.2474 75.4738 38.2465C75.455 38.2457 75.4367 38.2354 75.4189 38.2158C75.3626 38.2132 75.3221 38.277 75.2972 38.4073C75.2749 38.4814 75.2594 38.6121 75.2506 38.7995C75.2419 38.9869 75.2403 39.2216 75.2458 39.5036C75.23 39.8409 75.2201 40.2537 75.216 40.7418C75.211 41.2486 75.2106 41.859 75.2147 42.5729ZM84.0411 56.8191C83.5056 56.6249 83.06 56.313 82.7045 55.8831C82.3482 55.472 82.0725 54.9426 81.8775 54.2949C81.6968 53.7417 81.5897 53.2202 81.5564 52.7304C81.54 52.2788 81.5616 51.4159 81.6213 50.1416C81.624 50.0853 81.6266 50.0291 81.6292 49.9729C81.6758 48.9797 81.7203 48.2305 81.7627 47.7254C81.8043 47.239 81.9179 46.4179 82.1035 45.2622C82.1773 44.89 82.2542 44.4523 82.3341 43.9489C82.414 43.4456 82.5069 42.8677 82.6126 42.2153C82.7165 41.6004 82.8715 40.6967 83.0777 39.5044C83.0062 39.4259 82.9075 39.3274 82.7816 39.2088C82.386 38.8334 82.2094 38.3931 82.2519 37.888C82.314 37.3651 82.5675 36.9638 83.0126 36.6841C83.1865 36.5796 83.7928 36.4671 84.8314 36.3468C85.8709 36.2077 87.1255 36.088 88.5952 35.9879C89.2546 35.9436 89.7342 35.9285 90.0341 35.9426C90.109 35.9461 90.1652 35.9487 90.2027 35.9505C90.4642 35.9815 90.7119 36.1058 90.9459 36.3234C91.0897 36.4616 91.2125 36.6458 91.3144 36.8759C91.4154 37.1248 91.462 37.3336 91.4541 37.5023C91.4427 37.7459 91.3461 38.0043 91.1642 38.2775C90.9833 38.532 90.7679 38.7191 90.5181 38.8388C90.4602 38.8737 90.2424 38.9104 89.865 38.9491C89.4679 39.0056 89.0338 39.051 88.5627 39.0853C87.3376 39.1781 86.6487 39.2491 86.4961 39.2983C86.3445 39.3288 86.2437 39.4743 86.194 39.7349C86.1211 40.0884 86.046 40.4886 85.9687 40.9358C85.8922 41.3642 85.8149 41.8113 85.7368 42.2772C85.6035 43.1161 85.4836 43.8711 85.3771 44.5423C85.2892 45.2143 85.2547 45.5507 85.2734 45.5516C85.2922 45.5525 85.368 45.5373 85.5009 45.5059C85.6526 45.4755 85.8239 45.4271 86.0148 45.361C86.6028 45.2383 87.0552 45.2031 87.372 45.2555C87.7076 45.3088 87.9911 45.4724 88.2224 45.7461C88.4894 46.0592 88.6035 46.4307 88.5646 46.8609C88.5452 47.2732 88.3693 47.6218 88.0366 47.9067C87.9385 47.996 87.7753 48.0729 87.5469 48.1373C87.3176 48.2205 86.9746 48.3265 86.5178 48.4553C85.7773 48.6272 85.3017 48.7552 85.0912 48.8392C84.8798 48.942 84.7527 49.0487 84.71 49.1594C84.6654 49.3076 84.6274 49.719 84.5958 50.3936C84.5829 51.0692 84.586 51.6046 84.605 51.9999C84.6419 52.4148 84.6904 52.7833 84.7504 53.1054C84.8104 53.4275 84.8847 53.647 84.9731 53.7638C85.0615 53.8806 85.2186 53.935 85.4444 53.9268C85.6889 53.9194 85.9931 53.8398 86.3571 53.6878C86.7791 53.501 87.2233 53.2401 87.6897 52.9051C88.1553 52.5888 88.7118 52.136 89.3592 51.5465C89.9861 50.9937 90.4249 50.648 90.6755 50.5095C90.9253 50.3897 91.2269 50.3663 91.5803 50.4392C91.7472 50.4846 91.8767 50.5282 91.9686 50.5701C92.0784 50.6316 92.1954 50.7404 92.3196 50.8964C92.5696 51.1711 92.7153 51.469 92.7566 51.7903C92.7718 51.8661 92.7772 51.9509 92.7729 52.0446C92.7623 52.2695 92.6951 52.5011 92.5713 52.7394C92.5106 52.8305 92.3038 53.0368 91.9506 53.3583C91.5966 53.6986 91.2145 54.0375 90.8043 54.3751C90.5305 54.6065 90.2665 54.8289 90.0124 55.0423C89.7591 55.2371 89.5544 55.3965 89.3983 55.5206C88.37 56.2237 87.3999 56.6854 86.488 56.9056C86.0134 57.0148 85.5605 57.0593 85.1295 57.0391C84.7547 57.0215 84.3919 56.9482 84.0411 56.8191ZM101.614 38.3165C102.085 38.6953 102.496 39.1372 102.848 39.642C103.18 40.1647 103.427 40.7115 103.588 41.2825C103.687 41.5876 103.74 41.8437 103.749 42.0507C103.758 42.2577 103.761 42.6147 103.756 43.1215C103.736 43.5338 103.702 43.8703 103.652 44.1309C103.621 44.3924 103.572 44.6436 103.504 44.8846C103.239 45.7361 102.84 46.619 102.309 47.5332C101.759 48.4465 101.117 49.3273 100.382 50.1756C100.244 50.3193 100.125 50.4546 100.025 50.5814C99.9255 50.7082 99.8756 50.7716 99.8756 50.7716C99.8747 50.7903 100.062 51.0057 100.437 51.4177C100.794 51.8101 101.232 52.2907 101.75 52.8596C102.696 53.8994 103.284 54.5843 103.513 54.9143C103.759 55.2639 103.876 55.5793 103.863 55.8604C103.849 56.1603 103.742 56.4463 103.541 56.7187C103.34 56.991 103.107 57.1678 102.84 57.2493C102.668 57.3163 102.442 57.3339 102.161 57.302C101.9 57.2709 101.696 57.2144 101.55 57.1324C101.476 57.0914 101.243 56.8645 100.849 56.4516C100.436 56.0379 99.98 55.5564 99.4799 55.0071C98.9789 54.4765 98.5404 54.0146 98.1644 53.6213C97.7884 53.2281 97.5817 53.0306 97.5442 53.0288C97.5067 53.0271 97.4585 53.053 97.3997 53.1066C97.3221 53.1593 97.2534 53.2218 97.1937 53.2941C97.0555 53.4379 96.9811 53.6222 96.9706 53.8471C96.9404 54.0898 96.9338 54.8314 96.9508 56.0718C96.9497 56.8981 96.9443 57.4143 96.9346 57.6205C96.9071 57.807 96.8514 57.9922 96.7677 58.1761C96.6233 58.4511 96.4446 58.6587 96.2314 58.7989C95.9995 58.9383 95.7243 59.0005 95.4057 58.9856C95.3486 59.0017 95.2919 59.0085 95.2357 59.0058C95.1232 59.0006 95.0206 58.9864 94.9278 58.9632C94.8162 58.9392 94.706 58.8871 94.5971 58.8069C94.3953 58.7035 94.2247 58.5359 94.0853 58.304C93.9638 58.0917 93.8896 57.8722 93.8627 57.6456C93.8501 57.5135 93.8423 57.2784 93.8394 56.9402C93.8356 56.6207 93.8353 56.2263 93.8385 55.7569C93.8244 54.8547 93.8285 53.7656 93.8507 52.4895C93.8738 51.1947 93.8987 49.8623 93.9253 48.4925C93.9414 47.3476 93.966 46.2219 93.9991 45.1153C94.0322 44.0088 94.0698 43.0057 94.1119 42.1062C94.1151 41.6368 94.1396 40.9149 94.1852 39.9404C94.0933 39.8985 93.9451 39.854 93.7407 39.8069C93.4631 39.7187 93.2427 39.6145 93.0793 39.4941C92.9346 39.3747 92.8015 39.2088 92.68 38.9965C92.5602 38.7467 92.5061 38.5 92.5175 38.2564C92.5254 38.0877 92.5614 37.9204 92.6255 37.7544C92.7769 37.3295 93.0631 37.033 93.4842 36.8649C93.5796 36.8318 93.7786 36.7942 94.0811 36.752C94.4023 36.7107 94.7606 36.6806 95.1559 36.6615C95.4013 36.6355 95.6458 36.6281 95.8894 36.6396C96.1151 36.6314 96.3498 36.633 96.5935 36.6444C96.6122 36.6453 96.6309 36.6461 96.6497 36.647C97.6429 36.6936 98.5466 36.8486 99.3606 37.1121C100.192 37.3953 100.944 37.7967 101.614 38.3165ZM97.1834 43.2925C97.0912 45.2602 97.0419 46.7135 97.0355 47.6523C97.0299 48.5723 97.0646 49.0341 97.1396 49.0376C97.1583 49.0384 97.2364 48.9764 97.3737 48.8513C97.4923 48.7254 97.6309 48.5723 97.7896 48.3919C98.4628 47.6534 99.0227 46.9284 99.4692 46.2168C99.9157 45.5053 100.239 44.8255 100.438 44.1775C100.569 43.7892 100.643 43.417 100.659 43.061C100.671 42.8174 100.664 42.5729 100.637 42.3275C100.532 41.7779 100.282 41.306 99.8868 40.9119C99.635 40.6747 99.2609 40.4412 98.7646 40.2113C98.2674 40.0002 97.8595 39.8872 97.5409 39.8722C97.5034 39.8705 97.4378 39.8674 97.3441 39.863C97.309 40.6126 97.2555 41.7558 97.1834 43.2925ZM106.299 59.7778C105.988 59.613 105.772 59.415 105.651 59.184C105.548 58.9726 105.438 58.526 105.319 57.8444C105.179 56.8236 105.072 55.7105 104.997 54.5049C104.923 53.2807 104.89 51.7766 104.899 49.9928C104.906 49.0353 104.927 47.9845 104.962 46.8405C104.997 45.6777 105.039 44.3931 105.086 42.9867C105.135 41.5428 105.178 40.4179 105.216 39.6121C105.229 39.331 105.241 39.0874 105.25 38.8812C105.287 38.0942 105.336 37.6457 105.398 37.5359C105.634 36.9084 106.081 36.5725 106.741 36.5283C106.816 36.5318 106.881 36.5349 106.938 36.5375C107.5 36.5639 107.919 36.8464 108.194 37.3852C108.263 37.5199 108.303 37.6626 108.315 37.8134C108.345 37.9651 108.346 38.3408 108.318 38.9405C108.325 39.2037 108.319 39.5321 108.3 39.9257C108.283 40.3005 108.262 40.7409 108.238 41.2469C108.19 42.672 108.165 43.6193 108.161 44.0887C108.158 44.558 108.175 44.7936 108.213 44.7954C108.288 44.7989 108.579 44.5965 109.086 44.1884C109.594 43.7802 110.122 43.326 110.672 42.8259C111.299 42.2543 111.891 41.6528 112.446 41.0215C113.002 40.3902 113.561 39.6933 114.122 38.9308C114.724 38.1138 115.075 37.6419 115.174 37.5151C115.293 37.3892 115.448 37.2838 115.64 37.1989C116.063 36.9933 116.494 37.0041 116.934 37.2314C117.375 37.4398 117.651 37.7814 117.76 38.2561C117.81 38.3899 117.832 38.5224 117.826 38.6536C117.82 38.7847 117.785 38.9146 117.723 39.0431C117.636 39.302 117.401 39.7042 117.018 40.2497C116.051 41.6506 114.976 42.9524 113.793 44.1553C112.61 45.3395 111.309 46.4524 109.889 47.494C109.696 47.6164 109.54 47.7405 109.421 47.8664C109.285 47.9727 109.216 48.0446 109.214 48.0821C109.21 48.157 109.507 48.4339 110.105 48.9127C110.703 49.3727 111.393 49.8745 112.175 50.4183C112.593 50.7196 113.021 51.012 113.458 51.2954C113.896 51.5788 114.297 51.8324 114.662 52.0561C115.027 52.2798 115.346 52.4826 115.62 52.6644C115.893 52.8463 116.057 52.9573 116.111 52.9974C116.218 53.1151 116.313 53.2886 116.397 53.5178C116.479 53.7659 116.525 53.9746 116.536 54.1442C116.515 54.5939 116.309 54.9787 115.919 55.2985C115.51 55.5986 115.092 55.7011 114.665 55.6059C114.479 55.5597 114.058 55.3333 113.401 54.9269C112.743 54.5392 112.049 54.103 111.321 53.6181C110.92 53.3551 110.529 53.0926 110.146 52.8305C109.784 52.5506 109.458 52.3006 109.167 52.0804C108.913 51.8994 108.686 51.7385 108.486 51.5977C108.286 51.4568 108.176 51.386 108.158 51.3851C108.064 51.3807 108.021 51.698 108.028 52.3369C108.017 52.9749 108.048 53.7276 108.12 54.5949C108.135 55.0652 108.169 55.5457 108.221 56.0365C108.274 56.5085 108.338 56.9622 108.411 57.3976C108.495 58.0213 108.511 58.4635 108.462 58.7241C108.431 58.9668 108.298 59.2048 108.062 59.4378C107.825 59.6897 107.545 59.8456 107.223 59.9056C107.11 59.9191 106.997 59.9232 106.884 59.9179C106.697 59.9092 106.502 59.8625 106.299 59.7778ZM123.297 58.9685C122.833 58.8529 122.417 58.7113 122.049 58.5438C121.68 58.3951 121.434 58.2427 121.31 58.0866C121.024 57.7727 120.881 57.4185 120.881 57.0241C120.9 56.6118 121.057 56.2624 121.352 55.9757C121.627 55.7256 121.888 55.5782 122.134 55.5334C122.398 55.5082 122.789 55.5735 123.308 55.7293C123.938 55.909 124.441 55.989 124.818 55.969C125.213 55.95 125.586 55.8172 125.935 55.5707C126.148 55.4304 126.277 55.2955 126.321 55.1661C126.383 55.0376 126.371 54.8961 126.284 54.7418C126.166 54.4546 125.888 54.1786 125.45 53.9139C124.992 53.6483 124.275 53.3236 123.298 52.9397C121.786 52.343 120.631 51.7348 119.834 51.1152C119.056 50.4778 118.463 49.6987 118.056 48.7781C117.718 47.9735 117.57 47.1214 117.612 46.2219C117.617 46.1094 117.622 46.0063 117.626 45.9126C117.73 44.9033 118.068 43.9049 118.64 42.9175C119.254 41.8382 120.107 40.8734 121.198 40.023C122.271 39.1718 123.388 38.5949 124.548 38.2924C125.308 38.1027 126.044 38.0245 126.756 38.0578C126.775 38.0587 126.793 38.0596 126.812 38.0605C127.543 38.0947 128.305 38.2619 129.099 38.562C129.56 38.7339 129.899 38.9188 130.115 39.1168C130.35 39.3156 130.498 39.5573 130.56 39.8419C130.607 40.0507 130.627 40.2207 130.621 40.3519C130.62 40.3706 130.619 40.3893 130.618 40.4081C130.593 40.5384 130.519 40.7133 130.396 40.933C130.17 41.3543 129.877 41.6035 129.516 41.6805C129.155 41.7763 128.688 41.7169 128.116 41.5022C127.654 41.3303 127.237 41.2263 126.863 41.19C126.49 41.1349 126.114 41.1455 125.734 41.2216C125.166 41.3264 124.602 41.5348 124.043 41.8466C123.484 42.1585 122.948 42.5654 122.436 43.0673C121.924 43.5692 121.514 44.104 121.206 44.6718C120.916 45.2404 120.759 45.7965 120.733 46.34C120.713 46.771 120.753 47.1297 120.852 47.4161C120.952 47.6837 121.154 47.9843 121.458 48.3178C121.779 48.6709 122.123 48.95 122.489 49.1549C122.836 49.359 123.489 49.6526 124.448 50.0356C125.277 50.3749 125.94 50.6689 126.435 50.9175C126.931 51.1661 127.35 51.4299 127.694 51.709C128.382 52.2483 128.879 52.8632 129.185 53.5537C129.49 54.2629 129.57 54.9615 129.425 55.6497C129.162 56.8581 128.414 57.7903 127.181 58.4462C126.276 58.9297 125.336 59.1486 124.361 59.1029C124.024 59.0871 123.669 59.0423 123.297 58.9685Z" fill="#FFBE00"/>
<path d="M58.9854 28.8091C59.6964 29.768 61.0501 29.9689 62.009 29.258C62.9678 28.547 63.1688 27.1933 62.4578 26.2344L58.9854 28.8091ZM0.251777 23.7898C0.217387 24.983 1.15679 25.9782 2.34999 26.0125L21.7943 26.573C22.9875 26.6073 23.9827 25.6679 24.0171 24.4747C24.0515 23.2815 23.1121 22.2864 21.9189 22.252L4.63501 21.7538L5.13315 4.46999C5.16754 3.27679 4.22814 2.28163 3.03494 2.24724C1.84174 2.21285 0.846577 3.15225 0.812187 4.34545L0.251777 23.7898ZM62.4578 26.2344C57.9795 20.1946 49.5524 12.7307 38.7012 10.0125C27.6788 7.25141 14.493 9.47596 0.928597 22.2803L3.89592 25.4238C16.492 13.5334 28.1927 11.8365 37.6508 14.2057C47.2801 16.6179 54.9275 23.3362 58.9854 28.8091L62.4578 26.2344Z" fill="#FFBE00"/>
</svg>
