<svg width="119" height="46" viewBox="0 0 119 46" fill="none" xmlns="http://www.w3.org/2000/svg">
<path d="M42.8976 12.4164C43.0256 12.4312 43.1356 12.4694 43.2277 12.531C43.3197 12.5926 43.4158 12.6851 43.5159 12.8086C43.5666 12.8756 43.6146 12.9218 43.66 12.9475C43.7053 12.9731 43.7913 12.9881 43.918 12.9927C44.7582 13.0725 45.4988 13.5171 46.1399 14.3266C46.7912 15.1347 47.1935 16.1276 47.3467 17.3051C47.4529 18.1212 47.4219 18.892 47.2537 19.6177C47.0854 20.3434 46.7915 20.9909 46.3719 21.5602C46.1023 21.9104 45.8182 22.189 45.5194 22.3959C45.2091 22.5939 44.8744 22.7267 44.5156 22.7944C44.4639 22.8011 44.4175 22.8071 44.3761 22.8125C44.3038 22.8219 44.2257 22.8268 44.1417 22.8272C44.0267 22.8317 43.9266 22.829 43.8413 22.8191C43.597 22.7983 43.3738 22.7381 43.1717 22.6383C42.971 22.5489 42.7546 22.4195 42.5225 22.2501C42.0659 21.8893 41.7076 21.4369 41.4478 20.893C41.1983 20.3477 41.0198 19.6619 40.9123 18.8355C40.9109 18.8252 40.9096 18.8149 40.9082 18.8045C40.8061 18.0195 40.792 17.265 40.8659 16.5411C40.9411 15.8275 41.1125 15.0856 41.3799 14.3155C41.4932 13.9752 41.6368 13.6256 41.8107 13.2668C41.9847 12.9081 42.1134 12.6865 42.197 12.6021C42.2536 12.5527 42.3218 12.5123 42.4018 12.4809C42.4817 12.4495 42.563 12.4284 42.6457 12.4176C42.687 12.4123 42.7283 12.4069 42.7696 12.4015C42.8123 12.4065 42.8549 12.4114 42.8976 12.4164ZM43.0841 14.8186C42.9978 14.8824 42.9003 15.1419 42.7915 15.5973C42.6813 16.0423 42.6072 16.4826 42.5694 16.9182C42.5193 17.5025 42.5286 18.058 42.5971 18.5848C42.6294 18.8327 42.6764 19.0735 42.7383 19.307C42.9177 20.04 43.1852 20.5619 43.5408 20.8728C43.7056 21.0089 43.8733 21.0869 44.0439 21.1067C44.0866 21.1117 44.1337 21.1108 44.1854 21.1041C44.299 21.0893 44.4189 21.0422 44.5452 20.9627C44.8169 20.7908 45.0519 20.4977 45.2501 20.0832C45.4496 19.6791 45.5836 19.2152 45.652 18.6916C45.6881 18.4033 45.6924 18.1138 45.6651 17.8233C45.6647 17.7393 45.6598 17.6612 45.6504 17.5888C45.6222 17.3719 45.5785 17.157 45.5192 16.9441C45.3771 16.4164 45.1693 15.9497 44.8959 15.5441C44.6122 15.1398 44.3002 14.881 43.9598 14.7677C43.8732 14.7475 43.7768 14.7338 43.6708 14.7266C43.5649 14.7193 43.4654 14.7218 43.3724 14.7339C43.3724 14.7339 43.3673 14.7345 43.3569 14.7359C43.3053 14.7426 43.2543 14.7545 43.204 14.7715C43.1537 14.7886 43.1137 14.8043 43.0841 14.8186ZM54.1187 21.6396C54.0321 21.6194 53.9362 21.5688 53.8311 21.4879C53.7377 21.416 53.6599 21.3421 53.5975 21.2662C53.5701 21.2173 53.536 21.1167 53.4952 20.9644C53.4543 20.8121 53.4086 20.5817 53.358 20.2732C53.2768 19.811 53.2159 19.5038 53.1751 19.3516C53.1446 19.198 53.1138 19.1232 53.0828 19.1272C53.0725 19.1286 53.0521 19.1733 53.0215 19.2613C52.9793 19.3403 52.939 19.4348 52.9008 19.5448C52.7885 19.8116 52.6727 20.0525 52.5536 20.2675C52.4242 20.484 52.2728 20.6927 52.0994 20.8939C51.8554 21.1987 51.5904 21.4223 51.3043 21.5645C51.0078 21.7082 50.7103 21.7626 50.4117 21.7279C49.6657 21.6464 49.0531 21.0958 48.5738 20.0762C48.0856 19.0683 47.6803 17.4876 47.3582 15.3341C47.3021 14.9842 47.2567 14.675 47.2217 14.4064C47.2177 14.3754 47.2143 14.3496 47.2116 14.3289C47.174 14.0397 47.1577 13.8738 47.1626 13.8311C47.1725 13.7458 47.2217 13.6396 47.3103 13.5125C47.3988 13.3855 47.4875 13.3004 47.5764 13.2573C47.673 13.1922 47.784 13.1568 47.9093 13.151C48.0332 13.1349 48.1502 13.1459 48.2602 13.1841C48.4906 13.2592 48.6423 13.376 48.7155 13.5345C48.79 13.7034 48.8805 14.1171 48.9872 14.7755C49.1526 15.8044 49.3086 16.6402 49.4552 17.2829C49.6005 17.9153 49.7739 18.481 49.9754 18.98C50.071 19.2302 50.1728 19.448 50.281 19.6336C50.3878 19.8087 50.4749 19.913 50.5423 19.9462C50.5979 19.9705 50.6676 19.9404 50.7511 19.856C50.845 19.7703 50.9425 19.6315 51.0436 19.4398C51.3932 18.8166 51.6589 17.9522 51.8407 16.8465C52.0109 15.7319 52.1077 14.296 52.1312 12.5387C52.1291 12.1188 52.1406 11.8442 52.1658 11.7149C52.1923 11.5958 52.2557 11.4773 52.3559 11.3592C52.4381 11.2645 52.534 11.1942 52.6436 11.1485C52.7132 11.1184 52.7842 11.0987 52.8565 11.0893C52.9185 11.0812 52.9753 11.0738 53.0269 11.0671C53.1432 11.073 53.2461 11.0964 53.3354 11.1373C53.4261 11.1885 53.5312 11.2694 53.6506 11.3799C53.6856 11.4068 53.7395 11.4576 53.8122 11.5322C53.9287 12.3469 54.0983 13.5696 54.321 15.2003C54.467 16.2423 54.603 17.2067 54.7289 18.0937C54.8651 18.9794 54.9559 19.5559 55.0011 19.8231C55.0661 20.1613 55.1101 20.4182 55.1329 20.5938C55.145 20.6867 55.1544 20.759 55.1611 20.8107C55.162 20.9787 55.1233 21.1255 55.0451 21.2512C54.9593 21.3989 54.8268 21.5107 54.6476 21.5866C54.5573 21.6193 54.476 21.6404 54.4037 21.6498C54.3004 21.6632 54.2054 21.6598 54.1187 21.6396ZM58.5476 10.5065C58.8417 10.6678 59.1095 10.8693 59.3511 11.111C59.5836 11.3643 59.7717 11.6393 59.9153 11.9357C59.9988 12.0929 60.0531 12.2277 60.0782 12.3399C60.1033 12.4522 60.1392 12.6471 60.1858 12.9247C60.2153 13.152 60.2292 13.3392 60.2273 13.4865C60.2358 13.6325 60.2333 13.7746 60.2198 13.9129C60.1577 14.4042 60.0259 14.9256 59.8245 15.477C59.6128 16.0298 59.3474 16.5738 59.0284 17.109C58.9668 17.201 58.9149 17.2866 58.8727 17.3656C58.8305 17.4446 58.8093 17.4841 58.8093 17.4841C58.8107 17.4945 58.9339 17.594 59.1791 17.7827C59.4125 17.9624 59.6985 18.1825 60.0371 18.4431C60.6558 18.9194 61.0437 19.2366 61.2008 19.3947C61.3696 19.5618 61.4641 19.7228 61.4842 19.8778C61.5057 20.0431 61.4749 20.2099 61.3918 20.3783C61.3087 20.5467 61.1981 20.6661 61.0602 20.7365C60.9726 20.79 60.8507 20.8216 60.6944 20.8314C60.5485 20.8399 60.4315 20.8288 60.3435 20.7983C60.2995 20.783 60.1497 20.6817 59.8942 20.4943C59.6284 20.3083 59.3321 20.0895 59.0053 19.8379C58.6797 19.5966 58.3951 19.3868 58.1513 19.2084C57.9075 19.0301 57.7753 18.9422 57.7546 18.9449C57.7339 18.9476 57.7101 18.9664 57.6832 19.0015C57.6459 19.0378 57.6144 19.0787 57.5888 19.124C57.5273 19.2161 57.5046 19.3241 57.5207 19.448C57.5278 19.5837 57.5964 19.9897 57.7264 20.666C57.8062 21.1179 57.8535 21.4006 57.8683 21.5142C57.8714 21.6188 57.859 21.7255 57.8311 21.8342C57.779 21.9985 57.7014 22.1294 57.5986 22.2268C57.4854 22.3256 57.341 22.3864 57.1654 22.4092C57.1357 22.4236 57.1054 22.4328 57.0744 22.4368C57.0124 22.4449 56.9549 22.4471 56.9019 22.4435C56.8386 22.4412 56.7733 22.4235 56.7059 22.3902C56.5856 22.3534 56.476 22.2783 56.3773 22.1651C56.2902 22.0609 56.2282 21.9482 56.1915 21.8269C56.1717 21.7559 56.1446 21.6281 56.1101 21.4436C56.0769 21.2693 56.0384 21.0537 55.9944 20.7968C55.8989 20.305 55.7952 19.7093 55.6831 19.0095C55.5698 18.2995 55.4537 17.5688 55.3349 16.8174C55.2323 16.19 55.1362 15.5722 55.0466 14.9641C54.9569 14.356 54.8799 13.804 54.8154 13.3082C54.7714 13.0513 54.7145 12.6543 54.6447 12.1172C54.5903 12.1032 54.505 12.0933 54.3887 12.0874C54.2284 12.0663 54.0977 12.0308 53.9967 11.9809C53.906 11.9297 53.8171 11.8519 53.73 11.7477C53.6402 11.6228 53.5866 11.4932 53.5691 11.359C53.557 11.266 53.5604 11.171 53.5793 11.074C53.6207 10.827 53.7483 10.6371 53.9621 10.5042C54.0111 10.4769 54.1162 10.4369 54.2774 10.3844C54.449 10.3306 54.6419 10.2793 54.8561 10.2304C54.9877 10.1922 55.1207 10.1644 55.255 10.147C55.3776 10.1205 55.506 10.0986 55.6403 10.0811C55.6506 10.0797 55.661 10.0784 55.6713 10.0771C56.2188 10.0058 56.7278 10.0026 57.1985 10.0675C57.6808 10.1413 58.1305 10.2876 58.5476 10.5065ZM56.6098 13.6578C56.7509 14.7424 56.8654 15.5416 56.9533 16.0554C57.0398 16.5588 57.1037 16.8079 57.145 16.8025C57.1553 16.8012 57.1919 16.7596 57.2548 16.6779C57.3074 16.5976 57.3683 16.5003 57.4375 16.3863C57.7336 15.9171 57.9691 15.4663 58.1439 15.0339C58.3188 14.6014 58.4292 14.1984 58.4751 13.8248C58.5089 13.5998 58.513 13.3892 58.4874 13.1929C58.47 13.0586 58.4422 12.9257 58.404 12.7941C58.2928 12.5039 58.1101 12.2704 57.8559 12.0933C57.6952 11.9882 57.468 11.8969 57.1743 11.8196C56.882 11.7526 56.648 11.7305 56.4724 11.7533C56.4517 11.756 56.4156 11.7607 56.3639 11.7675C56.4177 12.1806 56.4996 12.8107 56.6098 13.6578ZM65.5268 7.83376C66.9293 7.71432 68.1189 7.89571 69.0955 8.37791C70.0735 8.87045 70.7938 9.64335 71.2565 10.6966C71.3727 10.9441 71.468 11.2731 71.5424 11.6836C71.5702 11.8166 71.5922 11.945 71.6083 12.069C71.6406 12.3169 71.6533 12.5358 71.6465 12.7258C71.6261 13.2957 71.5069 13.8732 71.2889 14.4583C71.0709 15.0434 70.7673 15.5766 70.3783 16.0579C70.1357 16.373 69.8335 16.675 69.4719 16.9636C69.1116 17.2626 68.7626 17.4866 68.4249 17.6355C68.3552 17.6656 68.2856 17.6957 68.216 17.7257C68.158 17.7648 68.1201 17.796 68.1021 17.8193C68.0841 17.8427 68.0859 17.937 68.1074 18.1023C68.1289 18.2675 68.1849 18.6174 68.2755 19.1519C68.3965 19.8399 68.4588 20.2783 68.4623 20.4669C68.4748 20.6438 68.4317 20.7965 68.3328 20.9249C68.2456 21.0623 68.1324 21.1611 67.9932 21.2212C67.9146 21.2629 67.834 21.2892 67.7513 21.2999C67.679 21.3093 67.6105 21.3077 67.5459 21.2951C67.4929 21.2915 67.4282 21.2789 67.3519 21.2574C67.2859 21.2344 67.2302 21.2102 67.1848 21.1845C67.0371 21.0987 66.9318 20.9759 66.869 20.816C66.8049 20.6457 66.715 20.2372 66.5993 19.5905C66.5235 19.1697 66.4404 18.692 66.3499 18.1576C66.2607 17.6335 66.1681 17.0835 66.0722 16.5078C65.9015 15.4375 65.7327 14.3827 65.566 13.3435C65.4096 12.3029 65.2945 11.4985 65.2206 10.9304C65.1789 10.6102 65.1375 10.3319 65.0962 10.0957C65.0653 9.85812 65.0433 9.72968 65.0303 9.71036C65.0173 9.69104 64.9823 9.66409 64.9253 9.62949C64.8696 9.60522 64.8087 9.58162 64.7427 9.55869C64.4387 9.4827 64.2459 9.29244 64.1643 8.98793C64.1472 8.93762 64.1405 8.88597 64.1441 8.83298C64.1132 8.5954 64.1845 8.37604 64.3579 8.17491C64.4311 8.09185 64.5122 8.02878 64.6011 7.98569C64.6797 7.94395 64.8223 7.90965 65.0289 7.88277C65.0289 7.88277 65.0341 7.8821 65.0444 7.88075C65.1064 7.87269 65.1735 7.86396 65.2458 7.85455C65.3298 7.85413 65.4235 7.8472 65.5268 7.83376ZM66.8068 9.55804C66.7771 9.5724 66.7697 9.63639 66.7845 9.75002C66.7899 9.79134 66.7972 9.84815 66.8067 9.92046C66.8255 10.0651 66.8523 10.2717 66.8873 10.5402C66.9312 10.7971 66.9987 11.2348 67.0896 11.8532C67.1909 12.4703 67.2864 13.0829 67.376 13.691C67.4773 14.3081 67.562 14.8381 67.6301 15.2809C67.6982 15.7237 67.7381 15.9496 67.7498 15.9586C67.7628 15.9779 67.7899 15.9849 67.8313 15.9795C67.8416 15.9782 67.8564 15.971 67.8757 15.958C67.9364 15.9396 68.0246 15.8914 68.1405 15.8132C68.3337 15.6831 68.5093 15.5394 68.6674 15.3823C68.8256 15.2252 68.9804 15.0422 69.1318 14.8334C69.7118 14.0437 69.9654 13.2071 69.8925 12.3237C69.8947 12.2604 69.8918 12.1977 69.8838 12.1357C69.7803 11.3404 69.4134 10.7001 68.783 10.2148C68.7013 10.1519 68.5918 10.0769 68.4544 9.98972C68.3183 9.91288 68.1953 9.85535 68.0853 9.81714C67.9079 9.74568 67.6789 9.68093 67.3982 9.62291C67.1279 9.56353 66.9462 9.5399 66.8533 9.55199C66.8429 9.55333 66.8378 9.55401 66.8378 9.55401C66.8378 9.55401 66.8326 9.55468 66.8223 9.55602C66.8223 9.55602 66.8171 9.55669 66.8068 9.55804ZM75.8394 8.25689C76.1335 8.41822 76.4013 8.61972 76.6429 8.86142C76.8754 9.11479 77.0635 9.38969 77.2071 9.68614C77.2906 9.84336 77.3449 9.9781 77.37 10.0904C77.3951 10.2027 77.4309 10.3976 77.4776 10.6751C77.5071 10.9024 77.521 11.0897 77.5191 11.237C77.5276 11.3829 77.5251 11.5251 77.5116 11.6634C77.4494 12.1547 77.3177 12.676 77.1163 13.2274C76.9046 13.7802 76.6392 14.3242 76.3202 14.8594C76.2586 14.9515 76.2067 15.037 76.1645 15.116C76.1222 15.195 76.1011 15.2346 76.1011 15.2346C76.1025 15.2449 76.2257 15.3444 76.4709 15.5331C76.7043 15.7128 76.9903 15.933 77.3289 16.1936C77.9475 16.6698 78.3355 16.987 78.4926 17.1451C78.6614 17.3123 78.7559 17.4733 78.776 17.6282C78.7975 17.7935 78.7667 17.9603 78.6836 18.1287C78.6004 18.2971 78.4899 18.4165 78.352 18.487C78.2644 18.5404 78.1425 18.572 77.9862 18.5818C77.8402 18.5903 77.7233 18.5793 77.6352 18.5487C77.5912 18.5334 77.4415 18.4321 77.186 18.2448C76.9202 18.0587 76.6239 17.8399 76.297 17.5883C75.9715 17.3471 75.6869 17.1372 75.4431 16.9589C75.1993 16.7805 75.067 16.6926 75.0464 16.6953C75.0257 16.698 75.0019 16.7169 74.975 16.7519C74.9377 16.7883 74.9062 16.8291 74.8806 16.8745C74.8191 16.9665 74.7963 17.0745 74.8125 17.1985C74.8196 17.3341 74.8882 17.7401 75.0182 18.4165C75.098 18.8683 75.1453 19.151 75.16 19.2646C75.1632 19.3693 75.1508 19.4759 75.1229 19.5846C75.0707 19.749 74.9932 19.8798 74.8904 19.9773C74.7771 20.076 74.6327 20.1368 74.4571 20.1597C74.4275 20.174 74.3972 20.1832 74.3662 20.1873C74.3042 20.1953 74.2467 20.1976 74.1937 20.1939C74.1304 20.1917 74.0651 20.1739 73.9977 20.1407C73.8774 20.1038 73.7678 20.0288 73.6691 19.9156C73.582 19.8113 73.52 19.6986 73.4833 19.5773C73.4635 19.5064 73.4364 19.3786 73.4019 19.194C73.3687 19.0197 73.3301 18.8042 73.2862 18.5473C73.1907 18.0555 73.087 17.4597 72.9749 16.76C72.8615 16.0499 72.7455 15.3192 72.6267 14.5678C72.5241 13.9404 72.428 13.3227 72.3383 12.7146C72.2487 12.1065 72.1717 11.5545 72.1072 11.0587C72.0632 10.8018 72.0063 10.4048 71.9365 9.86761C71.8821 9.85367 71.7968 9.84376 71.6805 9.83788C71.5202 9.81672 71.3895 9.7812 71.2885 9.73132C71.1978 9.68009 71.1089 9.60237 71.0218 9.49815C70.932 9.37327 70.8784 9.24369 70.8609 9.1094C70.8488 9.01644 70.8522 8.92145 70.8711 8.82446C70.9125 8.57747 71.0401 8.38754 71.2539 8.25468C71.3029 8.22731 71.408 8.18737 71.5692 8.13488C71.7408 8.08105 71.9337 8.02969 72.1479 7.98081C72.2795 7.94268 72.4125 7.91488 72.5468 7.89741C72.6694 7.87096 72.7978 7.84899 72.9321 7.83153C72.9424 7.83018 72.9528 7.82884 72.9631 7.82749C73.5106 7.75627 74.0196 7.75307 74.4902 7.8179C74.9725 7.89171 75.4223 8.03804 75.8394 8.25689ZM73.9016 11.4082C74.0427 12.4928 74.1572 13.292 74.2451 13.8058C74.3316 14.3093 74.3955 14.5583 74.4368 14.553C74.4471 14.5516 74.4837 14.5101 74.5466 14.4284C74.5992 14.348 74.6601 14.2508 74.7293 14.1367C75.0254 13.6675 75.2609 13.2167 75.4357 12.7843C75.6106 12.3519 75.7209 11.9489 75.7669 11.5752C75.8006 11.3502 75.8048 11.1396 75.7792 10.9434C75.7617 10.8091 75.7339 10.6761 75.6958 10.5445C75.5845 10.2544 75.4018 10.0208 75.1477 9.84376C74.987 9.73862 74.7598 9.64738 74.4661 9.57003C74.1737 9.50302 73.9398 9.48094 73.7642 9.50378C73.7435 9.50647 73.7074 9.51117 73.6557 9.51789C73.7095 9.93108 73.7914 10.5612 73.9016 11.4082ZM82.4074 10.1756C82.8771 10.3141 83.2801 10.5453 83.6164 10.8692C83.9527 11.1931 84.2112 11.6059 84.392 12.1076C84.515 12.4067 84.5932 12.6854 84.6268 12.9437C84.6604 13.2019 84.6588 13.512 84.6218 13.874C84.5839 14.3096 84.5018 14.6879 84.3755 15.009C84.2582 15.3184 84.0731 15.6313 83.8201 15.9478C83.476 16.3708 83.0486 16.6785 82.5379 16.871C82.3277 16.9508 82.1238 16.9984 81.9262 17.0136C81.637 17.0512 81.3513 17.0358 81.0693 16.9675C80.667 16.8623 80.3035 16.6522 79.9789 16.3373C79.6543 16.0223 79.4057 15.645 79.2329 15.2053C79.1189 14.8945 79.0393 14.6055 78.994 14.3382C78.9927 14.3279 78.992 14.3227 78.992 14.3227C78.9571 14.0542 78.9523 13.7344 78.9775 13.3635C79.0028 12.9925 79.0489 12.6609 79.116 12.3686C79.1816 12.0659 79.2866 11.7423 79.4309 11.3979C79.6736 10.8411 79.8933 10.4712 80.0901 10.288C80.2212 10.1659 80.3746 10.0934 80.5502 10.0706C80.6432 10.0585 80.7427 10.056 80.8487 10.0633C80.903 10.0772 80.998 10.0806 81.1336 10.0735C81.2603 10.078 81.3921 10.0819 81.529 10.085C81.644 10.0806 81.7383 10.0788 81.812 10.0797C81.8843 10.0703 81.9528 10.0719 82.0174 10.0845C82.0807 10.0868 82.1396 10.0949 82.1939 10.1088C82.2586 10.1214 82.3298 10.1437 82.4074 10.1756ZM81.1889 11.831C81.109 11.8624 81.0277 12.0043 80.9449 12.2567C80.8622 12.509 80.7932 12.7859 80.7378 13.0872C80.7167 13.2475 80.7007 13.4072 80.6899 13.5661C80.6777 13.7148 80.679 13.8459 80.6938 13.9595C80.6991 14.0009 80.7038 14.037 80.7079 14.068C80.7684 14.5328 80.9238 14.8803 81.1744 15.1103C81.3625 15.2644 81.5598 15.328 81.7664 15.3011C81.8697 15.2877 81.9755 15.2529 82.0838 15.1968C82.3582 15.0456 82.5772 14.7912 82.7408 14.4338C82.9031 14.066 82.9645 13.6904 82.9251 13.3069C82.9224 13.2862 82.9197 13.2655 82.917 13.2449C82.8767 12.935 82.7823 12.6532 82.6337 12.3994C82.4618 12.1276 82.271 11.9528 82.0613 11.8751C82.0173 11.8598 81.9681 11.8452 81.9138 11.8312C81.8594 11.8173 81.8006 11.8092 81.7373 11.8069C81.6196 11.7907 81.5092 11.7893 81.4059 11.8028C81.3632 11.7978 81.3264 11.7974 81.2954 11.8014C81.2437 11.8081 81.2083 11.818 81.1889 11.831ZM97.3727 17.4149C97.1719 17.3254 97.0343 17.1963 96.9598 17.0274C96.8853 16.8585 96.836 16.5603 96.8119 16.1327C96.7637 15.2776 96.6944 14.4621 96.6039 13.686C96.5045 12.9216 96.4025 12.2993 96.298 11.8192C96.2335 11.565 96.1756 11.3625 96.1245 11.2115C96.063 11.062 96.0057 10.9854 95.9528 10.9818C95.8454 10.9642 95.6383 11.2695 95.3313 11.8977C95.0141 12.5272 94.7179 13.2381 94.4428 14.0302C94.1524 14.8663 93.918 15.4062 93.7396 15.65C93.5626 15.9042 93.3075 16.0424 92.9742 16.0647C92.7443 16.0737 92.5424 16.0159 92.3687 15.8914C92.1936 15.7566 92.0531 15.5648 91.9472 15.316C91.8399 15.0568 91.741 14.66 91.6505 14.1256C91.56 13.5911 91.4332 12.657 91.2702 11.3231C91.1958 10.671 91.1192 10.0822 91.0404 9.55672C90.9615 9.03126 90.8864 8.61559 90.8151 8.30974C90.7766 8.09416 90.7481 7.95605 90.7297 7.89542C90.701 7.83613 90.6725 7.81883 90.6442 7.84352C90.6172 7.87854 90.5349 8.21488 90.3973 8.85255C90.2596 9.49022 90.099 10.3147 89.9155 11.326C89.763 12.0917 89.6294 12.7603 89.5146 13.332C89.3999 13.9036 89.2906 14.3958 89.1868 14.8085C89.0019 15.5678 88.8257 16.1107 88.6581 16.4372C88.5008 16.7623 88.3062 17.0029 88.0745 17.1591C87.9482 17.2386 87.8135 17.2929 87.6702 17.322C87.5359 17.3395 87.3931 17.3318 87.2418 17.299C86.8188 17.1964 86.4531 16.8081 86.1448 16.1339C85.8365 15.4597 85.4889 14.2811 85.1019 12.5982C85.0346 12.3234 84.9534 11.982 84.8583 11.5742C84.7619 11.1561 84.6781 10.7941 84.6068 10.4882C84.4866 9.96814 84.4131 9.6048 84.3862 9.39821C84.3808 9.35689 84.3761 9.32074 84.3721 9.28975C84.3596 9.1128 84.4072 8.95429 84.515 8.81421C84.5946 8.69882 84.6878 8.6079 84.7947 8.54147C84.8926 8.48672 85.0197 8.45443 85.176 8.4446C85.3956 8.43704 85.5813 8.49166 85.7331 8.60848C85.8848 8.72529 85.991 8.89531 86.0515 9.11853C86.0699 9.17917 86.1253 9.40306 86.2177 9.79021C86.3101 10.1774 86.4085 10.611 86.513 11.0911C86.8179 12.3855 87.0357 13.2921 87.1662 13.8108C87.307 14.3282 87.3981 14.5842 87.4394 14.5789C87.4717 14.5852 87.534 14.3775 87.6262 13.9558C87.7184 13.5341 87.8734 12.7472 88.0911 11.5948C88.3404 10.2809 88.532 9.33156 88.666 8.74688C88.7884 8.15322 88.9042 7.67071 89.0135 7.29935C89.1645 6.76497 89.3201 6.34557 89.48 6.04114C89.6297 5.73805 89.8094 5.50458 90.0192 5.34073C90.1247 5.26397 90.2072 5.21123 90.2665 5.18251C90.3271 5.16412 90.4142 5.14753 90.5279 5.13275C90.5382 5.1314 90.5485 5.13006 90.5588 5.12872C91.2006 5.05573 91.6923 5.44346 92.0337 6.29192C92.3855 7.13902 92.6944 8.70602 92.9604 10.9929C93.0317 11.5404 93.0787 11.9019 93.1015 12.0775C93.1347 12.2518 93.1616 12.3376 93.1823 12.3349C93.1926 12.3335 93.2272 12.2765 93.2861 12.1638C93.345 12.0511 93.4063 11.9171 93.4701 11.7617C93.7357 11.1389 94.02 10.6187 94.3228 10.2012C94.6256 9.78359 94.9336 9.48617 95.2467 9.30888C95.3832 9.22809 95.4921 9.17716 95.5734 9.15608C95.6547 9.135 95.789 9.11753 95.9763 9.10367C96.1649 9.10014 96.2967 9.104 96.3717 9.11525C96.4467 9.12651 96.5406 9.16157 96.6533 9.22044C97.0003 9.38537 97.2841 9.66884 97.5045 10.0709C97.7365 10.4819 97.9276 11.103 98.0778 11.9343C98.1414 12.2622 98.1995 12.6276 98.2519 13.0304C98.2707 13.175 98.2902 13.3248 98.3103 13.4798C98.3753 14.0596 98.4361 14.7292 98.4929 15.4886C98.5421 16.0284 98.5665 16.3772 98.566 16.5348C98.5758 16.6911 98.5654 16.8132 98.5349 16.9013C98.4877 17.0229 98.4364 17.1136 98.3812 17.1734C98.3273 17.2434 98.2469 17.3116 98.1399 17.3781C98.051 17.4211 97.9549 17.4494 97.8516 17.4628C97.8206 17.4669 97.7948 17.4702 97.7741 17.4729C97.6282 17.4814 97.4943 17.462 97.3727 17.4149ZM99.5357 15.5105C99.366 15.4171 99.2517 15.3059 99.1929 15.177C99.1341 15.048 99.0772 14.7718 99.0221 14.3483C98.9992 14.1727 98.9703 13.9506 98.9354 13.6821C98.9076 13.5491 98.8843 13.4103 98.8655 13.2657C98.8453 13.1108 98.8297 12.95 98.8185 12.7834C98.7432 12.2049 98.6646 11.6006 98.5827 10.9705C98.5124 10.3494 98.4544 9.86324 98.4087 9.51204C98.3921 9.3041 98.3702 9.05485 98.3429 8.76427C98.3169 8.48403 98.2948 8.19278 98.2765 7.89054C98.2246 7.33005 98.187 6.79921 98.1639 6.29801C98.1317 5.80849 98.1212 5.52623 98.1325 5.45123C98.1496 5.25992 98.2548 5.09918 98.4479 4.96901C98.5714 4.8689 98.7055 4.80944 98.8501 4.79063C98.9018 4.78391 98.9593 4.78168 99.0226 4.78395C99.1609 4.79747 99.2929 4.84332 99.4186 4.92151C99.534 5.00104 99.6205 5.10009 99.6779 5.21867C99.7313 5.30626 99.7708 5.44819 99.7963 5.64445C99.8232 5.85104 99.8677 6.35472 99.9299 7.15547C99.9916 7.87225 100.054 8.5522 100.116 9.19532C100.179 9.83845 100.263 10.5629 100.368 11.3686C100.414 11.8038 100.47 12.2744 100.536 12.7806C100.603 13.2971 100.682 13.8645 100.773 14.483C100.801 14.6999 100.793 14.8795 100.748 15.0219C100.695 15.1759 100.607 15.3081 100.485 15.4185C100.37 15.507 100.231 15.5671 100.067 15.5989C100.057 15.6003 100.041 15.6023 100.021 15.605C99.8437 15.6175 99.6821 15.586 99.5357 15.5105ZM104.933 15.4544C104.668 15.4363 104.427 15.3994 104.209 15.3437C103.993 15.2982 103.844 15.2389 103.761 15.1657C103.574 15.0219 103.461 14.8422 103.423 14.6267C103.393 14.3994 103.445 14.1931 103.579 14.0076C103.705 13.8442 103.833 13.7383 103.963 13.6898C104.105 13.6503 104.325 13.6479 104.624 13.6826C104.986 13.7196 105.269 13.7143 105.472 13.6667C105.687 13.6178 105.877 13.509 106.044 13.3402C106.147 13.2428 106.204 13.1566 106.216 13.0816C106.237 13.0052 106.217 12.9291 106.154 12.8532C106.062 12.7077 105.883 12.5839 105.618 12.4818C105.342 12.3812 104.918 12.2735 104.347 12.1587C103.462 11.9797 102.772 11.7596 102.275 11.4986C101.788 11.2258 101.388 10.8576 101.076 10.3941C100.813 9.98709 100.649 9.53569 100.585 9.03987C100.577 8.97789 100.569 8.92108 100.563 8.86943C100.521 8.3076 100.608 7.72897 100.825 7.13354C101.056 6.48378 101.428 5.87336 101.942 5.30229C102.446 4.73255 103 4.30857 103.604 4.03033C104.001 3.85263 104.396 3.73824 104.789 3.68717C104.799 3.68583 104.809 3.68449 104.82 3.68314C105.223 3.63073 105.655 3.64794 106.118 3.73477C106.387 3.78381 106.591 3.85192 106.728 3.93909C106.876 4.02492 106.98 4.14262 107.042 4.29218C107.088 4.40178 107.115 4.49273 107.125 4.56504C107.126 4.57537 107.127 4.5857 107.129 4.59603C107.128 4.66968 107.104 4.77251 107.058 4.90453C106.976 5.15689 106.84 5.32167 106.65 5.39885C106.462 5.48636 106.201 5.49929 105.867 5.43766C105.598 5.38861 105.36 5.37237 105.152 5.38891C104.943 5.39513 104.738 5.4375 104.538 5.51603C104.238 5.62865 103.95 5.79741 103.674 6.02232C103.399 6.24722 103.146 6.52176 102.915 6.84592C102.684 7.17009 102.512 7.50237 102.399 7.84274C102.296 8.18177 102.264 8.50107 102.303 8.80063C102.333 9.03821 102.39 9.23044 102.472 9.37732C102.553 9.51387 102.693 9.65853 102.891 9.81129C103.101 9.97303 103.316 10.0921 103.536 10.1685C103.746 10.2463 104.131 10.3432 104.693 10.4593C105.179 10.5641 105.57 10.6603 105.865 10.748C106.16 10.8356 106.415 10.939 106.63 11.0581C107.059 11.2859 107.39 11.5737 107.625 11.9214C107.86 12.2794 107.972 12.6535 107.96 13.0438C107.933 13.73 107.615 14.3123 107.005 14.7909C106.557 15.1433 106.065 15.3544 105.528 15.4243C105.342 15.4485 105.144 15.4585 104.933 15.4544ZM109.946 14.6288C109.635 14.5748 109.361 14.4477 109.125 14.2473C108.89 14.0572 108.688 13.7947 108.518 13.4596C108.365 13.1748 108.256 12.9002 108.19 12.6356C108.137 12.3904 108.065 11.9166 107.974 11.2142C107.97 11.1832 107.966 11.1522 107.962 11.1212C107.89 10.5737 107.842 10.1599 107.816 9.87963C107.791 9.60971 107.774 9.14983 107.763 8.49999C107.767 8.28937 107.766 8.04259 107.761 7.75966C107.755 7.47673 107.75 7.15181 107.744 6.78489C107.741 6.43864 107.738 5.92959 107.735 5.25774C107.688 5.2218 107.624 5.17754 107.544 5.12497C107.291 4.95827 107.152 4.7348 107.126 4.45456C107.109 4.16264 107.209 3.91859 107.425 3.72241C107.51 3.64834 107.83 3.52786 108.386 3.36099C108.941 3.18378 109.615 2.99629 110.408 2.7985C110.765 2.71015 111.025 2.65522 111.191 2.63372C111.232 2.62835 111.263 2.62431 111.284 2.62163C111.43 2.61314 111.577 2.65698 111.726 2.75313C111.818 2.81469 111.903 2.90342 111.981 3.01931C112.061 3.14553 112.107 3.25512 112.119 3.34809C112.136 3.48238 112.108 3.63304 112.036 3.80008C111.962 3.95679 111.862 4.08003 111.737 4.16981C111.709 4.1945 111.593 4.23578 111.391 4.29364C111.179 4.36318 110.946 4.43024 110.692 4.49483C110.032 4.66481 109.662 4.77067 109.583 4.81241C109.503 4.84382 109.462 4.93318 109.461 5.08048C109.455 5.28078 109.453 5.50689 109.454 5.75884C109.454 6.00045 109.455 6.25239 109.458 6.51466C109.467 6.98622 109.475 7.41061 109.482 7.78785C109.499 8.16375 109.513 8.35103 109.523 8.34969C109.534 8.34834 109.574 8.33264 109.643 8.30257C109.723 8.27116 109.812 8.22808 109.91 8.17332C110.22 8.04902 110.464 7.98578 110.642 7.9836C110.83 7.98007 111.001 8.04188 111.154 8.16902C111.331 8.31414 111.429 8.50616 111.45 8.74508C111.48 8.97234 111.417 9.18002 111.263 9.36814C111.218 9.42651 111.136 9.48441 111.018 9.54186C110.901 9.60963 110.723 9.70096 110.486 9.81585C110.098 9.98189 109.851 10.0981 109.744 10.1645C109.638 10.2413 109.579 10.312 109.567 10.3767C109.557 10.462 109.576 10.6906 109.624 11.0625C109.683 11.433 109.737 11.7254 109.786 11.9396C109.846 12.1628 109.909 12.3596 109.973 12.5298C110.037 12.7 110.099 12.8128 110.159 12.868C110.218 12.9233 110.309 12.9377 110.432 12.9112C110.565 12.8834 110.724 12.8103 110.908 12.6918C111.12 12.5486 111.338 12.3627 111.56 12.1342C111.784 11.916 112.044 11.6143 112.34 11.2291C112.629 10.8659 112.835 10.6342 112.959 10.5341C113.084 10.4443 113.246 10.4022 113.447 10.4076C113.542 10.4162 113.617 10.4274 113.672 10.4414C113.738 10.4643 113.812 10.5124 113.895 10.5856C114.059 10.7114 114.167 10.8601 114.221 11.0317C114.237 11.0717 114.248 11.1175 114.255 11.1691C114.271 11.2931 114.257 11.4262 114.212 11.5686C114.188 11.6242 114.095 11.7571 113.933 11.9673C113.773 12.1877 113.597 12.4102 113.406 12.6347C113.278 12.7878 113.156 12.935 113.038 13.0765C112.918 13.2076 112.822 13.3146 112.749 13.3977C112.255 13.8821 111.769 14.2289 111.292 14.438C111.044 14.5439 110.8 14.6123 110.563 14.6432C110.356 14.6701 110.151 14.6653 109.946 14.6288ZM45.9 40.7029C45.7783 40.6557 45.6694 40.5859 45.5733 40.4933C45.4759 40.3904 45.4147 40.2829 45.3895 40.1706C45.3725 40.1203 45.3485 39.9763 45.3176 39.7387C45.2867 39.5012 45.2524 39.2378 45.2148 38.9485C45.1875 38.658 45.1414 38.2228 45.0765 37.643C45.0115 37.0632 44.9455 36.515 44.8783 35.9985C44.8098 35.4717 44.7444 34.9287 44.6821 34.3696C44.6199 33.8105 44.572 33.4018 44.5384 33.1435C44.5165 32.8943 44.4876 32.6722 44.4517 32.4773C44.4275 32.2913 44.4096 32.1939 44.3979 32.1849C44.3966 32.1746 44.2764 32.1797 44.0375 32.2003C43.7999 32.2312 43.6353 32.2578 43.5437 32.2803C43.2558 32.3282 43.029 32.321 42.8633 32.2585C42.6873 32.1973 42.5504 32.0733 42.4525 31.8865C42.3964 31.7782 42.3617 31.6725 42.3482 31.5692C42.3335 31.4555 42.34 31.3444 42.3679 31.2357C42.4236 31.0184 42.5443 30.8556 42.7298 30.7475C42.7684 30.7214 42.962 30.6752 43.3105 30.6089C43.659 30.5425 43.9507 30.4836 44.1856 30.432C44.7807 30.3231 45.2983 30.2242 45.7385 30.1354C46.1903 30.0557 46.7252 29.9283 47.3432 29.7534C47.8193 29.6179 48.129 29.5356 48.2723 29.5064C48.3032 29.5024 48.3342 29.4984 48.3652 29.4943C48.4582 29.4823 48.5422 29.4818 48.6172 29.4931C48.8022 29.5425 48.9564 29.638 49.0799 29.7795C49.1786 29.8927 49.2388 30.032 49.2603 30.1973C49.2643 30.2282 49.2683 30.2592 49.2724 30.2902C49.2849 30.4672 49.2572 30.6178 49.1893 30.7422C49.1228 30.8769 49.0213 30.9847 48.8847 31.0655C48.8165 31.1058 48.5539 31.1873 48.0972 31.3097C47.6404 31.4322 47.1985 31.5474 46.7713 31.6555C46.6177 31.686 46.4855 31.719 46.3745 31.7544C46.2636 31.7899 46.1985 31.8141 46.1791 31.8271C46.1522 31.8621 46.1593 32.1186 46.2004 32.5964C46.2519 33.0729 46.3659 34.0298 46.5424 35.4669C46.6221 36.1603 46.6942 36.755 46.7587 37.2508C46.8115 37.7376 46.8601 38.1515 46.9044 38.4924C46.9962 39.2788 47.0406 39.7404 47.0374 39.8774C47.0355 40.0247 47.0148 40.1482 46.9753 40.2479C46.8872 40.4589 46.7387 40.6096 46.5298 40.6998C46.4499 40.7312 46.3738 40.7516 46.3015 40.761C46.1672 40.7785 46.0333 40.7591 45.9 40.7029ZM54.0971 32.0103C54.5668 32.1488 54.9698 32.38 55.306 32.7039C55.6423 33.0278 55.9008 33.4406 56.0816 33.9423C56.2046 34.2414 56.2829 34.5201 56.3165 34.7784C56.3501 35.0366 56.3484 35.3467 56.3114 35.7087C56.2736 36.1443 56.1915 36.5226 56.0652 36.8437C55.9479 37.153 55.7627 37.466 55.5098 37.7825C55.1656 38.2055 54.7382 38.5132 54.2275 38.7057C54.0173 38.7855 53.8134 38.8331 53.6158 38.8483C53.3266 38.8859 53.041 38.8705 52.759 38.8022C52.3566 38.697 51.9931 38.4869 51.6685 38.172C51.344 37.857 51.0953 37.4797 50.9225 37.04C50.8086 36.7292 50.729 36.4402 50.6837 36.1729C50.6823 36.1626 50.6817 36.1574 50.6817 36.1574C50.6467 35.8889 50.6419 35.5691 50.6672 35.1982C50.6924 34.8272 50.7386 34.4956 50.8056 34.2032C50.8713 33.9006 50.9762 33.577 51.1205 33.2326C51.3632 32.6758 51.5829 32.3059 51.7797 32.1227C51.9109 32.0006 52.0643 31.9281 52.2399 31.9053C52.3328 31.8932 52.4323 31.8907 52.5383 31.898C52.5926 31.9119 52.6876 31.9153 52.8232 31.9082C52.9499 31.9127 53.0817 31.9165 53.2187 31.9197C53.3336 31.9153 53.428 31.9135 53.5016 31.9144C53.5739 31.905 53.6424 31.9066 53.7071 31.9192C53.7704 31.9215 53.8292 31.9296 53.8835 31.9435C53.9482 31.9561 54.0194 31.9784 54.0971 32.0103ZM52.8786 33.6657C52.7986 33.6971 52.7173 33.839 52.6346 34.0914C52.5519 34.3437 52.4828 34.6206 52.4275 34.9219C52.4063 35.0822 52.3903 35.2419 52.3795 35.4008C52.3673 35.5495 52.3686 35.6806 52.3834 35.7942C52.3888 35.8356 52.3935 35.8717 52.3975 35.9027C52.458 36.3675 52.6135 36.715 52.864 36.945C53.0521 37.0991 53.2495 37.1627 53.4561 37.1358C53.5594 37.1224 53.6651 37.0876 53.7734 37.0315C54.0478 36.8803 54.2669 36.6259 54.4304 36.2685C54.5927 35.9007 54.6541 35.5251 54.6147 35.1416C54.612 35.1209 54.6093 35.1002 54.6067 35.0796C54.5663 34.7697 54.4719 34.4879 54.3233 34.2341C54.1514 33.9623 53.9606 33.7875 53.7509 33.7098C53.7069 33.6945 53.6577 33.6799 53.6034 33.6659C53.5491 33.652 53.4902 33.6439 53.4269 33.6416C53.3093 33.6254 53.1988 33.624 53.0955 33.6375C53.0528 33.6325 53.016 33.6321 52.985 33.6361C52.9334 33.6428 52.8979 33.6527 52.8786 33.6657ZM63.7297 39.4391C63.5757 39.3856 63.4493 39.3022 63.3505 39.189C63.2607 39.0641 63.2051 38.9191 63.1836 38.7538C63.1688 38.6402 63.1785 38.5129 63.2127 38.3719C63.2469 38.2309 63.3435 37.9242 63.5027 37.4518C63.7584 36.6727 63.9416 36.1026 64.0522 35.7416C64.1525 35.3819 64.1955 35.1872 64.1811 35.1576C64.1798 35.1472 64.1239 35.081 64.0134 34.9588C63.9043 34.8469 63.7771 34.7164 63.6316 34.5673C63.0134 33.9334 62.4586 33.3018 61.967 32.6724C61.4755 32.0431 60.9893 31.3342 60.5086 30.5459C60.3223 30.2445 60.2095 30.0229 60.17 29.8809C60.1543 29.841 60.1444 29.8055 60.1404 29.7745C60.1359 29.6595 60.1521 29.5419 60.189 29.4215C60.2897 29.1458 60.4761 28.964 60.7483 28.8761C61.0322 28.7971 61.2908 28.8475 61.5243 29.0272C61.5593 29.0542 61.6347 29.1494 61.7505 29.3129C61.8664 29.4764 61.9849 29.6606 62.106 29.8654C62.2362 30.0586 62.3924 30.2904 62.5747 30.5608C62.7569 30.8312 62.9124 31.0578 63.0413 31.2406C63.1414 31.3642 63.2487 31.5025 63.3631 31.6557C63.4879 31.8075 63.6127 31.9594 63.7375 32.1112C63.9741 32.3956 64.1963 32.6503 64.4042 32.8753C64.6004 33.0914 64.7146 33.2026 64.7469 33.2089C64.7779 33.2049 64.8723 32.9615 65.0301 32.4788C65.1762 31.9871 65.3489 31.3764 65.5481 30.6466C65.6547 30.2546 65.7637 29.8413 65.8752 29.4066C65.9764 28.9732 66.0821 28.5341 66.1923 28.089C66.3276 27.5147 66.4324 27.1492 66.5066 26.9925C66.5704 26.8371 66.6861 26.717 66.8536 26.6322C66.9412 26.5788 67.0366 26.5453 67.1399 26.5319C67.2949 26.5117 67.4572 26.5484 67.6269 26.6419C67.8964 26.7749 68.0499 26.986 68.0875 27.2752C68.1036 27.3992 68.0447 27.7535 67.9106 28.3382C67.7766 28.9229 67.5967 29.6396 67.371 30.4883C67.2519 30.945 67.1206 31.4295 66.9771 31.9419C66.8337 32.4542 66.6806 32.9731 66.5178 33.4985C66.2778 34.3176 66.0332 35.1425 65.7841 35.9732C65.5233 36.795 65.272 37.5682 65.0302 38.293C64.9093 38.6554 64.8245 38.8922 64.776 39.0036C64.7274 39.1149 64.6652 39.2018 64.5893 39.2642C64.4671 39.3747 64.3292 39.4451 64.1756 39.4756C64.155 39.4783 64.1343 39.481 64.1136 39.4837C63.9794 39.5011 63.8514 39.4863 63.7297 39.4391ZM72.9848 29.5531C73.4545 29.6916 73.8575 29.9228 74.1937 30.2467C74.53 30.5706 74.7885 30.9834 74.9694 31.4851C75.0923 31.7842 75.1706 32.0629 75.2042 32.3212C75.2378 32.5794 75.2361 32.8895 75.1992 33.2515C75.1613 33.6871 75.0792 34.0654 74.9529 34.3865C74.8356 34.6959 74.6504 35.0088 74.3975 35.3254C74.0533 35.7483 73.6259 36.056 73.1152 36.2485C72.905 36.3284 72.7011 36.3759 72.5035 36.3911C72.2143 36.4287 71.9287 36.4134 71.6467 36.345C71.2443 36.2398 70.8809 36.0297 70.5563 35.7148C70.2317 35.3999 69.983 35.0225 69.8102 34.5828C69.6963 34.272 69.6167 33.983 69.5714 33.7158C69.5701 33.7054 69.5694 33.7003 69.5694 33.7003C69.5344 33.4317 69.5296 33.1119 69.5549 32.741C69.5802 32.37 69.6263 32.0384 69.6933 31.7461C69.759 31.4434 69.864 31.1199 70.0082 30.7755C70.2509 30.2187 70.4707 29.8487 70.6674 29.6655C70.7986 29.5434 70.952 29.4709 71.1276 29.4481C71.2206 29.436 71.32 29.4335 71.426 29.4408C71.4803 29.4547 71.5753 29.4581 71.711 29.451C71.8376 29.4555 71.9694 29.4594 72.1064 29.4626C72.2214 29.4581 72.3157 29.4563 72.3893 29.4573C72.4616 29.4479 72.5301 29.4494 72.5948 29.462C72.6581 29.4643 72.7169 29.4724 72.7713 29.4864C72.8359 29.499 72.9071 29.5212 72.9848 29.5531ZM71.7663 31.2085C71.6863 31.2399 71.605 31.3818 71.5223 31.6342C71.4396 31.8865 71.3705 32.1634 71.3152 32.4647C71.294 32.625 71.278 32.7847 71.2672 32.9437C71.255 33.0923 71.2563 33.2234 71.2711 33.3371C71.2765 33.3784 71.2812 33.4145 71.2852 33.4455C71.3457 33.9104 71.5012 34.2578 71.7517 34.4878C71.9398 34.6419 72.1372 34.7055 72.3438 34.6786C72.4471 34.6652 72.5528 34.6304 72.6611 34.5743C72.9355 34.4231 73.1546 34.1687 73.3182 33.8113C73.4804 33.4436 73.5418 33.0679 73.5024 32.6844C73.4998 32.6637 73.4971 32.6431 73.4944 32.6224C73.4541 32.3125 73.3596 32.0307 73.2111 31.7769C73.0391 31.5051 72.8483 31.3304 72.6386 31.2526C72.5946 31.2373 72.5455 31.2227 72.4911 31.2088C72.4368 31.1948 72.378 31.1867 72.3146 31.1845C72.197 31.1682 72.0865 31.1669 71.9832 31.1803C71.9405 31.1753 71.9037 31.1749 71.8727 31.1789C71.8211 31.1856 71.7856 31.1955 71.7663 31.2085ZM81.9912 36.1652C81.9045 36.145 81.8086 36.0944 81.7036 36.0136C81.6102 35.9417 81.5323 35.8678 81.4699 35.7919C81.4425 35.7429 81.4084 35.6423 81.3676 35.49C81.3268 35.3378 81.2811 35.1074 81.2304 34.7988C81.1493 34.3367 81.0883 34.0295 81.0475 33.8772C81.017 33.7236 80.9863 33.6488 80.9553 33.6529C80.945 33.6542 80.9245 33.6989 80.8939 33.7869C80.8517 33.8659 80.8115 33.9605 80.7733 34.0705C80.6609 34.3372 80.5452 34.5781 80.4261 34.7932C80.2967 35.0096 80.1453 35.2184 79.9718 35.4195C79.7279 35.7244 79.4628 35.9479 79.1767 36.0902C78.8803 36.2338 78.5827 36.2883 78.2841 36.2536C77.5382 36.172 76.9256 35.6215 76.4463 34.6019C75.958 33.5939 75.5528 32.0132 75.2306 29.8597C75.1746 29.5098 75.1291 29.2006 75.0942 28.9321C75.0901 28.9011 75.0868 28.8752 75.0841 28.8546C75.0465 28.5654 75.0301 28.3994 75.0351 28.3567C75.045 28.2714 75.0942 28.1652 75.1827 28.0382C75.2712 27.9111 75.3599 27.826 75.4489 27.7829C75.5455 27.7179 75.6564 27.6824 75.7817 27.6766C75.9057 27.6605 76.0226 27.6715 76.1327 27.7097C76.363 27.7848 76.5148 27.9016 76.5879 28.0602C76.6624 28.2291 76.753 28.6427 76.8597 29.3011C77.025 30.3301 77.181 31.1659 77.3277 31.8086C77.473 32.4409 77.6463 33.0066 77.8478 33.5057C77.9434 33.7558 78.0453 33.9737 78.1534 34.1592C78.2603 34.3344 78.3474 34.4386 78.4147 34.4718C78.4704 34.4961 78.54 34.466 78.6236 34.3816C78.7175 34.2959 78.815 34.1572 78.9161 33.9654C79.2657 33.3422 79.5314 32.4778 79.7132 31.3722C79.8833 30.2576 79.9801 28.8216 80.0036 27.0643C80.0015 26.6444 80.0131 26.3698 80.0382 26.2405C80.0648 26.1215 80.1281 26.0029 80.2283 25.8849C80.3105 25.7901 80.4065 25.7199 80.516 25.6741C80.5857 25.6441 80.6566 25.6243 80.7289 25.6149C80.7909 25.6068 80.8477 25.5995 80.8994 25.5927C81.0157 25.5986 81.1185 25.622 81.2079 25.6629C81.2986 25.7141 81.4036 25.795 81.5231 25.9055C81.5581 25.9325 81.612 25.9832 81.6847 26.0578C81.8012 26.8725 81.9708 28.0952 82.1934 29.726C82.3395 30.7679 82.4754 31.7324 82.6013 32.6194C82.7376 33.505 82.8283 34.0815 82.8736 34.3487C82.9386 34.6869 82.9825 34.9438 83.0054 35.1194C83.0175 35.2124 83.0269 35.2847 83.0336 35.3363C83.0344 35.5043 82.9957 35.6511 82.9176 35.7769C82.8317 35.9246 82.6992 36.0364 82.52 36.1122C82.4297 36.1449 82.3484 36.166 82.2761 36.1754C82.1728 36.1889 82.0778 36.1855 81.9912 36.1652ZM84.5665 36.0981C84.3685 36.0293 84.2181 35.9228 84.1153 35.7786C84.0228 35.6331 83.9585 35.4208 83.9222 35.1419C83.9222 35.1419 83.9215 35.1368 83.9202 35.1264C83.9013 34.9818 83.8931 34.8779 83.8953 34.8145C83.8976 34.7512 83.9244 34.6742 83.9756 34.5835C84.092 34.3478 84.2934 34.2008 84.58 34.1425C84.611 34.1384 84.642 34.1344 84.673 34.1304C84.9105 34.0995 85.1227 34.1559 85.3095 34.2997C85.4392 34.4089 85.5443 34.6105 85.6245 34.9047C85.6456 34.986 85.6615 35.068 85.6723 35.1506C85.6951 35.3262 85.683 35.4749 85.6358 35.5966C85.5656 35.7842 85.4172 35.9349 85.1903 36.0484C85.0807 36.0942 84.9795 36.1231 84.8865 36.1352C84.7729 36.15 84.6662 36.1376 84.5665 36.0981Z" fill="#229EFF"/>
<path d="M32.3267 31.6087C32.7156 32.1331 33.4559 32.243 33.9803 31.8541C34.5047 31.4653 34.6147 30.725 34.2258 30.2006L32.3267 31.6087ZM0.204839 28.8636C0.186031 29.5161 0.699798 30.0604 1.35237 30.0792L11.9866 30.3857C12.6392 30.4045 13.1835 29.8907 13.2023 29.2382C13.2211 28.5856 12.7073 28.0413 12.0547 28.0225L2.60206 27.7501L2.8745 18.2974C2.89331 17.6448 2.37954 17.1006 1.72697 17.0818C1.0744 17.063 0.53014 17.5767 0.511332 18.2293L0.204839 28.8636ZM34.2258 30.2006C31.7766 26.8973 27.1678 22.8153 21.2331 21.3287C15.2049 19.8186 7.99345 21.0352 0.574998 28.038L2.19785 29.7572C9.08676 23.2543 15.486 22.3262 20.6587 23.6219C25.925 24.9412 30.1074 28.6155 32.3267 31.6087L34.2258 30.2006Z" fill="#229EFF"/>
</svg>
