<svg width="25" height="25" viewBox="0 0 25 25" fill="none" xmlns="http://www.w3.org/2000/svg">
<path d="M16.5 8.74537V16C16.5 19.5899 13.5899 22.5 10 22.5C6.41015 22.5 3.5 19.5899 3.5 16C3.5 12.4101 6.41015 9.5 10 9.5C10.5163 9.5 11.0185 9.56019 11.5 9.67393V12.8368C11.0454 12.6208 10.5368 12.5 10 12.5C8.067 12.5 6.5 14.067 6.5 16C6.5 17.933 8.067 19.5 10 19.5C11.933 19.5 13.5 17.933 13.5 16V2.5H16.5C16.5 5.26142 18.7386 7.5 21.5 7.5V10.5C19.6081 10.5 17.8696 9.84328 16.5 8.74537Z" fill="#484848"/>
</svg>
