<svg width="41" height="41" viewBox="0 0 41 41" fill="none" xmlns="http://www.w3.org/2000/svg">
<rect x="0.5" y="0.200195" width="40" height="40" rx="20" fill="#FFBE00"/>
<path d="M22.4199 22.5362V30.2842H12.4199C12.4199 25.8659 16.0016 22.2842 20.4199 22.2842C21.1105 22.2842 21.7807 22.3717 22.4199 22.5362ZM20.4199 21.2842C17.1049 21.2842 14.4199 18.5992 14.4199 15.2842C14.4199 11.9692 17.1049 9.28418 20.4199 9.28418C23.7349 9.28418 26.4199 11.9692 26.4199 15.2842C26.4199 18.5992 23.7349 21.2842 20.4199 21.2842ZM26.4199 25.2842V21.7842L31.4199 26.2842L26.4199 30.7842V27.2842H23.4199V25.2842H26.4199Z" fill="white"/>
</svg>
